<svg width="16" height="16" fill="none" xmlns="http://www.w3.org/2000/svg"><path fill-rule="evenodd" clip-rule="evenodd" d="M7.999 0L.229 6.858a.663.663 0 00-.065.924c.234.274.64.303.91.065l.286-.252v6.44C1.36 15.12 2.226 16 3.294 16h3.61v-5.274c0-.633.504-1.146 1.127-1.146s1.128.513 1.128 1.146V16h3.545c1.068 0 1.934-.88 1.934-1.965v-6.44l.286.252a.637.637 0 00.91-.065.662.662 0 00-.065-.924L8 0zm5.35 14.035a.65.65 0 01-.645.655h-2.256v-3.964c0-1.356-1.082-2.456-2.417-2.456-1.335 0-2.417 1.1-2.417 2.456v3.964h-2.32a.65.65 0 01-.645-.655V6.457L8 1.735l5.35 4.722v7.578z" fill="#727272"/></svg>