<svg width="20" height="20" fill="none"><path fill-rule="evenodd" clip-rule="evenodd" d="M17.895 5.261a.833.833 0 00-.387 1.114c.548 1.13.825 2.35.825 3.624 0 4.595-3.738 8.333-8.333 8.333-4.595 0-8.333-3.738-8.333-8.333 0-4.595 3.738-8.333 8.333-8.333 1.904 0 3.693.622 5.173 1.797A.832.832 0 1016.21 2.16 10.017 10.017 0 0010 0C4.486 0 0 4.486 0 10s4.486 10 10 10 10-4.486 10-10a9.9 9.9 0 00-.992-4.35.833.833 0 00-1.113-.388zM10 3.331a.834.834 0 00-.833.835v5.833c0 .46.373.833.833.833h4.167a.834.834 0 000-1.666h-3.334v-5A.834.834 0 0010 3.332z" fill="#8D8D8D"/></svg>