<svg width="60" height="60" fill="none"><g clip-path="url(#clip0_0_1391)" fill-rule="evenodd" clip-rule="evenodd"><path d="M0 0h60v60H0V0z" fill="#34C3FF"/><path d="M42 20.438l-1.45-.107-.122 1.685a12.275 12.275 0 00-9.07-4.018c-6.814 0-12.358 5.608-12.358 12.5 0 6.894 5.544 12.5 12.358 12.5 4.12 0 7.958-2.072 10.265-5.545l-1.207-.82c-2.037 3.065-5.422 4.895-9.058 4.895-6.012 0-10.904-4.948-10.904-11.03 0-6.08 4.892-11.028 10.904-11.028 3.092 0 6.003 1.325 8.057 3.607l-1.85-.137-.106 1.467 4.233.312.308-4.281zM23.067 30.776c.147.072.553.244.947.244.356 0 .608-.105.608-.366 0-.266-.301-.41-.624-.41h-.46v-.737h.443c.241 0 .554-.078.554-.31 0-.172-.176-.288-.51-.288-.345 0-.717.155-.86.233l-.219-.744c.252-.154.75-.298 1.31-.298.821 0 1.33.387 1.33.925 0 .388-.213.687-.695.842v.01c.444.056.816.378.816.843 0 .704-.657 1.114-1.61 1.114-.549 0-1.003-.133-1.244-.288l.213-.77zm3.122-.81c0 .987.427 1.868 1.495 1.868h.006c1.074 0 1.5-.88 1.5-1.867 0-.981-.426-1.867-1.5-1.867s-1.501.886-1.501 1.867zm1.972 0c0 .765-.186 1.114-.466 1.114h-.005c-.285 0-.471-.349-.471-1.113 0-.765.186-1.108.47-1.108.286 0 .472.343.472 1.108zM32.176 28c-.476 0-.942.028-1.298.083v3.663c.203.033.548.066 1.096.066.777 0 1.462-.15 1.917-.498.361-.278.68-.749.68-1.524 0-.682-.302-1.136-.735-1.413-.405-.26-.882-.377-1.66-.377zm-.022 3.009c-.076 0-.18 0-.24-.012V28.82c.054-.011.17-.028.36-.028.67 0 1.19.31 1.19 1.053 0 .815-.554 1.175-1.31 1.164zm5.527.758a3.9 3.9 0 01-.043-.675v-.915c0-.73-.395-1.202-1.32-1.202-.603 0-1.003.16-1.178.255l.18.654c.176-.1.515-.216.817-.216.405 0 .47.122.47.221v.017c-1.018 0-1.665.338-1.665 1.07 0 .443.351.858.943.858.306 0 .591-.077.788-.299h.022l.055.232h.931zm-1.714-.892c0-.221.219-.337.674-.337v.149c0 .05 0 .105-.011.15a.4.4 0 01-.367.283c-.192 0-.296-.09-.296-.245zm3.473-.653l-.356-1.18h-1.156l1.057 2.471a.366.366 0 01.044.16c0 .04-.022.09-.055.128a.912.912 0 01-.35.244 1.33 1.33 0 01-.335.078l.192.875c.29-.022.641-.11.97-.382.296-.244.591-.638 1.09-2.018l.57-1.557h-1.129l-.268 1.18-.036.165c-.026.12-.054.25-.08.345h-.021c-.02-.068-.044-.16-.069-.255a15.04 15.04 0 00-.068-.254z" fill="#fff"/></g><defs><clipPath id="clip0_0_1391"><path fill="#fff" d="M0 0h60v60H0z"/></clipPath></defs></svg>