<svg width="16" height="16" fill="none" xmlns="http://www.w3.org/2000/svg"><path fill-rule="evenodd" clip-rule="evenodd" d="M14.125 1.25h-.75V0h-1.25v1.25h-8.25V0h-1.25v1.25h-.75A1.877 1.877 0 000 3.123v11C0 15.158.84 16 1.875 16h12.25A1.877 1.877 0 0016 14.124v-11a1.877 1.877 0 00-1.875-1.875zM1.875 2.5h.75v1.25h1.25V2.5h8.25v1.25h1.25V2.5h.75c.345 0 .625.28.625.624v1.5H1.25v-1.5c0-.344.28-.625.625-.625zm12.25 12.25H1.875a.626.626 0 01-.625-.626v-8.25h13.5v8.25c0 .345-.28.625-.625.625zM2.375 7.186h1.25v1.25h-1.25v-1.25zm3.75 0h-1.25v1.25h1.25v-1.25zm1.25 0h1.25v1.25h-1.25v-1.25zm3.75 0h-1.25v1.25h1.25v-1.25zm1.25 0h1.25v1.25h-1.25v-1.25zm-8.75 2.5h-1.25v1.25h1.25v-1.25zm1.25 0h1.25v1.25h-1.25v-1.25zm3.75 0h-1.25v1.25h1.25v-1.25zm1.25 0h1.25v1.25h-1.25v-1.25zm-6.25 2.5h-1.25v1.25h1.25v-1.25zm1.25 0h1.25v1.25h-1.25v-1.25zm3.75 0h-1.25v1.25h1.25v-1.25zm1.25 0h1.25v1.25h-1.25v-1.25zm3.75-2.5h-1.25v1.25h1.25v-1.25z" fill="#FE3E57"/></svg>