<svg width="20" height="20" fill="none" xmlns="http://www.w3.org/2000/svg"><g clip-path="url(#clip0_0_1496)"><path fill-rule="evenodd" clip-rule="evenodd" d="M19.892 18.697l-5.81-5.81a7.877 7.877 0 001.765-4.973c0-4.366-3.551-7.917-7.916-7.917-4.366 0-7.917 3.55-7.917 7.917 0 4.364 3.551 7.916 7.917 7.916a7.879 7.879 0 004.973-1.765l5.81 5.81a.416.416 0 00.589 0l.589-.59a.416.416 0 000-.588zM7.931 14.163a6.257 6.257 0 01-6.25-6.25 6.257 6.257 0 016.25-6.25 6.257 6.257 0 016.25 6.25 6.257 6.257 0 01-6.25 6.25z" fill="#29282D"/></g><defs><clipPath id="clip0_0_1496"><path fill="#fff" d="M0 0h20v20H0z"/></clipPath></defs></svg>