<svg width="20" height="21" fill="none" xmlns="http://www.w3.org/2000/svg"><path fill-rule="evenodd" clip-rule="evenodd" d="M10 .55a9.935 9.935 0 017.07 2.93A9.935 9.935 0 0120 10.55a9.935 9.935 0 01-2.93 7.072A9.935 9.935 0 0110 20.55a9.935 9.935 0 01-7.071-2.928 9.936 9.936 0 01-2.93-7.072 9.935 9.935 0 012.93-7.07A9.935 9.935 0 0110 .55zm-8.828 10c0 4.868 3.96 8.828 8.828 8.828 4.868 0 8.828-3.96 8.828-8.828 0-4.867-3.96-8.828-8.828-8.828-4.868 0-8.828 3.96-8.828 8.828zm7.603 1.966l5.174-5.174a.586.586 0 11.828.828L9.19 13.76a.584.584 0 01-.829 0l-3.138-3.138a.586.586 0 11.829-.829l2.724 2.724z" fill="#FE3E57"/></svg>