<svg width="60" height="60" fill="none"><g clip-path="url(#clip0_0_1411)" fill-rule="evenodd" clip-rule="evenodd"><path d="M0 0h60v60H0V0z" fill="#FFB534"/><path d="M46.163 24.504l1.036 4.093c1.583.239 2.8 1.593 2.8 3.223v6.602c0 .341-.28.619-.626.619h-2.048l.002.041c0 2.161-1.78 3.92-3.967 3.92-2.188 0-3.967-1.759-3.967-3.92l.001-.041H25.279v.041c0 2.161-1.779 3.92-3.966 3.92-2.188 0-3.967-1.759-3.967-3.92v-.042h-3.382a1.288 1.288 0 01-1.295-1.279V36.4h-2.046a.622.622 0 01-.626-.62c0-.34.28-.618.626-.618h6.013c.346 0 .626.277.626.619 0 .342-.28.619-.626.619h-2.714v1.361c0 .024.019.042.042.042h3.6a3.97 3.97 0 013.749-2.641 3.97 3.97 0 013.748 2.64h12.996v-4.661c0-.342.28-.62.626-.62s.627.278.627.62v4.662h.301a3.97 3.97 0 013.749-2.64 3.97 3.97 0 013.748 2.64h1.638V35.08h-.71a1.953 1.953 0 01-1.962-1.94v-1.32c0-.342.28-.619.626-.619h1.948a2.048 2.048 0 00-1.946-1.402h-7.393v.7c0 .343-.28.62-.626.62a.623.623 0 01-.626-.62V19.278a.042.042 0 00-.042-.041H13.964a.042.042 0 00-.042.041V30.5c0 .343-.28.62-.626.62a.623.623 0 01-.627-.62V19.277c0-.705.58-1.28 1.295-1.28h24.051c.714 0 1.294.575 1.294 1.28v1.362h4.719c1.45 0 2.63 1.166 2.63 2.6v.66a.622.622 0 01-.495.605zm-1.288.013H39.31v4.044h6.59l-1.024-4.044zm.53-1.279a1.37 1.37 0 00-1.377-1.361H39.31v1.402h6.096v-.04zM18.6 39.082c0 1.48 1.217 2.681 2.714 2.681 1.496 0 2.714-1.202 2.714-2.68 0-1.48-1.218-2.683-2.714-2.683-1.497 0-2.714 1.203-2.714 2.682zm22.047 0c0 1.48 1.217 2.681 2.714 2.681 1.496 0 2.714-1.202 2.714-2.68 0-1.48-1.218-2.683-2.714-2.683-1.497 0-2.714 1.203-2.714 2.682zm6.68-5.941c0 .386.319.701.71.701h.71V32.44h-1.42v.702zm-27.308 5.941c0-.706.58-1.28 1.295-1.28.713 0 1.294.574 1.294 1.28 0 .706-.58 1.279-1.294 1.279a1.288 1.288 0 01-1.295-1.279zm23.342-1.28c-.714 0-1.295.574-1.295 1.28 0 .706.581 1.279 1.295 1.279s1.294-.573 1.294-1.279-.58-1.28-1.294-1.28zM26.657 36.4a.622.622 0 01-.626-.62c0-.34.28-.618.627-.618h9.353c.346 0 .626.277.626.619 0 .342-.28.619-.626.619h-9.354zM11.96 33.76h8.018a.623.623 0 00.626-.62.622.622 0 00-.627-.618H11.96a.622.622 0 00-.626.619c0 .341.28.619.626.619zm13.362-4.135l5.57-5.505a.633.633 0 01.886 0 .614.614 0 010 .876l-6.013 5.941a.627.627 0 01-.886 0l-3.34-3.3a.614.614 0 010-.876.631.631 0 01.886 0l2.897 2.864z" fill="#fff"/></g><defs><clipPath id="clip0_0_1411"><path fill="#fff" d="M0 0h60v60H0z"/></clipPath></defs></svg>