<svg xmlns="http://www.w3.org/2000/svg" width="120" height="121">
    <path fill-rule="evenodd" fill="#FFB534" d="M119.858 64.67a.588.588 0 0 1-.585.55l-.041-.001a.59.59 0 0 1-.545-.63 60.782 60.782 0 0 0 .022-7.848.59.59 0 0 1 .549-.627c.332.796.603.228.623.554a62.57 62.57 0 0 1-.023 8.002zm-.882-11.499a.589.589 0 0 1-.659-.509 59.732 59.732 0 0 0-.67-4.042.59.59 0 0 1 .457-.698c.322-.065.628.718.692.462.914 1.359.505 2.746.685 4.123a.591.591 0 0 1-.505.664zm-1.555-7.711c-.053.14-.105.22-.157.22.336 0-.494-.784-.565-1.046-.359-1.309-.77-2.534-1.22-3.91-.109-.308.052.056.358-.755.306-.109.64.251.748.361.865 1.311.879 2.653 1.245 3.988.086.315-.097.641-.409 1.142zm-.09 30.816c.311.089.493.416.404 1.424-.375.646-.802 1.985-1.268 3.288a.587.587 0 0 1-.751.357.593.593 0 0 1-.353-.758 59.03 59.03 0 0 0 1.243-3.903c.088-.315.594-.495.725-.408zm-2.565-39.054a.584.584 0 0 1-.233.049c-.227 0 .367-.134-.539-.357a59.745 59.745 0 0 0-1.744-3.698.593.593 0 0 1 .251-.797.584.584 0 0 1 .791.253c.636 1.235 1.234 2.504 2.418 3.772-.51.299-.08 1.476-.944.778zm-.14 47.728c.297-.723.944-.374.3-.075a61.044 61.044 0 0 1-1.805 3.769c.039.201-.309.316-.52.316a.584.584 0 0 1-.273-.068c.082-.152-.397-.51.492.038-.107-2.047.489-3.29 1.032-4.532.131.592.478-.434.774.552zm-3.006-55.105c-.653.059-.759.087-.863.087a.586.586 0 0 1-.502-.284c-.701-1.159-1.453-2.311-2.045-3.422-.377-.267-.315-.636-.05-.825a.582.582 0 0 1 .818.14c.797 1.134 1.564 2.308 2.279 3.779.17-.009.082.355.363.525zm-4.505 35.374c.865 0 .695-.001.515-.002-.889-.029-1.129-.315-1.101-.64a48.219 48.219 0 0 0 .15-5.592.588.588 0 0 1 .567-.61.578.578 0 0 1 .606.573 49.542 49.542 0 0 1-.153 5.73.589.589 0 0 1-.584.541zm.185-9.792c.4.003-.316.004-.339.004a.588.588 0 0 1-.582-.522c-.159-1.353-.279-2.71-.651-4.035a.588.588 0 1 1 1.15-.241c.279 1.358.504 2.75.666 4.137.038 1.17-.192.619-.244.657zm-1.17-32.244c-.287 0-.456-.073-.572-.217a59.816 59.816 0 0 0-2.681-3.082c-.222-.238-.21-.614.026-.414.236-.646.608-.635.829.27.941 1.09 1.861 1.4 2.735 2.477.205.253.168.626-.083 1.273-.109-.35-.24-.307-.254-.307zm-5.739-6.031c-.143 0-.286.838-.399-.158-.992-.324-2.027-1.831-3.075-2.683a.596.596 0 0 1-.089-.833c.492-.254.573-.294.826-.089a61.058 61.058 0 0 1 3.136 2.738c.49.221.63.596.032.835-.116.918-.273.19-.431.19zm-2.099 15.349c-.106.079.338.116-.351.116a.584.584 0 0 1-.471-.238 47.548 47.548 0 0 0-2.561-3.17.594.594 0 0 1 .049-.835.582.582 0 0 1 .828.049 48.162 48.162 0 0 1 2.625 3.25.595.595 0 0 1-.119.828zm-2.628 22.627a.59.59 0 0 1-.494.671c-.03.005-.058.007.66.007-1.034 0-1.284-.211-1.327-.505-.197-1.338-.203-2.678-.822-3.984-.084-.317.101-.641 1.269-.726-.542-.086-.219.102-.135 1.209.36.559.646 1.945.849 3.328zM94 11.952a.577.577 0 0 1-.336-.107c-1.104-.175-2.252-1.53-3.412-2.232-.278-.168-.368.197.258-.813-.292-.279.068-.371.346-.201 1.544.716 2.355 2.221 3.481 2.277.266.754.33.556.145.824a.587.587 0 0 1-.482.252zM92.916 26.25a.585.585 0 0 1-.427.185c-.145 0-.29-.053.371-.161-1.752-.933-2.09-1.835-3.64-2.68-.452-.203-.495-.414-.293-.832a.585.585 0 0 1 .825-.095 48.488 48.488 0 0 1 3.141 2.747c.235.224.246.716.023.836zM86.96 7.688a.573.573 0 0 1-.267-.066C85.492 7.4 84.252 6.42 83.7 5.885c-.991-.128-1.131-.475-1.003-.776a.583.583 0 0 1 .769-.312c1.271.544 2.734 1.14 3.762 1.772.288.148.403 1.171.255.796a.586.586 0 0 1-.523.323zm-.573 12.516c.271.181.345.548.166 1.036-.113-.043-.3.05.077.05-.678 0-.79-.032-.89-.099-1.123-.749-2.293-1.459-3.477-1.351-.285-.912-.39-1.271.017-1.558-.097-.287.259-.394.544.158 1.546.27 2.412.996 3.563 1.764zM84.42 34.192c-.494.131-.655.197-.816.197a.582.582 0 0 1-.391-.15c-1.002-.902-2.066-1.754-2.713-2.532-.714-.188-.778-.557-.591-.824 1.041-.267.552-.332.818-.143a36.555 36.555 0 0 1 3.268 2.616c.242.218.263.592.425.836zM79.399 4.444a.582.582 0 0 1-.191-.033 58.195 58.195 0 0 0-3.887-1.202c.479-.085-.498-.41-.414-.726.084-.316.41-.502.719.177 1.331-.233 2.665.18 3.965.633.306.107 1.009.443.363 1.157-.084-.16-.311-.006-.555-.006zM75.204 14.7c1.311.443 2.617.949 4.656 1.504-.477.131-.34.48-.47.78-.096.222.39.355-.539.355a.592.592 0 0 1-.234-.049 45.908 45.908 0 0 0-3.786-1.467c-.307-.104-.473-.44-.37-.083.103-.976.437-1.142.743-1.04zm2.211 14.622a.585.585 0 0 1-.796.238 34.628 34.628 0 0 0-3.654-1.732c-.301-.122-.447-.467-.326-.248.119-.826.461-.972.763-.851a36.093 36.093 0 0 1 3.778 1.791c.285.156.39.83.235.802zm-5.94-27.03a.627.627 0 0 1-.114-.01c-1.001-.082-2.676-.48-4.015-.648-.096-.041-.549-.336-.509-.661a.587.587 0 0 1 .655-.514c1.365.172 2.743.395 4.095.661.318.063.526.373.913.694-.505 1.146-.75.478-1.025.478zm-.268 11.253a.59.59 0 0 1 .434.713c-.064.271-.305.453.069.453-.45 0-.731-.004-.777-.016a46.675 46.675 0 0 0-3.979-.78.59.59 0 0 1-.494-.672.589.589 0 0 1 .667-.499c1.367.207 2.74.476 4.08.801zm-1.352 12.574a.588.588 0 0 1-.72.416 34.616 34.616 0 0 0-3.951-.833c-.321-.049-.542-.35-.494-.412.048-.584.68-.806.667-.759 1.374.207 2.748.749 4.085.862a.593.593 0 0 1 .413.726zM63.33 1.268l-.033-.001a58.641 58.641 0 0 0-4.065-.087h-.007a.59.59 0 0 1-.587-.586c-.004-.326.255-.594.579-.294 1.377-.08 2.774.5 4.145.55.324-.747.572-.468.554-.141-.018.531-.277.559-.586.559zm-.337 11.037a.59.59 0 0 1 .55.628.589.589 0 0 1-.585.555l-.037-.001a48.127 48.127 0 0 0-4.055-.078.598.598 0 0 1-.6-.577.59.59 0 0 1 .573-.606 48.81 48.81 0 0 1 4.154.079zm-1.791 11.847a.59.59 0 0 1 .567.611c-.01 1.127-.28.585-.606.571-.394-.013-.77-.007-1.185-.019-.688 0-1.278.039-2.852.116-.016.001.814.002.654.002-1.005 0-1.262-.234-1.287-.543-.026-.326.214-.612.817-.638 1.29-.08 1.688-.121 2.668-.121.424-.009.818.006 1.224.021zM55.169 1.37a59.109 59.109 0 0 0-4.038.472c-.029.004.589.006.299.006-.672 0-.923-.21-.967-.503-.048-.125.173-.624.493-.673A46.864 46.864 0 0 1 55.74.191c-.342-.025-.059.216-.033.542.026.857-.215.612-.538.637zm-.476 11.134c.437-.036.612.199.647.766.036.082-.197.374-.519.41-1.339.149-2.688.71-4.008.624a.588.588 0 0 1-.69-.466c.477-.321.143-.632.461-.696a47.851 47.851 0 0 1 4.109-.638zm-1.104 12.795a.592.592 0 0 1-.461.696c-1.316.264-2.631.609-3.906 1.215-.06.2-.121.3.188.3-.617 0-.847-.619-.927-.869a.594.594 0 0 1 .377-.746 35.838 35.838 0 0 1 4.038-1.061.59.59 0 0 1 .691.465zM47.135 2.594c-1.317.296-2.64.642-3.935 1.03-.056.017.68.024.13.024s-.784-.166-.86-.423a.592.592 0 0 1 .396-.735c1.32.45 2.671-.75 4.014-1.051a.592.592 0 0 1 .255 1.155zm-.588 11.546c.314.33.637.089.728.403a.593.593 0 0 1-.399.733c-1.291.379-2.583 1.704-3.506 1.316-.403.027-.475.04-.546.04a.586.586 0 0 1-.547-.377.594.594 0 0 1 .334-.766 47.312 47.312 0 0 1 3.936-1.349zm-.797 13.574c.135.396.006.649-.289.785-1.217 1.121-2.021 1.204-3.564 1.907a.575.575 0 0 1-.304.086c-.199 0-.392-.1.317-.285-.988-.278-.81-.643-.623-.812 1.187-.726 2.426-.795 3.684-1.972a.586.586 0 0 1 .779.291zM39.346 4.928c-.506.476-2.524 1.004-3.75 1.568a.585.585 0 0 1-.778-.293.593.593 0 0 1 .29-.783 59.987 59.987 0 0 1 3.826-1.601.586.586 0 0 1 .756.347.594.594 0 0 1-.344.762zm-.67 26.958a.595.595 0 0 1-.102.83 35.246 35.246 0 0 0-3.038 2.681.581.581 0 0 1-.83-.007.595.595 0 0 1 .007-.837 36.47 36.47 0 0 1 3.14-2.77.582.582 0 0 1 .823.103zm-2.33 54.478a.596.596 0 0 1 .034.836.587.587 0 0 1-.83.034 36.475 36.475 0 0 1-2.9-3.025.594.594 0 0 1 .062-.834.581.581 0 0 1 .827.063 35.883 35.883 0 0 0 2.807 2.926zm-5.874-44.641a.584.584 0 0 1-.81.185c-.274-.175-.356-.541-.183.002.742-2.002 1.911-3.152 2.43-4.24a.584.584 0 0 1 .826-.088c.252.204.535.577.088.832a35.367 35.367 0 0 0-2.351 3.309zM29.238 25.36c-.111-.225-.248-.177-.386-.177a.586.586 0 0 1-.442-.202.596.596 0 0 1 .056-.835 48.278 48.278 0 0 1 3.243-2.621.585.585 0 0 1 .821.127.596.596 0 0 1-.127.827c-1.087.803-2.151 1.663-3.165 2.881zm2.723-17.036a59.028 59.028 0 0 0-3.502 2.077.586.586 0 0 1-.811-.181.597.597 0 0 1 .18-.818 60.32 60.32 0 0 1 3.573-2.118c.287-.156 1.019-.049.796.238a.594.594 0 0 1-.236.802zM28.24 44.495a.594.594 0 0 1 .275.79 21.303 21.303 0 0 0-1.533 4.235c-.084-.223-.311-.069-.555-.069a.594.594 0 0 1-.555-.784c.45-1.32.983-2.307 1.585-3.894a.584.584 0 0 1 .783-.278zm-4.618-13.568c-.116.803-.285.221-.457.221.195 0-.26-.044-.368.012-.252-.349-.292-.722-.088-.977.866-1.081 1.791-1.733 2.748-2.793.225-.586 1.083-.593.83-.16.234.019.241.393.017.629a47.283 47.283 0 0 0-2.682 3.068zM21.92 15.263a.586.586 0 0 1-.38.14c-.167 0-.332-.071.38-.209-1.038-.248-1.007-.622-.76-.833a60.24 60.24 0 0 1 3.25-2.595c.261-.194.97-.138.821.125a.595.595 0 0 1-.124.827c-.897.807-2.158 1.662-3.187 2.545zm-.707 18.954c-.753 1.129-1.466 2.302-1.253 3.488-.972.194-1.172.395-1.379.395-.096 0-.193-.114-.283-.165-.158-.157-.387-.518.382-.803.057-1.217.787-2.419 1.56-3.576.18-.271.545-.342 1.3-.16-.217.183-.146.55-.327.821zM16.1 20.984a.587.587 0 0 1-.438.197c-.139 0-.279-.049-.391.129.019-.497.629-.871-.047-1.115.916-1.033 1.881-2.05 3.696-3.02-.595-.228-.224-.224.002.01.227.234.222.609-.01 1.035-.968.753-1.914 1.75-2.812 2.764zm.889 19.6c.296.133.429 1.086.298.782a47.21 47.21 0 0 0-1.487 3.806.586.586 0 0 1-.554.399c-.063 0-.128-.01.304-.032-.802-.106-.965.421-.859-.752a48.11 48.11 0 0 1 1.523-3.903.587.587 0 0 1 .775-.3zm-2.338 9.326c-.324.498-.091 1.846-.806 4.06-.045-.581-.295-.373-.579-.373a.59.59 0 0 1-.58-.684c.215-1.375.493-2.757.826-4.108a.585.585 0 0 1 .711-.431c.315.079.506.4.428 1.536zm-3.539-22.453a.581.581 0 0 1-.814.162c-.008-.182-.341.071-.16-.821a60.573 60.573 0 0 1 2.431-3.39.583.583 0 0 1 .824-.104c.256.2.302.572.103.83a59.966 59.966 0 0 0-2.384 3.323zm-.208 65.757a60.684 60.684 0 0 0 2.362 3.336c.197.26.148.63-.109.83.343.082-.232.122-.357.122a.585.585 0 0 1-.466-.232c-.835-1.098-1.645-2-2.408-3.402-.179-.272-.105-.64.984-.398-.549-.604-.185-.528-.006-.256zM7.55 34.564c-.597.211-.806.333-1.024.333a.589.589 0 0 1-.256-.06c-.291-.143-.412-.498-.271-.377.603-1.663 1.258-2.907 1.945-4.111.162.321.52-.38.802-.217.524.163.377.524.215.807-.674 1.181-1.315 2.401-1.411 3.625zM6.898 86.93c.583.389 1.216 1.611 1.882 2.793.16.977.06.645-.222.806a.573.573 0 0 1-.288.078c.38 0-.403-.108-.512-.301.042-1.205-1.324-2.451-1.918-3.701a.595.595 0 0 1 .275-.791c.293-.142.643-.016.783 1.116zM4.11 42.171c-.179.251-.409.41-.657.41a.594.594 0 0 1-.558-.775 61.386 61.386 0 0 1 1.418-3.935c.121-.303.464-.449 1.457-.328-.393.123-.247.557-.368.77-.507 1.267-.975 2.566-1.292 3.858zm-1.218 3.941c-.326 1.319-.61 2.669-.422 4.009-.473.287-.72.489-1 .489a.606.606 0 0 1-.103-.009c.113-.057-.532-.364-.476-.686.24-1.368.53-2.743.861-4.09a.585.585 0 0 1 .712-.43.592.592 0 0 1 .428.717zM1.48 54.179a61.057 61.057 0 0 0-.288 4.089.59.59 0 0 1-.586.57l-.022-.001c-.324-.011.116-.286-.394-.612.51-1.391-.021-2.794.123-3.675.034-.82.326-1.054.645-1.021a.589.589 0 0 1 .522.65zm-.905 7.616c.326-.013.594.615.605.574.041 1.358.13 2.734.265 4.089.032.326-.203 1.282-.526.648a.583.583 0 0 1-.642-.53C.14 65.194.48 63.791.6 62.405c-.3.375-.349-.6-.025-.61zm.736 8.565c.32-.378.622-.161.676.16.228 1.345.504 2.695.822 4.015a.59.59 0 0 1-.571.73c-.264 0-.504.585-.57-.451-.324-1.346-.048-1.904-.837-4.095-.055-.322.16.201.48-.359zm1.857 8.61c.31-.972.639-.8.737-.489.41 1.3.87 3.309 1.366 3.86a.593.593 0 0 1-.545.811c-.234 0-.455-.042-.546-.374a61.665 61.665 0 0 1-1.394-3.938c-.098-.312.073-.645.382.13zm9.534-17.122h-.009a.59.59 0 0 1-.587-.583c-.004.535-.006-.514.884-.771 0-1.137-.851-2.286-.772-2.724.022-1.019.3-1.263.626-1.243a.59.59 0 0 1 .544.632 48.736 48.736 0 0 0-.108 4.087c.005.326-.02.596-.578.602zm.247 7.745a49.352 49.352 0 0 1-.6-4.145.59.59 0 0 1 .524-.649c.315-.038.611.401.644.528.137 1.355.335 3.103.586 4.045.06.321-.149.928-.467 1.268-.037.07-.074.1-.111.1-.276 0-.225-.863-.576-1.147zm1.362 3.349c.307-.086.636.418 1.039.408.052 1.306.481 2.611.959 3.881a.592.592 0 0 1-.339.763c-.069.216-.14.336-.209.336-.237 0-.46-.442-.549-.679-.49-1.301-.93-2.541-1.306-3.979-.088-.314.093-.362.405-.73zm1.537 26.773a59.072 59.072 0 0 0 2.794 2.979c.23.23.232.605.004.837a.582.582 0 0 1-.417.176c.571 0-.298-.057-.413-.17a61.428 61.428 0 0 1-2.848-3.039c-.215-.245-.192-.619.232-.835.062-.216.433-.194.648.052zm1.283-19.006a.584.584 0 0 1 .784.274 47.702 47.702 0 0 0 1.923 3.598c.562.281.075.644-.204.811a.586.586 0 0 1-.804-.205 48.63 48.63 0 0 1-1.972-3.688.593.593 0 0 1 .273-.79zm4.501 24.765c1.021.887 2.089 1.75 3.173 2.926.845-.164.313.207.119.468-.116.372-.292.238-.471.238-.122 0-.245.574-.351-.118a60.41 60.41 0 0 1-3.236-2.617.596.596 0 0 1-.062-.835c.346-.248.583-.275.828-.062zm3.814-53.204a.591.591 0 0 1 .449.703 35.159 35.159 0 0 0-.629 4.02.59.59 0 0 1-.642.531c-.322-.032.036-.321.356-.647-.746-1.395-.527-2.037-.233-4.156a.587.587 0 0 1 .699-.451zm-.933 40.15c-.111-.281-.247-.234-.383-.234a.583.583 0 0 1-.445-.206 49.177 49.177 0 0 1-2.574-3.29c-.189-.265-.13-.15.133-.826.263-.191.63-.131 1.386.134.222 1.103 1.067 2.182 1.945 3.21.211.249.183.621-.062 1.212zm-.009-31.942h.009c.321 0 1.437.259.587 1.132.021.805.119 2.17.294 3.509a.59.59 0 0 1-.582.669.588.588 0 0 1-.581-.514c.269-1.384-.283-2.796-.305-3.484-.005-1.038.254-1.307.578-1.312zm.934 8.21c.316-.08 1.282.111.713.428.329 1.315.737 2.62 1.214 3.882.115.305-.037.648-.115.764-.294.026-.364.038-.434.038a.585.585 0 0 1-.548-.381c-.493-1.304-.915-2.655-1.138-4.013-.196.484-.006-.639.308-.718zm1.914 25.5c.962.949 1.978 2.362 3.021 2.729.251.207.287.58.082.833a.588.588 0 0 1-.827.082c-1.069-.884-2.11-1.232-3.097-2.482-.231-.543-.236-.918-.009-1.151a.584.584 0 0 1 .83-.011zm2.762-13.318a36.56 36.56 0 0 1-2.137-3.612.594.594 0 0 1 .249-.798c.289-.151.643-.038.954.252.456 1.196 1.152 3.128 2.68 3.494-.593.27-.662.639-.931 1.074-.101.69-.215-.15-.329-.15-.188 0-.373.25-.486-.26zm-1.968 29.511a58.669 58.669 0 0 0 3.494 2.102c.283.157.63.617.23.805a.586.586 0 0 1-.514.306c-.096 0-.193-.025.374-.074-1.863-.67-3.062-1.392-4.22-2.145a.595.595 0 0 1-.176-.818.584.584 0 0 1 .812-.176zm5.471-11.009c1.112.768 2.27 1.496 3.973 2.163-.248.161-.148 1.035-.308.806a.584.584 0 0 1-.799.225c-1.202-.685-1.553-1.43-3.53-2.217a.596.596 0 0 1-.152-.823.584.584 0 0 1 .816-.154zm1.652 14.965a37.152 37.152 0 0 0 3.931 1.596c.122.557.274.458.159.763-.089.237.111 1.084-.548 1.084-.071 0-.141-.13-.21-.4a19.336 19.336 0 0 0-3.826-1.969.594.594 0 0 1-.285-.786.584.584 0 0 1 .779-.288zm.505-94.129a.582.582 0 0 1-.304.086c-.198 0 .31-.102-.502.606-.169-1.171-.08-1.534.197-1.704a47.704 47.704 0 0 1 3.643-2.017c1.162.161.643-.025.785.268.144.293.025 1.503-.266.793a46.427 46.427 0 0 0-3.553 1.968zm8.086 71.748c-.881.192-1.081.3-1.286.3a.568.568 0 0 1-.287-.077c-.477-.686-2.388-1.452-3.511-2.276-.262-.192-.32-.563-.129-.143.192-.948.558-1.006.82-.814a35.175 35.175 0 0 0 3.396 2.203c.283.161.383.522.997.807zm-3.184 11.433a46.918 46.918 0 0 0 3.762 1.527c.306.334.466.447.359.755-.086.244-.312.999-.554.999-.065 0-.131-.11.237-.34-1.734-.76-3.032-.91-4.291-1.865a.593.593 0 0 1-.291-.783c.422-.296.48-.43.778-.293zm2.196 13.872c1.29.395 2.612.839 3.93 1.054.315.072.513.389.44.915-.061.067-.303.253-.571.253a.594.594 0 0 1-.132-.015 59.303 59.303 0 0 1-4.008-1.075c-.31-.094-.071-.425-.391-.737a.585.585 0 0 1 .732-.395zm7.264-21.805c.694 0 .144-.007-.162-.023-1.334.017-2.658-.859-3.614-1.113-.622-.415-.763-.762-.637-1.063a.585.585 0 0 1 .769-.316c1.236.524 2.608.98 3.807 1.354.311.091.491.419.401.985-.074.008-.308.176-.564.176zm-1.818 10.651c1.301.337 2.635.622 3.967.845.319.548.535.357.482.68a.588.588 0 0 1-.578.495c-.032 0-.064-.003.731-.009-2.193-.227-3.561-.518-4.67-.864-.539-.083-.728-.405-.647-.722.081-.316.497-.262.715-.425zm2.475 13.793c1.333-.599 2.691-.433 4.036-.315a.59.59 0 0 1 .534.64c-.027.308.437.541-.585.541l-.051-.002a59.957 59.957 0 0 1-4.116-.505c-.32-.05.109-.353-.489-.676.05-.322.349-.203.671.317zm7.4-23.091c-1.389-.069-2.785-.22-3.753-.448-.715-.053-.932-.061-.878-.681a.581.581 0 0 1 .675-.486c1.319.221 2.67.366 4.013.432a.59.59 0 0 1 .558.62.59.59 0 0 1-.586.564l-.029-.001zm-1.883 10.636c1.215.095 2.452.144 3.678.144l.374-.002h.004c.323 0 .585.262.587.588a.59.59 0 0 1-.583.596l-.381.001c-1.257 0-2.525-.049-3.771-.147a.59.59 0 0 1-.539-.636.58.58 0 0 1 .631-.544zm2.579 12.354c1.348.026 2.719.004 4.067-.063a.584.584 0 0 1 .616.561c.016.327-.234.604-.422.621a68.512 68.512 0 0 1-4.282.065.59.59 0 0 1-.576-.603c.006.15.265-.576.597-.581zm3.476-23.023-.039.001c-.136 0-.565-.241-.585-.553a.59.59 0 0 1 .547-.63c1.343-.088 2.691-.255 4.007.376.32-.58.624-.719.682-.397.383.321-.153.63-.471.688-1.36.251-2.754.423-4.141.515zm2.047 10.605c1.344-.128 2.695.269 4.017-.559.32-.057 1.101.154.682.475a.591.591 0 0 1-.471.689 47.294 47.294 0 0 1-4.174.575c-.299 0-.555-.23-.584-.311-.03-.55 1.008-.839.53-.869zm3.288 12.012c.65-.161 2.002-.183 3.55-.625.097-.062.401.151.461.471a.59.59 0 0 1-.467.692c-1.35.258-2.729.472-4.098.637-.024.003.844.004.614.004-.977 0-1.231-.221-1.266-.072-.039-.775.192-1.069 1.206-1.107zm2.861-24.127a.586.586 0 0 1-.733-.393.593.593 0 0 1 .389-.739 46.294 46.294 0 0 0 3.883-1.416c.2-.132.544.005.675.502.13.101-.005.45-.302.581a35.939 35.939 0 0 1-3.912 1.465zm1.821 10.647a45.71 45.71 0 0 0 3.86-1.253c.302-.112.642.043.754 1.24.113-.584-.042-.244-.346-.131-1.293.485-2.4.917-3.957 1.781-.052.15-.104.22-.156.22-.257 0-.107-.867-.565-1.129-.086-.315.728-.641.41-.728zm2.608 11.952a58.487 58.487 0 0 0 3.893-1.18c.309-.104.641.061.745.865.104-.185-.061.151-.367.256-1.306.445-2.642.85-3.973 2.094-.05-.68-.099-.61-.149-.61-.26 0-.498-.437-.567-.703a.59.59 0 0 1 .418-.722zm2.903-25.894a.583.583 0 0 1-.507-.293c-.164-.282-.07-.338.209-.809a34.996 34.996 0 0 0 3.36-2.256.583.583 0 0 1 .822.117.596.596 0 0 1-.116.829 36.076 36.076 0 0 1-3.472 2.33c.771.056-.195.082-.296.082zm2.082 11.749c1.214-1.228 2.42-1.871 3.585-2.557.278-.166.638.757.803.211.163.282.069.806-.21.81a47.931 47.931 0 0 1-3.674 1.958.582.582 0 0 1-.252.057c.473 0-.43.541-.53-.339-.14-.295-.015-.647.278-.14zm2.706 11.517a59.196 59.196 0 0 0 3.69-1.71c.292-.147.759-.029.788.263.145 1.03.029.647-.261.794a59.922 59.922 0 0 1-3.765 1.745c.457.031-.15.046-.226.046a.726.726 0 0 1-.542-.265c-.125-.4.016-.747.316-.873zm4.285-16.291c1.694-.786 2.178-1.63 3.204-2.506a.582.582 0 0 1 .827.069.594.594 0 0 1-.068.833 48.213 48.213 0 0 1-3.284 2.569c-.103.074-.221.289-.339.289-.184 0-.365-.266-.479-.429a.595.595 0 0 1 .139-.825zm2.97 12.616c2.014-.692 2.311-1.435 3.422-2.209a.583.583 0 0 1 .817.151c.184.269.117.638.075.823-1.359.789-2.533 1.547-3.716 2.253a.582.582 0 0 1-.298.083c.114 0-.396-.104-.506-.291-.165.548-.073-.643.206-.81zm6.77-20.998c.248.21.282.583.074.833a48.977 48.977 0 0 1-2.798 3.101.585.585 0 0 1-.83.003.596.596 0 0 1-.004-.837c1.822-.963 2.002-1.981 2.731-3.024.981-.251.577-.286.827-.076zm-2.044-22.439a.592.592 0 0 1 .438.711 36.243 36.243 0 0 1-1.191 4.035.587.587 0 0 1-.752.355.593.593 0 0 1-.352-.758 35.11 35.11 0 0 0 1.152-3.902c.353-.319.389-.056.705-.441zm-3.73-25.155a.584.584 0 0 1 .795.238 28.051 28.051 0 0 1 1.769 3.962c.12.15-.027.495-.327.615.801.029.071.043-.218.043a.586.586 0 0 1-.545-.373 35.333 35.333 0 0 0-1.712-3.683.594.594 0 0 1 .238-.802zM92 75.945c.29.975.407.501.262.794a36.57 36.57 0 0 1-2.08 3.648c.508.174-.301.268-.492.268a.584.584 0 0 1-.321-.096c.611-.18-.149-.439-.17-.82a35.028 35.028 0 0 0 2.013-3.53.585.585 0 0 1 .788-.264zm-4.377 6.99c.248.21.282.582.074.834a36.335 36.335 0 0 1-2.853 3.07c-.113.109-.259.361-.404.361-.155 0-.31-.259-.3-.382-.349-.237-.34-.611.21-.837 1.35-.481 1.586-1.481 2.446-2.871.404-.35.577-.384.827-.175zm-.68-46.602a36.55 36.55 0 0 1 2.589 3.299.595.595 0 0 1-.143.824c-.103.073-.221.107.131.107-.653 0-.835-.088-.949-.252-.771-1.107-1.614-2.181-1.911-3.191-.81-.244-.788-.619-.546-.835.241.385.613.595.829.048zm8.488 22.412c.312-.02.829.245.929.573.12.39.19 1.672.18 1.175 0 1.398-.566 2.811-.724 4.198a.588.588 0 0 1-.65.521.591.591 0 0 1-.516-.655 36.042 36.042 0 0 0 .213-5.202c-.01-.075.243-.6.568-.61zm4.283 45.504c.239.031.61.191.829.036a.595.595 0 0 1-.036.836c-1.019 1.499-2.08 1.854-3.153 2.716a.584.584 0 0 1-.825-.094.595.595 0 0 1 .094-.832c1.052-.241 2.092-1.74 3.091-2.662zm-.893-15.929a.585.585 0 0 1-.336-.107c-.265.047-.33-.556-.145-.824a47.432 47.432 0 0 0 2.173-3.453c.162-.284.817-.381.802-.219.28.164.377.525.216.809-.689 1.207-.611 2.398-2.228 4.134-.114-.429.297-.34-.482-.34zm1.12-53.375a.586.586 0 0 1 .808.193 48.499 48.499 0 0 1 2.03 3.656c.146 1.066.029.648-.26.795a.582.582 0 0 1-.264.063c.145 0-.422-.119-.525-.326a47.266 47.266 0 0 0-1.98-3.567.594.594 0 0 1 .191-.814zm3.985 41.579c.444-.308.448.056.752-.355.304.111.462.451.622.758-.741 1.311-1.04 2.615-1.856 3.877-.099.386-.311.342-.533.342-.082 0-.166-.018-.246.764-.294-.957-.422-1.308-.285-1.605.566-.565 1.087-2.502 1.546-3.781zm1.392 21.788c.206.298.577-.062.826-.078.25.209.284.581.077 1.436-.878.466-1.805 1.519-2.754 2.524-.115.122-.27.183-.047.183-.523 0-.669-.053-.782-.162a.594.594 0 0 1-.021-.837 60.072 60.072 0 0 0 2.701-3.066zm-.588-51.4c-.388-1.301-.837-2.6-1.335-3.392-.121-.771.026-1.115.327-1.237.488-.121.642.027.763.331a48.388 48.388 0 0 1 1.37 3.957.594.594 0 0 1-.563.762c.108 0-.485-.165-.562-.421zm1.956 21.237c.914.057.533.363.478.685a48.534 48.534 0 0 1-.892 4.093.587.587 0 0 1-.718.42c-.313-.084-.004-.408-.416-.724.345-1.307.637-2.651 1.562-3.993-.07-.321-.339.33-.014-.481zm3.934 23.505c-.387-.279-.026-.363.25-.192.276.172.36.537.73.815-1.261 1.176-2.036 2.347-2.843 3.479-.115.161-.294.544-.477.544-.119 0 .14-.333-.342-.408-.264-.191-.324-.56-.135-.232.791-1.705 1.551-2.853 2.817-4.006zm6.957-18.95c.277-1.333 1.293-2.574.694-4.038a.582.582 0 0 1 .662-.505.591.591 0 0 1 .501.667c-.188 1.373.366 2.759-.708 4.118a.588.588 0 0 1-.574.471c-.039 0 .568-.004.158-.012-.596-.067-.799-.165-.733-.701z"/>
</svg>
