<svg width="271" height="884" viewBox="0 0 271 884" fill="none" xmlns="http://www.w3.org/2000/svg">
<mask id="path-1-inside-1_11_3" fill="white">
<path fill-rule="evenodd" clip-rule="evenodd" d="M287.973 138.647C287.973 138.647 247.233 272.21 224.551 321.893C201.868 371.576 170.816 409.403 116.925 450.53C63.0352 491.656 37.6195 585.16 127.496 698.095C217.372 811.028 283.78 843.417 299.504 854.641"/>
</mask>
<path fill-rule="evenodd" clip-rule="evenodd" d="M287.973 138.647C287.973 138.647 247.233 272.21 224.551 321.893C201.868 371.576 170.816 409.403 116.925 450.53C63.0352 491.656 37.6195 585.16 127.496 698.095C217.372 811.028 283.78 843.417 299.504 854.641" fill="black" fill-opacity="0.01"/>
<path d="M127.496 698.095L126.713 698.717L127.496 698.095ZM287.973 138.647C287.016 138.355 287.016 138.355 287.016 138.356C287.015 138.357 287.015 138.359 287.014 138.361C287.013 138.365 287.011 138.371 287.009 138.379C287.004 138.395 286.997 138.419 286.987 138.452C286.967 138.516 286.938 138.612 286.899 138.739C286.821 138.993 286.706 139.371 286.554 139.865C286.25 140.855 285.801 142.314 285.222 144.188C284.065 147.936 282.385 153.345 280.299 159.993C276.126 173.288 270.326 191.531 263.818 211.326C250.794 250.937 234.955 296.695 223.641 321.478L225.461 322.308C236.829 297.408 252.701 251.543 265.718 211.951C272.23 192.145 278.032 173.893 282.207 160.592C284.294 153.941 285.975 148.528 287.133 144.778C287.713 142.903 288.162 141.443 288.466 140.452C288.618 139.957 288.734 139.578 288.811 139.324C288.85 139.197 288.88 139.1 288.899 139.036C288.909 139.004 288.917 138.979 288.922 138.963C288.924 138.955 288.926 138.949 288.927 138.945C288.928 138.943 288.928 138.941 288.929 138.94C288.929 138.939 288.929 138.938 287.973 138.647ZM223.641 321.478C201.038 370.986 170.102 408.689 116.319 449.735L117.532 451.325C171.529 410.116 202.698 372.166 225.461 322.308L223.641 321.478ZM116.319 449.735C89.14 470.476 69.1678 504.408 67.2991 547.341C65.4305 590.272 81.6643 642.111 126.713 698.717L128.278 697.472C83.451 641.144 67.4545 589.764 69.2972 547.428C71.1399 505.093 90.8206 471.71 117.532 451.325L116.319 449.735ZM126.713 698.717C171.698 755.243 210.824 791.628 240.686 815.293C270.472 838.897 291.229 849.963 298.923 855.455L300.085 853.828C292.055 848.095 271.746 837.355 241.928 813.725C212.186 790.156 173.169 753.88 128.278 697.472L126.713 698.717Z" fill="#ECECEC" mask="url(#path-1-inside-1_11_3)"/>
<mask id="path-3-inside-2_11_3" fill="white">
<path fill-rule="evenodd" clip-rule="evenodd" d="M290.856 10.0104C290.856 10.0104 263.373 8.9841 229.355 136.22C195.338 263.455 178.942 298.761 153.441 344.951C127.94 391.14 100.655 419.998 64.0734 445.675C27.4925 471.353 -32.6659 546.355 56.3861 677.463C145.438 808.572 306.33 907.88 333.137 863.137"/>
</mask>
<path fill-rule="evenodd" clip-rule="evenodd" d="M290.856 10.0104C290.856 10.0104 263.373 8.9841 229.355 136.22C195.338 263.455 178.942 298.761 153.441 344.951C127.94 391.14 100.655 419.998 64.0734 445.675C27.4925 471.353 -32.6659 546.355 56.3861 677.463C145.438 808.572 306.33 907.88 333.137 863.137" fill="black" fill-opacity="0.01"/>
<path d="M229.355 136.22L230.322 136.478L229.355 136.22ZM153.441 344.951L154.317 345.434V345.434L153.441 344.951ZM64.0734 445.675L63.4989 444.856L63.4989 444.856L64.0734 445.675ZM56.3861 677.463L57.2133 676.901L56.3861 677.463ZM290.856 10.0104C290.893 9.01111 290.891 9.01103 290.888 9.01094C290.887 9.01091 290.885 9.01083 290.883 9.01077C290.879 9.01066 290.875 9.01056 290.87 9.01047C290.86 9.01029 290.849 9.01017 290.836 9.01016C290.811 9.01014 290.778 9.0106 290.739 9.01202C290.661 9.01488 290.557 9.02161 290.427 9.0362C290.167 9.06541 289.806 9.12597 289.348 9.24928C288.432 9.49611 287.139 9.99239 285.51 10.9839C282.255 12.965 277.663 16.9213 272.047 24.8224C260.823 40.6129 245.41 72.2988 228.389 135.962L230.322 136.478C247.318 72.9053 262.656 41.4864 273.677 25.9811C279.184 18.2343 283.589 14.4949 286.55 12.6923C288.029 11.792 289.149 11.3744 289.869 11.1804C290.229 11.0832 290.491 11.0416 290.65 11.0237C290.73 11.0147 290.784 11.0117 290.812 11.0107C290.827 11.0102 290.834 11.0102 290.835 11.0102C290.836 11.0102 290.835 11.0102 290.832 11.0101C290.83 11.0101 290.829 11.01 290.826 11.01C290.825 11.0099 290.823 11.0099 290.823 11.0099C290.821 11.0098 290.818 11.0097 290.856 10.0104ZM228.389 135.962C194.385 263.148 178.014 298.372 152.566 344.468L154.317 345.434C179.869 299.151 196.291 263.762 230.322 136.478L228.389 135.962ZM152.566 344.468C127.139 390.522 99.9572 419.266 63.4989 444.856L64.6479 446.493C101.352 420.73 128.742 391.758 154.317 345.434L152.566 344.468ZM63.4989 444.856C45.0648 457.796 20.6898 483.16 12.141 521.817C3.58614 560.501 10.9212 612.307 55.5588 678.025L57.2133 676.901C12.799 611.512 5.68723 560.262 14.0938 522.249C22.5064 484.208 46.5012 459.232 64.648 446.493L63.4989 444.856ZM55.5588 678.025C100.165 743.698 162.751 801.393 217.558 837.082C244.955 854.922 270.469 867.303 290.866 872.408C301.062 874.96 310.049 875.712 317.382 874.366C324.743 873.014 330.467 869.538 333.995 863.651L332.279 862.623C329.105 867.921 323.937 871.129 317.021 872.399C310.076 873.674 301.4 872.983 291.351 870.468C271.259 865.44 245.958 853.189 218.649 835.406C164.046 799.85 101.659 742.337 57.2133 676.901L55.5588 678.025Z" fill="#ECECEC" mask="url(#path-3-inside-2_11_3)"/>
<g filter="url(#filter0_d_11_3)">
<path fill-rule="evenodd" clip-rule="evenodd" d="M154.484 565C164.158 565 172 573.059 172 583C172 592.941 164.158 601 154.484 601C144.811 601 136.969 592.941 136.969 583C136.969 573.059 144.811 565 154.484 565Z" fill="black" fill-opacity="0.01"/>
<path d="M154.484 566C163.58 566 171 573.585 171 583C171 592.415 163.58 600 154.484 600C145.389 600 137.969 592.415 137.969 583C137.969 573.585 145.389 566 154.484 566Z" stroke="#FE3E57" stroke-width="2"/>
</g>
<g filter="url(#filter1_d_11_3)">
<path fill-rule="evenodd" clip-rule="evenodd" d="M115.469 235C118.506 235 120.969 237.462 120.969 240.5C120.969 243.537 118.506 246 115.469 246C112.431 246 109.969 243.537 109.969 240.5C109.969 237.462 112.431 235 115.469 235Z" fill="black" fill-opacity="0.01"/>
<path d="M115.469 236C117.954 236 119.969 238.015 119.969 240.5C119.969 242.985 117.954 245 115.469 245C112.983 245 110.969 242.985 110.969 240.5C110.969 238.015 112.983 236 115.469 236Z" stroke="#34C3FF" stroke-width="2"/>
</g>
<g filter="url(#filter2_d_11_3)">
<path fill-rule="evenodd" clip-rule="evenodd" d="M206.92 708.527L203.125 704.57C202.663 704.088 202.663 703.305 203.125 702.823C203.588 702.341 204.338 702.341 204.801 702.823L208.596 706.78L212.391 702.823C212.853 702.341 213.604 702.341 214.066 702.823C214.529 703.305 214.529 704.088 214.066 704.57L210.271 708.527L214.066 712.485C214.529 712.968 214.529 713.749 214.066 714.232C213.604 714.714 212.853 714.714 212.391 714.232L208.596 710.275L204.801 714.232C204.338 714.714 203.588 714.714 203.125 714.232C202.663 713.749 202.663 712.968 203.125 712.485L206.92 708.527Z" fill="#34C3FF"/>
</g>
<g filter="url(#filter3_d_11_3)">
<path fill-rule="evenodd" clip-rule="evenodd" d="M213.988 454.343L219.646 460L213.988 465.656L208.331 460L213.988 454.343Z" fill="#5800E4"/>
</g>
<g filter="url(#filter4_d_11_3)">
<path fill-rule="evenodd" clip-rule="evenodd" d="M42.2752 377.194L38.48 373.237C38.0173 372.754 38.0173 371.972 38.48 371.49C38.9427 371.008 39.6927 371.008 40.1554 371.49L43.9506 375.447L47.7457 371.49C48.2084 371.008 48.9585 371.008 49.4211 371.49C49.8838 371.972 49.8838 372.754 49.4211 373.237L45.6259 377.194L49.4211 381.152C49.8838 381.634 49.8838 382.416 49.4211 382.898C48.9585 383.38 48.2084 383.38 47.7457 382.898L43.9506 378.941L40.1554 382.898C39.6927 383.38 38.9427 383.38 38.48 382.898C38.0173 382.416 38.0173 381.634 38.48 381.152L42.2752 377.194Z" fill="#FFB534"/>
</g>
<g filter="url(#filter5_d_11_3)">
<path fill-rule="evenodd" clip-rule="evenodd" d="M182.566 89.5492L178.771 85.5918C178.308 85.1093 178.308 84.3272 178.771 83.8447C179.234 83.3618 179.984 83.3618 180.447 83.8447L184.242 87.8025L188.037 83.8447C188.5 83.3618 189.25 83.3618 189.712 83.8447H189.712C190.175 84.3272 190.175 85.1093 189.712 85.5918L185.917 89.5492L189.712 93.5062C190.175 93.9887 190.175 94.7716 189.712 95.2537H189.712C189.25 95.7362 188.5 95.7362 188.037 95.2537L184.242 91.2967L180.447 95.2537C179.984 95.7362 179.234 95.7362 178.771 95.2537C178.308 94.7716 178.308 93.9887 178.771 93.5062L182.566 89.5492Z" fill="#FE3E57"/>
</g>
<defs>
<filter id="filter0_d_11_3" x="131.969" y="563" width="45.0311" height="45.9998" filterUnits="userSpaceOnUse" color-interpolation-filters="sRGB">
<feFlood flood-opacity="0" result="BackgroundImageFix"/>
<feColorMatrix in="SourceAlpha" type="matrix" values="0 0 0 0 0 0 0 0 0 0 0 0 0 0 0 0 0 0 127 0" result="hardAlpha"/>
<feOffset dy="3"/>
<feGaussianBlur stdDeviation="2.5"/>
<feColorMatrix type="matrix" values="0 0 0 0 0.996078 0 0 0 0 0.243137 0 0 0 0 0.341176 0 0 0 0.4 0"/>
<feBlend mode="normal" in2="BackgroundImageFix" result="effect1_dropShadow_11_3"/>
<feBlend mode="normal" in="SourceGraphic" in2="effect1_dropShadow_11_3" result="shape"/>
</filter>
<filter id="filter1_d_11_3" x="104.969" y="233" width="20.9999" height="20.9999" filterUnits="userSpaceOnUse" color-interpolation-filters="sRGB">
<feFlood flood-opacity="0" result="BackgroundImageFix"/>
<feColorMatrix in="SourceAlpha" type="matrix" values="0 0 0 0 0 0 0 0 0 0 0 0 0 0 0 0 0 0 127 0" result="hardAlpha"/>
<feOffset dy="3"/>
<feGaussianBlur stdDeviation="2.5"/>
<feColorMatrix type="matrix" values="0 0 0 0 0.203922 0 0 0 0 0.764706 0 0 0 0 1 0 0 0 0.4 0"/>
<feBlend mode="normal" in2="BackgroundImageFix" result="effect1_dropShadow_11_3"/>
<feBlend mode="normal" in="SourceGraphic" in2="effect1_dropShadow_11_3" result="shape"/>
</filter>
<filter id="filter2_d_11_3" x="197.778" y="700.461" width="21.635" height="22.1324" filterUnits="userSpaceOnUse" color-interpolation-filters="sRGB">
<feFlood flood-opacity="0" result="BackgroundImageFix"/>
<feColorMatrix in="SourceAlpha" type="matrix" values="0 0 0 0 0 0 0 0 0 0 0 0 0 0 0 0 0 0 127 0" result="hardAlpha"/>
<feOffset dy="3"/>
<feGaussianBlur stdDeviation="2.5"/>
<feColorMatrix type="matrix" values="0 0 0 0 0.203922 0 0 0 0 0.764706 0 0 0 0 1 0 0 0 0.4 0"/>
<feBlend mode="normal" in2="BackgroundImageFix" result="effect1_dropShadow_11_3"/>
<feBlend mode="normal" in="SourceGraphic" in2="effect1_dropShadow_11_3" result="shape"/>
</filter>
<filter id="filter3_d_11_3" x="203.331" y="452.343" width="21.3147" height="21.3136" filterUnits="userSpaceOnUse" color-interpolation-filters="sRGB">
<feFlood flood-opacity="0" result="BackgroundImageFix"/>
<feColorMatrix in="SourceAlpha" type="matrix" values="0 0 0 0 0 0 0 0 0 0 0 0 0 0 0 0 0 0 127 0" result="hardAlpha"/>
<feOffset dy="3"/>
<feGaussianBlur stdDeviation="2.5"/>
<feColorMatrix type="matrix" values="0 0 0 0 0.345098 0 0 0 0 0 0 0 0 0 0.894118 0 0 0 0.4 0"/>
<feBlend mode="normal" in2="BackgroundImageFix" result="effect1_dropShadow_11_3"/>
<feBlend mode="normal" in="SourceGraphic" in2="effect1_dropShadow_11_3" result="shape"/>
</filter>
<filter id="filter4_d_11_3" x="33.1329" y="369.128" width="21.6351" height="22.1318" filterUnits="userSpaceOnUse" color-interpolation-filters="sRGB">
<feFlood flood-opacity="0" result="BackgroundImageFix"/>
<feColorMatrix in="SourceAlpha" type="matrix" values="0 0 0 0 0 0 0 0 0 0 0 0 0 0 0 0 0 0 127 0" result="hardAlpha"/>
<feOffset dy="3"/>
<feGaussianBlur stdDeviation="2.5"/>
<feColorMatrix type="matrix" values="0 0 0 0 1 0 0 0 0 0.709804 0 0 0 0 0.203922 0 0 0 0.4 0"/>
<feBlend mode="normal" in2="BackgroundImageFix" result="effect1_dropShadow_11_3"/>
<feBlend mode="normal" in="SourceGraphic" in2="effect1_dropShadow_11_3" result="shape"/>
</filter>
<filter id="filter5_d_11_3" x="173.424" y="81.4825" width="21.6351" height="22.1331" filterUnits="userSpaceOnUse" color-interpolation-filters="sRGB">
<feFlood flood-opacity="0" result="BackgroundImageFix"/>
<feColorMatrix in="SourceAlpha" type="matrix" values="0 0 0 0 0 0 0 0 0 0 0 0 0 0 0 0 0 0 127 0" result="hardAlpha"/>
<feOffset dy="3"/>
<feGaussianBlur stdDeviation="2.5"/>
<feColorMatrix type="matrix" values="0 0 0 0 0.996078 0 0 0 0 0.243137 0 0 0 0 0.341176 0 0 0 0.4 0"/>
<feBlend mode="normal" in2="BackgroundImageFix" result="effect1_dropShadow_11_3"/>
<feBlend mode="normal" in="SourceGraphic" in2="effect1_dropShadow_11_3" result="shape"/>
</filter>
</defs>
</svg>
