<svg xmlns="http://www.w3.org/2000/svg" width="20px" height="20px" viewBox="0 0 20 20" version="1.1">
<g id="surface1">
<path style=" stroke:none;fill-rule:evenodd;fill:rgb(100%,100%,100%);fill-opacity:1;" d="M 13.566406 10.183594 C 13.683594 10.300781 13.75 10.457031 13.75 10.625 C 13.75 10.792969 13.683594 10.949219 13.566406 11.066406 L 9.816406 14.816406 C 9.699219 14.933594 9.542969 15 9.375 15 C 9.207031 15 9.050781 14.933594 8.933594 14.816406 L 7.058594 12.941406 C 6.8125 12.699219 6.8125 12.300781 7.058594 12.058594 C 7.300781 11.8125 7.699219 11.8125 7.941406 12.058594 L 9.375 13.492188 L 12.683594 10.183594 C 12.800781 10.066406 12.957031 10 13.125 10 C 13.292969 10 13.449219 10.066406 13.566406 10.183594 Z M 13.566406 10.183594 "/>
</g>
</svg>
