<svg xmlns="http://www.w3.org/2000/svg" width="20" height="20">
    <path fill-rule="evenodd" fill="#29282D" d="M17.7 12.927c-1.719-1.089-3.015-1.607-4.43-2.383a5.781 5.781 0 0 0 2.511-4.764c0-3.189-2.594-5.68-5.782-5.68-3.187 0-5.781 2.491-5.781 5.68a5.78 5.78 0 0 0 2.51 4.764c-1.414.776-2.558 1.294-3.8 2.383C1.4 14.816 0 17.327 0 19.998h1.562c0-4.652 3.785-8.437 8.437-8.437 4.653 0 8.438 3.785 8.438 8.437h1.562c0-2.671-1.04-5.182-2.299-7.071zM5.781 5.78a4.223 4.223 0 0 1 4.218-4.219 4.223 4.223 0 0 1 4.219 4.219 4.223 4.223 0 0 1-4.219 4.218A4.223 4.223 0 0 1 5.781 5.78z"/>
</svg>
