<svg width="18" height="22" fill="none" xmlns="http://www.w3.org/2000/svg"><path fill-rule="evenodd" clip-rule="evenodd" d="M2.4 9.625V6.108L.6 7.866l1.8 1.759zM9 6.937c-.331 0-.6.262-.6.586 0 .323.269.586.6.586.415 0 .525-.278.591-.627A.59.59 0 009 6.937zm-9 12.31V8.936l5.751 5.62L.181 20a1.706 1.706 0 01-.18-.754zM17.82 20l-5.571-5.443L18 8.937v10.31c0 .27-.068.523-.18.753zM6.85 15.143h4.302l5.82 5.686c-.236.11-.495.176-.772.176H1.8c-.276 0-.535-.067-.77-.176l5.819-5.686zm8.75-9.035l1.8 1.758-1.8 1.759V6.108zm-4.448 7.863l3.248-3.174v-9.05a.76.76 0 00-.769-.75H4.256a.649.649 0 00-.656.64v9.16l3.248 3.174h4.303zM4.8 7.523C4.8 5.26 6.684 3.42 9 3.42c2.315 0 4.2 1.84 4.2 4.103 0 1.507-1.835 2.33-3.001 1.301a1.81 1.81 0 01-1.2.457c-.992 0-1.8-.789-1.8-1.758 0-.97.808-1.759 1.8-1.759.993 0 1.8.79 1.8 1.759 0 .775 1.2.775 1.2 0 0-1.616-1.345-2.931-3-2.931-1.654 0-3 1.315-3 2.93 0 1.004.519 1.927 1.387 2.47.89.557 1.993.61 3.028.146.715-.325 1.224.74.501 1.064-1.375.618-2.902.575-4.176-.222-1.214-.76-1.94-2.052-1.94-3.457z" fill="#FE3E57"/></svg>