<svg width="15" height="15" fill="none" xmlns="http://www.w3.org/2000/svg"><path fill-rule="evenodd" clip-rule="evenodd" d="M-1.4 5.9l3.6-.72-.74-3.7-3.6.72.74 3.7zm7.5 9.94l3.6-.72-.74-3.7-3.6.72.74 3.7zM.8 16.9l3.6-.72-.74-3.7-3.6.72.74 3.7zm-1.1-5.5l3.6-.72-.74-3.7-3.6.72.74 3.7zM5 10.34l3.6-.72-.74-3.7-3.6.72.74 3.7zM8.56.06l.74 3.7 3.5-.7-.74-3.7-3.6.72zM3.9 4.84l3.6-.72-.74-3.7-3.6.72.74 3.7zm6.4 4.44l3.6-.72-.74-3.7-3.6.72.74 3.7zm1.1 5.5l3.6-.72-.74-3.7-3.6.72.74 3.7z" fill="#fe3e57"/></svg>