<svg width="16" height="16" fill="none" xmlns="http://www.w3.org/2000/svg"><path fill-rule="evenodd" clip-rule="evenodd" d="M13.657 10.343a7.975 7.975 0 00-3.04-1.907 4.623 4.623 0 002.008-3.811A4.63 4.63 0 008 0a4.623 4.623 0 00-2.617 8.436 7.975 7.975 0 00-3.04 1.907A7.948 7.948 0 000 16h1.25A6.758 6.758 0 018 9.25 6.758 6.758 0 0114.75 16H16a7.947 7.947 0 00-2.343-5.657zM4.625 4.625A3.379 3.379 0 018 1.25a3.379 3.379 0 013.375 3.375A3.379 3.379 0 018 8a3.379 3.379 0 01-3.375-3.375z" fill="#FE3E57"/></svg>