<svg width="16" height="16" viewBox="0 0 16 16" fill="none">
<path fill-rule="evenodd" clip-rule="evenodd" d="M7.99875 -0.000768L0.228336 6.85709C-0.040496 7.09486 -0.069216 7.50829 0.16424 7.78179C0.397712 8.05486 0.804768 8.08379 1.07347 7.84674L1.35992 7.59392V14.0339C1.35992 15.1195 2.22566 15.999 3.29352 15.999H6.9031V10.7255C6.9031 10.0928 7.40813 9.57939 8.03102 9.57939C8.65405 9.57939 9.15896 10.0928 9.15896 10.7255V15.999H12.704C13.772 15.999 14.6377 15.1195 14.6377 14.0339V7.59392L14.924 7.84674C15.1928 8.084 15.5999 8.05486 15.8334 7.78179C16.0667 7.50829 16.0381 7.09486 15.7693 6.85739L7.99875 -0.000768ZM13.3485 14.0339C13.3485 14.3957 13.06 14.6892 12.704 14.6892H10.4481V10.7255C10.4481 9.36898 9.36598 8.26915 8.03102 8.26915C6.69608 8.26915 5.61392 9.36898 5.61392 10.7255V14.6892H3.29352C2.9376 14.6892 2.64899 14.3957 2.64899 14.0339V6.45587L7.99875 1.73419L13.3485 6.45587V14.0339Z" fill="#727272"/>
</svg>
