<svg width="20" height="22" fill="none" xmlns="http://www.w3.org/2000/svg"><path fill-rule="evenodd" clip-rule="evenodd" d="M7.713 3.984a1.758 1.758 0 010 2.487l-.415.414-4.97-4.973.415-.415c.664-.665 1.822-.664 2.485 0l2.485 2.487zm3.782 10.421l-4.912-4.92c-.479-.479-.495-1.226-.09-1.748L1.535 2.775c-2.133 2.488-2.05 6.238.304 8.594l7.774 7.784a6.283 6.283 0 008.587.305l-4.958-4.963c-.523.406-1.269.39-1.747-.09zm7.982 1.357l-2.485-2.487c-.663-.664-1.82-.665-2.485 0l-.414.415 4.97 4.973.414-.414a1.758 1.758 0 000-2.487z" fill="#FE3E57"/></svg>