<svg width="16" height="16" viewBox="0 0 16 16" fill="none" xmlns="http://www.w3.org/2000/svg">
<path fill-rule="evenodd" clip-rule="evenodd" d="M13.6568 10.3428C12.7854 9.47166 11.7484 8.82669 10.6168 8.43595C11.8287 7.60117 12.625 6.20434 12.625 4.62467C12.625 2.07437 10.5501 -0.000304 7.99995 -0.000304C5.44974 -0.000304 3.37493 2.07437 3.37493 4.62467C3.37493 6.20434 4.1711 7.60117 5.38314 8.43595C4.25155 8.82669 3.21437 9.47166 2.34302 10.3428C0.832048 11.8539 -4.8e-05 13.8626 -4.8e-05 15.9996H1.24987C1.24987 12.2777 4.27798 9.24963 7.99995 9.24963C11.7219 9.24963 14.7499 12.2777 14.7499 15.9996H15.9999C15.9999 13.8626 15.1678 11.8539 13.6568 10.3428ZM4.62498 4.62467C4.62498 2.76354 6.13891 1.2496 7.99995 1.2496C9.86086 1.2496 11.3749 2.76354 11.3749 4.62467C11.3749 6.48558 9.86086 7.99952 7.99995 7.99952C6.13891 7.99952 4.62498 6.48558 4.62498 4.62467Z" fill="#FE3E57"/>
</svg>
