<svg width="17" height="20" viewBox="0 0 17 20" fill="none" xmlns="http://www.w3.org/2000/svg">
<path fill-rule="evenodd" clip-rule="evenodd" d="M15.9986 17.2939L14.8544 4.3955C14.83 4.10874 14.5888 3.89206 14.307 3.89206H11.9529C11.9201 1.74018 10.1629 0.00152 8.00504 0.00152C5.84725 0.00152 4.09002 1.74018 4.05728 3.89206H1.70323C1.41736 3.89206 1.18024 4.10874 1.15574 4.3955L0.011344 17.2939C0.011344 17.3108 0.007328 17.3266 0.007328 17.3435C0.007328 18.8123 1.3519 20.0064 3.00694 20.0064H13.003C14.6583 20.0064 16.0028 18.8123 16.0028 17.3435C16.0028 17.3266 16.0028 17.3108 15.9986 17.2939ZM8.00504 1.10626C9.55387 1.10626 10.8168 2.35034 10.8493 3.89206H5.16061C5.19334 2.35034 6.45608 1.10626 8.00504 1.10626ZM13.003 18.9021H3.00694C1.96885 18.9021 1.12725 18.2146 1.11088 17.368L2.20597 5.00084H4.05317V6.67788C4.05317 6.98478 4.29842 7.23046 4.60488 7.23046C4.91147 7.23046 5.15672 6.98478 5.15672 6.67788V5.00084H10.8493V6.67788C10.8493 6.98478 11.0946 7.23046 11.4011 7.23046C11.7075 7.23046 11.9529 6.98478 11.9529 6.67788V5.00084H13.8001L14.8993 17.368C14.8829 18.2146 14.0371 18.9021 13.003 18.9021Z" fill="#FE3E57"/>
</svg>
