
<svg xmlns="http://www.w3.org/2000/svg" width="19px" height="17px" viewBox="0 0 19 17" version="1.1">
<g id="surface1">
<path style=" stroke:none; fill-rule:nonzero;fill:rgb(80%,80%,80.784314%);fill-opacity:1;" d="M 10.453125 0.597656 C 10.277344 0.234375 9.910156 0 9.503906 0 C 9.097656 0 8.730469 0.234375 8.554688 0.597656 L 6.433594 4.992188 L 1.695312 5.695312 C 1.300781 5.753906 0.96875 6.03125 0.847656 6.414062 C 0.726562 6.796875 0.824219 7.21875 1.109375 7.5 L 4.546875 10.921875 L 3.734375 15.761719 C 3.667969 16.160156 3.832031 16.566406 4.160156 16.800781 C 4.484375 17.035156 4.917969 17.066406 5.273438 16.878906 L 9.507812 14.601562 L 13.738281 16.878906 C 14.09375 17.066406 14.527344 17.039062 14.855469 16.800781 C 15.179688 16.5625 15.34375 16.160156 15.277344 15.761719 L 14.464844 10.921875 L 17.902344 7.5 C 18.183594 7.21875 18.289062 6.796875 18.164062 6.414062 C 18.035156 6.03125 17.710938 5.753906 17.3125 5.695312 L 12.574219 4.992188 Z M 10.453125 0.597656 "/>
</g>
</svg>
