<svg width="60" height="60" fill="none"><g clip-path="url(#clip0_0_1368)" fill-rule="evenodd" clip-rule="evenodd"><path d="M0 0h60v60H0V0z" fill="#FE3E57"/><path d="M42.384 29.676a2.387 2.387 0 00-1.453-.594 2.108 2.108 0 00-1.597.594l-2.89 2.792a1.901 1.901 0 00-.196-.271c-.355-.413-.875-.64-1.464-.64h-4.046a8.497 8.497 0 01-2.212-.287c-1.838-.496-3.594-.133-5.078 1.05a7.25 7.25 0 00-1.322 1.386l-.725-.688a.52.52 0 00-.358-.142h-.004a.523.523 0 00-.366.153l-3.527 3.576a.493.493 0 00.015.708l5.966 5.546a.517.517 0 00.719-.013l3.493-3.5a.498.498 0 00.146-.36.497.497 0 00-.156-.35l-.304-.289.696-.076c.422-.049.85-.072 1.274-.072h6.156c1 0 1.85-.214 2.526-.636l.017-.01a3.35 3.35 0 00.652-.579l4.149-4.765c.71-.816.665-1.833-.111-2.533zm-18.918 12.12l-5.227-4.86 2.816-2.854 5.196 4.924-2.785 2.79zm18.25-10.234l-4.15 4.766a2.38 2.38 0 01-.448.4c-.507.313-1.169.472-1.967.472h-6.156a12.5 12.5 0 00-1.39.078l-1.53.168-3.206-3.037a6.283 6.283 0 011.226-1.316c1.233-.983 2.632-1.273 4.158-.86.794.214 1.63.323 2.485.323h4.046c.727 0 .92.615.92.977 0 .266-.086.519-.239.693-.165.19-.4.286-.697.286h-3.522a.506.506 0 00-.511.5c0 .276.229.5.51.5h3.523c.595 0 1.12-.228 1.477-.639.298-.342.467-.792.482-1.272l3.329-3.217c.475-.464 1.219-.348 1.635.027.215.193.504.6.024 1.15zM29.65 34.879a.512.512 0 00-.614-.372.498.498 0 00-.382.6l.005.02a.51.51 0 00.615.372.499.499 0 00.38-.6l-.004-.02zm-9.192-6.346h4.983c.271 0 .523-.085.727-.232.204.147.455.232.727.232h4.983c.27 0 .522-.085.726-.232.204.147.456.232.727.232h4.983c.682 0 1.238-.542 1.238-1.209v-2.269a2.612 2.612 0 00-1.459-2.34 2.825 2.825 0 00.68-1.837c0-1.587-1.324-2.88-2.95-2.88-1.627 0-2.95 1.293-2.95 2.88 0 .698.255 1.338.678 1.836a2.67 2.67 0 00-.947.793 2.661 2.661 0 00-.947-.793 2.823 2.823 0 00.678-1.836c0-1.587-1.323-2.88-2.95-2.88-1.626 0-2.949 1.293-2.949 2.88 0 .698.255 1.338.679 1.837a2.657 2.657 0 00-.947.792 2.665 2.665 0 00-.948-.793 2.824 2.824 0 00.68-1.836c0-1.587-1.324-2.88-2.95-2.88-1.627 0-2.95 1.293-2.95 2.88 0 .698.255 1.338.679 1.837a2.611 2.611 0 00-1.459 2.34v2.269c0 .667.556 1.209 1.238 1.209zm15.364-9.536c1.063 0 1.927.844 1.927 1.881 0 1.038-.864 1.882-1.927 1.882-1.062 0-1.926-.844-1.926-1.882 0-1.037.864-1.881 1.926-1.881zm-1.328 4.452a2.993 2.993 0 002.657 0 1.634 1.634 0 011.378 1.606v2.269c0 .116-.097.21-.215.21h-4.983a.213.213 0 01-.215-.21v-2.269c0-.802.583-1.47 1.378-1.606zm-5.108-4.452c1.063 0 1.927.844 1.927 1.881 0 1.038-.864 1.882-1.927 1.882-1.063 0-1.927-.844-1.927-1.882 0-1.037.864-1.881 1.927-1.881zm-1.329 4.452a2.994 2.994 0 002.657 0 1.634 1.634 0 011.379 1.606v2.269c0 .116-.097.21-.215.21h-4.983a.213.213 0 01-.216-.21v-2.269c0-.802.584-1.47 1.378-1.606zm-5.107-4.452c1.062 0 1.927.844 1.927 1.881 0 1.038-.865 1.882-1.927 1.882-1.063 0-1.927-.844-1.927-1.882 0-1.037.864-1.881 1.927-1.881zm-2.707 6.058c0-.802.584-1.47 1.378-1.606a2.992 2.992 0 002.657 0 1.634 1.634 0 011.378 1.606v2.269c0 .116-.096.21-.215.21h-4.983a.213.213 0 01-.215-.21v-2.269z" fill="#fff"/></g><defs><clipPath id="clip0_0_1368"><path fill="#fff" d="M0 0h60v60H0z"/></clipPath></defs></svg>