<svg width="16" height="16" fill="none" xmlns="http://www.w3.org/2000/svg"><path fill-rule="evenodd" clip-rule="evenodd" d="M15.375 0H.625A.625.625 0 000 .625v12.374c0 .346.28.625.625.625h5.53l1.316 2.085a.625.625 0 001.057 0l1.316-2.085h5.53c.346 0 .626-.28.626-.625V.625A.625.625 0 0015.375 0zm-.625 12.375H9.5a.625.625 0 00-.529.29L8 14.206l-.972-1.54a.625.625 0 00-.528-.29H1.25V1.25h13.5v11.125zM7.219 6.812a.781.781 0 111.562 0 .781.781 0 01-1.562 0zm-3.125 0a.781.781 0 111.562 0 .781.781 0 01-1.562 0zm6.25 0a.781.781 0 111.562 0 .781.781 0 01-1.562 0z" fill="#FE3E57"/></svg>