<svg xmlns="http://www.w3.org/2000/svg" width="22" height="20">
    <path fill-rule="evenodd" fill="#29282D" d="m21.993 4.718-2.003 8.038a.822.822 0 0 1-.799.62H6.378a.821.821 0 0 1-.8-.627L2.903 1.633H.836C.382 1.633.13 1.268.13.816.13.365.382 0 .836 0h2.716c.381 0 .712.259.801.626L5.94 3.704h15.254c.253 0 .492.116.648.476.156.036.688.294.151.538zm-16.506.621 1.793 6.402h11.267l1.595-6.402H5.487zm1.989 9.209a2.736 2.736 0 0 1 2.743 2.724 2.737 2.737 0 0 1-2.743 2.725c-1.513 0-2.744-1.222-2.744-2.725 0-1.502 1.231-2.724 2.744-2.724zm0 3.815c1.334 0 1.097-.49 1.097-1.091 0-.6.237-1.089-1.097-1.089-.605 0-1.098.489-1.098 1.089 0 .601.493 1.091 1.098 1.091zm9.959-3.815c1.513 0 2.744 1.222 2.744 2.724 0 1.503-1.231 2.725-2.744 2.725a2.737 2.737 0 0 1-2.743-2.725 2.736 2.736 0 0 1 2.743-2.724zm0 3.815c.965 0 1.098-.49 1.098-1.091 0-.6-.133-1.089-1.098-1.089-.605 0-1.097.489-1.097 1.089 0 .601.492 1.091 1.097 1.091z"/>
</svg>
