<?xml version="1.0" standalone="no"?>
<!DOCTYPE svg PUBLIC "-//W3C//DTD SVG 20010904//EN"
 "http://www.w3.org/TR/2001/REC-SVG-20010904/DTD/svg10.dtd">
<svg version="1.0" xmlns="http://www.w3.org/2000/svg"
 width="512.000000pt" height="512.000000pt" viewBox="0 0 512.000000 512.000000"
 preserveAspectRatio="xMidYMid meet">

<g transform="translate(0.000000,512.000000) scale(0.100000,-0.100000)"
fill="#000000" stroke="none">
<path d="M1198 4626 c-230 -41 -446 -162 -640 -358 -118 -118 -199 -230 -263
-362 -227 -465 -161 -1010 170 -1416 75 -92 1999 -1982 2033 -1997 39 -17 92
-16 130 5 44 24 1959 1908 2035 2003 215 267 321 616 289 947 -27 278 -126
517 -298 722 -332 395 -740 544 -1184 432 -267 -68 -557 -240 -813 -482 l-97
-92 -90 85 c-265 253 -555 424 -832 493 -128 31 -324 40 -440 20z m387 -336
c104 -27 316 -133 430 -214 125 -91 267 -218 355 -318 87 -100 130 -128 191
-128 53 0 95 24 146 82 262 297 535 491 808 574 78 24 107 27 215 27 107 0
138 -3 213 -26 221 -68 391 -195 521 -390 244 -367 229 -846 -38 -1181 -49
-61 -1853 -1846 -1866 -1846 -13 0 -1817 1786 -1866 1847 -105 131 -181 314
-205 489 -32 239 39 519 177 703 112 149 295 300 431 356 145 59 323 68 488
25z"/>
</g>
</svg>
