<svg xmlns="http://www.w3.org/2000/svg" width="21" height="20">
    <path fill-rule="evenodd" fill="#29282D" d="M19.778 4.588C19.96 2.169 17.95.726 15.605.217c-1.703.16-3.747 0-5.335 1.612C8.196.259 6.152.292 4.448.259 2.958.811.957 2.254.275 4.63.192 6.201.234 8.747 2.234 11.845c1.107 1.4 3.216 3.396 4.216 4.966 2.683 3.014 3.108 3.182 3.491 3.182h.749-.578c.383 0 .766-.168 3.449-3.224a229.284 229.284 0 0 0 4.215-4.967c2.47-3.097 2.47-5.644 2.002-7.214zm-3.279 6.196c-1.959 2.461-5.323 6.324-6.229 7.385-1.393-1.061-4.757-4.924-6.716-7.385C1.936 8.79 1.34 6.837 1.851 5.97c.511-2.655 2.001-3.716 3.108-4.098 1.235-.467 2.896.538 4.429 1.655a.845.845 0 0 0 1.064.127c.086-.042.171-.085.213-.17 1.533-1.074 3.194-2.079 5.275-1.655.261.425 1.751 1.486 2.262 4.141.511.825-.085 2.82-1.703 4.814z"/>
</svg>
