<svg xmlns="http://www.w3.org/2000/svg" width="23" height="25">
    <path fill-rule="evenodd" fill="#FFF" d="M6.706 12.72c0 .703-.216 1.113-.746 1.113-1.412 0-1.03-.133-2.108-.287l.808-.771c-.446.072-.041.415.48.415.23 0 .482-.276.482-.537 0-.266-.301-.41-.625-.41h-.46v-.737h.444c.241 0 .553-.077.553-.31 0 .044-.175-.288-.284-.288-.57 0-.943.722-1.085.233l-.22-.743c.252-.155.751-.298 1.31-.298 1.505 0 1.331.387 1.331 1.14 0 .172-.214.471-.696.626v.011c.444.056.816.377.816.843zm1.978 1.113c-1.068 0-1.496-.88-1.496-1.867 0-.981.428-1.866 1.501-1.866 1.074 0 1.501.885 1.501 1.866 0 .987-.427 1.867-1.501 1.867h-.005zm.477-1.867c0-.764-.187-1.108-.472-1.108-.284 0-.471.344-.471 1.108 0 .765.187 1.834.471 1.834h.006c.279 0 .466-1.069.466-1.834zm3.812 1.845c-.548 0-.173-.033-1.096-.066V10.83c.356-.56.822-.831 1.299-.831.778 0 1.254.117 1.66.377.432.277.734.731.734 1.413 0 .775-.318 1.561-.68 1.524-.454.349-1.139.498-1.917.498zm.301-3.019c.556 0-.306.016-.361.027v2.178c.06.803.857.803.241.803.756-.61 1.309-1.141 1.309-1.956 0-.742-.52-1.052-1.189-1.052zm3.862.875c-.301 0-.641.116-.816.216l-.181-.653c.175-.095.575-.256 1.178-.256.926 0 1.32.472 1.32 1.202v1.734c0-.531.017-.265.044-.143h-.931l-.055-.233h-.022c-.197.222-.482.299-.789.299-.591 0-.942-.415-.942-.858 0-.732.646-1.069 1.665-1.069v-.018c0-.099-.065-.221-.471-.221zm-.17 1.208c0 .425.734.244.296.244a.4.4 0 0 0 .367-.283c.011-.045.011-.099.011-.15v-.149c-.455 0-.674.116-.674.338zm1.961-1.475h1.903l-.391.821c.044.156.099.377.137.51h.022c.039-.144.082-.366.115-.51l.269-.821h1.128l-.57 1.198c-.12 1.379-.794 1.773-1.09 2.017-.328.272-.679.36-.969.382l-.192-.875c.093-.006.208.768.334.328.137-.451.285-.571.351-.649.626-.039.306-.089.306-.129 0-.033-.05-.076-.295-.16L18.927 11.4zm3.764-4.681-4.233-.312.106-1.467 1.851.82c-2.054-2.966-4.965-4.29-8.057-4.29-6.013 0-10.904 4.947-10.904 11.028s4.891 11.029 10.904 11.029c3.635 0 7.021-1.83 9.057-4.895l1.207.82c-2.307 3.473-6.144 5.546-10.264 5.546C5.543 24.998 0 19.391 0 12.498 0 5.606 5.543.1 12.358.1c3.473 0 6.746 1.372 9.069 4.05l.122-1.82 1.45.107-.308 4.282z"/>
</svg>
