<svg width="20" height="20" fill="none" xmlns="http://www.w3.org/2000/svg"><g clip-path="url(#clip0_0_1500)"><path fill-rule="evenodd" clip-rule="evenodd" d="M17.07 12.928a9.957 9.957 0 00-3.8-2.384 5.78 5.78 0 002.511-4.764A5.788 5.788 0 0010 0a5.788 5.788 0 00-5.781 5.78 5.78 5.78 0 002.51 4.764 9.958 9.958 0 00-3.8 2.384 9.934 9.934 0 00-2.93 7.07h1.563c0-4.652 3.785-8.436 8.438-8.436 4.652 0 8.437 3.784 8.437 8.436H20a9.93 9.93 0 00-2.93-7.07zM5.782 5.78A4.223 4.223 0 0110 1.561a4.223 4.223 0 014.219 4.22 4.224 4.224 0 01-4.22 4.218A4.224 4.224 0 015.782 5.78z" fill="#29282D"/></g><defs><clipPath id="clip0_0_1500"><path fill="#fff" d="M0 0h20v20H0z"/></clipPath></defs></svg>