<svg width="0" height="0" class="hidden">
  <symbol version="1.0" xmlns="http://www.w3.org/2000/svg" preserveAspectRatio="xMidYMid meet" viewBox="0 0 512.000000 512.000000" id="icon-cart">
    <g transform="translate(0.000000,512.000000) scale(0.100000,-0.100000)" fill="inherit" stroke="none">
      <path d="M115 4885 c-117 -55 -150 -198 -68 -296 52 -62 62 -64 357 -69 l270
-5 314 -1315 c338 -1417 318 -1346 396 -1404 27 -21 29 -21 1573 -24 l1546 -2
44 21 c83 40 74 11 335 1067 257 1039 253 1015 207 1088 -11 19 -40 45 -63 59
l-43 25 -1896 0 c-1257 0 -1898 3 -1902 10 -3 6 -46 177 -95 381 -98 405 -104
420 -180 459 -37 19 -59 20 -402 20 -291 -1 -369 -4 -393 -15z m4565 -1242 c0
-5 -83 -341 -183 -748 l-183 -740 -1341 -3 -1341 -2 -16 67 c-8 38 -87 369
-176 738 -88 368 -160 675 -160 682 0 11 333 13 1700 13 935 0 1700 -3 1700
-7z"></path>
      <path d="M1560 1467 c-435 -130 -604 -653 -323 -1004 136 -170 318 -252 532
-240 170 9 302 68 423 190 53 52 78 89 112 160 52 109 66 168 66 285 0 175
-62 325 -186 449 -57 57 -90 80 -165 116 -52 25 -118 50 -147 56 -89 18 -227
13 -312 -12z m285 -382 c191 -92 192 -357 1 -458 -57 -30 -165 -30 -222 0 -79
42 -144 145 -144 228 0 48 33 128 68 167 54 60 122 90 197 85 33 -2 78 -12
100 -22z"></path>
      <path d="M3902 1476 c-102 -26 -217 -92 -296 -170 -60 -59 -82 -90 -119 -167
-53 -110 -67 -169 -67 -284 0 -106 14 -171 55 -262 112 -243 347 -385 614
-370 168 9 294 65 414 184 74 73 119 144 155 245 23 64 26 88 27 198 0 102 -4
138 -22 195 -60 188 -208 341 -401 413 -55 20 -89 26 -187 28 -78 2 -139 -1
-173 -10z m248 -387 c201 -91 210 -359 16 -462 -57 -30 -165 -30 -222 0 -204
108 -187 386 31 470 48 18 125 15 175 -8z"></path>
    </g>
  </symbol>
  <symbol version="1.0" xmlns="http://www.w3.org/2000/svg" preserveAspectRatio="xMidYMid meet" viewBox="0 0 512.000000 512.000000" id="icon-heart">
    <g transform="translate(0.000000,512.000000) scale(0.100000,-0.100000)" fill="inherit" stroke="none">
      <path d="M1198 4626 c-230 -41 -446 -162 -640 -358 -118 -118 -199 -230 -263
-362 -227 -465 -161 -1010 170 -1416 75 -92 1999 -1982 2033 -1997 39 -17 92
-16 130 5 44 24 1959 1908 2035 2003 215 267 321 616 289 947 -27 278 -126
517 -298 722 -332 395 -740 544 -1184 432 -267 -68 -557 -240 -813 -482 l-97
-92 -90 85 c-265 253 -555 424 -832 493 -128 31 -324 40 -440 20z m387 -336
c104 -27 316 -133 430 -214 125 -91 267 -218 355 -318 87 -100 130 -128 191
-128 53 0 95 24 146 82 262 297 535 491 808 574 78 24 107 27 215 27 107 0
138 -3 213 -26 221 -68 391 -195 521 -390 244 -367 229 -846 -38 -1181 -49
-61 -1853 -1846 -1866 -1846 -13 0 -1817 1786 -1866 1847 -105 131 -181 314
-205 489 -32 239 39 519 177 703 112 149 295 300 431 356 145 59 323 68 488
25z"></path>
    </g>
  </symbol>
  <symbol version="1.0" xmlns="http://www.w3.org/2000/svg" preserveAspectRatio="xMidYMid meet" viewBox="0 0 512.000000 512.000000" id="icon-search">
    <g transform="translate(0.000000,512.000000) scale(0.100000,-0.100000)" fill="inherit" stroke="none">
      <path d="M1930 5109 c-494 -51 -951 -269 -1306 -623 -246 -246 -412 -514 -518
-836 -141 -428 -141 -872 0 -1300 106 -323 273 -592 520 -837 488 -485 1153
-705 1839 -608 353 50 707 195 985 404 30 23 57 40 61 39 4 -2 307 -298 673
-658 417 -410 680 -661 704 -672 98 -46 208 12 228 120 16 84 72 24 -1024
1106 l-342 338 58 68 c250 289 415 655 478 1055 24 156 24 442 0 600 -71 459
-272 853 -607 1186 -460 457 -1101 684 -1749 618z m479 -335 c404 -59 759
-235 1040 -515 344 -345 523 -774 523 -1259 0 -179 -16 -302 -58 -457 -212
-788 -931 -1333 -1759 -1333 -493 0 -951 187 -1293 529 -232 232 -387 500
-471 811 -74 277 -74 623 0 900 168 626 665 1119 1292 1281 228 59 507 76 726
43z"></path>
    </g>
  </symbol>
  <symbol version="1.0" xmlns="http://www.w3.org/2000/svg" preserveAspectRatio="xMidYMid meet" viewBox="0 0 512.000000 512.000000" id="icon-user">
    <g transform="translate(0.000000,512.000000) scale(0.100000,-0.100000)" fill="inherit" stroke="none">
      <path d="M2435 5114 c-16 -2 -65 -9 -109 -15 -246 -33 -541 -172 -741 -349
-253 -223 -432 -545 -486 -875 -20 -120 -17 -390 5 -500 71 -361 275 -695 550
-903 l68 -52 -28 -10 c-121 -46 -173 -69 -276 -120 -444 -223 -805 -560 -1062
-990 -210 -352 -328 -745 -352 -1180 l-7 -120 201 0 202 0 0 49 c0 339 141
807 330 1095 291 445 681 750 1156 905 452 148 896 148 1348 0 475 -155 865
-460 1156 -905 189 -288 330 -756 330 -1095 l0 -49 202 0 201 0 -7 120 c-24
435 -142 828 -352 1180 -257 430 -618 767 -1062 990 -103 51 -155 74 -276 120
l-28 10 68 52 c275 208 479 542 550 903 22 110 25 380 5 500 -43 263 -176 542
-352 742 -219 247 -527 421 -848 479 -77 14 -332 26 -386 18z m294 -409 c588
-96 990 -650 896 -1234 -96 -588 -650 -990 -1234 -896 -588 96 -990 650 -896
1234 96 588 650 990 1234 896z"></path>
    </g>
  </symbol>
</svg>