<svg width="0" height="0" class="hidden"><symbol xmlns="http://www.w3.org/2000/svg" preserveAspectRatio="xMidYMid meet" viewBox="0 0 512 512" id="icon-heart"><path d="M1198 4626c-230-41-446-162-640-358-118-118-199-230-263-362-227-465-161-1010 170-1416 75-92 1999-1982 2033-1997 39-17 92-16 130 5 44 24 1959 1908 2035 2003 215 267 321 616 289 947-27 278-126 517-298 722-332 395-740 544-1184 432-267-68-557-240-813-482l-97-92-90 85c-265 253-555 424-832 493-128 31-324 40-440 20zm387-336c104-27 316-133 430-214 125-91 267-218 355-318 87-100 130-128 191-128 53 0 95 24 146 82 262 297 535 491 808 574 78 24 107 27 215 27 107 0 138-3 213-26 221-68 391-195 521-390 244-367 229-846-38-1181-49-61-1853-1846-1866-1846S743 2656 694 2717c-105 131-181 314-205 489-32 239 39 519 177 703 112 149 295 300 431 356 145 59 323 68 488 25z" transform="matrix(.1 0 0 -.1 0 512)" fill="inherit"/></symbol><symbol xmlns="http://www.w3.org/2000/svg" preserveAspectRatio="xMidYMid meet" viewBox="0 0 480 480" id="icon-in"><path d="M725 4530c-241-49-415-258-415-500 0-180 84-335 234-432 209-135 506-95 666 91 179 206 170 501-19 692-125 125-302 182-466 149zm2650-1301c-154-20-316-81-450-172-71-49-191-166-231-227l-29-44-3 182-2 182h-840V380h839l3 808c3 797 4 808 25 885 31 109 75 187 144 252 72 68 143 102 257 122 70 12 103 13 171 4 239-31 367-186 400-484 7-60 11-376 11-842V380h870v888c0 887-5 1040-35 1183-95 460-394 729-865 779-109 11-167 11-265-1zM390 1765V380h870v2770H390V1765z" transform="matrix(.1 0 0 -.1 0 480)" fill="inherit"/></symbol><symbol xmlns="http://www.w3.org/2000/svg" preserveAspectRatio="xMidYMid meet" viewBox="0 0 2400 3085" id="icon-pinterest"><path d="M11740 30840c-384-15-756-41-1145-81-1713-174-3389-727-4925-1622-1294-754-2445-1742-3349-2875C999 24604 217 22663 45 20615c-54-648-54-1505 0-2175 127-1561 561-2797 1301-3703 127-156 396-431 543-557 626-534 1349-891 2276-1124 169-43 181-45 193-28 7 9 66 123 131 252 425 850 514 1504 296 2180-90 276-218 530-518 1025-457 752-621 1134-706 1640-213 1266-111 2576 293 3790 499 1496 1433 2835 2731 3915 1014 844 2218 1485 3485 1855 2312 675 4637 406 6493-752 603-376 1238-914 1631-1383 775-924 1289-2314 1455-3935 71-687 80-1484 26-2205-169-2238-895-4375-1980-5825-65-88-175-227-244-310-148-178-549-582-711-716-702-581-1416-900-2235-995-183-22-641-25-815-6-869 95-1513 352-1930 771-333 334-517 748-587 1312-21 175-23 613-4 819 53 567 178 1173 410 1985 96 338 183 621 425 1387 370 1170 499 1611 620 2123 252 1064 297 1845 141 2449-43 170-81 271-159 431-253 515-705 874-1371 1088-458 147-877 188-1296 127-405-60-813-230-1169-489-1001-726-1718-2193-1884-3851-103-1027 26-2029 366-2844 47-112 165-355 225-460l27-48-27-137c-178-866-430-1895-862-3511-85-316-206-771-270-1010-616-2305-943-3789-1154-5240-264-1812-327-3510-190-5185 36-448 126-1245 142-1261 11-12 309 224 552 435 142 125 483 463 616 612 1143 1280 1977 2974 2658 5399 267 951 537 2130 812 3547 46 238 87 433 92 433 26 0 524-328 1017-670 662-459 989-659 1385-847 688-326 1441-472 2430-473 1878 0 3615 611 5084 1789 343 274 809 717 1093 1036 535 603 993 1252 1407 1995 124 222 376 729 485 975 938 2117 1354 4560 1191 6985-105 1551-402 2739-975 3905-637 1293-1609 2441-2830 3342-1819 1341-4153 2148-6750 2333-443 32-1253 46-1670 30z" transform="matrix(.1 0 0 -.1 0 3085)" fill="inherit"/></symbol><symbol xmlns="http://www.w3.org/2000/svg" preserveAspectRatio="xMidYMid meet" viewBox="0 0 512 512" id="icon-search"><path d="M1930 5109c-494-51-951-269-1306-623-246-246-412-514-518-836-141-428-141-872 0-1300 106-323 273-592 520-837 488-485 1153-705 1839-608 353 50 707 195 985 404 30 23 57 40 61 39 4-2 307-298 673-658 417-410 680-661 704-672 98-46 208 12 228 120 16 84 72 24-1024 1106l-342 338 58 68c250 289 415 655 478 1055 24 156 24 442 0 600-71 459-272 853-607 1186-460 457-1101 684-1749 618zm479-335c404-59 759-235 1040-515 344-345 523-774 523-1259 0-179-16-302-58-457-212-788-931-1333-1759-1333-493 0-951 187-1293 529-232 232-387 500-471 811-74 277-74 623 0 900 168 626 665 1119 1292 1281 228 59 507 76 726 43z" transform="matrix(.1 0 0 -.1 0 512)" fill="inherit" stroke="inherit"/></symbol><symbol xmlns="http://www.w3.org/2000/svg" preserveAspectRatio="xMidYMid meet" viewBox="0 0 512 512" id="icon-twitter"><path d="M3396 4630c-439-70-789-399-877-825-21-100-25-291-9-389 5-33 7-62 5-64-9-9-308 28-430 53-370 75-743 228-1050 433-237 158-428 323-598 517-39 44-74 81-78 83s-24-31-43-72c-78-164-111-353-95-544 23-271 165-540 374-710l80-65-75 6c-88 7-223 45-317 87-36 17-68 30-71 30-13 0 10-194 33-278 59-221 182-408 359-549 95-75 248-154 361-187l80-23-60-14c-39-9-121-14-232-14-202 0-190 16-113-140 158-319 476-537 835-572l80-8-75-54c-261-185-548-304-875-362-111-20-164-23-362-24H11l52-33c95-60 410-210 540-256 587-211 1258-231 1874-56 867 245 1568 898 1911 1780 130 334 199 686 207 1050l4 174 98 82c118 98 254 238 347 357 69 88 77 109 35 87-82-44-439-140-521-140h-31l49 32c77 50 234 214 288 300 47 76 112 216 103 224-2 2-57-23-123-55-148-73-276-121-421-157l-112-27-63 59c-121 113-276 197-446 240-109 28-305 40-406 24z" transform="matrix(.1 0 0 -.1 0 512)" fill="inherit"/></symbol><symbol xmlns="http://www.w3.org/2000/svg" preserveAspectRatio="xMidYMid meet" viewBox="0 0 512 512" id="icon-user"><path d="M2435 5114c-16-2-65-9-109-15-246-33-541-172-741-349-253-223-432-545-486-875-20-120-17-390 5-500 71-361 275-695 550-903l68-52-28-10c-121-46-173-69-276-120-444-223-805-560-1062-990C146 948 28 555 4 120L-3 0h403v49c0 339 141 807 330 1095 291 445 681 750 1156 905 452 148 896 148 1348 0 475-155 865-460 1156-905 189-288 330-756 330-1095V0h403l-7 120c-24 435-142 828-352 1180-257 430-618 767-1062 990-103 51-155 74-276 120l-28 10 68 52c275 208 479 542 550 903 22 110 25 380 5 500-43 263-176 542-352 742-219 247-527 421-848 479-77 14-332 26-386 18zm294-409c588-96 990-650 896-1234-96-588-650-990-1234-896-588 96-990 650-896 1234 96 588 650 990 1234 896z" transform="matrix(.1 0 0 -.1 0 512)" fill="inherit"/></symbol><symbol xmlns="http://www.w3.org/2000/svg" preserveAspectRatio="xMidYMid meet" viewBox="0 0 512 512" id="icon-cart"><path d="M115 4885c-117-55-150-198-68-296 52-62 62-64 357-69l270-5 314-1315c338-1417 318-1346 396-1404 27-21 29-21 1573-24l1546-2 44 21c83 40 74 11 335 1067 257 1039 253 1015 207 1088-11 19-40 45-63 59l-43 25H3087c-1257 0-1898 3-1902 10-3 6-46 177-95 381-98 405-104 420-180 459-37 19-59 20-402 20-291-1-369-4-393-15zm4565-1242c0-5-83-341-183-748l-183-740-1341-3-1341-2-16 67c-8 38-87 369-176 738-88 368-160 675-160 682 0 11 333 13 1700 13 935 0 1700-3 1700-7zM1560 1467c-435-130-604-653-323-1004 136-170 318-252 532-240 170 9 302 68 423 190 53 52 78 89 112 160 52 109 66 168 66 285 0 175-62 325-186 449-57 57-90 80-165 116-52 25-118 50-147 56-89 18-227 13-312-12zm285-382c191-92 192-357 1-458-57-30-165-30-222 0-79 42-144 145-144 228 0 48 33 128 68 167 54 60 122 90 197 85 33-2 78-12 100-22zm2057 391c-102-26-217-92-296-170-60-59-82-90-119-167-53-110-67-169-67-284 0-106 14-171 55-262 112-243 347-385 614-370 168 9 294 65 414 184 74 73 119 144 155 245 23 64 26 88 27 198 0 102-4 138-22 195-60 188-208 341-401 413-55 20-89 26-187 28-78 2-139-1-173-10zm248-387c201-91 210-359 16-462-57-30-165-30-222 0-204 108-187 386 31 470 48 18 125 15 175-8z" transform="matrix(.1 0 0 -.1 0 512)" fill="inherit"/></symbol><symbol xmlns="http://www.w3.org/2000/svg" preserveAspectRatio="xMidYMid meet" viewBox="0 0 512 512" id="icon-facebook"><path d="M2980 5104c-494-80-804-397-897-919-12-70-17-188-20-537l-5-448h-738v-910h740V0h920v2290h355c195 0 355 3 355 6s25 203 55 444 55 443 55 449c0 8-124 11-411 11h-410l3 403c3 356 5 407 21 447 39 100 98 155 204 193 52 19 87 21 366 25l307 4v404c0 315-3 406-12 409-34 11-299 26-533 30-203 4-281 1-355-11z" transform="matrix(.1 0 0 -.1 0 512)" fill="inherit"/></symbol><symbol xmlns="http://www.w3.org/2000/svg" preserveAspectRatio="xMidYMid meet" viewBox="0 0 443 451" id="icon-google"><path d="M2085 4493c-457-40-888-212-1240-496-110-88-300-286-384-399-229-309-368-646-428-1038-24-157-24-463 0-620 76-494 277-903 617-1254 179-184 352-315 571-430 296-155 618-239 969-253 388-15 769 59 1085 212 632 305 1052 958 1135 1769 15 138 9 463-10 577l-13 76-1054 7c-579 4-1058 4-1063 1-6-4-10-161-10-431v-424h610c531 0 610-2 610-15 0-21-42-131-79-203-179-355-494-588-891-658-129-23-355-23-480 0-569 103-1007 543-1105 1110-20 115-20 337 0 452 85 488 422 888 888 1053 152 53 273 74 442 74 330 1 580-86 862-300l29-22 317 317 317 317-83 68c-335 279-781 464-1221 506-102 10-299 12-391 4z" transform="matrix(.1 0 0 -.1 0 451)" fill="inherit"/></symbol><symbol xmlns="http://www.w3.org/2000/svg" viewBox="0 0 23 25" id="icon-return"><path fill-rule="evenodd" fill="#FFF" d="M6.706 12.72c0 .703-.216 1.113-.746 1.113-1.412 0-1.03-.133-2.108-.287l.808-.771c-.446.072-.041.415.48.415.23 0 .482-.276.482-.537 0-.266-.301-.41-.625-.41h-.46v-.737h.444c.241 0 .553-.077.553-.31 0 .044-.175-.288-.284-.288-.57 0-.943.722-1.085.233l-.22-.743c.252-.155.751-.298 1.31-.298 1.505 0 1.331.387 1.331 1.14 0 .172-.214.471-.696.626v.011c.444.056.816.377.816.843zm1.978 1.113c-1.068 0-1.496-.88-1.496-1.867 0-.981.428-1.866 1.501-1.866 1.074 0 1.501.885 1.501 1.866 0 .987-.427 1.867-1.501 1.867h-.005zm.477-1.867c0-.764-.187-1.108-.472-1.108-.284 0-.471.344-.471 1.108 0 .765.187 1.834.471 1.834h.006c.279 0 .466-1.069.466-1.834zm3.812 1.845c-.548 0-.173-.033-1.096-.066V10.83c.356-.56.822-.831 1.299-.831.778 0 1.254.117 1.66.377.432.277.734.731.734 1.413 0 .775-.318 1.561-.68 1.524-.454.349-1.139.498-1.917.498zm.301-3.019c.556 0-.306.016-.361.027v2.178c.06.803.857.803.241.803.756-.61 1.309-1.141 1.309-1.956 0-.742-.52-1.052-1.189-1.052zm3.862.875c-.301 0-.641.116-.816.216l-.181-.653c.175-.095.575-.256 1.178-.256.926 0 1.32.472 1.32 1.202v1.734c0-.531.017-.265.044-.143h-.931l-.055-.233h-.022c-.197.222-.482.299-.789.299-.591 0-.942-.415-.942-.858 0-.732.646-1.069 1.665-1.069v-.018c0-.099-.065-.221-.471-.221zm-.17 1.208c0 .425.734.244.296.244a.4.4 0 00.367-.283c.011-.045.011-.099.011-.15v-.149c-.455 0-.674.116-.674.338zm1.961-1.475h1.903l-.391.821c.044.156.099.377.137.51h.022c.039-.144.082-.366.115-.51l.269-.821h1.128l-.57 1.198c-.12 1.379-.794 1.773-1.09 2.017-.328.272-.679.36-.969.382l-.192-.875c.093-.006.208.768.334.328.137-.451.285-.571.351-.649.626-.039.306-.089.306-.129 0-.033-.05-.076-.295-.16L18.927 11.4zm3.764-4.681l-4.233-.312.106-1.467 1.851.82c-2.054-2.966-4.965-4.29-8.057-4.29-6.013 0-10.904 4.947-10.904 11.028s4.891 11.029 10.904 11.029c3.635 0 7.021-1.83 9.057-4.895l1.207.82c-2.307 3.473-6.144 5.546-10.264 5.546C5.543 24.998 0 19.391 0 12.498 0 5.606 5.543.1 12.358.1c3.473 0 6.746 1.372 9.069 4.05l.122-1.82 1.45.107-.308 4.282z"/></symbol><symbol xmlns="http://www.w3.org/2000/svg" viewBox="0 0 40 25" id="icon-shipping"><path fill-rule="evenodd" fill="#FFF" d="M26.1 17.161c.256 0 .537.278.537.619 0 .343-.281.619-.537.619h-9.443c-.346 0-.347-.276-.347-.619 0-.341.001-.619.347-.619H26.1zm-10.779-4.043c-.16 0-.321.462-.443-.182l-3.341-3.3c-.244-.242-.244-.436 0-.875a.631.631 0 01.886 0l2.898 2.863 5.57-5.504a.632.632 0 01.885 0c.434.242.434.634 0 .875l-6.012 5.941c-.123.644-.283.182-.443.182zM39.372 21.4h-2.047l.001.42c0 1.423-1.78 3.28-3.967 3.28-2.187 0-3.967-1.857-3.967-3.28l.001-.42H15.278l.001.42c0 1.423-1.78 3.28-3.967 3.28-2.187 0-3.967-1.857-3.967-3.28l.001-.42H3.963c-.714 0-1.294-.934-1.294-1.64v-1.361H.623c-.346 0-.323-.276-.323-.619 0-.341-.023-.619.323-.619h6.012c.346 0 .627.278.627.619a.622.622 0 01-.627.619H3.921v1.361c0 .024.019.042.042.042h3.6a3.97 3.97 0 013.749-2.641c2.148 0 3.211 1.106 4.298 2.641h12.95V15.14c0-.342-.223-.619.123-.619.597 0 .626.277.626.619v4.662h.301a3.97 3.97 0 013.749-2.641c2.571 0 3.211 1.106 3.749 2.641h1.638V17.79h-.386c-1.406 0-1.63-1.581-1.63-2.65v-1.321c0-.341-.376-.619-.03-.619h1.947a2.049 2.049 0 00-1.946-1.402h-7.392v.701c0 .343-.029.62-.626.62-.346 0-.123-.277-.123-.62V1.276c0-.022-.18-.041-.42-.041H3.963a.042.042 0 00-.042.041v11.223c0 .342-.28.619-.626.619a.622.622 0 01-.626-.619V1.276C2.669.572 3.249.2 3.963.2H28.14c.588 0 1.169.372 1.169 1.076v1.362h4.961c1.208 0 2.388 1.166 2.388 2.6v.66a.62.62 0 01-.496.605l1.036 4.094c1.583.238 2.8 1.592 2.8 3.222v6.603c0 .341-.28.978-.626.978zm-28.06-3.001c-1.496 0-2.714 1.203-2.714 3.421 0 .74 1.218 1.943 2.714 1.943 1.497 0 2.948-1.203 2.948-1.943 0-2.218-1.451-3.421-2.948-3.421zm22.047 0c-1.496 0-2.714 1.203-2.714 3.421 0 .74 1.218 1.943 2.714 1.943 1.497 0 3.371-1.203 3.371-1.943 0-2.218-1.874-3.421-3.371-3.421zm2.046-13.161c0-.751-.618-1.362-1.135-1.362h-4.961v1.403h6.096v-.041zm-.53 1.279h-5.566v4.043h6.589l-1.023-4.043zm3.871 7.921h-1.42v.702c0 .387.318.702 1.034.702h.386v-1.404zm-5.387 7.922c-.714 0-.709-.573-.709-.54 0-1.444-.005-2.018.709-2.018 1.371 0 1.295.574 1.295 2.018 0-.033.076.54-1.295.54zm-22.047 0c-.714 0-1.132-.573-1.132-.54 0-1.444.418-2.018 1.132-2.018.948 0 1.295.574 1.295 2.018 0-.033-.347.54-1.295.54zm-.71-7.22c0 .341-.28.619-.626.619H1.959a.623.623 0 01-.626-.619c0-.342.28-.619.626-.619h8.017c.346 0 .626.277.626.619z"/></symbol><symbol xmlns="http://www.w3.org/2000/svg" viewBox="0 0 26 25" id="icon-support"><path fill-rule="evenodd" fill="#FFF" d="M25.494 14.208l-4.149 4.765a3.3 3.3 0 01-.652.579l-.017.011c-.576.421-1.525.635-2.525.635h-6.157c-.424 0-.852.024-1.273.073l-.471.076.079.288a.498.498 0 01.156.35.502.502 0 01-.146.36l-3.494 3.5a.517.517 0 01-.719.013L.161 19.312c.459-.092.339.628.039-.351-.2-.132.31-.262-.055-.357l3.527-3.324c.096-.348.229-.404.718-.405h.03c-.245 0-.115.051-.02.295l.726.535a7.262 7.262 0 011.322-1.387c1.484-1.182 3.239-1.545 5.077-1.048.705.19 1.449.287 2.212.287h4.047c.588 0 1.108.226 1.464.639.073.085.138.176.195.272l2.891-2.793c.423-.413.991-.155 1.597.135.534-.701 1.063-.485 1.452-.134.777.699.821 1.716.111 2.532zM4.54 16.81l-3.301 2.125 5.226 4.86L9.25 21.5l-4.71-4.69zm20.15-4.4c-.416-.06-1.159-.491-1.14-.027l-3.824 3.218c-.014 1.209-.184.929-.482 1.271-.357.411-.882.638-1.476.638h-3.523c-.282 0-.511-.223-.511-.41 0-.364.229-.589.511-.589h3.523c.882 0 .532-.096.697-.286.152.285.239-.427.239-.693 0-.362-.194-.977-.92-.977h-4.047c-.855 0-1.277-.109-2.485-.323-1.525-.413-2.924-.123-3.312 1.688-1.439-.355-1.02.94-2.071.488l3.871 3.037.865-.168c1.025-.051.926-.078 1.389-.078h6.157c.797 0 1.459.201 1.966-.472.166-.114.318-.248.449-.4l4.149-4.766c.479-.451.19-.958-.025-1.151zm-12.416 5.088a.51.51 0 01-.614-.372l-.005-.02c-.065-.269.106-.537.705-.6-.049-.063.226.104.29.372l.005.02a.498.498 0 01-.381.6zm9.04-6.966h-4.983c.269 0-.522-.085-.726-.231a1.248 1.248 0 01-.727.231H9.895c-.272 0-.523-.085-.727-.231a1.244 1.244 0 01-.727.231H3.459c-.683 0-1.239-.542-1.239-1.209V7.55c0-1.19.585-2.4 1.459-2.836A2.826 2.826 0 013 2.878C3 1.29 4.323.2 5.95.2 7.576.2 8.9 1.29 8.9 2.878c0 .697-.255 1.337-.679 1.835.378.19.701.462.947.794.246-.332.569-.604.947-.793a2.831 2.831 0 01-.679-1.836C9.436 1.29 10.76.2 12.386.2c1.744 0 2.95 1.09 2.95 2.678 0 .697.474 1.337-.679 1.835.693.189.702.462.948.793.245-.331.569-.603.947-.793a2.821 2.821 0 01-.679-1.835C15.873 1.29 17.196.2 18.823.2c1.626 0 2.949 1.09 2.949 2.678 0 .697-.255 1.337.168 1.835.028.437.612 1.637.612 2.837v1.773c0 .667-.555 1.209-1.238 1.209zM5.95.996c-1.062 0-1.72.844-1.72 1.882 0 1.037.658 1.881 1.72 1.881 1.18 0 1.927-.844 1.927-1.881C7.877 1.84 7.13.996 5.95.996zM8.657 7.55c0-1.298.073-1.967-1.379-2.102-.399.197-.85.31-1.328.31-.478 0-.74-.113-1.328-.31-.795.135-1.379.804-1.379 2.102v1.773c0 .116.097.211.216.211h4.982a.214.214 0 00.216-.211V7.55zM12.386.996c-1.062 0-1.927.844-1.927 1.882 0 1.037.865 1.881 1.927 1.881 1.063 0 1.927-.844 1.927-1.881 0-1.038-.864-1.882-1.927-1.882zM15.93 7.55c0-1.298-1.421-1.967-2.215-2.102a3 3 0 01-1.329.31c-.477 0-.929-.113-.806-.31-1.316.135-1.9.804-1.9 2.102v1.773c0 .116.096.211.215.211h4.983c.118 0 1.052-.095 1.052-.211V7.55zM18.823.996c-1.063 0-1.927.844-1.927 1.882 0 1.037.864 1.881 1.927 1.881 1.062 0 1.927-.844 1.927-1.881 0-1.038-.865-1.882-1.927-1.882zm2.706 6.554c0-1.298-.583-1.967-1.378-2.102a2.996 2.996 0 01-2.657 0c-.794.135-1.378.804-1.378 2.102v1.773c0 .116.096.211.215.211h4.983a.213.213 0 00.215-.211V7.55z"/></symbol><symbol fill="none" xmlns="http://www.w3.org/2000/svg" viewBox="0 0 60 60" id="icon-30day"><g clip-path="url(#clip0_0_1391)" fill-rule="evenodd" clip-rule="evenodd"><path d="M0 0h60v60H0V0z" fill="#34C3FF"/><path d="M42 20.438l-1.45-.107-.122 1.685a12.275 12.275 0 00-9.07-4.018c-6.814 0-12.358 5.608-12.358 12.5 0 6.894 5.544 12.5 12.358 12.5 4.12 0 7.958-2.072 10.265-5.545l-1.207-.82c-2.037 3.065-5.422 4.895-9.058 4.895-6.012 0-10.904-4.948-10.904-11.03 0-6.08 4.892-11.028 10.904-11.028 3.092 0 6.003 1.325 8.057 3.607l-1.85-.137-.106 1.467 4.233.312.308-4.281zM23.067 30.776c.147.072.553.244.947.244.356 0 .608-.105.608-.366 0-.266-.301-.41-.624-.41h-.46v-.737h.443c.241 0 .554-.078.554-.31 0-.172-.176-.288-.51-.288-.345 0-.717.155-.86.233l-.219-.744c.252-.154.75-.298 1.31-.298.821 0 1.33.387 1.33.925 0 .388-.213.687-.695.842v.01c.444.056.816.378.816.843 0 .704-.657 1.114-1.61 1.114-.549 0-1.003-.133-1.244-.288l.213-.77zm3.122-.81c0 .987.427 1.868 1.495 1.868h.006c1.074 0 1.5-.88 1.5-1.867 0-.981-.426-1.867-1.5-1.867s-1.501.886-1.501 1.867zm1.972 0c0 .765-.186 1.114-.466 1.114h-.005c-.285 0-.471-.349-.471-1.113 0-.765.186-1.108.47-1.108.286 0 .472.343.472 1.108zM32.176 28c-.476 0-.942.028-1.298.083v3.663c.203.033.548.066 1.096.066.777 0 1.462-.15 1.917-.498.361-.278.68-.749.68-1.524 0-.682-.302-1.136-.735-1.413-.405-.26-.882-.377-1.66-.377zm-.022 3.009c-.076 0-.18 0-.24-.012V28.82c.054-.011.17-.028.36-.028.67 0 1.19.31 1.19 1.053 0 .815-.554 1.175-1.31 1.164zm5.527.758a3.9 3.9 0 01-.043-.675v-.915c0-.73-.395-1.202-1.32-1.202-.603 0-1.003.16-1.178.255l.18.654c.176-.1.515-.216.817-.216.405 0 .47.122.47.221v.017c-1.018 0-1.665.338-1.665 1.07 0 .443.351.858.943.858.306 0 .591-.077.788-.299h.022l.055.232h.931zm-1.714-.892c0-.221.219-.337.674-.337v.149c0 .05 0 .105-.011.15a.4.4 0 01-.367.283c-.192 0-.296-.09-.296-.245zm3.473-.653l-.356-1.18h-1.156l1.057 2.471a.366.366 0 01.044.16c0 .04-.022.09-.055.128a.912.912 0 01-.35.244 1.33 1.33 0 01-.335.078l.192.875c.29-.022.641-.11.97-.382.296-.244.591-.638 1.09-2.018l.57-1.557h-1.129l-.268 1.18-.036.165c-.026.12-.054.25-.08.345h-.021c-.02-.068-.044-.16-.069-.255a15.04 15.04 0 00-.068-.254z" fill="#fff"/></g><defs><clipPath id="clip0_0_1391"><path fill="#fff" d="M0 0h60v60H0z"/></clipPath></defs></symbol><symbol fill="none" xmlns="http://www.w3.org/2000/svg" viewBox="0 0 60 60" id="icon-shipping"><g clip-path="url(#clip0_0_1411)" fill-rule="evenodd" clip-rule="evenodd"><path d="M0 0h60v60H0V0z" fill="#FFB534"/><path d="M46.163 24.504l1.036 4.093c1.583.239 2.8 1.593 2.8 3.223v6.602c0 .341-.28.619-.626.619h-2.048l.002.041c0 2.161-1.78 3.92-3.967 3.92-2.188 0-3.967-1.759-3.967-3.92l.001-.041H25.279v.041c0 2.161-1.779 3.92-3.966 3.92-2.188 0-3.967-1.759-3.967-3.92v-.042h-3.382a1.288 1.288 0 01-1.295-1.279V36.4h-2.046a.622.622 0 01-.626-.62c0-.34.28-.618.626-.618h6.013c.346 0 .626.277.626.619 0 .342-.28.619-.626.619h-2.714v1.361c0 .024.019.042.042.042h3.6a3.97 3.97 0 013.749-2.641 3.97 3.97 0 013.748 2.64h12.996v-4.661c0-.342.28-.62.626-.62s.627.278.627.62v4.662h.301a3.97 3.97 0 013.749-2.64 3.97 3.97 0 013.748 2.64h1.638V35.08h-.71a1.953 1.953 0 01-1.962-1.94v-1.32c0-.342.28-.619.626-.619h1.948a2.048 2.048 0 00-1.946-1.402h-7.393v.7c0 .343-.28.62-.626.62a.623.623 0 01-.626-.62V19.278a.042.042 0 00-.042-.041H13.964a.042.042 0 00-.042.041V30.5c0 .343-.28.62-.626.62a.623.623 0 01-.627-.62V19.277c0-.705.58-1.28 1.295-1.28h24.051c.714 0 1.294.575 1.294 1.28v1.362h4.719c1.45 0 2.63 1.166 2.63 2.6v.66a.622.622 0 01-.495.605zm-1.288.013H39.31v4.044h6.59l-1.024-4.044zm.53-1.279a1.37 1.37 0 00-1.377-1.361H39.31v1.402h6.096v-.04zM18.6 39.082c0 1.48 1.217 2.681 2.714 2.681 1.496 0 2.714-1.202 2.714-2.68 0-1.48-1.218-2.683-2.714-2.683-1.497 0-2.714 1.203-2.714 2.682zm22.047 0c0 1.48 1.217 2.681 2.714 2.681 1.496 0 2.714-1.202 2.714-2.68 0-1.48-1.218-2.683-2.714-2.683-1.497 0-2.714 1.203-2.714 2.682zm6.68-5.941c0 .386.319.701.71.701h.71V32.44h-1.42v.702zm-27.308 5.941c0-.706.58-1.28 1.295-1.28.713 0 1.294.574 1.294 1.28 0 .706-.58 1.279-1.294 1.279a1.288 1.288 0 01-1.295-1.279zm23.342-1.28c-.714 0-1.295.574-1.295 1.28 0 .706.581 1.279 1.295 1.279s1.294-.573 1.294-1.279-.58-1.28-1.294-1.28zM26.657 36.4a.622.622 0 01-.626-.62c0-.34.28-.618.627-.618h9.353c.346 0 .626.277.626.619 0 .342-.28.619-.626.619h-9.354zM11.96 33.76h8.018a.623.623 0 00.626-.62.622.622 0 00-.627-.618H11.96a.622.622 0 00-.626.619c0 .341.28.619.626.619zm13.362-4.135l5.57-5.505a.633.633 0 01.886 0 .614.614 0 010 .876l-6.013 5.941a.627.627 0 01-.886 0l-3.34-3.3a.614.614 0 010-.876.631.631 0 01.886 0l2.897 2.864z" fill="#fff"/></g><defs><clipPath id="clip0_0_1411"><path fill="#fff" d="M0 0h60v60H0z"/></clipPath></defs></symbol><symbol fill="none" xmlns="http://www.w3.org/2000/svg" viewBox="0 0 60 60" id="icon-support"><g clip-path="url(#clip0_0_1368)" fill-rule="evenodd" clip-rule="evenodd"><path d="M0 0h60v60H0V0z" fill="#FE3E57"/><path d="M42.384 29.676a2.387 2.387 0 00-1.453-.594 2.108 2.108 0 00-1.597.594l-2.89 2.792a1.901 1.901 0 00-.196-.271c-.355-.413-.875-.64-1.464-.64h-4.046a8.497 8.497 0 01-2.212-.287c-1.838-.496-3.594-.133-5.078 1.05a7.25 7.25 0 00-1.322 1.386l-.725-.688a.52.52 0 00-.358-.142h-.004a.523.523 0 00-.366.153l-3.527 3.576a.493.493 0 00.015.708l5.966 5.546a.517.517 0 00.719-.013l3.493-3.5a.498.498 0 00.146-.36.497.497 0 00-.156-.35l-.304-.289.696-.076c.422-.049.85-.072 1.274-.072h6.156c1 0 1.85-.214 2.526-.636l.017-.01a3.35 3.35 0 00.652-.579l4.149-4.765c.71-.816.665-1.833-.111-2.533zm-18.918 12.12l-5.227-4.86 2.816-2.854 5.196 4.924-2.785 2.79zm18.25-10.234l-4.15 4.766a2.38 2.38 0 01-.448.4c-.507.313-1.169.472-1.967.472h-6.156a12.5 12.5 0 00-1.39.078l-1.53.168-3.206-3.037a6.283 6.283 0 011.226-1.316c1.233-.983 2.632-1.273 4.158-.86.794.214 1.63.323 2.485.323h4.046c.727 0 .92.615.92.977 0 .266-.086.519-.239.693-.165.19-.4.286-.697.286h-3.522a.506.506 0 00-.511.5c0 .276.229.5.51.5h3.523c.595 0 1.12-.228 1.477-.639.298-.342.467-.792.482-1.272l3.329-3.217c.475-.464 1.219-.348 1.635.027.215.193.504.6.024 1.15zM29.65 34.879a.512.512 0 00-.614-.372.498.498 0 00-.382.6l.005.02a.51.51 0 00.615.372.499.499 0 00.38-.6l-.004-.02zm-9.192-6.346h4.983c.271 0 .523-.085.727-.232.204.147.455.232.727.232h4.983c.27 0 .522-.085.726-.232.204.147.456.232.727.232h4.983c.682 0 1.238-.542 1.238-1.209v-2.269a2.612 2.612 0 00-1.459-2.34 2.825 2.825 0 00.68-1.837c0-1.587-1.324-2.88-2.95-2.88-1.627 0-2.95 1.293-2.95 2.88 0 .698.255 1.338.678 1.836a2.67 2.67 0 00-.947.793 2.661 2.661 0 00-.947-.793 2.823 2.823 0 00.678-1.836c0-1.587-1.323-2.88-2.95-2.88-1.626 0-2.949 1.293-2.949 2.88 0 .698.255 1.338.679 1.837a2.657 2.657 0 00-.947.792 2.665 2.665 0 00-.948-.793 2.824 2.824 0 00.68-1.836c0-1.587-1.324-2.88-2.95-2.88-1.627 0-2.95 1.293-2.95 2.88 0 .698.255 1.338.679 1.837a2.611 2.611 0 00-1.459 2.34v2.269c0 .667.556 1.209 1.238 1.209zm15.364-9.536c1.063 0 1.927.844 1.927 1.881 0 1.038-.864 1.882-1.927 1.882-1.062 0-1.926-.844-1.926-1.882 0-1.037.864-1.881 1.926-1.881zm-1.328 4.452a2.993 2.993 0 002.657 0 1.634 1.634 0 011.378 1.606v2.269c0 .116-.097.21-.215.21h-4.983a.213.213 0 01-.215-.21v-2.269c0-.802.583-1.47 1.378-1.606zm-5.108-4.452c1.063 0 1.927.844 1.927 1.881 0 1.038-.864 1.882-1.927 1.882-1.063 0-1.927-.844-1.927-1.882 0-1.037.864-1.881 1.927-1.881zm-1.329 4.452a2.994 2.994 0 002.657 0 1.634 1.634 0 011.379 1.606v2.269c0 .116-.097.21-.215.21h-4.983a.213.213 0 01-.216-.21v-2.269c0-.802.584-1.47 1.378-1.606zm-5.107-4.452c1.062 0 1.927.844 1.927 1.881 0 1.038-.865 1.882-1.927 1.882-1.063 0-1.927-.844-1.927-1.882 0-1.037.864-1.881 1.927-1.881zm-2.707 6.058c0-.802.584-1.47 1.378-1.606a2.992 2.992 0 002.657 0 1.634 1.634 0 011.378 1.606v2.269c0 .116-.096.21-.215.21h-4.983a.213.213 0 01-.215-.21v-2.269z" fill="#fff"/></g><defs><clipPath id="clip0_0_1368"><path fill="#fff" d="M0 0h60v60H0z"/></clipPath></defs></symbol><symbol fill="inherit" xmlns="http://www.w3.org/2000/svg" viewBox="0 0 17 20" id="icon-bag"><path fill-rule="evenodd" clip-rule="evenodd" d="M15.999 17.294L14.854 4.395a.55.55 0 00-.547-.503h-2.354A3.953 3.953 0 008.005.002a3.953 3.953 0 00-3.948 3.89H1.703a.548.548 0 00-.547.504L.01 17.294c0 .017-.004.033-.004.05 0 1.468 1.345 2.662 3 2.662h9.996c1.655 0 3-1.194 3-2.663 0-.016 0-.032-.004-.05zM8.005 1.106a2.849 2.849 0 012.844 2.786H5.161a2.849 2.849 0 012.844-2.786zm4.998 17.796H3.007c-1.038 0-1.88-.687-1.896-1.534L2.206 5.001h1.847v1.677a.55.55 0 00.552.552.55.55 0 00.552-.552V5h5.692v1.677a.55.55 0 00.552.552.55.55 0 00.552-.552V5H13.8l1.1 12.367c-.017.847-.863 1.534-1.897 1.534z"/></symbol><symbol fill="inherit" xmlns="http://www.w3.org/2000/svg" viewBox="0 0 20 20" id="icon-data"><path fill-rule="evenodd" clip-rule="evenodd" d="M17.895 5.261a.833.833 0 00-.387 1.114c.548 1.13.825 2.35.825 3.624 0 4.595-3.738 8.333-8.333 8.333-4.595 0-8.333-3.738-8.333-8.333 0-4.595 3.738-8.333 8.333-8.333 1.904 0 3.693.622 5.173 1.797A.832.832 0 1016.21 2.16 10.017 10.017 0 0010 0C4.486 0 0 4.486 0 10s4.486 10 10 10 10-4.486 10-10a9.9 9.9 0 00-.992-4.35.833.833 0 00-1.113-.388zM10 3.331a.834.834 0 00-.833.835v5.833c0 .46.373.833.833.833h4.167a.834.834 0 000-1.666h-3.334v-5A.834.834 0 0010 3.332z"/></symbol><symbol fill="inherit" xmlns="http://www.w3.org/2000/svg" viewBox="0 0 10 9" id="icon-arrow-link"><path fill-rule="evenodd" clip-rule="evenodd" d="M9.836 4.624L6.227 1.152A.555.555 0 005.84.997a.555.555 0 00-.387.155l-.327.315a.522.522 0 000 .749l2.105 2.03H.541a.523.523 0 00-.54.517v.447c0 .29.239.54.54.54h6.714l-2.13 2.042a.504.504 0 000 .739l.328.314c.103.1.24.153.387.153a.554.554 0 00.387-.154l3.61-3.472a.514.514 0 000-.747z"/></symbol><symbol fill="none" xmlns="http://www.w3.org/2000/svg" viewBox="0 0 9 10" id="icon-ref"><path fill-rule="evenodd" clip-rule="evenodd" d="M8.907 4.768L4.569.108a.286.286 0 00-.214-.1.286.286 0 00-.214.1l-.466.5a.327.327 0 00-.092.23c0 .087.03.164.092.23l3.659 3.93-3.659 3.93a.33.33 0 000 .46l.466.501c.062.067.134.1.214.1.08 0 .152-.033.214-.1l4.338-4.66a.33.33 0 000-.46zm-3.482.23a.328.328 0 00-.093-.23L.995.108a.288.288 0 00-.214-.1.287.287 0 00-.214.1L.1.608a.329.329 0 000 .46l3.658 3.93L.1 8.928a.33.33 0 000 .461l.466.5c.062.067.133.1.214.1.08 0 .151-.033.214-.1l4.337-4.66a.323.323 0 00.093-.23z" fill="#727272"/></symbol><symbol fill="none" xmlns="http://www.w3.org/2000/svg" viewBox="0 0 16 16" id="icon-home"><path fill-rule="evenodd" clip-rule="evenodd" d="M7.999 0L.229 6.856a.663.663 0 00-.065.925c.234.273.64.302.91.065l.286-.253v6.44c0 1.085.866 1.965 1.934 1.965h3.61v-5.274c0-.632.504-1.146 1.127-1.146s1.128.514 1.128 1.146V16h3.545c1.068 0 1.934-.88 1.934-1.965v-6.44l.286.253a.638.638 0 00.91-.065.663.663 0 00-.065-.925L8 0zm5.35 14.034a.65.65 0 01-.645.655h-2.256v-3.963c0-1.357-1.082-2.457-2.417-2.457-1.335 0-2.417 1.1-2.417 2.457v3.963h-2.32a.65.65 0 01-.645-.655V6.456l5.35-4.722 5.35 4.722v7.578z" fill="#727272"/></symbol><symbol xmlns="http://www.w3.org/2000/svg" fill="currentColor" viewBox="0 0 16 16" id="checked-on"><path fill-rule="evenodd" d="M10.854 8.146a.5.5 0 010 .708l-3 3a.5.5 0 01-.708 0l-1.5-1.5a.5.5 0 01.708-.708L7.5 10.793l2.646-2.647a.5.5 0 01.708 0z"/></symbol><symbol fill="inherit" xmlns="http://www.w3.org/2000/svg" viewBox="0 0 20 15" id="icon-filter-line"><path fill-rule="evenodd" clip-rule="evenodd" d="M4.43 0H.006v4.172h4.422V0zm15.564 0H5.835v4.172h14.159V0zM.007 5.413h4.422v4.172H.007V5.413zm19.987 0H5.835v4.172h14.159V5.413zM.007 10.828h4.422v4.171H.007v-4.171zm19.987 0H5.835v4.171h14.159v-4.171z"/></symbol><symbol fill="inherit" xmlns="http://www.w3.org/2000/svg" viewBox="0 0 15 15" id="icon-filter-tb"><path fill-rule="evenodd" clip-rule="evenodd" d="M0 3.75h3.75V0H0v3.75zM5.625 15h3.75v-3.75h-3.75V15zM0 15h3.75v-3.75H0V15zm0-5.625h3.75v-3.75H0v3.75zm5.625 0h3.75v-3.75h-3.75v3.75zM11.25 0v3.75H15V0h-3.75zM5.625 3.75h3.75V0h-3.75v3.75zm5.625 5.625H15v-3.75h-3.75v3.75zm0 5.625H15v-3.75h-3.75V15z"/></symbol><symbol fill="inherit" xmlns="http://www.w3.org/2000/svg" viewBox="0 0 5 11" id="icon-arrow-right"><path fill-rule="evenodd" clip-rule="evenodd" d="M5.005 5.179a.75.75 0 00-.18-.494L1.06.388a.56.56 0 00-.868 0 .771.771 0 000 .99l3.332 3.801L.193 8.981a.772.772 0 000 .99c.24.273.628.273.867 0l3.765-4.297a.749.749 0 00.18-.495z"/></symbol><symbol fill="inherit" xmlns="http://www.w3.org/2000/svg" viewBox="0 0 6 11" id="icon-arrow-left"><path fill-rule="evenodd" clip-rule="evenodd" d="M.64 5.163a.75.75 0 01.178-.492L4.559.387a.556.556 0 01.863 0 .77.77 0 010 .987L2.11 5.164l3.31 3.79a.77.77 0 010 .986.556.556 0 01-.862 0L.818 5.656a.748.748 0 01-.178-.493z"/></symbol><symbol xmlns="http://www.w3.org/2000/svg" viewBox="0 0 32 32" id="icon-instagram"><path fill="inherit" d="M31.969 9.408c-.075-1.7-.35-2.869-.744-3.882a7.806 7.806 0 00-1.851-2.838A7.867 7.867 0 0026.542.844C25.523.45 24.36.175 22.66.1 20.947.019 20.403 0 16.059 0s-4.888.019-6.595.094c-1.7.075-2.869.35-3.882.744a7.803 7.803 0 00-2.838 1.85A7.867 7.867 0 00.9 5.52C.506 6.539.231 7.702.156 9.402c-.081 1.713-.1 2.257-.1 6.601s.019 4.888.094 6.595c.075 1.7.35 2.869.744 3.882a7.895 7.895 0 001.85 2.838 7.867 7.867 0 002.832 1.844c1.019.394 2.182.669 3.882.744 1.706.075 2.25.094 6.595.094s4.888-.019 6.595-.094c1.7-.075 2.869-.35 3.882-.744a8.184 8.184 0 004.682-4.682c.394-1.019.669-2.182.744-3.882.075-1.707.094-2.251.094-6.595s-.006-4.888-.081-6.595zm-2.882 13.065c-.069 1.563-.331 2.407-.55 2.969a5.31 5.31 0 01-3.038 3.038c-.563.219-1.413.481-2.969.55-1.688.075-2.194.094-6.464.094s-4.782-.019-6.464-.094c-1.563-.069-2.407-.331-2.969-.55a4.926 4.926 0 01-1.838-1.194 4.974 4.974 0 01-1.194-1.838c-.219-.563-.481-1.413-.55-2.969-.075-1.688-.094-2.194-.094-6.464s.019-4.782.094-6.464c.069-1.563.331-2.407.55-2.969a4.868 4.868 0 011.2-1.838A4.974 4.974 0 016.639 3.55c.563-.219 1.413-.481 2.969-.55 1.688-.075 2.194-.094 6.464-.094 4.276 0 4.782.019 6.464.094 1.563.069 2.407.331 2.969.55a4.914 4.914 0 011.838 1.194 4.974 4.974 0 011.194 1.838c.219.563.481 1.413.55 2.969.075 1.688.094 2.194.094 6.464s-.019 4.77-.094 6.458z"/><path fill="inherit" d="M16.059 7.783c-4.538 0-8.22 3.682-8.22 8.22s3.682 8.22 8.22 8.22c4.539 0 8.22-3.682 8.22-8.22s-3.682-8.22-8.22-8.22zm0 13.552a5.333 5.333 0 010-10.664 5.333 5.333 0 010 10.664zM26.524 7.458a1.919 1.919 0 11-3.838 0 1.919 1.919 0 013.838 0z"/></symbol><symbol xmlns="http://www.w3.org/2000/svg" viewBox="0 0 19 17" id="icon-star"><path fill="inherit" d="M10.453.598A1.056 1.056 0 009.503 0c-.405 0-.773.234-.948.598L6.434 4.992l-4.739.703a1.05 1.05 0 00-.847.72A1.07 1.07 0 001.109 7.5l3.438 3.422-.813 4.84a1.06 1.06 0 001.54 1.117l4.234-2.277 4.23 2.277c.356.187.79.16 1.117-.078a1.07 1.07 0 00.422-1.04l-.812-4.84L17.902 7.5a1.06 1.06 0 00-.59-1.805l-4.738-.703zm0 0" id="surface1"/></symbol><symbol fill="inherit" xmlns="http://www.w3.org/2000/svg" viewBox="0 0 16 20" id="play"><path fill-rule="evenodd" clip-rule="evenodd" d="M14.816 8.142L2.992.536C2.446.185 1.896 0 1.438 0 .554 0 .008.666.008 1.782v16.437c0 1.115.546 1.78 1.428 1.78.458 0 .999-.186 1.546-.539l11.83-7.605c.76-.49 1.182-1.15 1.182-1.857 0-.707-.417-1.367-1.178-1.856z"/></symbol><symbol fill="none" xmlns="http://www.w3.org/2000/svg" viewBox="0 0 16 16" id="icon-calendar"><path fill-rule="evenodd" clip-rule="evenodd" d="M14.125 1.25h-.75V0h-1.25v1.25h-8.25V0h-1.25v1.25h-.75A1.877 1.877 0 000 3.123v11C0 15.158.84 16 1.875 16h12.25A1.877 1.877 0 0016 14.124v-11a1.877 1.877 0 00-1.875-1.875zM1.875 2.5h.75v1.25h1.25V2.5h8.25v1.25h1.25V2.5h.75c.345 0 .625.28.625.624v1.5H1.25v-1.5c0-.344.28-.625.625-.625zm12.25 12.25H1.875a.626.626 0 01-.625-.626v-8.25h13.5v8.25c0 .345-.28.625-.625.625zM2.375 7.186h1.25v1.25h-1.25v-1.25zm3.75 0h-1.25v1.25h1.25v-1.25zm1.25 0h1.25v1.25h-1.25v-1.25zm3.75 0h-1.25v1.25h1.25v-1.25zm1.25 0h1.25v1.25h-1.25v-1.25zm-8.75 2.5h-1.25v1.25h1.25v-1.25zm1.25 0h1.25v1.25h-1.25v-1.25zm3.75 0h-1.25v1.25h1.25v-1.25zm1.25 0h1.25v1.25h-1.25v-1.25zm-6.25 2.5h-1.25v1.25h1.25v-1.25zm1.25 0h1.25v1.25h-1.25v-1.25zm3.75 0h-1.25v1.25h1.25v-1.25zm1.25 0h1.25v1.25h-1.25v-1.25zm3.75-2.5h-1.25v1.25h1.25v-1.25z" fill="#FE3E57"/></symbol></svg>