<svg width="0" height="0" class="hidden">
  <symbol fill="none" xmlns="http://www.w3.org/2000/svg" viewBox="0 0 16 16" id="icon-comment">
    <path fill-rule="evenodd" clip-rule="evenodd"
      d="M15.375 0H.625A.625.625 0 000 .625v12.374c0 .346.28.625.625.625h5.53l1.316 2.085a.625.625 0 001.057 0l1.316-2.085h5.53c.346 0 .626-.28.626-.625V.625A.625.625 0 0015.375 0zm-.625 12.375H9.5a.625.625 0 00-.529.29L8 14.206l-.972-1.54a.625.625 0 00-.528-.29H1.25V1.25h13.5v11.125zM7.219 6.812a.781.781 0 111.562 0 .781.781 0 01-1.562 0zm-3.125 0a.781.781 0 111.562 0 .781.781 0 01-1.562 0zm6.25 0a.781.781 0 111.562 0 .781.781 0 01-1.562 0z"
      fill="#FE3E57" />
  </symbol>
  <symbol fill="none" xmlns="http://www.w3.org/2000/svg" viewBox="0 0 20 21" id="icon-complite">
    <path fill-rule="evenodd" clip-rule="evenodd"
      d="M10 .55a9.935 9.935 0 017.07 2.93A9.935 9.935 0 0120 10.55a9.935 9.935 0 01-2.93 7.072A9.935 9.935 0 0110 20.55a9.935 9.935 0 01-7.071-2.928 9.936 9.936 0 01-2.93-7.072 9.935 9.935 0 012.93-7.07A9.935 9.935 0 0110 .55zm-8.828 10c0 4.868 3.96 8.828 8.828 8.828 4.868 0 8.828-3.96 8.828-8.828 0-4.867-3.96-8.828-8.828-8.828-4.868 0-8.828 3.96-8.828 8.828zm7.603 1.966l5.174-5.174a.586.586 0 11.828.828L9.19 13.76a.584.584 0 01-.829 0l-3.138-3.138a.586.586 0 11.829-.829l2.724 2.724z"
      fill="#FE3E57" />
  </symbol>
  <symbol fill="inherit" viewBox="0 0 20 20" id="icon-data">
    <path fill-rule="evenodd" clip-rule="evenodd"
      d="M17.895 5.261a.833.833 0 00-.387 1.114c.548 1.13.825 2.35.825 3.624 0 4.595-3.738 8.333-8.333 8.333-4.595 0-8.333-3.738-8.333-8.333 0-4.595 3.738-8.333 8.333-8.333 1.904 0 3.693.622 5.173 1.797A.832.832 0 1016.21 2.16 10.017 10.017 0 0010 0C4.486 0 0 4.486 0 10s4.486 10 10 10 10-4.486 10-10a9.9 9.9 0 00-.992-4.35.833.833 0 00-1.113-.388zM10 3.331a.834.834 0 00-.833.835v5.833c0 .46.373.833.833.833h4.167a.834.834 0 000-1.666h-3.334v-5A.834.834 0 0010 3.332z"
      fill="inherit" />
  </symbol>
  <symbol fill="none" xmlns="http://www.w3.org/2000/svg" viewBox="0 0 15 15" id="icon-filter-tb">
    <path fill-rule="evenodd" clip-rule="evenodd"
      d="M0 3.75h3.75V0H0v3.75zM5.625 15h3.75v-3.75h-3.75V15zM0 15h3.75v-3.75H0V15zm0-5.625h3.75v-3.75H0v3.75zm5.625 0h3.75v-3.75h-3.75v3.75zM11.25 0v3.75H15V0h-3.75zM5.625 3.75h3.75V0h-3.75v3.75zm5.625 5.625H15v-3.75h-3.75v3.75zm0 5.625H15v-3.75h-3.75V15z"
      fill="#FE3E57" />
  </symbol>
  <symbol fill="none" xmlns="http://www.w3.org/2000/svg" viewBox="0 0 20 15" id="icon-filtr-line">
    <path fill-rule="evenodd" clip-rule="evenodd"
      d="M4.43 0H.006v4.172h4.422V0zm15.564 0H5.835v4.172h14.159V0zM.007 5.413h4.422v4.172H.007V5.413zm19.987 0H5.835v4.172h14.159V5.413zM.007 10.828h4.422v4.171H.007v-4.171zm19.987 0H5.835v4.171h14.159v-4.171z"
      fill="#8D8D8D" />
  </symbol>
  <symbol fill="none" xmlns="http://www.w3.org/2000/svg" viewBox="0 0 20 20" id="icon-heart">
    <g clip-path="url(#clip0_0_1489)">
      <path fill-rule="evenodd" clip-rule="evenodd"
        d="M19.778 4.589c-.681-2.42-2.682-3.863-4.173-4.371-1.703-.595-3.747 0-5.578 1.611C8.197.26 6.152-.293 4.45.26 2.959.812.957 2.255.276 4.632c-.468 1.57-.511 4.117 1.959 7.214 1.107 1.4 2.81 3.396 4.215 4.966 2.683 3.014 3.109 3.183 3.492 3.183h.17c.384 0 .767-.169 3.45-3.225a228.438 228.438 0 004.215-4.966c2.47-3.097 2.47-5.644 2.001-7.214zM16.5 10.784c-1.96 2.462-5.323 6.324-6.473 7.385-1.15-1.06-4.513-4.923-6.472-7.385C1.937 8.79 1.34 6.838 1.85 5.097c.511-1.782 2.002-2.843 3.109-3.224 1.235-.468 2.896.169 4.428 1.655a.846.846 0 001.065.126c.085-.042.17-.084.213-.17 1.533-1.442 3.194-2.079 4.428-1.655 1.107.425 2.598 1.486 3.109 3.269.51 1.697-.085 3.692-1.703 5.686z"
        fill="#29282D" />
    </g>
    <defs>
      <clipPath id="clip0_0_1489">
        <path fill="#fff" d="M0 0h20v20H0z" />
      </clipPath>
    </defs>
  </symbol>
  <symbol fill="none" xmlns="http://www.w3.org/2000/svg" viewBox="0 0 16 16" id="icon-home">
    <path fill-rule="evenodd" clip-rule="evenodd"
      d="M7.999 0L.229 6.858a.663.663 0 00-.065.924c.234.274.64.303.91.065l.286-.252v6.44C1.36 15.12 2.226 16 3.294 16h3.61v-5.274c0-.633.504-1.146 1.127-1.146s1.128.513 1.128 1.146V16h3.545c1.068 0 1.934-.88 1.934-1.965v-6.44l.286.252a.637.637 0 00.91-.065.662.662 0 00-.065-.924L8 0zm5.35 14.035a.65.65 0 01-.645.655h-2.256v-3.964c0-1.356-1.082-2.456-2.417-2.456-1.335 0-2.417 1.1-2.417 2.456v3.964h-2.32a.65.65 0 01-.645-.655V6.457L8 1.735l5.35 4.722v7.578z"
      fill="#727272" />
  </symbol>
  <symbol xmlns="http://www.w3.org/2000/svg" viewBox="0 0 32 32" id="icon-instagram">
    <path fill="#afb1b8"
      d="M31.969 9.408c-.075-1.7-.35-2.869-.744-3.882a7.806 7.806 0 00-1.851-2.838A7.867 7.867 0 0026.542.844C25.523.45 24.36.175 22.66.1 20.947.019 20.403 0 16.059 0s-4.888.019-6.595.094c-1.7.075-2.869.35-3.882.744a7.803 7.803 0 00-2.838 1.85A7.867 7.867 0 00.9 5.52C.506 6.539.231 7.702.156 9.402c-.081 1.713-.1 2.257-.1 6.601s.019 4.888.094 6.595c.075 1.7.35 2.869.744 3.882a7.895 7.895 0 001.85 2.838 7.867 7.867 0 002.832 1.844c1.019.394 2.182.669 3.882.744 1.706.075 2.25.094 6.595.094s4.888-.019 6.595-.094c1.7-.075 2.869-.35 3.882-.744a8.184 8.184 0 004.682-4.682c.394-1.019.669-2.182.744-3.882.075-1.707.094-2.251.094-6.595s-.006-4.888-.081-6.595zm-2.882 13.065c-.069 1.563-.331 2.407-.55 2.969a5.31 5.31 0 01-3.038 3.038c-.563.219-1.413.481-2.969.55-1.688.075-2.194.094-6.464.094s-4.782-.019-6.464-.094c-1.563-.069-2.407-.331-2.969-.55a4.926 4.926 0 01-1.838-1.194 4.974 4.974 0 01-1.194-1.838c-.219-.563-.481-1.413-.55-2.969-.075-1.688-.094-2.194-.094-6.464s.019-4.782.094-6.464c.069-1.563.331-2.407.55-2.969a4.868 4.868 0 011.2-1.838A4.974 4.974 0 016.639 3.55c.563-.219 1.413-.481 2.969-.55 1.688-.075 2.194-.094 6.464-.094 4.276 0 4.782.019 6.464.094 1.563.069 2.407.331 2.969.55a4.914 4.914 0 011.838 1.194 4.974 4.974 0 011.194 1.838c.219.563.481 1.413.55 2.969.075 1.688.094 2.194.094 6.464s-.019 4.77-.094 6.458z" />
    <path fill="#afb1b8"
      d="M16.059 7.783c-4.538 0-8.22 3.682-8.22 8.22s3.682 8.22 8.22 8.22c4.539 0 8.22-3.682 8.22-8.22s-3.682-8.22-8.22-8.22zm0 13.552a5.333 5.333 0 010-10.664 5.333 5.333 0 010 10.664zM26.524 7.458a1.919 1.919 0 11-3.838 0 1.919 1.919 0 013.838 0z" />
  </symbol>
  <symbol fill="none" xmlns="http://www.w3.org/2000/svg" viewBox="0 0 14 20" id="icon-loc">
    <path fill-rule="evenodd" clip-rule="evenodd"
      d="M6.997.005C3.14.005 0 3.25 0 7.242c0 4.953 6.262 12.224 6.529 12.532.25.288.687.288.937 0 .267-.308 6.529-7.579 6.529-12.532 0-3.99-3.14-7.237-6.998-7.237zm0 10.879c-1.94 0-3.52-1.634-3.52-3.642s1.58-3.641 3.52-3.641c1.942 0 3.52 1.633 3.52 3.641s-1.578 3.642-3.52 3.642z"
      fill="#FE3E57" />
  </symbol>
  <symbol fill="none" xmlns="http://www.w3.org/2000/svg" viewBox="0 0 18 22" id="icon-mail">
    <path fill-rule="evenodd" clip-rule="evenodd"
      d="M2.4 9.625V6.108L.6 7.866l1.8 1.759zM9 6.937c-.331 0-.6.262-.6.586 0 .323.269.586.6.586.415 0 .525-.278.591-.627A.59.59 0 009 6.937zm-9 12.31V8.936l5.751 5.62L.181 20a1.706 1.706 0 01-.18-.754zM17.82 20l-5.571-5.443L18 8.937v10.31c0 .27-.068.523-.18.753zM6.85 15.143h4.302l5.82 5.686c-.236.11-.495.176-.772.176H1.8c-.276 0-.535-.067-.77-.176l5.819-5.686zm8.75-9.035l1.8 1.758-1.8 1.759V6.108zm-4.448 7.863l3.248-3.174v-9.05a.76.76 0 00-.769-.75H4.256a.649.649 0 00-.656.64v9.16l3.248 3.174h4.303zM4.8 7.523C4.8 5.26 6.684 3.42 9 3.42c2.315 0 4.2 1.84 4.2 4.103 0 1.507-1.835 2.33-3.001 1.301a1.81 1.81 0 01-1.2.457c-.992 0-1.8-.789-1.8-1.758 0-.97.808-1.759 1.8-1.759.993 0 1.8.79 1.8 1.759 0 .775 1.2.775 1.2 0 0-1.616-1.345-2.931-3-2.931-1.654 0-3 1.315-3 2.93 0 1.004.519 1.927 1.387 2.47.89.557 1.993.61 3.028.146.715-.325 1.224.74.501 1.064-1.375.618-2.902.575-4.176-.222-1.214-.76-1.94-2.052-1.94-3.457z"
      fill="#FE3E57" />
  </symbol>
  <symbol fill="none" xmlns="http://www.w3.org/2000/svg" viewBox="0 0 17 3" id="icon-minus">
    <path fill-rule="evenodd" clip-rule="evenodd"
      d="M15.18.208H1.819c-.452 0-.82.316-.82.702v.593c0 .386.368.705.82.705H15.18c.453 0 .821-.319.821-.705V.91c0-.386-.369-.702-.821-.702"
      fill="#29282D" />
  </symbol>
  <symbol fill="none" xmlns="http://www.w3.org/2000/svg" viewBox="0 0 20 22" id="icon-phone">
    <path fill-rule="evenodd" clip-rule="evenodd"
      d="M7.713 3.984a1.758 1.758 0 010 2.487l-.415.414-4.97-4.973.415-.415c.664-.665 1.822-.664 2.485 0l2.485 2.487zm3.782 10.421l-4.912-4.92c-.479-.479-.495-1.226-.09-1.748L1.535 2.775c-2.133 2.488-2.05 6.238.304 8.594l7.774 7.784a6.283 6.283 0 008.587.305l-4.958-4.963c-.523.406-1.269.39-1.747-.09zm7.982 1.357l-2.485-2.487c-.663-.664-1.82-.665-2.485 0l-.414.415 4.97 4.973.414-.414a1.758 1.758 0 000-2.487z"
      fill="#FE3E57" />
  </symbol>
  <symbol fill="none" xmlns="http://www.w3.org/2000/svg" viewBox="0 0 12 13" id="icon-plus">
    <path fill-rule="evenodd" clip-rule="evenodd"
      d="M11.344 5.27H6.937V.874a.663.663 0 00-.655-.665H5.72a.664.664 0 00-.657.665v4.398H.656A.656.656 0 000 5.926v.567c0 .361.295.653.656.653h4.407v4.413a.65.65 0 00.656.65h.564a.65.65 0 00.654-.65V7.146h4.406A.655.655 0 0012 6.493v-.567a.656.656 0 00-.657-.655"
      fill="#29282D" />
  </symbol>
  <symbol fill="none" viewBox="0 0 9 10" id="icon-ref">
    <path fill-rule="evenodd" clip-rule="evenodd"
      d="M8.907 4.768L4.569.108a.286.286 0 00-.214-.1.286.286 0 00-.214.1l-.466.5a.327.327 0 00-.092.23c0 .087.03.164.092.23l3.659 3.93-3.659 3.93a.33.33 0 000 .46l.466.501c.062.067.134.1.214.1.08 0 .152-.033.214-.1l4.338-4.66a.33.33 0 000-.46zm-3.482.23a.328.328 0 00-.093-.23L.995.108a.288.288 0 00-.214-.1.287.287 0 00-.214.1L.1.608a.329.329 0 000 .46l3.658 3.93L.1 8.928a.33.33 0 000 .461l.466.5c.062.067.133.1.214.1.08 0 .151-.033.214-.1l4.337-4.66a.323.323 0 00.093-.23z"
      fill="#727272" />
  </symbol>
  <symbol fill="none" xmlns="http://www.w3.org/2000/svg" viewBox="0 0 20 20" id="icon-search">
    <g clip-path="url(#clip0_0_1496)">
      <path fill-rule="evenodd" clip-rule="evenodd"
        d="M19.892 18.697l-5.81-5.81a7.877 7.877 0 001.765-4.973c0-4.366-3.551-7.917-7.916-7.917-4.366 0-7.917 3.55-7.917 7.917 0 4.364 3.551 7.916 7.917 7.916a7.879 7.879 0 004.973-1.765l5.81 5.81a.416.416 0 00.589 0l.589-.59a.416.416 0 000-.588zM7.931 14.163a6.257 6.257 0 01-6.25-6.25 6.257 6.257 0 016.25-6.25 6.257 6.257 0 016.25 6.25 6.257 6.257 0 01-6.25 6.25z"
        fill="#29282D" />
    </g>
    <defs>
      <clipPath id="clip0_0_1496">
        <path fill="#fff" d="M0 0h20v20H0z" />
      </clipPath>
    </defs>
  </symbol>
  <symbol fill="none" xmlns="http://www.w3.org/2000/svg" viewBox="0 0 16 14" id="icon-shape">
    <path fill-rule="evenodd" clip-rule="evenodd"
      d="M5.835 3.67V.202L0 6.269l5.834 6.067V8.782c4.167 0 7.083 1.387 9.167 4.42-.833-4.333-3.334-8.666-9.167-9.533z"
      fill="#8D8D8D" />
  </symbol>
  <symbol fill="none" xmlns="http://www.w3.org/2000/svg" viewBox="0 0 16 14" id="icon-shape-accent">
    <path fill-rule="evenodd" clip-rule="evenodd"
      d="M5.835 3.67V.202L0 6.269l5.834 6.067V8.782c4.167 0 7.083 1.387 9.167 4.42-.833-4.333-3.334-8.666-9.167-9.533z"
      fill="#fe3e57" />
  </symbol>
  <symbol fill="none" viewBox="0 0 60 60" id="icon-shipping">
    <g clip-path="url(#clip0_0_1411)" fill-rule="evenodd" clip-rule="evenodd">
      <path d="M0 0h60v60H0V0z" fill="#FFB534" />
      <path
        d="M46.163 24.504l1.036 4.093c1.583.239 2.8 1.593 2.8 3.223v6.602c0 .341-.28.619-.626.619h-2.048l.002.041c0 2.161-1.78 3.92-3.967 3.92-2.188 0-3.967-1.759-3.967-3.92l.001-.041H25.279v.041c0 2.161-1.779 3.92-3.966 3.92-2.188 0-3.967-1.759-3.967-3.92v-.042h-3.382a1.288 1.288 0 01-1.295-1.279V36.4h-2.046a.622.622 0 01-.626-.62c0-.34.28-.618.626-.618h6.013c.346 0 .626.277.626.619 0 .342-.28.619-.626.619h-2.714v1.361c0 .024.019.042.042.042h3.6a3.97 3.97 0 013.749-2.641 3.97 3.97 0 013.748 2.64h12.996v-4.661c0-.342.28-.62.626-.62s.627.278.627.62v4.662h.301a3.97 3.97 0 013.749-2.64 3.97 3.97 0 013.748 2.64h1.638V35.08h-.71a1.953 1.953 0 01-1.962-1.94v-1.32c0-.342.28-.619.626-.619h1.948a2.048 2.048 0 00-1.946-1.402h-7.393v.7c0 .343-.28.62-.626.62a.623.623 0 01-.626-.62V19.278a.042.042 0 00-.042-.041H13.964a.042.042 0 00-.042.041V30.5c0 .343-.28.62-.626.62a.623.623 0 01-.627-.62V19.277c0-.705.58-1.28 1.295-1.28h24.051c.714 0 1.294.575 1.294 1.28v1.362h4.719c1.45 0 2.63 1.166 2.63 2.6v.66a.622.622 0 01-.495.605zm-1.288.013H39.31v4.044h6.59l-1.024-4.044zm.53-1.279a1.37 1.37 0 00-1.377-1.361H39.31v1.402h6.096v-.04zM18.6 39.082c0 1.48 1.217 2.681 2.714 2.681 1.496 0 2.714-1.202 2.714-2.68 0-1.48-1.218-2.683-2.714-2.683-1.497 0-2.714 1.203-2.714 2.682zm22.047 0c0 1.48 1.217 2.681 2.714 2.681 1.496 0 2.714-1.202 2.714-2.68 0-1.48-1.218-2.683-2.714-2.683-1.497 0-2.714 1.203-2.714 2.682zm6.68-5.941c0 .386.319.701.71.701h.71V32.44h-1.42v.702zm-27.308 5.941c0-.706.58-1.28 1.295-1.28.713 0 1.294.574 1.294 1.28 0 .706-.58 1.279-1.294 1.279a1.288 1.288 0 01-1.295-1.279zm23.342-1.28c-.714 0-1.295.574-1.295 1.28 0 .706.581 1.279 1.295 1.279s1.294-.573 1.294-1.279-.58-1.28-1.294-1.28zM26.657 36.4a.622.622 0 01-.626-.62c0-.34.28-.618.627-.618h9.353c.346 0 .626.277.626.619 0 .342-.28.619-.626.619h-9.354zM11.96 33.76h8.018a.623.623 0 00.626-.62.622.622 0 00-.627-.618H11.96a.622.622 0 00-.626.619c0 .341.28.619.626.619zm13.362-4.135l5.57-5.505a.633.633 0 01.886 0 .614.614 0 010 .876l-6.013 5.941a.627.627 0 01-.886 0l-3.34-3.3a.614.614 0 010-.876.631.631 0 01.886 0l2.897 2.864z"
        fill="#fff" />
    </g>
    <defs>
      <clipPath id="clip0_0_1411">
        <path fill="#fff" d="M0 0h60v60H0z" />
      </clipPath>
    </defs>
  </symbol>
  <symbol xmlns="http://www.w3.org/2000/svg" viewBox="0 0 19 17" id="icon-star">
    <path
      d="M10.453.598A1.056 1.056 0 009.503 0c-.405 0-.773.234-.948.598L6.434 4.992l-4.739.703a1.05 1.05 0 00-.847.72A1.07 1.07 0 001.109 7.5l3.438 3.422-.813 4.84a1.06 1.06 0 001.54 1.117l4.234-2.277 4.23 2.277c.356.187.79.16 1.117-.078a1.07 1.07 0 00.422-1.04l-.812-4.84L17.902 7.5a1.06 1.06 0 00-.59-1.805l-4.738-.703zm0 0"
      fill="inherit" id="surface1" />
  </symbol>
  <symbol fill="none" viewBox="0 0 60 60" id="icon-support">
    <g clip-path="url(#clip0_0_1368)" fill-rule="evenodd" clip-rule="evenodd">
      <path d="M0 0h60v60H0V0z" fill="#FE3E57" />
      <path
        d="M42.384 29.676a2.387 2.387 0 00-1.453-.594 2.108 2.108 0 00-1.597.594l-2.89 2.792a1.901 1.901 0 00-.196-.271c-.355-.413-.875-.64-1.464-.64h-4.046a8.497 8.497 0 01-2.212-.287c-1.838-.496-3.594-.133-5.078 1.05a7.25 7.25 0 00-1.322 1.386l-.725-.688a.52.52 0 00-.358-.142h-.004a.523.523 0 00-.366.153l-3.527 3.576a.493.493 0 00.015.708l5.966 5.546a.517.517 0 00.719-.013l3.493-3.5a.498.498 0 00.146-.36.497.497 0 00-.156-.35l-.304-.289.696-.076c.422-.049.85-.072 1.274-.072h6.156c1 0 1.85-.214 2.526-.636l.017-.01a3.35 3.35 0 00.652-.579l4.149-4.765c.71-.816.665-1.833-.111-2.533zm-18.918 12.12l-5.227-4.86 2.816-2.854 5.196 4.924-2.785 2.79zm18.25-10.234l-4.15 4.766a2.38 2.38 0 01-.448.4c-.507.313-1.169.472-1.967.472h-6.156a12.5 12.5 0 00-1.39.078l-1.53.168-3.206-3.037a6.283 6.283 0 011.226-1.316c1.233-.983 2.632-1.273 4.158-.86.794.214 1.63.323 2.485.323h4.046c.727 0 .92.615.92.977 0 .266-.086.519-.239.693-.165.19-.4.286-.697.286h-3.522a.506.506 0 00-.511.5c0 .276.229.5.51.5h3.523c.595 0 1.12-.228 1.477-.639.298-.342.467-.792.482-1.272l3.329-3.217c.475-.464 1.219-.348 1.635.027.215.193.504.6.024 1.15zM29.65 34.879a.512.512 0 00-.614-.372.498.498 0 00-.382.6l.005.02a.51.51 0 00.615.372.499.499 0 00.38-.6l-.004-.02zm-9.192-6.346h4.983c.271 0 .523-.085.727-.232.204.147.455.232.727.232h4.983c.27 0 .522-.085.726-.232.204.147.456.232.727.232h4.983c.682 0 1.238-.542 1.238-1.209v-2.269a2.612 2.612 0 00-1.459-2.34 2.825 2.825 0 00.68-1.837c0-1.587-1.324-2.88-2.95-2.88-1.627 0-2.95 1.293-2.95 2.88 0 .698.255 1.338.678 1.836a2.67 2.67 0 00-.947.793 2.661 2.661 0 00-.947-.793 2.823 2.823 0 00.678-1.836c0-1.587-1.323-2.88-2.95-2.88-1.626 0-2.949 1.293-2.949 2.88 0 .698.255 1.338.679 1.837a2.657 2.657 0 00-.947.792 2.665 2.665 0 00-.948-.793 2.824 2.824 0 00.68-1.836c0-1.587-1.324-2.88-2.95-2.88-1.627 0-2.95 1.293-2.95 2.88 0 .698.255 1.338.679 1.837a2.611 2.611 0 00-1.459 2.34v2.269c0 .667.556 1.209 1.238 1.209zm15.364-9.536c1.063 0 1.927.844 1.927 1.881 0 1.038-.864 1.882-1.927 1.882-1.062 0-1.926-.844-1.926-1.882 0-1.037.864-1.881 1.926-1.881zm-1.328 4.452a2.993 2.993 0 002.657 0 1.634 1.634 0 011.378 1.606v2.269c0 .116-.097.21-.215.21h-4.983a.213.213 0 01-.215-.21v-2.269c0-.802.583-1.47 1.378-1.606zm-5.108-4.452c1.063 0 1.927.844 1.927 1.881 0 1.038-.864 1.882-1.927 1.882-1.063 0-1.927-.844-1.927-1.882 0-1.037.864-1.881 1.927-1.881zm-1.329 4.452a2.994 2.994 0 002.657 0 1.634 1.634 0 011.379 1.606v2.269c0 .116-.097.21-.215.21h-4.983a.213.213 0 01-.216-.21v-2.269c0-.802.584-1.47 1.378-1.606zm-5.107-4.452c1.062 0 1.927.844 1.927 1.881 0 1.038-.865 1.882-1.927 1.882-1.063 0-1.927-.844-1.927-1.882 0-1.037.864-1.881 1.927-1.881zm-2.707 6.058c0-.802.584-1.47 1.378-1.606a2.992 2.992 0 002.657 0 1.634 1.634 0 011.378 1.606v2.269c0 .116-.096.21-.215.21h-4.983a.213.213 0 01-.215-.21v-2.269z"
        fill="#fff" />
    </g>
    <defs>
      <clipPath id="clip0_0_1368">
        <path fill="#fff" d="M0 0h60v60H0z" />
      </clipPath>
    </defs>
  </symbol>
  <symbol fill="none" xmlns="http://www.w3.org/2000/svg" viewBox="0 0 20 20" id="icon-user">
    <g clip-path="url(#clip0_0_1500)">
      <path fill-rule="evenodd" clip-rule="evenodd"
        d="M17.07 12.928a9.957 9.957 0 00-3.8-2.384 5.78 5.78 0 002.511-4.764A5.788 5.788 0 0010 0a5.788 5.788 0 00-5.781 5.78 5.78 5.78 0 002.51 4.764 9.958 9.958 0 00-3.8 2.384 9.934 9.934 0 00-2.93 7.07h1.563c0-4.652 3.785-8.436 8.438-8.436 4.652 0 8.437 3.784 8.437 8.436H20a9.93 9.93 0 00-2.93-7.07zM5.782 5.78A4.223 4.223 0 0110 1.561a4.223 4.223 0 014.219 4.22 4.224 4.224 0 01-4.22 4.218A4.224 4.224 0 015.782 5.78z"
        fill="#29282D" />
    </g>
    <defs>
      <clipPath id="clip0_0_1500">
        <path fill="#fff" d="M0 0h20v20H0z" />
      </clipPath>
    </defs>
  </symbol>
  <symbol xmlns="http://www.w3.org/2000/svg" viewBox="0 0 20 20" id="checked-on (1)">
    <path
      d="M13.566 10.184a.62.62 0 010 .882l-3.75 3.75a.62.62 0 01-.882 0l-1.875-1.875a.62.62 0 010-.882.62.62 0 01.882 0l1.434 1.433 3.309-3.308a.62.62 0 01.882 0zm0 0"
      fill-rule="evenodd" fill="#fff" id="surface1" />
  </symbol>
  <symbol xmlns="http://www.w3.org/2000/svg" fill="#fff" viewBox="0 0 20 20" id="checked-on">
    <path fill-rule="evenodd"
      d="M10.854 8.146a.5.5 0 010 .708l-3 3a.5.5 0 01-.708 0l-1.5-1.5a.5.5 0 01.708-.708L7.5 10.793l2.646-2.647a.5.5 0 01.708 0z" />
  </symbol>
  <symbol fill="none" viewBox="0 0 60 60" id="icon-30day">
    <g clip-path="url(#clip0_0_1391)" fill-rule="evenodd" clip-rule="evenodd">
      <path d="M0 0h60v60H0V0z" fill="#34C3FF" />
      <path
        d="M42 20.438l-1.45-.107-.122 1.685a12.275 12.275 0 00-9.07-4.018c-6.814 0-12.358 5.608-12.358 12.5 0 6.894 5.544 12.5 12.358 12.5 4.12 0 7.958-2.072 10.265-5.545l-1.207-.82c-2.037 3.065-5.422 4.895-9.058 4.895-6.012 0-10.904-4.948-10.904-11.03 0-6.08 4.892-11.028 10.904-11.028 3.092 0 6.003 1.325 8.057 3.607l-1.85-.137-.106 1.467 4.233.312.308-4.281zM23.067 30.776c.147.072.553.244.947.244.356 0 .608-.105.608-.366 0-.266-.301-.41-.624-.41h-.46v-.737h.443c.241 0 .554-.078.554-.31 0-.172-.176-.288-.51-.288-.345 0-.717.155-.86.233l-.219-.744c.252-.154.75-.298 1.31-.298.821 0 1.33.387 1.33.925 0 .388-.213.687-.695.842v.01c.444.056.816.378.816.843 0 .704-.657 1.114-1.61 1.114-.549 0-1.003-.133-1.244-.288l.213-.77zm3.122-.81c0 .987.427 1.868 1.495 1.868h.006c1.074 0 1.5-.88 1.5-1.867 0-.981-.426-1.867-1.5-1.867s-1.501.886-1.501 1.867zm1.972 0c0 .765-.186 1.114-.466 1.114h-.005c-.285 0-.471-.349-.471-1.113 0-.765.186-1.108.47-1.108.286 0 .472.343.472 1.108zM32.176 28c-.476 0-.942.028-1.298.083v3.663c.203.033.548.066 1.096.066.777 0 1.462-.15 1.917-.498.361-.278.68-.749.68-1.524 0-.682-.302-1.136-.735-1.413-.405-.26-.882-.377-1.66-.377zm-.022 3.009c-.076 0-.18 0-.24-.012V28.82c.054-.011.17-.028.36-.028.67 0 1.19.31 1.19 1.053 0 .815-.554 1.175-1.31 1.164zm5.527.758a3.9 3.9 0 01-.043-.675v-.915c0-.73-.395-1.202-1.32-1.202-.603 0-1.003.16-1.178.255l.18.654c.176-.1.515-.216.817-.216.405 0 .47.122.47.221v.017c-1.018 0-1.665.338-1.665 1.07 0 .443.351.858.943.858.306 0 .591-.077.788-.299h.022l.055.232h.931zm-1.714-.892c0-.221.219-.337.674-.337v.149c0 .05 0 .105-.011.15a.4.4 0 01-.367.283c-.192 0-.296-.09-.296-.245zm3.473-.653l-.356-1.18h-1.156l1.057 2.471a.366.366 0 01.044.16c0 .04-.022.09-.055.128a.912.912 0 01-.35.244 1.33 1.33 0 01-.335.078l.192.875c.29-.022.641-.11.97-.382.296-.244.591-.638 1.09-2.018l.57-1.557h-1.129l-.268 1.18-.036.165c-.026.12-.054.25-.08.345h-.021c-.02-.068-.044-.16-.069-.255a15.04 15.04 0 00-.068-.254z"
        fill="#fff" />
    </g>
    <defs>
      <clipPath id="clip0_0_1391">
        <path fill="#fff" d="M0 0h60v60H0z" />
      </clipPath>
    </defs>
  </symbol>
  <symbol fill="none" xmlns="http://www.w3.org/2000/svg" viewBox="0 0 11 5" id="icon-arrow-down">
    <path fill-rule="evenodd" clip-rule="evenodd"
      d="M5.983 5a.75.75 0 01-.496-.18L1.173 1.048a.56.56 0 010-.869c.275-.24.72-.24.994 0l3.816 3.337L9.8.18c.274-.24.72-.24.994 0a.561.561 0 010 .868L6.48 4.82a.753.753 0 01-.497.18z"
      fill="#8D8D8D" />
  </symbol>
  <symbol fill="none" xmlns="http://www.w3.org/2000/svg" viewBox="0 0 6 11" id="icon-arrow-left">
    <path fill-rule="evenodd" clip-rule="evenodd"
      d="M.64 5.163a.75.75 0 01.178-.492L4.559.387a.556.556 0 01.863 0 .77.77 0 010 .987L2.11 5.164l3.31 3.79a.77.77 0 010 .986.556.556 0 01-.862 0L.818 5.656a.748.748 0 01-.178-.493z"
      fill="#8D8D8D" />
  </symbol>
  <symbol fill="none" viewBox="0 0 10 9" id="icon-arrow-link">
    <path fill-rule="evenodd" clip-rule="evenodd"
      d="M9.836 4.624L6.227 1.152A.555.555 0 005.84.997a.555.555 0 00-.387.155l-.327.315a.522.522 0 000 .749l2.105 2.03H.541a.523.523 0 00-.54.517v.447c0 .29.239.54.54.54h6.714l-2.13 2.042a.504.504 0 000 .739l.328.314c.103.1.24.153.387.153a.554.554 0 00.387-.154l3.61-3.472a.514.514 0 000-.747z"
      fill="#FE3E57" />
  </symbol>
  <symbol fill="none" xmlns="http://www.w3.org/2000/svg" viewBox="0 0 5 11" id="icon-arrow-right">
    <path fill-rule="evenodd" clip-rule="evenodd"
      d="M5.005 5.179a.75.75 0 00-.18-.494L1.06.388a.56.56 0 00-.868 0 .771.771 0 000 .99l3.332 3.801L.193 8.981a.772.772 0 000 .99c.24.273.628.273.867 0l3.765-4.297a.749.749 0 00.18-.495z"
      fill="#8D8D8D" />
  </symbol>
  <symbol fill="none" xmlns="http://www.w3.org/2000/svg" viewBox="0 0 16 16" id="icon-calendar">
    <path fill-rule="evenodd" clip-rule="evenodd"
      d="M14.125 1.25h-.75V0h-1.25v1.25h-8.25V0h-1.25v1.25h-.75A1.877 1.877 0 000 3.123v11C0 15.158.84 16 1.875 16h12.25A1.877 1.877 0 0016 14.124v-11a1.877 1.877 0 00-1.875-1.875zM1.875 2.5h.75v1.25h1.25V2.5h8.25v1.25h1.25V2.5h.75c.345 0 .625.28.625.624v1.5H1.25v-1.5c0-.344.28-.625.625-.625zm12.25 12.25H1.875a.626.626 0 01-.625-.626v-8.25h13.5v8.25c0 .345-.28.625-.625.625zM2.375 7.186h1.25v1.25h-1.25v-1.25zm3.75 0h-1.25v1.25h1.25v-1.25zm1.25 0h1.25v1.25h-1.25v-1.25zm3.75 0h-1.25v1.25h1.25v-1.25zm1.25 0h1.25v1.25h-1.25v-1.25zm-8.75 2.5h-1.25v1.25h1.25v-1.25zm1.25 0h1.25v1.25h-1.25v-1.25zm3.75 0h-1.25v1.25h1.25v-1.25zm1.25 0h1.25v1.25h-1.25v-1.25zm-6.25 2.5h-1.25v1.25h1.25v-1.25zm1.25 0h1.25v1.25h-1.25v-1.25zm3.75 0h-1.25v1.25h1.25v-1.25zm1.25 0h1.25v1.25h-1.25v-1.25zm3.75-2.5h-1.25v1.25h1.25v-1.25z"
      fill="#FE3E57" />
  </symbol>
  <symbol fill="none" xmlns="http://www.w3.org/2000/svg" viewBox="0 0 22 20" id="icon-cart">
    <g clip-path="url(#clip0_0_1477)">
      <path fill-rule="evenodd" clip-rule="evenodd"
        d="M17.436 19.997c-1.513 0-2.744-1.221-2.744-2.724a2.737 2.737 0 012.744-2.725 2.738 2.738 0 012.743 2.725 2.736 2.736 0 01-2.743 2.724zm0-3.814c-.606 0-1.098.49-1.098 1.09 0 .6.492 1.09 1.098 1.09.605 0 1.097-.49 1.097-1.09 0-.6-.492-1.09-1.097-1.09zm1.756-2.806H6.379a.822.822 0 01-.8-.628L2.902 1.634H.837A.82.82 0 01.014.817.82.82 0 01.837 0h2.716c.38 0 .712.26.8.627l.741 3.077h16.1c.254 0 .493.116.649.314a.815.815 0 01.15.7l-2.002 8.038a.823.823 0 01-.8.62zM7.029 11.742h11.519l1.595-6.402H5.488l1.54 6.402zm.447 8.255a2.736 2.736 0 01-2.743-2.724c0-1.502 1.23-2.725 2.743-2.725s2.744 1.223 2.744 2.725c0 1.503-1.23 2.724-2.744 2.724zm0-3.814c-.605 0-1.097.49-1.097 1.09 0 .6.492 1.09 1.097 1.09.606 0 1.098-.49 1.098-1.09 0-.6-.492-1.09-1.098-1.09z"
        fill="#29282D" />
    </g>
    <defs>
      <clipPath id="clip0_0_1477">
        <path fill="#fff" d="M0 0h22v20H0z" />
      </clipPath>
    </defs>
  </symbol>
</svg>