<svg width="0" height="0" class="hidden">
  <symbol version="1.0" xmlns="http://www.w3.org/2000/svg" preserveAspectRatio="xMidYMid meet" viewBox="0 0 512.000000 512.000000" id="icon-heart">
    <g transform="translate(0.000000,512.000000) scale(0.100000,-0.100000)" fill="inherit" stroke="none">
      <path d="M1198 4626 c-230 -41 -446 -162 -640 -358 -118 -118 -199 -230 -263
-362 -227 -465 -161 -1010 170 -1416 75 -92 1999 -1982 2033 -1997 39 -17 92
-16 130 5 44 24 1959 1908 2035 2003 215 267 321 616 289 947 -27 278 -126
517 -298 722 -332 395 -740 544 -1184 432 -267 -68 -557 -240 -813 -482 l-97
-92 -90 85 c-265 253 -555 424 -832 493 -128 31 -324 40 -440 20z m387 -336
c104 -27 316 -133 430 -214 125 -91 267 -218 355 -318 87 -100 130 -128 191
-128 53 0 95 24 146 82 262 297 535 491 808 574 78 24 107 27 215 27 107 0
138 -3 213 -26 221 -68 391 -195 521 -390 244 -367 229 -846 -38 -1181 -49
-61 -1853 -1846 -1866 -1846 -13 0 -1817 1786 -1866 1847 -105 131 -181 314
-205 489 -32 239 39 519 177 703 112 149 295 300 431 356 145 59 323 68 488
25z"></path>
    </g>
  </symbol>
  <symbol version="1.0" xmlns="http://www.w3.org/2000/svg" preserveAspectRatio="xMidYMid meet" viewBox="0 0 480.000000 480.000000" id="icon-in">
    <g transform="translate(0.000000,480.000000) scale(0.100000,-0.100000)" fill="inherit" stroke="none">
      <path d="M725 4530 c-241 -49 -415 -258 -415 -500 0 -180 84 -335 234 -432
209 -135 506 -95 666 91 179 206 170 501 -19 692 -125 125 -302 182 -466 149z"></path>
      <path d="M3375 3229 c-154 -20 -316 -81 -450 -172 -71 -49 -191 -166 -231
-227 l-29 -44 -3 182 -2 182 -420 0 -420 0 0 -1385 0 -1385 420 0 419 0 3 808
c3 797 4 808 25 885 31 109 75 187 144 252 72 68 143 102 257 122 70 12 103
13 171 4 239 -31 367 -186 400 -484 7 -60 11 -376 11 -842 l0 -745 435 0 435
0 0 888 c0 887 -5 1040 -35 1183 -95 460 -394 729 -865 779 -109 11 -167 11
-265 -1z"></path>
      <path d="M390 1765 l0 -1385 435 0 435 0 0 1385 0 1385 -435 0 -435 0 0 -1385z"></path>
    </g>
  </symbol>
  <symbol version="1.0" xmlns="http://www.w3.org/2000/svg" preserveAspectRatio="xMidYMid meet" viewBox="0 0 2400.000000 3085.000000" id="icon-pinterest">
    <g transform="translate(0.000000,3085.000000) scale(0.100000,-0.100000)" fill="inherit" stroke="none">
      <path d="M11740 30840 c-384 -15 -756 -41 -1145 -81 -1713 -174 -3389 -727
-4925 -1622 -1294 -754 -2445 -1742 -3349 -2875 -1322 -1658 -2104 -3599
-2276 -5647 -54 -648 -54 -1505 0 -2175 127 -1561 561 -2797 1301 -3703 127
-156 396 -431 543 -557 626 -534 1349 -891 2276 -1124 169 -43 181 -45 193
-28 7 9 66 123 131 252 425 850 514 1504 296 2180 -90 276 -218 530 -518 1025
-457 752 -621 1134 -706 1640 -213 1266 -111 2576 293 3790 499 1496 1433
2835 2731 3915 1014 844 2218 1485 3485 1855 2312 675 4637 406 6493 -752 603
-376 1238 -914 1631 -1383 775 -924 1289 -2314 1455 -3935 71 -687 80 -1484
26 -2205 -169 -2238 -895 -4375 -1980 -5825 -65 -88 -175 -227 -244 -310 -148
-178 -549 -582 -711 -716 -702 -581 -1416 -900 -2235 -995 -183 -22 -641 -25
-815 -6 -869 95 -1513 352 -1930 771 -333 334 -517 748 -587 1312 -21 175 -23
613 -4 819 53 567 178 1173 410 1985 96 338 183 621 425 1387 370 1170 499
1611 620 2123 252 1064 297 1845 141 2449 -43 170 -81 271 -159 431 -253 515
-705 874 -1371 1088 -458 147 -877 188 -1296 127 -405 -60 -813 -230 -1169
-489 -1001 -726 -1718 -2193 -1884 -3851 -103 -1027 26 -2029 366 -2844 47
-112 165 -355 225 -460 l27 -48 -27 -137 c-178 -866 -430 -1895 -862 -3511
-85 -316 -206 -771 -270 -1010 -616 -2305 -943 -3789 -1154 -5240 -264 -1812
-327 -3510 -190 -5185 36 -448 126 -1245 142 -1261 11 -12 309 224 552 435
142 125 483 463 616 612 1143 1280 1977 2974 2658 5399 267 951 537 2130 812
3547 46 238 87 433 92 433 26 0 524 -328 1017 -670 662 -459 989 -659 1385
-847 688 -326 1441 -472 2430 -473 1878 0 3615 611 5084 1789 343 274 809 717
1093 1036 535 603 993 1252 1407 1995 124 222 376 729 485 975 938 2117 1354
4560 1191 6985 -105 1551 -402 2739 -975 3905 -637 1293 -1609 2441 -2830
3342 -1819 1341 -4153 2148 -6750 2333 -443 32 -1253 46 -1670 30z"></path>
    </g>
  </symbol>
  <symbol version="1.0" xmlns="http://www.w3.org/2000/svg" preserveAspectRatio="xMidYMid meet" viewBox="0 0 512.000000 512.000000" id="icon-search">
    <g transform="translate(0.000000,512.000000) scale(0.100000,-0.100000)" fill="inherit" stroke="none">
      <path d="M1930 5109 c-494 -51 -951 -269 -1306 -623 -246 -246 -412 -514 -518
-836 -141 -428 -141 -872 0 -1300 106 -323 273 -592 520 -837 488 -485 1153
-705 1839 -608 353 50 707 195 985 404 30 23 57 40 61 39 4 -2 307 -298 673
-658 417 -410 680 -661 704 -672 98 -46 208 12 228 120 16 84 72 24 -1024
1106 l-342 338 58 68 c250 289 415 655 478 1055 24 156 24 442 0 600 -71 459
-272 853 -607 1186 -460 457 -1101 684 -1749 618z m479 -335 c404 -59 759
-235 1040 -515 344 -345 523 -774 523 -1259 0 -179 -16 -302 -58 -457 -212
-788 -931 -1333 -1759 -1333 -493 0 -951 187 -1293 529 -232 232 -387 500
-471 811 -74 277 -74 623 0 900 168 626 665 1119 1292 1281 228 59 507 76 726
43z"></path>
    </g>
  </symbol>
  <symbol version="1.0" xmlns="http://www.w3.org/2000/svg" preserveAspectRatio="xMidYMid meet" viewBox="0 0 512.000000 512.000000" id="icon-twitter">
    <g transform="translate(0.000000,512.000000) scale(0.100000,-0.100000)" fill="inherit" stroke="none">
      <path d="M3396 4630 c-439 -70 -789 -399 -877 -825 -21 -100 -25 -291 -9 -389
5 -33 7 -62 5 -64 -9 -9 -308 28 -430 53 -370 75 -743 228 -1050 433 -237 158
-428 323 -598 517 -39 44 -74 81 -78 83 -4 2 -24 -31 -43 -72 -78 -164 -111
-353 -95 -544 23 -271 165 -540 374 -710 l80 -65 -75 6 c-88 7 -223 45 -317
87 -36 17 -68 30 -71 30 -13 0 10 -194 33 -278 59 -221 182 -408 359 -549 95
-75 248 -154 361 -187 l80 -23 -60 -14 c-39 -9 -121 -14 -232 -14 -202 0 -190
16 -113 -140 158 -319 476 -537 835 -572 l80 -8 -75 -54 c-261 -185 -548 -304
-875 -362 -111 -20 -164 -23 -362 -24 l-232 0 52 -33 c95 -60 410 -210 540
-256 587 -211 1258 -231 1874 -56 867 245 1568 898 1911 1780 130 334 199 686
207 1050 l4 174 98 82 c118 98 254 238 347 357 69 88 77 109 35 87 -82 -44
-439 -140 -521 -140 l-31 0 49 32 c77 50 234 214 288 300 47 76 112 216 103
224 -2 2 -57 -23 -123 -55 -148 -73 -276 -121 -421 -157 l-112 -27 -63 59
c-121 113 -276 197 -446 240 -109 28 -305 40 -406 24z"></path>
    </g>
  </symbol>
  <symbol version="1.0" xmlns="http://www.w3.org/2000/svg" preserveAspectRatio="xMidYMid meet" viewBox="0 0 512.000000 512.000000" id="icon-user">
    <g transform="translate(0.000000,512.000000) scale(0.100000,-0.100000)" fill="inherit" stroke="none">
      <path d="M2435 5114 c-16 -2 -65 -9 -109 -15 -246 -33 -541 -172 -741 -349
-253 -223 -432 -545 -486 -875 -20 -120 -17 -390 5 -500 71 -361 275 -695 550
-903 l68 -52 -28 -10 c-121 -46 -173 -69 -276 -120 -444 -223 -805 -560 -1062
-990 -210 -352 -328 -745 -352 -1180 l-7 -120 201 0 202 0 0 49 c0 339 141
807 330 1095 291 445 681 750 1156 905 452 148 896 148 1348 0 475 -155 865
-460 1156 -905 189 -288 330 -756 330 -1095 l0 -49 202 0 201 0 -7 120 c-24
435 -142 828 -352 1180 -257 430 -618 767 -1062 990 -103 51 -155 74 -276 120
l-28 10 68 52 c275 208 479 542 550 903 22 110 25 380 5 500 -43 263 -176 542
-352 742 -219 247 -527 421 -848 479 -77 14 -332 26 -386 18z m294 -409 c588
-96 990 -650 896 -1234 -96 -588 -650 -990 -1234 -896 -588 96 -990 650 -896
1234 96 588 650 990 1234 896z"></path>
    </g>
  </symbol>
  <symbol version="1.0" xmlns="http://www.w3.org/2000/svg" preserveAspectRatio="xMidYMid meet" viewBox="0 0 512.000000 512.000000" id="icon-cart">
    <g transform="translate(0.000000,512.000000) scale(0.100000,-0.100000)" fill="inherit" stroke="none">
      <path d="M115 4885 c-117 -55 -150 -198 -68 -296 52 -62 62 -64 357 -69 l270
-5 314 -1315 c338 -1417 318 -1346 396 -1404 27 -21 29 -21 1573 -24 l1546 -2
44 21 c83 40 74 11 335 1067 257 1039 253 1015 207 1088 -11 19 -40 45 -63 59
l-43 25 -1896 0 c-1257 0 -1898 3 -1902 10 -3 6 -46 177 -95 381 -98 405 -104
420 -180 459 -37 19 -59 20 -402 20 -291 -1 -369 -4 -393 -15z m4565 -1242 c0
-5 -83 -341 -183 -748 l-183 -740 -1341 -3 -1341 -2 -16 67 c-8 38 -87 369
-176 738 -88 368 -160 675 -160 682 0 11 333 13 1700 13 935 0 1700 -3 1700
-7z"></path>
      <path d="M1560 1467 c-435 -130 -604 -653 -323 -1004 136 -170 318 -252 532
-240 170 9 302 68 423 190 53 52 78 89 112 160 52 109 66 168 66 285 0 175
-62 325 -186 449 -57 57 -90 80 -165 116 -52 25 -118 50 -147 56 -89 18 -227
13 -312 -12z m285 -382 c191 -92 192 -357 1 -458 -57 -30 -165 -30 -222 0 -79
42 -144 145 -144 228 0 48 33 128 68 167 54 60 122 90 197 85 33 -2 78 -12
100 -22z"></path>
      <path d="M3902 1476 c-102 -26 -217 -92 -296 -170 -60 -59 -82 -90 -119 -167
-53 -110 -67 -169 -67 -284 0 -106 14 -171 55 -262 112 -243 347 -385 614
-370 168 9 294 65 414 184 74 73 119 144 155 245 23 64 26 88 27 198 0 102 -4
138 -22 195 -60 188 -208 341 -401 413 -55 20 -89 26 -187 28 -78 2 -139 -1
-173 -10z m248 -387 c201 -91 210 -359 16 -462 -57 -30 -165 -30 -222 0 -204
108 -187 386 31 470 48 18 125 15 175 -8z"></path>
    </g>
  </symbol>
  <symbol version="1.0" xmlns="http://www.w3.org/2000/svg" preserveAspectRatio="xMidYMid meet" viewBox="0 0 512.000000 512.000000" id="icon-facebook">
    <g transform="translate(0.000000,512.000000) scale(0.100000,-0.100000)" fill="inherit" stroke="none">
      <path d="M2980 5104 c-494 -80 -804 -397 -897 -919 -12 -70 -17 -188 -20 -537
l-5 -448 -369 0 -369 0 0 -455 0 -455 370 0 370 0 0 -1145 0 -1145 460 0 460
0 0 1145 0 1145 355 0 c195 0 355 3 355 6 0 3 25 203 55 444 30 241 55 443 55
449 0 8 -124 11 -411 11 l-410 0 3 403 c3 356 5 407 21 447 39 100 98 155 204
193 52 19 87 21 366 25 l307 4 0 404 c0 315 -3 406 -12 409 -34 11 -299 26
-533 30 -203 4 -281 1 -355 -11z"></path>
    </g>
  </symbol>
  <symbol version="1.0" xmlns="http://www.w3.org/2000/svg" preserveAspectRatio="xMidYMid meet" viewBox="0 0 443.000000 451.000000" id="icon-google">
    <g transform="translate(0.000000,451.000000) scale(0.100000,-0.100000)" fill="inherit" stroke="none">
      <path d="M2085 4493 c-457 -40 -888 -212 -1240 -496 -110 -88 -300 -286 -384
-399 -229 -309 -368 -646 -428 -1038 -24 -157 -24 -463 0 -620 76 -494 277
-903 617 -1254 179 -184 352 -315 571 -430 296 -155 618 -239 969 -253 388
-15 769 59 1085 212 632 305 1052 958 1135 1769 15 138 9 463 -10 577 l-13 76
-1054 7 c-579 4 -1058 4 -1063 1 -6 -4 -10 -161 -10 -431 l0 -424 610 0 c531
0 610 -2 610 -15 0 -21 -42 -131 -79 -203 -179 -355 -494 -588 -891 -658 -129
-23 -355 -23 -480 0 -569 103 -1007 543 -1105 1110 -20 115 -20 337 0 452 85
488 422 888 888 1053 152 53 273 74 442 74 330 1 580 -86 862 -300 l29 -22
317 317 317 317 -83 68 c-335 279 -781 464 -1221 506 -102 10 -299 12 -391 4z"></path>
    </g>
  </symbol>
  <symbol xmlns="http://www.w3.org/2000/svg" viewBox="0 0 23 25" id="icon-return">
    <path fill-rule="evenodd" fill="#FFF" d="M6.706 12.72c0 .703-.216 1.113-.746 1.113-1.412 0-1.03-.133-2.108-.287l.808-.771c-.446.072-.041.415.48.415.23 0 .482-.276.482-.537 0-.266-.301-.41-.625-.41h-.46v-.737h.444c.241 0 .553-.077.553-.31 0 .044-.175-.288-.284-.288-.57 0-.943.722-1.085.233l-.22-.743c.252-.155.751-.298 1.31-.298 1.505 0 1.331.387 1.331 1.14 0 .172-.214.471-.696.626v.011c.444.056.816.377.816.843zm1.978 1.113c-1.068 0-1.496-.88-1.496-1.867 0-.981.428-1.866 1.501-1.866 1.074 0 1.501.885 1.501 1.866 0 .987-.427 1.867-1.501 1.867h-.005zm.477-1.867c0-.764-.187-1.108-.472-1.108-.284 0-.471.344-.471 1.108 0 .765.187 1.834.471 1.834h.006c.279 0 .466-1.069.466-1.834zm3.812 1.845c-.548 0-.173-.033-1.096-.066V10.83c.356-.56.822-.831 1.299-.831.778 0 1.254.117 1.66.377.432.277.734.731.734 1.413 0 .775-.318 1.561-.68 1.524-.454.349-1.139.498-1.917.498zm.301-3.019c.556 0-.306.016-.361.027v2.178c.06.803.857.803.241.803.756-.61 1.309-1.141 1.309-1.956 0-.742-.52-1.052-1.189-1.052zm3.862.875c-.301 0-.641.116-.816.216l-.181-.653c.175-.095.575-.256 1.178-.256.926 0 1.32.472 1.32 1.202v1.734c0-.531.017-.265.044-.143h-.931l-.055-.233h-.022c-.197.222-.482.299-.789.299-.591 0-.942-.415-.942-.858 0-.732.646-1.069 1.665-1.069v-.018c0-.099-.065-.221-.471-.221zm-.17 1.208c0 .425.734.244.296.244a.4.4 0 0 0 .367-.283c.011-.045.011-.099.011-.15v-.149c-.455 0-.674.116-.674.338zm1.961-1.475h1.903l-.391.821c.044.156.099.377.137.51h.022c.039-.144.082-.366.115-.51l.269-.821h1.128l-.57 1.198c-.12 1.379-.794 1.773-1.09 2.017-.328.272-.679.36-.969.382l-.192-.875c.093-.006.208.768.334.328.137-.451.285-.571.351-.649.626-.039.306-.089.306-.129 0-.033-.05-.076-.295-.16L18.927 11.4zm3.764-4.681-4.233-.312.106-1.467 1.851.82c-2.054-2.966-4.965-4.29-8.057-4.29-6.013 0-10.904 4.947-10.904 11.028s4.891 11.029 10.904 11.029c3.635 0 7.021-1.83 9.057-4.895l1.207.82c-2.307 3.473-6.144 5.546-10.264 5.546C5.543 24.998 0 19.391 0 12.498 0 5.606 5.543.1 12.358.1c3.473 0 6.746 1.372 9.069 4.05l.122-1.82 1.45.107-.308 4.282z"></path>
  </symbol>
  <symbol xmlns="http://www.w3.org/2000/svg" viewBox="0 0 40 25" id="icon-shipping">
    <path fill-rule="evenodd" fill="#FFF" d="M26.1 17.161c.256 0 .537.278.537.619 0 .343-.281.619-.537.619h-9.443c-.346 0-.347-.276-.347-.619 0-.341.001-.619.347-.619H26.1zm-10.779-4.043c-.16 0-.321.462-.443-.182l-3.341-3.3c-.244-.242-.244-.436 0-.875a.631.631 0 0 1 .886 0l2.898 2.863 5.57-5.504a.632.632 0 0 1 .885 0c.434.242.434.634 0 .875l-6.012 5.941c-.123.644-.283.182-.443.182zM39.372 21.4h-2.047l.001.42c0 1.423-1.78 3.28-3.967 3.28-2.187 0-3.967-1.857-3.967-3.28l.001-.42H15.278l.001.42c0 1.423-1.78 3.28-3.967 3.28-2.187 0-3.967-1.857-3.967-3.28l.001-.42H3.963c-.714 0-1.294-.934-1.294-1.64v-1.361H.623c-.346 0-.323-.276-.323-.619 0-.341-.023-.619.323-.619h6.012c.346 0 .627.278.627.619a.622.622 0 0 1-.627.619H3.921v1.361c0 .024.019.042.042.042h3.6a3.97 3.97 0 0 1 3.749-2.641c2.148 0 3.211 1.106 4.298 2.641h12.95V15.14c0-.342-.223-.619.123-.619.597 0 .626.277.626.619v4.662h.301a3.97 3.97 0 0 1 3.749-2.641c2.571 0 3.211 1.106 3.749 2.641h1.638V17.79h-.386c-1.406 0-1.63-1.581-1.63-2.65v-1.321c0-.341-.376-.619-.03-.619h1.947a2.049 2.049 0 0 0-1.946-1.402h-7.392v.701c0 .343-.029.62-.626.62-.346 0-.123-.277-.123-.62V1.276c0-.022-.18-.041-.42-.041H3.963a.042.042 0 0 0-.042.041v11.223c0 .342-.28.619-.626.619a.622.622 0 0 1-.626-.619V1.276C2.669.572 3.249.2 3.963.2H28.14c.588 0 1.169.372 1.169 1.076v1.362h4.961c1.208 0 2.388 1.166 2.388 2.6v.66a.62.62 0 0 1-.496.605l1.036 4.094c1.583.238 2.8 1.592 2.8 3.222v6.603c0 .341-.28.978-.626.978zm-28.06-3.001c-1.496 0-2.714 1.203-2.714 3.421 0 .74 1.218 1.943 2.714 1.943 1.497 0 2.948-1.203 2.948-1.943 0-2.218-1.451-3.421-2.948-3.421zm22.047 0c-1.496 0-2.714 1.203-2.714 3.421 0 .74 1.218 1.943 2.714 1.943 1.497 0 3.371-1.203 3.371-1.943 0-2.218-1.874-3.421-3.371-3.421zm2.046-13.161c0-.751-.618-1.362-1.135-1.362h-4.961v1.403h6.096v-.041zm-.53 1.279h-5.566v4.043h6.589l-1.023-4.043zm3.871 7.921h-1.42v.702c0 .387.318.702 1.034.702h.386v-1.404zm-5.387 7.922c-.714 0-.709-.573-.709-.54 0-1.444-.005-2.018.709-2.018 1.371 0 1.295.574 1.295 2.018 0-.033.076.54-1.295.54zm-22.047 0c-.714 0-1.132-.573-1.132-.54 0-1.444.418-2.018 1.132-2.018.948 0 1.295.574 1.295 2.018 0-.033-.347.54-1.295.54zm-.71-7.22c0 .341-.28.619-.626.619H1.959a.623.623 0 0 1-.626-.619c0-.342.28-.619.626-.619h8.017c.346 0 .626.277.626.619z"></path>
  </symbol>
  <symbol xmlns="http://www.w3.org/2000/svg" viewBox="0 0 26 25" id="icon-support">
    <path fill-rule="evenodd" fill="#FFF" d="m25.494 14.208-4.149 4.765a3.3 3.3 0 0 1-.652.579l-.017.011c-.576.421-1.525.635-2.525.635h-6.157c-.424 0-.852.024-1.273.073l-.471.076.079.288a.498.498 0 0 1 .156.35.502.502 0 0 1-.146.36l-3.494 3.5a.517.517 0 0 1-.719.013L.161 19.312c.459-.092.339.628.039-.351-.2-.132.31-.262-.055-.357l3.527-3.324c.096-.348.229-.404.718-.405h.03c-.245 0-.115.051-.02.295l.726.535a7.262 7.262 0 0 1 1.322-1.387c1.484-1.182 3.239-1.545 5.077-1.048.705.19 1.449.287 2.212.287h4.047c.588 0 1.108.226 1.464.639.073.085.138.176.195.272l2.891-2.793c.423-.413.991-.155 1.597.135.534-.701 1.063-.485 1.452-.134.777.699.821 1.716.111 2.532zM4.54 16.81l-3.301 2.125 5.226 4.86L9.25 21.5l-4.71-4.69zm20.15-4.4c-.416-.06-1.159-.491-1.14-.027l-3.824 3.218c-.014 1.209-.184.929-.482 1.271-.357.411-.882.638-1.476.638h-3.523c-.282 0-.511-.223-.511-.41 0-.364.229-.589.511-.589h3.523c.882 0 .532-.096.697-.286.152.285.239-.427.239-.693 0-.362-.194-.977-.92-.977h-4.047c-.855 0-1.277-.109-2.485-.323-1.525-.413-2.924-.123-3.312 1.688-1.439-.355-1.02.94-2.071.488l3.871 3.037.865-.168c1.025-.051.926-.078 1.389-.078h6.157c.797 0 1.459.201 1.966-.472.166-.114.318-.248.449-.4l4.149-4.766c.479-.451.19-.958-.025-1.151zm-12.416 5.088a.51.51 0 0 1-.614-.372l-.005-.02c-.065-.269.106-.537.705-.6-.049-.063.226.104.29.372l.005.02a.498.498 0 0 1-.381.6zm9.04-6.966h-4.983c.269 0-.522-.085-.726-.231a1.248 1.248 0 0 1-.727.231H9.895c-.272 0-.523-.085-.727-.231a1.244 1.244 0 0 1-.727.231H3.459c-.683 0-1.239-.542-1.239-1.209V7.55c0-1.19.585-2.4 1.459-2.836A2.826 2.826 0 0 1 3 2.878C3 1.29 4.323.2 5.95.2 7.576.2 8.9 1.29 8.9 2.878c0 .697-.255 1.337-.679 1.835.378.19.701.462.947.794.246-.332.569-.604.947-.793a2.831 2.831 0 0 1-.679-1.836C9.436 1.29 10.76.2 12.386.2c1.744 0 2.95 1.09 2.95 2.678 0 .697.474 1.337-.679 1.835.693.189.702.462.948.793.245-.331.569-.603.947-.793a2.821 2.821 0 0 1-.679-1.835C15.873 1.29 17.196.2 18.823.2c1.626 0 2.949 1.09 2.949 2.678 0 .697-.255 1.337.168 1.835.028.437.612 1.637.612 2.837v1.773c0 .667-.555 1.209-1.238 1.209zM5.95.996c-1.062 0-1.72.844-1.72 1.882 0 1.037.658 1.881 1.72 1.881 1.18 0 1.927-.844 1.927-1.881C7.877 1.84 7.13.996 5.95.996zM8.657 7.55c0-1.298.073-1.967-1.379-2.102-.399.197-.85.31-1.328.31-.478 0-.74-.113-1.328-.31-.795.135-1.379.804-1.379 2.102v1.773c0 .116.097.211.216.211h4.982a.214.214 0 0 0 .216-.211V7.55zM12.386.996c-1.062 0-1.927.844-1.927 1.882 0 1.037.865 1.881 1.927 1.881 1.063 0 1.927-.844 1.927-1.881 0-1.038-.864-1.882-1.927-1.882zM15.93 7.55c0-1.298-1.421-1.967-2.215-2.102a3 3 0 0 1-1.329.31c-.477 0-.929-.113-.806-.31-1.316.135-1.9.804-1.9 2.102v1.773c0 .116.096.211.215.211h4.983c.118 0 1.052-.095 1.052-.211V7.55zM18.823.996c-1.063 0-1.927.844-1.927 1.882 0 1.037.864 1.881 1.927 1.881 1.062 0 1.927-.844 1.927-1.881 0-1.038-.865-1.882-1.927-1.882zm2.706 6.554c0-1.298-.583-1.967-1.378-2.102a2.996 2.996 0 0 1-2.657 0c-.794.135-1.378.804-1.378 2.102v1.773c0 .116.096.211.215.211h4.983a.213.213 0 0 0 .215-.211V7.55z"></path>
  </symbol>
  <symbol fill="none" xmlns="http://www.w3.org/2000/svg" viewBox="0 0 60 60" id="icon-30day">
    <g clip-path="url(#clip0_0_1391)">
      <path fill-rule="evenodd" clip-rule="evenodd" d="M-6e-05 -6e-05H59.9999V59.9998H-6e-05V-6e-05Z" fill="#34C3FF"></path>
      <path fill-rule="evenodd" clip-rule="evenodd" d="M42 20.4378L40.5493 20.3307L40.428 22.0158C38.1042 19.4724 34.832 17.9984 31.3582 17.9984C24.5438 17.9984 18.9999 23.6062 18.9999 30.4985C18.9999 37.3919 24.5438 42.9986 31.3582 42.9986C35.4789 42.9986 39.3161 40.9256 41.6229 37.4527L40.4155 36.6323C38.3794 39.6976 34.9936 41.5277 31.3582 41.5277C25.3458 41.5277 20.4544 36.5804 20.4544 30.4985C20.4544 24.4174 25.3458 19.4704 31.3582 19.4704C34.4502 19.4704 37.3612 20.7946 39.4153 23.0766L37.5642 22.9405L37.4585 24.4073L41.6917 24.7194L42 20.4378ZM23.0665 30.776C23.2144 30.8477 23.6198 31.02 24.0142 31.02C24.3703 31.02 24.6224 30.9145 24.6224 30.6539C24.6224 30.3881 24.321 30.2439 23.9978 30.2439H23.5377V29.5069H23.9814C24.2224 29.5069 24.5347 29.4292 24.5347 29.1968C24.5347 29.0252 24.3594 28.9088 24.0252 28.9088C23.68 28.9088 23.3075 29.0639 23.1652 29.1416L22.946 28.3985C23.198 28.2439 23.6965 28.1001 24.2553 28.1001C25.077 28.1001 25.5865 28.4875 25.5865 29.0252C25.5865 29.413 25.3728 29.7119 24.8907 29.867V29.8778C25.3345 29.9334 25.707 30.2552 25.707 30.7204C25.707 31.424 25.0497 31.834 24.0964 31.834C23.5485 31.834 23.0939 31.7011 22.8529 31.5464L23.0665 30.776ZM26.1889 29.9668C26.1889 30.9532 26.6162 31.834 27.6844 31.834H27.6899C28.7636 31.834 29.1909 30.9532 29.1909 29.9668C29.1909 28.9857 28.7636 28.1001 27.6899 28.1001C26.6162 28.1001 26.1889 28.9857 26.1889 29.9668ZM28.1611 29.9668C28.1611 30.7312 27.9748 31.0804 27.6954 31.0804H27.6899C27.4051 31.0804 27.2188 30.7312 27.2188 29.9668C27.2188 29.2024 27.4051 28.8593 27.6899 28.8593C27.9748 28.8593 28.1611 29.2024 28.1611 29.9668ZM32.1762 27.9998C31.6996 27.9998 31.2339 28.0276 30.8779 28.0832V31.7458C31.0806 31.7788 31.4257 31.8118 31.9736 31.8118C32.7514 31.8118 33.4362 31.6624 33.8909 31.3136C34.2524 31.0361 34.5702 30.5653 34.5702 29.7896C34.5702 29.1078 34.2689 28.6535 33.8361 28.3768C33.4308 28.1162 32.9541 27.9998 32.1762 27.9998ZM32.1543 31.0087C32.0776 31.0087 31.9736 31.0087 31.9133 30.9975V28.8198C31.9681 28.8089 32.0831 28.7924 32.2749 28.7924C32.9432 28.7924 33.4636 29.1025 33.4636 29.8452C33.4636 30.6599 32.9103 31.02 32.1543 31.0087ZM37.6815 31.7675C37.6542 31.6455 37.6377 31.3797 37.6377 31.0917V30.1771C37.6377 29.4465 37.2432 28.9748 36.3174 28.9748C35.7149 28.9748 35.3149 29.1355 35.1396 29.2302L35.3204 29.8835C35.4957 29.784 35.8354 29.668 36.1366 29.668C36.5421 29.668 36.6077 29.7896 36.6077 29.8891V29.9064C35.5889 29.9064 34.9424 30.2439 34.9424 30.9757C34.9424 31.4192 35.293 31.834 35.8847 31.834C36.1914 31.834 36.4763 31.7566 36.6735 31.5351H36.6954L36.7502 31.7675H37.6815ZM35.9669 30.8754C35.9669 30.6539 36.1859 30.5375 36.6407 30.5375V30.6869C36.6407 30.7373 36.6407 30.7921 36.6297 30.8372C36.5859 30.9975 36.4216 31.1199 36.2627 31.1199C36.0709 31.1199 35.9669 31.0309 35.9669 30.8754ZM39.4398 30.2218L39.0838 29.0413H37.9278L38.9851 31.513C39.0235 31.5963 39.029 31.6403 39.029 31.6733C39.029 31.7123 39.007 31.7627 38.9741 31.8013C38.9085 31.8791 38.7605 31.9999 38.6236 32.0454C38.4976 32.0893 38.3825 32.1167 38.2895 32.1228L38.4811 32.9979C38.7715 32.9758 39.1221 32.8871 39.4508 32.6157C39.7466 32.3716 40.0424 31.9777 40.541 30.5983L41.1107 29.0413H39.9821L39.7137 30.2218C39.7027 30.2699 39.6905 30.3268 39.6777 30.3864C39.6522 30.5053 39.6243 30.6355 39.5987 30.7312H39.5768C39.557 30.6627 39.5329 30.5708 39.5081 30.4765C39.4849 30.3878 39.461 30.2971 39.4398 30.2218Z" fill="white"></path>
    </g>
    <defs>
      <clipPath id="clip0_0_1391">
        <rect width="60" height="60" fill="white"></rect>
      </clipPath>
    </defs>
  </symbol>
  <symbol fill="none" xmlns="http://www.w3.org/2000/svg" viewBox="0 0 60 60" id="icon-shipping">
    <g clip-path="url(#clip0_0_1411)">
      <path fill-rule="evenodd" clip-rule="evenodd" d="M-6e-05 -6e-05H59.9999V59.9998H-6e-05V-6e-05Z" fill="#FFB534"></path>
      <path fill-rule="evenodd" clip-rule="evenodd" d="M46.1628 24.504L47.1987 28.5975C48.782 28.8359 49.999 30.1899 49.999 31.8199V38.4221C49.999 38.7633 49.7186 39.0408 49.3726 39.0408H47.3254C47.3256 39.0541 47.3266 39.0682 47.3266 39.0823C47.3266 41.2434 45.547 43.0014 43.3597 43.0014C41.1725 43.0014 39.3929 41.2434 39.3929 39.0823C39.3929 39.0682 39.3938 39.0541 39.394 39.0408H25.2785C25.2785 39.0468 25.2788 39.053 25.279 39.0593V39.0594V39.0594V39.0594C25.2792 39.0669 25.2795 39.0746 25.2795 39.0823C25.2795 41.2434 23.5 43.0014 21.3126 43.0014C19.1254 43.0014 17.3459 41.2434 17.3459 39.0823L17.3461 39.0701L17.3464 39.0594C17.3466 39.053 17.3469 39.0468 17.3469 39.0408H13.9636C13.2499 39.0408 12.6692 38.4669 12.6692 37.7612V36.3995H10.6232C10.2773 36.3995 9.99684 36.1233 9.99684 35.7805C9.99684 35.4394 10.2773 35.1619 10.6232 35.1619H16.636C16.982 35.1619 17.2624 35.4394 17.2624 35.7805C17.2624 36.1233 16.982 36.3995 16.636 36.3995H13.9219V37.7612C13.9219 37.7846 13.9406 37.8027 13.9636 37.8027H17.5639C18.1019 36.2682 19.5786 35.1619 21.3126 35.1619C23.0468 35.1619 24.5235 36.2682 25.0615 37.8027H38.0568V33.1405C38.0568 32.799 38.3372 32.5219 38.6832 32.5219C39.029 32.5219 39.3095 32.799 39.3095 33.1405V37.8027H39.611C40.1489 36.2682 41.6258 35.1623 43.3598 35.1623C45.0938 35.1623 46.5706 36.2682 47.1085 37.8027H48.7463V35.0797H48.0364C46.9544 35.0797 46.074 34.2098 46.074 33.1405V31.8199C46.074 31.4783 46.3544 31.2013 46.7003 31.2013H48.6479C48.3827 30.3893 47.6107 29.7993 46.7016 29.7985H46.6998H46.6982H39.3095V30.4997C39.3095 30.8424 39.029 31.1195 38.6832 31.1195C38.3372 31.1195 38.0568 30.8424 38.0568 30.4997V19.2771C38.0568 19.2549 38.0381 19.236 38.0151 19.236H13.9636C13.9406 19.236 13.9219 19.2549 13.9219 19.2771V30.4993C13.9219 30.842 13.6414 31.1187 13.2956 31.1187C12.9496 31.1187 12.6692 30.842 12.6692 30.4993V19.2771C12.6692 18.5723 13.2499 17.9979 13.9636 17.9979H38.0151C38.7288 17.9979 39.3095 18.5723 39.3095 19.2771V20.6388H44.0279C45.4784 20.6388 46.6586 21.8051 46.6586 23.2385V23.8982C46.6586 24.1958 46.446 24.444 46.1628 24.504ZM44.8751 24.5173H39.3095V28.5612H45.8981L44.8751 24.5173ZM45.4059 23.2385C45.4059 22.4874 44.7877 21.8768 44.0279 21.8768H39.3095V23.2792H45.4059V23.2385ZM18.5986 39.0823C18.5986 40.5611 19.8162 41.7633 21.3126 41.7633C22.8092 41.7633 24.0268 40.5611 24.0268 39.0823C24.0268 37.603 22.8092 36.3995 21.3126 36.3995C19.8162 36.3995 18.5986 37.603 18.5986 39.0823ZM40.6457 39.0823C40.6457 40.5611 41.8632 41.7633 43.3598 41.7633C44.8563 41.7633 46.074 40.5611 46.074 39.0823C46.074 37.603 44.8563 36.3995 43.3598 36.3995C41.8632 36.3995 40.6457 37.603 40.6457 39.0823ZM47.3267 33.1405C47.3267 33.5271 47.645 33.8421 48.0364 33.8421H48.7463V32.4389H47.3267V33.1405ZM20.0182 39.0823C20.0182 38.3762 20.5989 37.8027 21.3126 37.8027C22.0265 37.8027 22.6071 38.3762 22.6071 39.0823C22.6071 39.7875 22.0265 40.361 21.3126 40.361C20.5989 40.361 20.0182 39.7875 20.0182 39.0823ZM43.3598 37.8027C42.646 37.8027 42.0654 38.3762 42.0654 39.0823C42.0654 39.7875 42.646 40.361 43.3598 40.361C44.0736 40.361 44.6542 39.7875 44.6542 39.0823C44.6542 38.3762 44.0736 37.8027 43.3598 37.8027ZM26.6575 36.3995C26.3115 36.3995 26.0312 36.1233 26.0312 35.7805C26.0312 35.4394 26.3115 35.1619 26.6575 35.1619H36.0108C36.3567 35.1619 36.6371 35.4394 36.6371 35.7805C36.6371 36.1233 36.3567 36.3995 36.0108 36.3995H26.6575ZM11.9594 33.7599H19.9765C20.3224 33.7599 20.6029 33.482 20.6029 33.1405C20.6029 32.7985 20.3224 32.5219 19.9765 32.5219H11.9594C11.6134 32.5219 11.333 32.7985 11.333 33.1405C11.333 33.482 11.6134 33.7599 11.9594 33.7599ZM25.3213 29.6249L30.8912 24.1205C31.1358 23.8793 31.5324 23.8793 31.777 24.1205C32.0216 24.3626 32.0216 24.7549 31.777 24.9961L25.7642 30.937C25.6418 31.0583 25.4815 31.1187 25.3213 31.1187C25.161 31.1187 25.0006 31.0583 24.8784 30.937L21.5378 27.6369C21.2933 27.3949 21.2933 27.0026 21.5378 26.7613C21.7824 26.5193 22.1791 26.5193 22.4236 26.7613L25.3213 29.6249Z" fill="white"></path>
    </g>
    <defs>
      <clipPath id="clip0_0_1411">
        <rect width="60" height="60" fill="white"></rect>
      </clipPath>
    </defs>
  </symbol>
  <symbol fill="none" xmlns="http://www.w3.org/2000/svg" viewBox="0 0 60 60" id="icon-support">
    <g clip-path="url(#clip0_0_1368)">
      <path fill-rule="evenodd" clip-rule="evenodd" d="M0 -6e-05H60V59.9998H0V-6e-05Z" fill="#FE3E57"></path>
      <path fill-rule="evenodd" clip-rule="evenodd" d="M42.3839 29.6764C41.9948 29.326 41.4654 29.1094 40.9315 29.082C40.3252 29.0522 39.7572 29.2624 39.3342 29.6761L36.4438 32.4683C36.3866 32.3724 36.3215 32.2814 36.2482 32.1968C35.8926 31.784 35.3725 31.5573 34.7842 31.5573H30.7379C29.9748 31.5573 29.2306 31.4606 28.5258 31.2705C26.6881 30.7739 24.9323 31.1368 23.4484 32.3193C22.8446 32.8006 22.4044 33.3233 22.1261 33.7056L21.4006 33.0176C21.3051 32.9266 21.1758 32.8759 21.0427 32.8759C21.0414 32.8759 21.0405 32.8759 21.0393 32.8759C20.9016 32.8767 20.7683 32.9327 20.6727 33.0293L17.1458 36.6049C17.0515 36.7 17 36.8293 17.0029 36.9622C17.0059 37.0947 17.0628 37.2211 17.1613 37.3126L23.1267 42.8588C23.2255 42.9515 23.3523 42.997 23.4791 42.997C23.6122 42.997 23.7455 42.9462 23.8456 42.8459L27.3394 39.3456C27.4348 39.2506 27.4878 39.1193 27.4853 38.9856C27.4828 38.8543 27.4261 38.727 27.3293 38.6356L27.0251 38.3472L27.7214 38.2711C28.1426 38.2224 28.5711 38.1986 28.9951 38.1986H35.1514C36.1518 38.1986 37.0014 37.9847 37.6768 37.5635C37.6824 37.5598 37.688 37.5562 37.6936 37.5526C37.9356 37.3887 38.1552 37.1942 38.3459 36.9743L42.4947 32.2085C43.2046 31.393 43.1601 30.376 42.3839 29.6764ZM23.4659 41.7955L18.2391 36.936L21.0547 34.0817L26.251 39.0057L23.4659 41.7955ZM41.7154 31.5617L37.5667 36.3283C37.4351 36.4793 37.2841 36.6138 37.1177 36.7278C36.6106 37.0411 35.9491 37.1998 35.1514 37.1998H28.995C28.5317 37.1998 28.0635 37.2264 27.6053 37.2779L26.0746 37.4463L22.8695 34.4091C23.0922 34.0869 23.5018 33.5658 24.095 33.093C25.3282 32.1102 26.7271 31.8203 28.253 32.2327C29.0466 32.4469 29.8826 32.5557 30.7379 32.5557H34.7842C35.5109 32.5557 35.7049 33.1707 35.7049 33.5332C35.7049 33.799 35.6176 34.0519 35.4654 34.2263C35.3004 34.416 35.0657 34.5123 34.7681 34.5123H31.2458C30.9635 34.5123 30.7345 34.7362 30.7345 35.0112C30.7345 35.2875 30.9635 35.5111 31.2458 35.5111H34.7681C35.3626 35.5111 35.8871 35.2839 36.2449 34.8731C36.5426 34.5308 36.7123 34.0813 36.7266 33.6012L40.0556 30.3841C40.5313 29.9201 41.2746 30.0357 41.6906 30.4111C41.9055 30.604 42.1947 31.0115 41.7154 31.5617ZM29.651 34.8787C29.5865 34.6105 29.3115 34.4438 29.0365 34.507C28.7615 34.5695 28.5908 34.8381 28.6553 35.1063L28.6601 35.1269C28.7155 35.3572 28.9256 35.5127 29.1575 35.5127C29.1962 35.5127 29.2357 35.5083 29.2747 35.499C29.5498 35.4362 29.7204 35.1675 29.6559 34.8989L29.651 34.8787ZM20.4592 28.5326H25.442C25.7134 28.5326 25.9645 28.4477 26.1687 28.3015C26.373 28.4477 26.624 28.5326 26.8956 28.5326H31.8786C32.1498 28.5326 32.4007 28.4477 32.605 28.3015C32.8093 28.4477 33.0605 28.5326 33.3317 28.5326H38.3146C38.9972 28.5326 39.5526 27.9906 39.5526 27.324V25.0553C39.5526 24.0364 38.9685 23.1507 38.0942 22.7141C38.5178 22.2155 38.7731 21.576 38.7731 20.8784C38.7731 19.2908 37.4498 17.9975 35.8232 17.9975C34.1968 17.9975 32.8735 19.2908 32.8735 20.8784C32.8735 21.576 33.1285 22.2159 33.5521 22.7141C33.1744 22.9034 32.8508 23.1761 32.605 23.5068C32.3594 23.1761 32.0359 22.903 31.6579 22.7141C32.0816 22.2159 32.3365 21.576 32.3365 20.8784C32.3365 19.2908 31.0133 17.9975 29.3868 17.9975C27.7603 17.9975 26.437 19.2908 26.437 20.8784C26.437 21.576 26.6924 22.2159 27.1159 22.7146C26.7379 22.9034 26.4144 23.1761 26.1687 23.5072C25.9229 23.1761 25.5994 22.9034 25.2215 22.7141C25.6452 22.2159 25.9002 21.576 25.9002 20.8784C25.9002 19.2908 24.5769 17.9975 22.9503 17.9975C21.324 17.9975 20.0008 19.2908 20.0008 20.8784C20.0008 21.576 20.2559 22.2159 20.6796 22.7146C19.8053 23.1507 19.2211 24.0367 19.2211 25.0557V27.324C19.2211 27.9906 19.7766 28.5326 20.4592 28.5326ZM35.8234 18.9968C36.8858 18.9968 37.7504 19.8409 37.7504 20.8784C37.7504 21.9159 36.8858 22.76 35.8234 22.76C34.7607 22.76 33.8965 21.9159 33.8965 20.8784C33.8963 19.8409 34.7607 18.9968 35.8234 18.9968ZM34.4949 23.4488C34.8944 23.6461 35.3455 23.7589 35.8232 23.7589C36.301 23.7589 36.7523 23.6461 37.1516 23.4488C37.9463 23.5841 38.53 24.2526 38.53 25.0553V27.324C38.53 27.44 38.4334 27.5346 38.3146 27.5346H33.3317C33.2131 27.5346 33.1166 27.44 33.1166 27.324V25.0553C33.1163 24.253 33.7003 23.5841 34.4949 23.4488ZM29.3869 18.9968C30.4495 18.9968 31.3139 19.8409 31.3139 20.8784C31.3139 21.9159 30.4495 22.76 29.3869 22.76C28.3245 22.76 27.46 21.9159 27.46 20.8784C27.46 19.8409 28.3245 18.9968 29.3869 18.9968ZM28.0585 23.4488C28.458 23.6461 28.9093 23.7589 29.3869 23.7589C29.8647 23.7589 30.3157 23.6461 30.7155 23.4488C31.5099 23.5841 32.0937 24.2526 32.0937 25.0553V27.324C32.0937 27.44 31.9971 27.5346 31.8786 27.5346H26.8957C26.7769 27.5346 26.6803 27.44 26.6803 27.324V25.0553C26.6803 24.253 27.2641 23.5841 28.0585 23.4488ZM22.9505 18.9968C24.0131 18.9968 24.8775 19.8409 24.8775 20.8784C24.8775 21.9159 24.0131 22.76 22.9505 22.76C21.8882 22.76 21.0236 21.9159 21.0236 20.8784C21.0236 19.8409 21.8882 18.9968 22.9505 18.9968ZM20.2438 25.0553C20.2438 24.253 20.8277 23.5841 21.6224 23.4488C22.022 23.6461 22.4728 23.7589 22.9505 23.7589C23.4284 23.7589 23.8794 23.6461 24.279 23.4488C25.0738 23.5841 25.6575 24.2526 25.6575 25.0553V27.324C25.6575 27.44 25.5608 27.5346 25.442 27.5346H20.4592C20.3404 27.5346 20.2438 27.44 20.2438 27.324V25.0553Z" fill="white"></path>
    </g>
    <defs>
      <clipPath id="clip0_0_1368">
        <rect width="60" height="60" fill="white"></rect>
      </clipPath>
    </defs>
  </symbol>
  <symbol fill="inherit" xmlns="http://www.w3.org/2000/svg" viewBox="0 0 17 20" id="icon-bag">
    <path fill-rule="evenodd" clip-rule="evenodd" d="M15.9986 17.2939L14.8544 4.3955C14.83 4.10874 14.5888 3.89206 14.307 3.89206H11.9529C11.9201 1.74018 10.1629 0.00152 8.00504 0.00152C5.84725 0.00152 4.09002 1.74018 4.05728 3.89206H1.70323C1.41736 3.89206 1.18024 4.10874 1.15574 4.3955L0.011344 17.2939C0.011344 17.3108 0.007328 17.3266 0.007328 17.3435C0.007328 18.8123 1.3519 20.0064 3.00694 20.0064H13.003C14.6583 20.0064 16.0028 18.8123 16.0028 17.3435C16.0028 17.3266 16.0028 17.3108 15.9986 17.2939ZM8.00504 1.10626C9.55387 1.10626 10.8168 2.35034 10.8493 3.89206H5.16061C5.19334 2.35034 6.45608 1.10626 8.00504 1.10626ZM13.003 18.9021H3.00694C1.96885 18.9021 1.12725 18.2146 1.11088 17.368L2.20597 5.00084H4.05317V6.67788C4.05317 6.98478 4.29842 7.23046 4.60488 7.23046C4.91147 7.23046 5.15672 6.98478 5.15672 6.67788V5.00084H10.8493V6.67788C10.8493 6.98478 11.0946 7.23046 11.4011 7.23046C11.7075 7.23046 11.9529 6.98478 11.9529 6.67788V5.00084H13.8001L14.8993 17.368C14.8829 18.2146 14.0371 18.9021 13.003 18.9021Z" fill="inherit"></path>
  </symbol>
  <symbol fill="inherit" xmlns="http://www.w3.org/2000/svg" viewBox="0 0 20 20" id="icon-data">
    <path fill-rule="evenodd" clip-rule="evenodd" d="M17.8954 5.26146C17.4813 5.46162 17.3079 5.95982 17.5083 6.37466C18.0558 7.50558 18.3333 8.72428 18.3333 9.9994C18.3333 14.5939 14.5949 18.3323 9.99992 18.3323C5.405 18.3323 1.66668 14.5939 1.66668 9.9994C1.66668 5.40404 5.405 1.66612 9.99992 1.66612C11.9041 1.66612 13.6927 2.28756 15.1732 3.46318C15.5324 3.75034 16.0575 3.69034 16.3442 3.32948C16.6307 2.96942 16.5708 2.44504 16.2103 2.15908C14.4575 0.76598 12.252 -0.00126 9.99992 -0.00126C4.48626 -0.00126 -4e-05 4.48536 -4e-05 9.9994C-4e-05 15.5126 4.48626 19.9988 9.99992 19.9988C15.5137 19.9988 20 15.5126 20 9.9994C20 8.47096 19.6664 7.00738 19.0084 5.6485C18.8083 5.23366 18.3082 5.06088 17.8954 5.26146ZM9.99992 3.33188C9.53998 3.33188 9.16668 3.70564 9.16668 4.16558V9.9994C9.16668 10.4585 9.53998 10.8323 9.99992 10.8323H14.1666C14.6266 10.8323 15 10.4585 15 9.9994C15 9.53904 14.6266 9.1657 14.1666 9.1657H10.8333V4.16558C10.8333 3.70564 10.46 3.33188 9.99992 3.33188Z" fill="inherit"></path>
  </symbol>
  <symbol fill="inherit" xmlns="http://www.w3.org/2000/svg" viewBox="0 0 10 9" id="icon-arrow-link">
    <path fill-rule="evenodd" clip-rule="evenodd" d="M9.83633 4.62446L6.22698 1.15156C6.12399 1.05248 5.98666 0.997304 5.84017 0.997304C5.69357 0.997304 5.55636 1.05248 5.45336 1.15156L5.1256 1.46691C5.02272 1.56558 4.96596 1.69809 4.96596 1.83905C4.96596 1.98042 5.02272 2.11694 5.1256 2.21562L7.23132 4.24668H0.54156C0.23989 4.24668 0.00163 4.47302 0.00163 4.76341V5.20965C0.00163 5.49963 0.23989 5.75014 0.54156 5.75014H7.25512L5.12572 7.79207C5.02272 7.89075 4.96607 8.01963 4.96607 8.16059C4.96607 8.30074 5.02272 8.43164 5.12572 8.53072L5.45348 8.84526C5.55647 8.94434 5.69369 8.9983 5.84029 8.9983C5.98666 8.9983 6.12399 8.94354 6.22698 8.84446L9.83633 5.37156C9.93967 5.27248 9.99644 5.13958 9.99609 4.99821C9.99644 4.85685 9.93967 4.72394 9.83633 4.62446Z" fill="inherit"></path>
  </symbol>
</svg>