<svg width="0" height="0" class="hidden">
  <symbol version="1.0" xmlns="http://www.w3.org/2000/svg" preserveAspectRatio="xMidYMid meet" viewBox="0 0 512.000000 512.000000" id="icon-heart">
    <g transform="translate(0.000000,512.000000) scale(0.100000,-0.100000)" fill="inherit" stroke="none">
      <path d="M1198 4626 c-230 -41 -446 -162 -640 -358 -118 -118 -199 -230 -263
-362 -227 -465 -161 -1010 170 -1416 75 -92 1999 -1982 2033 -1997 39 -17 92
-16 130 5 44 24 1959 1908 2035 2003 215 267 321 616 289 947 -27 278 -126
517 -298 722 -332 395 -740 544 -1184 432 -267 -68 -557 -240 -813 -482 l-97
-92 -90 85 c-265 253 -555 424 -832 493 -128 31 -324 40 -440 20z m387 -336
c104 -27 316 -133 430 -214 125 -91 267 -218 355 -318 87 -100 130 -128 191
-128 53 0 95 24 146 82 262 297 535 491 808 574 78 24 107 27 215 27 107 0
138 -3 213 -26 221 -68 391 -195 521 -390 244 -367 229 -846 -38 -1181 -49
-61 -1853 -1846 -1866 -1846 -13 0 -1817 1786 -1866 1847 -105 131 -181 314
-205 489 -32 239 39 519 177 703 112 149 295 300 431 356 145 59 323 68 488
25z"></path>
    </g>
  </symbol>
  <symbol version="1.0" xmlns="http://www.w3.org/2000/svg" preserveAspectRatio="xMidYMid meet" viewBox="0 0 480.000000 480.000000" id="icon-in">
    <g transform="translate(0.000000,480.000000) scale(0.100000,-0.100000)" fill="inherit" stroke="none">
      <path d="M725 4530 c-241 -49 -415 -258 -415 -500 0 -180 84 -335 234 -432
209 -135 506 -95 666 91 179 206 170 501 -19 692 -125 125 -302 182 -466 149z"></path>
      <path d="M3375 3229 c-154 -20 -316 -81 -450 -172 -71 -49 -191 -166 -231
-227 l-29 -44 -3 182 -2 182 -420 0 -420 0 0 -1385 0 -1385 420 0 419 0 3 808
c3 797 4 808 25 885 31 109 75 187 144 252 72 68 143 102 257 122 70 12 103
13 171 4 239 -31 367 -186 400 -484 7 -60 11 -376 11 -842 l0 -745 435 0 435
0 0 888 c0 887 -5 1040 -35 1183 -95 460 -394 729 -865 779 -109 11 -167 11
-265 -1z"></path>
      <path d="M390 1765 l0 -1385 435 0 435 0 0 1385 0 1385 -435 0 -435 0 0 -1385z"></path>
    </g>
  </symbol>
  <symbol version="1.0" xmlns="http://www.w3.org/2000/svg" preserveAspectRatio="xMidYMid meet" viewBox="0 0 2400.000000 3085.000000" id="icon-pinterest">
    <g transform="translate(0.000000,3085.000000) scale(0.100000,-0.100000)" fill="inherit" stroke="none">
      <path d="M11740 30840 c-384 -15 -756 -41 -1145 -81 -1713 -174 -3389 -727
-4925 -1622 -1294 -754 -2445 -1742 -3349 -2875 -1322 -1658 -2104 -3599
-2276 -5647 -54 -648 -54 -1505 0 -2175 127 -1561 561 -2797 1301 -3703 127
-156 396 -431 543 -557 626 -534 1349 -891 2276 -1124 169 -43 181 -45 193
-28 7 9 66 123 131 252 425 850 514 1504 296 2180 -90 276 -218 530 -518 1025
-457 752 -621 1134 -706 1640 -213 1266 -111 2576 293 3790 499 1496 1433
2835 2731 3915 1014 844 2218 1485 3485 1855 2312 675 4637 406 6493 -752 603
-376 1238 -914 1631 -1383 775 -924 1289 -2314 1455 -3935 71 -687 80 -1484
26 -2205 -169 -2238 -895 -4375 -1980 -5825 -65 -88 -175 -227 -244 -310 -148
-178 -549 -582 -711 -716 -702 -581 -1416 -900 -2235 -995 -183 -22 -641 -25
-815 -6 -869 95 -1513 352 -1930 771 -333 334 -517 748 -587 1312 -21 175 -23
613 -4 819 53 567 178 1173 410 1985 96 338 183 621 425 1387 370 1170 499
1611 620 2123 252 1064 297 1845 141 2449 -43 170 -81 271 -159 431 -253 515
-705 874 -1371 1088 -458 147 -877 188 -1296 127 -405 -60 -813 -230 -1169
-489 -1001 -726 -1718 -2193 -1884 -3851 -103 -1027 26 -2029 366 -2844 47
-112 165 -355 225 -460 l27 -48 -27 -137 c-178 -866 -430 -1895 -862 -3511
-85 -316 -206 -771 -270 -1010 -616 -2305 -943 -3789 -1154 -5240 -264 -1812
-327 -3510 -190 -5185 36 -448 126 -1245 142 -1261 11 -12 309 224 552 435
142 125 483 463 616 612 1143 1280 1977 2974 2658 5399 267 951 537 2130 812
3547 46 238 87 433 92 433 26 0 524 -328 1017 -670 662 -459 989 -659 1385
-847 688 -326 1441 -472 2430 -473 1878 0 3615 611 5084 1789 343 274 809 717
1093 1036 535 603 993 1252 1407 1995 124 222 376 729 485 975 938 2117 1354
4560 1191 6985 -105 1551 -402 2739 -975 3905 -637 1293 -1609 2441 -2830
3342 -1819 1341 -4153 2148 -6750 2333 -443 32 -1253 46 -1670 30z"></path>
    </g>
  </symbol>
  <symbol version="1.0" xmlns="http://www.w3.org/2000/svg" preserveAspectRatio="xMidYMid meet" viewBox="0 0 512.000000 512.000000" id="icon-search">
    <g transform="translate(0.000000,512.000000) scale(0.100000,-0.100000)" fill="inherit" stroke="none">
      <path d="M1930 5109 c-494 -51 -951 -269 -1306 -623 -246 -246 -412 -514 -518
-836 -141 -428 -141 -872 0 -1300 106 -323 273 -592 520 -837 488 -485 1153
-705 1839 -608 353 50 707 195 985 404 30 23 57 40 61 39 4 -2 307 -298 673
-658 417 -410 680 -661 704 -672 98 -46 208 12 228 120 16 84 72 24 -1024
1106 l-342 338 58 68 c250 289 415 655 478 1055 24 156 24 442 0 600 -71 459
-272 853 -607 1186 -460 457 -1101 684 -1749 618z m479 -335 c404 -59 759
-235 1040 -515 344 -345 523 -774 523 -1259 0 -179 -16 -302 -58 -457 -212
-788 -931 -1333 -1759 -1333 -493 0 -951 187 -1293 529 -232 232 -387 500
-471 811 -74 277 -74 623 0 900 168 626 665 1119 1292 1281 228 59 507 76 726
43z"></path>
    </g>
  </symbol>
  <symbol version="1.0" xmlns="http://www.w3.org/2000/svg" preserveAspectRatio="xMidYMid meet" viewBox="0 0 512.000000 512.000000" id="icon-twitter">
    <g transform="translate(0.000000,512.000000) scale(0.100000,-0.100000)" fill="inherit" stroke="none">
      <path d="M3396 4630 c-439 -70 -789 -399 -877 -825 -21 -100 -25 -291 -9 -389
5 -33 7 -62 5 -64 -9 -9 -308 28 -430 53 -370 75 -743 228 -1050 433 -237 158
-428 323 -598 517 -39 44 -74 81 -78 83 -4 2 -24 -31 -43 -72 -78 -164 -111
-353 -95 -544 23 -271 165 -540 374 -710 l80 -65 -75 6 c-88 7 -223 45 -317
87 -36 17 -68 30 -71 30 -13 0 10 -194 33 -278 59 -221 182 -408 359 -549 95
-75 248 -154 361 -187 l80 -23 -60 -14 c-39 -9 -121 -14 -232 -14 -202 0 -190
16 -113 -140 158 -319 476 -537 835 -572 l80 -8 -75 -54 c-261 -185 -548 -304
-875 -362 -111 -20 -164 -23 -362 -24 l-232 0 52 -33 c95 -60 410 -210 540
-256 587 -211 1258 -231 1874 -56 867 245 1568 898 1911 1780 130 334 199 686
207 1050 l4 174 98 82 c118 98 254 238 347 357 69 88 77 109 35 87 -82 -44
-439 -140 -521 -140 l-31 0 49 32 c77 50 234 214 288 300 47 76 112 216 103
224 -2 2 -57 -23 -123 -55 -148 -73 -276 -121 -421 -157 l-112 -27 -63 59
c-121 113 -276 197 -446 240 -109 28 -305 40 -406 24z"></path>
    </g>
  </symbol>
  <symbol version="1.0" xmlns="http://www.w3.org/2000/svg" preserveAspectRatio="xMidYMid meet" viewBox="0 0 512.000000 512.000000" id="icon-user">
    <g transform="translate(0.000000,512.000000) scale(0.100000,-0.100000)" fill="inherit" stroke="none">
      <path d="M2435 5114 c-16 -2 -65 -9 -109 -15 -246 -33 -541 -172 -741 -349
-253 -223 -432 -545 -486 -875 -20 -120 -17 -390 5 -500 71 -361 275 -695 550
-903 l68 -52 -28 -10 c-121 -46 -173 -69 -276 -120 -444 -223 -805 -560 -1062
-990 -210 -352 -328 -745 -352 -1180 l-7 -120 201 0 202 0 0 49 c0 339 141
807 330 1095 291 445 681 750 1156 905 452 148 896 148 1348 0 475 -155 865
-460 1156 -905 189 -288 330 -756 330 -1095 l0 -49 202 0 201 0 -7 120 c-24
435 -142 828 -352 1180 -257 430 -618 767 -1062 990 -103 51 -155 74 -276 120
l-28 10 68 52 c275 208 479 542 550 903 22 110 25 380 5 500 -43 263 -176 542
-352 742 -219 247 -527 421 -848 479 -77 14 -332 26 -386 18z m294 -409 c588
-96 990 -650 896 -1234 -96 -588 -650 -990 -1234 -896 -588 96 -990 650 -896
1234 96 588 650 990 1234 896z"></path>
    </g>
  </symbol>
  <symbol version="1.0" xmlns="http://www.w3.org/2000/svg" preserveAspectRatio="xMidYMid meet" viewBox="0 0 512.000000 512.000000" id="icon-cart">
    <g transform="translate(0.000000,512.000000) scale(0.100000,-0.100000)" fill="inherit" stroke="none">
      <path d="M115 4885 c-117 -55 -150 -198 -68 -296 52 -62 62 -64 357 -69 l270
-5 314 -1315 c338 -1417 318 -1346 396 -1404 27 -21 29 -21 1573 -24 l1546 -2
44 21 c83 40 74 11 335 1067 257 1039 253 1015 207 1088 -11 19 -40 45 -63 59
l-43 25 -1896 0 c-1257 0 -1898 3 -1902 10 -3 6 -46 177 -95 381 -98 405 -104
420 -180 459 -37 19 -59 20 -402 20 -291 -1 -369 -4 -393 -15z m4565 -1242 c0
-5 -83 -341 -183 -748 l-183 -740 -1341 -3 -1341 -2 -16 67 c-8 38 -87 369
-176 738 -88 368 -160 675 -160 682 0 11 333 13 1700 13 935 0 1700 -3 1700
-7z"></path>
      <path d="M1560 1467 c-435 -130 -604 -653 -323 -1004 136 -170 318 -252 532
-240 170 9 302 68 423 190 53 52 78 89 112 160 52 109 66 168 66 285 0 175
-62 325 -186 449 -57 57 -90 80 -165 116 -52 25 -118 50 -147 56 -89 18 -227
13 -312 -12z m285 -382 c191 -92 192 -357 1 -458 -57 -30 -165 -30 -222 0 -79
42 -144 145 -144 228 0 48 33 128 68 167 54 60 122 90 197 85 33 -2 78 -12
100 -22z"></path>
      <path d="M3902 1476 c-102 -26 -217 -92 -296 -170 -60 -59 -82 -90 -119 -167
-53 -110 -67 -169 -67 -284 0 -106 14 -171 55 -262 112 -243 347 -385 614
-370 168 9 294 65 414 184 74 73 119 144 155 245 23 64 26 88 27 198 0 102 -4
138 -22 195 -60 188 -208 341 -401 413 -55 20 -89 26 -187 28 -78 2 -139 -1
-173 -10z m248 -387 c201 -91 210 -359 16 -462 -57 -30 -165 -30 -222 0 -204
108 -187 386 31 470 48 18 125 15 175 -8z"></path>
    </g>
  </symbol>
  <symbol version="1.0" xmlns="http://www.w3.org/2000/svg" preserveAspectRatio="xMidYMid meet" viewBox="0 0 512.000000 512.000000" id="icon-facebook">
    <g transform="translate(0.000000,512.000000) scale(0.100000,-0.100000)" fill="inherit" stroke="none">
      <path d="M2980 5104 c-494 -80 -804 -397 -897 -919 -12 -70 -17 -188 -20 -537
l-5 -448 -369 0 -369 0 0 -455 0 -455 370 0 370 0 0 -1145 0 -1145 460 0 460
0 0 1145 0 1145 355 0 c195 0 355 3 355 6 0 3 25 203 55 444 30 241 55 443 55
449 0 8 -124 11 -411 11 l-410 0 3 403 c3 356 5 407 21 447 39 100 98 155 204
193 52 19 87 21 366 25 l307 4 0 404 c0 315 -3 406 -12 409 -34 11 -299 26
-533 30 -203 4 -281 1 -355 -11z"></path>
    </g>
  </symbol>
  <symbol version="1.0" xmlns="http://www.w3.org/2000/svg" preserveAspectRatio="xMidYMid meet" viewBox="0 0 443.000000 451.000000" id="icon-google">
    <g transform="translate(0.000000,451.000000) scale(0.100000,-0.100000)" fill="inherit" stroke="none">
      <path d="M2085 4493 c-457 -40 -888 -212 -1240 -496 -110 -88 -300 -286 -384
-399 -229 -309 -368 -646 -428 -1038 -24 -157 -24 -463 0 -620 76 -494 277
-903 617 -1254 179 -184 352 -315 571 -430 296 -155 618 -239 969 -253 388
-15 769 59 1085 212 632 305 1052 958 1135 1769 15 138 9 463 -10 577 l-13 76
-1054 7 c-579 4 -1058 4 -1063 1 -6 -4 -10 -161 -10 -431 l0 -424 610 0 c531
0 610 -2 610 -15 0 -21 -42 -131 -79 -203 -179 -355 -494 -588 -891 -658 -129
-23 -355 -23 -480 0 -569 103 -1007 543 -1105 1110 -20 115 -20 337 0 452 85
488 422 888 888 1053 152 53 273 74 442 74 330 1 580 -86 862 -300 l29 -22
317 317 317 317 -83 68 c-335 279 -781 464 -1221 506 -102 10 -299 12 -391 4z"></path>
    </g>
  </symbol>
</svg>