<svg xmlns="http://www.w3.org/2000/svg" width="1673" height="575">
    <defs>
        <filter filterUnits="userSpaceOnUse" id="znkg3aylqa" x="32" y="73" width="67" height="63">
            <feOffset in="SourceAlpha" dy="10"/>
            <feGaussianBlur result="blurOut" stdDeviation="3.162"/>
            <feFlood flood-color="#4DCAFF" result="floodOut"/>
            <feComposite operator="atop" in="floodOut" in2="blurOut"/>
            <feComponentTransfer>
                <feFuncA type="linear" slope=".3"/>
            </feComponentTransfer>
            <feMerge>
                <feMergeNode/>
                <feMergeNode in="SourceGraphic"/>
            </feMerge>
        </filter>
        <filter filterUnits="userSpaceOnUse" id="g4f1yc0pyb" x="632" y="410" width="65" height="66">
            <feOffset in="SourceAlpha" dy="10"/>
            <feGaussianBlur result="blurOut" stdDeviation="3.162"/>
            <feFlood flood-color="#4DCAFF" result="floodOut"/>
            <feComposite operator="atop" in="floodOut" in2="blurOut"/>
            <feComponentTransfer>
                <feFuncA type="linear" slope=".3"/>
            </feComponentTransfer>
            <feMerge>
                <feMergeNode/>
                <feMergeNode in="SourceGraphic"/>
            </feMerge>
        </filter>
        <filter filterUnits="userSpaceOnUse" id="2i614hg23c" x="0" y="473" width="88" height="102">
            <feOffset in="SourceAlpha" dy="5"/>
            <feGaussianBlur result="blurOut" stdDeviation="2.236"/>
            <feFlood flood-color="#FE3E57" result="floodOut"/>
            <feComposite operator="atop" in="floodOut" in2="blurOut"/>
            <feComponentTransfer>
                <feFuncA type="linear" slope=".4"/>
            </feComponentTransfer>
            <feMerge>
                <feMergeNode/>
                <feMergeNode in="SourceGraphic"/>
            </feMerge>
        </filter>
        <filter filterUnits="userSpaceOnUse" id="u72b4uf46d" x="1315" y="0" width="139" height="139">
            <feOffset in="SourceAlpha" dy="15"/>
            <feGaussianBlur result="blurOut" stdDeviation="4.472"/>
            <feFlood flood-color="#FFC55F" result="floodOut"/>
            <feComposite operator="atop" in="floodOut" in2="blurOut"/>
            <feComponentTransfer>
                <feFuncA type="linear" slope=".3"/>
            </feComponentTransfer>
            <feMerge>
                <feMergeNode/>
                <feMergeNode in="SourceGraphic"/>
            </feMerge>
        </filter>
        <filter filterUnits="userSpaceOnUse" id="wf1oixc79f" x="1627" y="463" width="46" height="46">
            <feOffset in="SourceAlpha" dy="5"/>
            <feGaussianBlur result="blurOut" stdDeviation="3.162"/>
            <feFlood flood-color="#FE3E57" result="floodOut"/>
            <feComposite operator="atop" in="floodOut" in2="blurOut"/>
            <feComponentTransfer>
                <feFuncA type="linear" slope=".3"/>
            </feComponentTransfer>
            <feMerge>
                <feMergeNode/>
                <feMergeNode in="SourceGraphic"/>
            </feMerge>
        </filter>
        <linearGradient id="5x7zuwcvae" x1="0%" x2="0%" y1="100%" y2="0%">
            <stop offset="0%" stop-color="#FFC35B"/>
            <stop offset="100%" stop-color="#FFDC9E"/>
        </linearGradient>
    </defs>
    <path fill-rule="evenodd" fill="#CCCCCE" d="M1509.943 300.854c-1.137 0-2.059-.893-2.059-1.996 0-1.102.922-1.996 2.059-1.996 1.867 0 2.357.894 2.357 1.996 0 1.103-.49 1.996-2.357 1.996zm0-10.98c-1.137 0-2.059-.894-2.059-1.996 0-1.103.922-1.997 2.059-1.997 1.867 0 2.357.894 2.357 1.997 0 1.102-.49 1.996-2.357 1.996zm0-10.98c-1.137 0-2.059-.894-2.059-1.997 0-1.103.922-1.996 2.059-1.996 1.867 0 2.357.893 2.357 1.996s-.49 1.997-2.357 1.997zm0-10.981c-1.137 0-2.059-.723-2.059-1.996 0-1.103.922-1.997 2.059-1.997 1.867 0 2.357.894 2.357 1.997 0 1.273-.49 1.996-2.357 1.996zm0-10.98c-1.137 0-2.059-.543-2.059-1.997 0-1.103.922-1.996 2.059-1.996 1.867 0 2.357.893 2.357 1.996 0 1.454-.49 1.997-2.357 1.997zm0-10.981c-1.137 0-2.059-.372-2.059-1.996 0-1.103.922-1.996 2.059-1.996 1.867 0 2.357.893 2.357 1.996 0 1.624-.49 1.996-2.357 1.996zm0-10.98c-1.137 0-2.059-.192-2.059-1.997 0-1.102.922-1.996 2.059-1.996 1.867 0 2.357.894 2.357 1.996 0 1.805-.49 1.997-2.357 1.997zm0-10.981c-1.137 0-2.059-.021-2.059-1.996 0-1.103.922-1.997 2.059-1.997 1.867 0 2.357.894 2.357 1.997 0 1.975-.49 1.996-2.357 1.996zm-8.343 121.008c-1.677 0-2.5-.894-2.5-1.799 0-1.301.823-1.7 2.5-1.7.598 0 1.52.399 1.52 1.7 0 .905-.922 1.799-1.52 1.799zm0-10.819c-1.677 0-2.5-1.056-2.5-1.97 0-1.291.823-1.96 2.5-1.96.598 0 1.52.669 1.52 1.96 0 .914-.922 1.97-1.52 1.97zm0-10.8c-1.677 0-2.5-1.237-2.5-1.97 0-1.471.823-1.97 2.5-1.97.598 0 1.52.499 1.52 1.97 0 .733-.922 1.97-1.52 1.97zm0-10.81c-1.677 0-2.5-1.407-2.5-1.97 0-1.642.823-1.96 2.5-1.96.598 0 1.52.318 1.52 1.96 0 .563-.922 1.97-1.52 1.97zm0-10.8c-1.677 0-2.5-1.588-2.5-1.97 0-1.823.823-1.96 2.5-1.96.598 0 1.52.137 1.52 1.96 0 .382-.922 1.97-1.52 1.97zm0-10.81c-1.677 0-2.5-1.758-2.5-2.86 0-1.103.823-1.997 2.5-1.997.598 0 1.52.894 1.52 1.997 0 1.102-.922 2.86-1.52 2.86zm0-11.844c-1.677 0-2.5-.894-2.5-1.997 0-.949.823-1.996 2.5-1.996.598 0 1.52 1.047 1.52 1.996 0 1.103-.922 1.997-1.52 1.997zm0-10.981c-1.677 0-2.5-.894-2.5-1.996 0-.779.823-1.997 2.5-1.997.598 0 1.52 1.218 1.52 1.997 0 1.102-.922 1.996-1.52 1.996zm0-10.981c-1.677 0-2.5-.893-2.5-1.996 0-.598.823-1.996 2.5-1.996.598 0 1.52 1.398 1.52 1.996 0 1.103-.922 1.996-1.52 1.996zm8.343 50.688c1.867 0 2.357.894 2.357 1.997 0 1.103-.49 1.996-2.357 1.996-1.137 0-2.059-.893-2.059-1.996s.922-1.997 2.059-1.997z"/>
    <g filter="url(#znkg3aylqa)">
        <path fill-rule="evenodd" fill="#34C3FF" d="m88.996 73-20.095 42.986-27.917-38.557L88.996 73z"/>
    </g>
    <g filter="url(#g4f1yc0pyb)">
        <path fill-rule="evenodd" fill="#34C3FF" d="M663.999 409.999c-12.702 0-23 10.298-23 23 0 12.703 10.298 23 23 23 12.703 0 23-10.297 23-23 0-12.702-10.297-23-23-23zm0 37.312c-7.039 0-14.311-6.408-14.311-14.312 0-7.049 7.272-14.311 14.311-14.311 7.904 0 14.312 7.262 14.312 14.311 0 7.904-6.408 14.312-14.312 14.312z"/>
    </g>
    <g filter="url(#2i614hg23c)">
        <path fill-rule="evenodd" fill="#FE3E57" d="m82.188 552.451-2.065-.526c.032-.129 3.191-13.05-4-23.588-4.283-7.384-13.906-11.918-26.356-13.475-12.626-1.58-20.817-6.359-26.885-14.207-8.057-12.126-4.019-27.027-3.492-27.655l2.52.574c-.4.145-4.763 14.615 2.756 25.915 4.856 7.299 13.904 11.759 25.654 13.257 12.805 1.637 22.18 6.485 27.576 14.408 7.729 11.347 4.436 24.733 4.292 25.297zM64.37 539.7c7.395 11.77 4.102 24.733 3.958 25.297l-2.065-.527c.032-.129 3.191-13.049-3.999-23.587-5.039-7.385-13.907-11.919-26.356-13.476-12.627-1.579-21.672-5.927-26.688-14.206-8.255-11.461-3.92-27.028-4.041-27.655l2.052.573c-.04.145-3.944 14.615 3.575 26.231 4.857 6.983 13.391 11.443 25.366 12.941 13.093 1.638 22.468 6.486 28.198 14.409z"/>
    </g>
    <g filter="url(#u72b4uf46d)">
        <path fill-rule="evenodd" fill="url(#5x7zuwcvae)" d="M1383.999 3.999c27.615 0 50 22.386 50 50 0 27.615-22.385 50-50 50-27.614 0-50-22.385-50-50 0-27.614 22.386-50 50-50z"/>
    </g>
    <g filter="url(#wf1oixc79f)">
        <path fill-rule="evenodd" fill="#FE3E57" d="m1663 472.447-5.454-5.455-8.05 8.428-8.049-8.428-5.454 5.455 8.427 8.049-8.427 8.05 5.454 5.454 8.049-8.05 8.05 8.05 5.454-5.454-8.05-8.05 8.05-8.049z"/>
    </g>
</svg>
