<svg xmlns="http://www.w3.org/2000/svg" width="253" height="670">
    <defs>
        <filter filterUnits="userSpaceOnUse" id="axi8y5g3la" x="118.5" y="208.5" width="41" height="42">
            <feOffset in="SourceAlpha" dy="3"/>
            <feGaussianBlur result="blurOut" stdDeviation="2.236"/>
            <feFlood flood-color="#FE3E57" result="floodOut"/>
            <feComposite operator="atop" in="floodOut" in2="blurOut"/>
            <feComponentTransfer>
                <feFuncA type="linear" slope=".4"/>
            </feComponentTransfer>
            <feMerge>
                <feMergeNode/>
                <feMergeNode in="SourceGraphic"/>
            </feMerge>
        </filter>
        <filter filterUnits="userSpaceOnUse" id="ggq6lyg0eb" x="157.5" y="466.5" width="22" height="22">
            <feOffset in="SourceAlpha" dy="3"/>
            <feGaussianBlur result="blurOut" stdDeviation="2.236"/>
            <feFlood flood-color="#34C3FF" result="floodOut"/>
            <feComposite operator="atop" in="floodOut" in2="blurOut"/>
            <feComponentTransfer>
                <feFuncA type="linear" slope=".4"/>
            </feComponentTransfer>
            <feMerge>
                <feMergeNode/>
                <feMergeNode in="SourceGraphic"/>
            </feMerge>
        </filter>
        <filter filterUnits="userSpaceOnUse" id="wl8bpwrm3c" x="88.5" y="123.5" width="19" height="19">
            <feOffset in="SourceAlpha" dy="3"/>
            <feGaussianBlur result="blurOut" stdDeviation="2.236"/>
            <feFlood flood-color="#34C3FF" result="floodOut"/>
            <feComposite operator="atop" in="floodOut" in2="blurOut"/>
            <feComponentTransfer>
                <feFuncA type="linear" slope=".4"/>
            </feComponentTransfer>
            <feMerge>
                <feMergeNode/>
                <feMergeNode in="SourceGraphic"/>
            </feMerge>
        </filter>
        <filter filterUnits="userSpaceOnUse" id="3xrkxnusrd" x="84.5" y="315.5" width="18" height="18">
            <feOffset in="SourceAlpha" dy="3"/>
            <feGaussianBlur result="blurOut" stdDeviation="2.236"/>
            <feFlood flood-color="#5800E4" result="floodOut"/>
            <feComposite operator="atop" in="floodOut" in2="blurOut"/>
            <feComponentTransfer>
                <feFuncA type="linear" slope=".4"/>
            </feComponentTransfer>
            <feMerge>
                <feMergeNode/>
                <feMergeNode in="SourceGraphic"/>
            </feMerge>
        </filter>
        <filter filterUnits="userSpaceOnUse" id="k3vqer0mqe" x="212.5" y="362.5" width="19" height="19">
            <feOffset in="SourceAlpha" dy="3"/>
            <feGaussianBlur result="blurOut" stdDeviation="2.236"/>
            <feFlood flood-color="#FFB534" result="floodOut"/>
            <feComposite operator="atop" in="floodOut" in2="blurOut"/>
            <feComponentTransfer>
                <feFuncA type="linear" slope=".4"/>
            </feComponentTransfer>
            <feMerge>
                <feMergeNode/>
                <feMergeNode in="SourceGraphic"/>
            </feMerge>
        </filter>
        <filter filterUnits="userSpaceOnUse" id="2thfnbp7pf" x="217.5" y="74.5" width="19" height="20">
            <feOffset in="SourceAlpha" dy="3"/>
            <feGaussianBlur result="blurOut" stdDeviation="2.236"/>
            <feFlood flood-color="#FFB534" result="floodOut"/>
            <feComposite operator="atop" in="floodOut" in2="blurOut"/>
            <feComponentTransfer>
                <feFuncA type="linear" slope=".4"/>
            </feComponentTransfer>
            <feMerge>
                <feMergeNode/>
                <feMergeNode in="SourceGraphic"/>
            </feMerge>
        </filter>
        <filter filterUnits="userSpaceOnUse" id="hapj7i0wbg" x="107.5" y="599.5" width="18" height="20">
            <feOffset in="SourceAlpha" dy="3"/>
            <feGaussianBlur result="blurOut" stdDeviation="2.236"/>
            <feFlood flood-color="#FE3E57" result="floodOut"/>
            <feComposite operator="atop" in="floodOut" in2="blurOut"/>
            <feComponentTransfer>
                <feFuncA type="linear" slope=".4"/>
            </feComponentTransfer>
            <feMerge>
                <feMergeNode/>
                <feMergeNode in="SourceGraphic"/>
            </feMerge>
        </filter>
    </defs>
    <path stroke="#ECECEC" fill="none" d="M36.301 568.303S67.584 465.498 85.2 427.258c17.22-38.088 41.064-67.357 82.446-99.013 41.634-31.655 60.898-103.625-8.117-190.551C90.514 50.769 39.52 25.839 27.446 17.199"/>
    <path stroke="#ECECEC" fill="none" d="M34.87 667.314s20.321.79 46.442-97.144c26.122-97.933 38.938-124.55 58.294-160.66 19.582-35.552 40.534-57.764 68.624-77.528 28.09-19.764 74.285-77.493 5.903-178.408C145.752 52.659 22.205-23.777 1.62 10.66"/>
    <g filter="url(#axi8y5g3la)">
        <path stroke="#FE3E57" stroke-width="2" fill="none" d="M138.827 212.437c7.43 0 13.454 6.198 13.454 13.843 0 7.646-6.024 13.844-13.454 13.844-7.429 0-13.453-6.198-13.453-13.844 0-7.645 6.024-13.843 13.453-13.843z"/>
    </g>
    <g filter="url(#ggq6lyg0eb)">
        <path stroke="#34C3FF" stroke-width="2" fill="none" d="M167.781 469.687a4.226 4.226 0 0 1 4.218 4.234 4.225 4.225 0 0 1-4.218 4.234 4.226 4.226 0 0 1-4.219-4.234 4.227 4.227 0 0 1 4.219-4.234z"/>
    </g>
    <g filter="url(#wl8bpwrm3c)">
        <path fill-rule="evenodd" fill="#34C3FF" d="m98.54 129.663 2.914 3.047c.356 1.1.356.973 0 1.83.536-.114-.931-.114-1.286 0l-2.914-2.64-2.915 2.64c-.355-.114-.931-.114-.809 0-.832-.857-.832-.73 0-1.83l2.437-3.047-2.437-3.045c-.832-.372-.832-.974 0-1.345-.122-.371.454-.371.809 0l2.915 3.046 2.914-3.046c.355-.371 1.822-.371 1.286 0a.98.98 0 0 1 0 1.345l-2.914 3.045z"/>
    </g>
    <g filter="url(#3xrkxnusrd)">
        <path fill-rule="evenodd" fill="#5800E4" d="m93.113 325.31-4.345-4.353 4.345-4.354 4.344 4.354-4.344 4.353z"/>
    </g>
    <g filter="url(#k3vqer0mqe)">
        <path fill-rule="evenodd" fill="#FFB534" d="m222.972 368.702 2.915 3.047c.355.371.355.973 0 2.181-.356-.466-.932-.466-1.287 0l-2.914-3.46-2.914 3.46c-.356-.466-.932-.466-1.287 0-.355-1.208-.355-1.81 0-2.181l2.914-3.047-2.914-3.045a.982.982 0 0 1 0-1.345.883.883 0 0 1 1.287 0l2.914 3.046 2.914-3.046a.883.883 0 0 1 1.287 0 .982.982 0 0 1 0 1.345l-2.915 3.045z"/>
    </g>
    <g filter="url(#2thfnbp7pf)">
        <path fill-rule="evenodd" fill="#FFB534" d="m227.964 80.891 2.914 3.046a.982.982 0 0 1 0 1.345.883.883 0 0 1-1.287 0l-2.914-3.046-2.914 3.046a.883.883 0 0 1-1.287 0 .982.982 0 0 1 0-1.345l2.915-3.046-2.915-3.045a.982.982 0 0 1 0-1.345.882.882 0 0 1 1.287 0l2.914 3.046 2.914-3.046a.882.882 0 0 1 1.287 0 .982.982 0 0 1 0 1.345l-2.914 3.045z"/>
    </g>
    <g filter="url(#hapj7i0wbg)">
        <path fill-rule="evenodd" fill="#FE3E57" d="m117.241 606.93 2.914 2.209a.98.98 0 0 1 0 1.345.88.88 0 0 1-1.286 0l-2.914-3.046-2.555 3.046c-.715.372-1.291.372-1.646 0a.982.982 0 0 1 0-1.345l2.914-2.209-2.914-3.46c-.355-.794-.355-.73 0-1.767.355-.372.931-.372 1.646 0l2.555 3.045 2.914-3.045a.88.88 0 0 1 1.286 0c.356 1.037.356.973 0 1.767l-2.914 3.46z"/>
    </g>
</svg>
