<svg xmlns="http://www.w3.org/2000/svg" width="26" height="25">
    <path fill-rule="evenodd" fill="#FFF" d="m25.494 14.208-4.149 4.765a3.3 3.3 0 0 1-.652.579l-.017.011c-.576.421-1.525.635-2.525.635h-6.157c-.424 0-.852.024-1.273.073l-.471.076.079.288a.498.498 0 0 1 .156.35.502.502 0 0 1-.146.36l-3.494 3.5a.517.517 0 0 1-.719.013L.161 19.312c.459-.092.339.628.039-.351-.2-.132.31-.262-.055-.357l3.527-3.324c.096-.348.229-.404.718-.405h.03c-.245 0-.115.051-.02.295l.726.535a7.262 7.262 0 0 1 1.322-1.387c1.484-1.182 3.239-1.545 5.077-1.048.705.19 1.449.287 2.212.287h4.047c.588 0 1.108.226 1.464.639.073.085.138.176.195.272l2.891-2.793c.423-.413.991-.155 1.597.135.534-.701 1.063-.485 1.452-.134.777.699.821 1.716.111 2.532zM4.54 16.81l-3.301 2.125 5.226 4.86L9.25 21.5l-4.71-4.69zm20.15-4.4c-.416-.06-1.159-.491-1.14-.027l-3.824 3.218c-.014 1.209-.184.929-.482 1.271-.357.411-.882.638-1.476.638h-3.523c-.282 0-.511-.223-.511-.41 0-.364.229-.589.511-.589h3.523c.882 0 .532-.096.697-.286.152.285.239-.427.239-.693 0-.362-.194-.977-.92-.977h-4.047c-.855 0-1.277-.109-2.485-.323-1.525-.413-2.924-.123-3.312 1.688-1.439-.355-1.02.94-2.071.488l3.871 3.037.865-.168c1.025-.051.926-.078 1.389-.078h6.157c.797 0 1.459.201 1.966-.472.166-.114.318-.248.449-.4l4.149-4.766c.479-.451.19-.958-.025-1.151zm-12.416 5.088a.51.51 0 0 1-.614-.372l-.005-.02c-.065-.269.106-.537.705-.6-.049-.063.226.104.29.372l.005.02a.498.498 0 0 1-.381.6zm9.04-6.966h-4.983c.269 0-.522-.085-.726-.231a1.248 1.248 0 0 1-.727.231H9.895c-.272 0-.523-.085-.727-.231a1.244 1.244 0 0 1-.727.231H3.459c-.683 0-1.239-.542-1.239-1.209V7.55c0-1.19.585-2.4 1.459-2.836A2.826 2.826 0 0 1 3 2.878C3 1.29 4.323.2 5.95.2 7.576.2 8.9 1.29 8.9 2.878c0 .697-.255 1.337-.679 1.835.378.19.701.462.947.794.246-.332.569-.604.947-.793a2.831 2.831 0 0 1-.679-1.836C9.436 1.29 10.76.2 12.386.2c1.744 0 2.95 1.09 2.95 2.678 0 .697.474 1.337-.679 1.835.693.189.702.462.948.793.245-.331.569-.603.947-.793a2.821 2.821 0 0 1-.679-1.835C15.873 1.29 17.196.2 18.823.2c1.626 0 2.949 1.09 2.949 2.678 0 .697-.255 1.337.168 1.835.028.437.612 1.637.612 2.837v1.773c0 .667-.555 1.209-1.238 1.209zM5.95.996c-1.062 0-1.72.844-1.72 1.882 0 1.037.658 1.881 1.72 1.881 1.18 0 1.927-.844 1.927-1.881C7.877 1.84 7.13.996 5.95.996zM8.657 7.55c0-1.298.073-1.967-1.379-2.102-.399.197-.85.31-1.328.31-.478 0-.74-.113-1.328-.31-.795.135-1.379.804-1.379 2.102v1.773c0 .116.097.211.216.211h4.982a.214.214 0 0 0 .216-.211V7.55zM12.386.996c-1.062 0-1.927.844-1.927 1.882 0 1.037.865 1.881 1.927 1.881 1.063 0 1.927-.844 1.927-1.881 0-1.038-.864-1.882-1.927-1.882zM15.93 7.55c0-1.298-1.421-1.967-2.215-2.102a3 3 0 0 1-1.329.31c-.477 0-.929-.113-.806-.31-1.316.135-1.9.804-1.9 2.102v1.773c0 .116.096.211.215.211h4.983c.118 0 1.052-.095 1.052-.211V7.55zM18.823.996c-1.063 0-1.927.844-1.927 1.882 0 1.037.864 1.881 1.927 1.881 1.062 0 1.927-.844 1.927-1.881 0-1.038-.865-1.882-1.927-1.882zm2.706 6.554c0-1.298-.583-1.967-1.378-2.102a2.996 2.996 0 0 1-2.657 0c-.794.135-1.378.804-1.378 2.102v1.773c0 .116.096.211.215.211h4.983a.213.213 0 0 0 .215-.211V7.55z"/>
</svg>
