<svg xmlns="http://www.w3.org/2000/svg" width="40" height="25">
    <path fill-rule="evenodd" fill="#FFF" d="M26.1 17.161c.256 0 .537.278.537.619 0 .343-.281.619-.537.619h-9.443c-.346 0-.347-.276-.347-.619 0-.341.001-.619.347-.619H26.1zm-10.779-4.043c-.16 0-.321.462-.443-.182l-3.341-3.3c-.244-.242-.244-.436 0-.875a.631.631 0 0 1 .886 0l2.898 2.863 5.57-5.504a.632.632 0 0 1 .885 0c.434.242.434.634 0 .875l-6.012 5.941c-.123.644-.283.182-.443.182zM39.372 21.4h-2.047l.001.42c0 1.423-1.78 3.28-3.967 3.28-2.187 0-3.967-1.857-3.967-3.28l.001-.42H15.278l.001.42c0 1.423-1.78 3.28-3.967 3.28-2.187 0-3.967-1.857-3.967-3.28l.001-.42H3.963c-.714 0-1.294-.934-1.294-1.64v-1.361H.623c-.346 0-.323-.276-.323-.619 0-.341-.023-.619.323-.619h6.012c.346 0 .627.278.627.619a.622.622 0 0 1-.627.619H3.921v1.361c0 .024.019.042.042.042h3.6a3.97 3.97 0 0 1 3.749-2.641c2.148 0 3.211 1.106 4.298 2.641h12.95V15.14c0-.342-.223-.619.123-.619.597 0 .626.277.626.619v4.662h.301a3.97 3.97 0 0 1 3.749-2.641c2.571 0 3.211 1.106 3.749 2.641h1.638V17.79h-.386c-1.406 0-1.63-1.581-1.63-2.65v-1.321c0-.341-.376-.619-.03-.619h1.947a2.049 2.049 0 0 0-1.946-1.402h-7.392v.701c0 .343-.029.62-.626.62-.346 0-.123-.277-.123-.62V1.276c0-.022-.18-.041-.42-.041H3.963a.042.042 0 0 0-.042.041v11.223c0 .342-.28.619-.626.619a.622.622 0 0 1-.626-.619V1.276C2.669.572 3.249.2 3.963.2H28.14c.588 0 1.169.372 1.169 1.076v1.362h4.961c1.208 0 2.388 1.166 2.388 2.6v.66a.62.62 0 0 1-.496.605l1.036 4.094c1.583.238 2.8 1.592 2.8 3.222v6.603c0 .341-.28.978-.626.978zm-28.06-3.001c-1.496 0-2.714 1.203-2.714 3.421 0 .74 1.218 1.943 2.714 1.943 1.497 0 2.948-1.203 2.948-1.943 0-2.218-1.451-3.421-2.948-3.421zm22.047 0c-1.496 0-2.714 1.203-2.714 3.421 0 .74 1.218 1.943 2.714 1.943 1.497 0 3.371-1.203 3.371-1.943 0-2.218-1.874-3.421-3.371-3.421zm2.046-13.161c0-.751-.618-1.362-1.135-1.362h-4.961v1.403h6.096v-.041zm-.53 1.279h-5.566v4.043h6.589l-1.023-4.043zm3.871 7.921h-1.42v.702c0 .387.318.702 1.034.702h.386v-1.404zm-5.387 7.922c-.714 0-.709-.573-.709-.54 0-1.444-.005-2.018.709-2.018 1.371 0 1.295.574 1.295 2.018 0-.033.076.54-1.295.54zm-22.047 0c-.714 0-1.132-.573-1.132-.54 0-1.444.418-2.018 1.132-2.018.948 0 1.295.574 1.295 2.018 0-.033-.347.54-1.295.54zm-.71-7.22c0 .341-.28.619-.626.619H1.959a.623.623 0 0 1-.626-.619c0-.342.28-.619.626-.619h8.017c.346 0 .626.277.626.619z"/>
</svg>
