<svg xmlns="http://www.w3.org/2000/svg" width="1922" height="745"><path fill-rule="evenodd" fill="#EDEDED" d="M1915.753 744.985h-2.209l8.456-8v2.755l-6.247 5.245zm-37.766 0L1922 703.343v2.089l-41.808 39.553h-2.205zm-35.56 0L1922 669.702v2.088l-77.365 73.195h-2.208zm50.462-81.404L1922 636.59v1.558l-35.192 33.297 6.081-7.864zm16.215-62.389L1922 588.99v2.8l-11.64 10.607-1.256-1.205zm-14.294-19.428l27.19-26.417v2.09l-26.87 25.533-.32-1.206zm-15.25-19.428l42.44-40.631v2.09l-42.012 39.747-.428-1.206zm-15.858-15.354l-36.573-34.6-36.575 34.605.751-.827-1.672-1.727 1.815 1.398 5.191-6.711 30.49-28.825 30.633 28.982 4.458 5.533 59.78-56.16v1.503l-59.047 56.007.749.822zm-13.902-23.501l72.2-69.058v2.089l-72.061 68.174-.139-1.205zm-15.815-18.951L1922 420.781v2.089l-87.083 82.389-.932-.729zm58.904-89.871l29.111-27.52v2.089l-35.186 33.29 6.075-7.859zm16.215-62.389L1922 340.7v1.459l-11.64 11.318-1.256-1.207zm-14.294-19.427l27.19-26.415v2.089l-26.87 25.973-.32-1.647zm-15.25-19.427l42.44-40.63v2.089l-42.012 39.745-.428-1.204zm-15.858-14.786l-36.573-35.166-36.575 35.206.751-.71-1.675-2.449 1.818 1.401 5.191-6.712 30.49-28.825 30.633 28.982 4.458 5.534 59.78-56.747v2.089l-59.047 56.727.749.67zm-13.902-24.069l72.2-69.058v2.088l-72.061 68.175-.139-1.205zm-15.815-19.428L1922 171.861v2.089l-87.083 82.389-.932-1.206zm58.904-89.393L1922 138.218v2.09l-35.192 33.297 6.081-7.865zm16.215-62.389L1922 91.15v2.089l-11.64 11.317-1.256-1.205zm-14.294-19.427L1922 57.506v2.091l-26.87 25.532-.32-1.205zm-15.25-19.429l42.44-40.63v2.09l-42.012 39.747-.428-1.207zm-15.858-15.352l-36.573-34.601-36.575 34.605.751-.971-1.675-1.584 1.818 1.399 5.191-6.711 30.49-28.825 30.633 28.982 4.458 5.533L1910.636.976h2.206l-49.889 47.2.749.967zM1849.8 25.641L1875.76.976h1.524l-27.345 25.87-.139-1.205zm-15.815-19.428l5.534-5.237h2.208l-6.81 6.443-.932-1.206zm-21.45-5.237h2.205l5.534 5.237-.929 1.204-6.81-6.441zm-35.561 0h2.209l26.068 24.665-.932 1.205-27.345-25.87zm12.32 45.297L1741.417.976h2.208l46.6 44.704-.931.593zm-15.023 19.429l-43.377-41.041-43.378 41.041-.934-1.208 44.228-41.841.073.085.086-.094 44.234 41.851-.932 1.207zm-103.043-16.559l-36.573-34.601-35.745 34.595-.076-.961-1.664-1.573 1.804 1.388 5.192-6.711 30.489-28.825 30.636 28.982 4.257 5.533L1718.162.976h2.206l-49.888 47.2.748.967zm-14.694-23.502L1682.605.976h2.205l-27.344 25.87-.932-1.205zm-15.023-19.428l5.939-5.237h1.803l-6.81 6.443-.932-1.206zM1620.61.976h1.656l5.536 5.237-.931 1.206-6.261-6.443zm-36.107 0h2.206l26.068 24.665-.932 1.205-27.342-25.87zm12.319 45.297L1548.946.976h2.205l46.6 44.704-.929.593zm-15.025 19.429l-43.377-41.041-42.99 41.041-1.319-1.207 44.225-41.842.073.084.083-.095 44.237 41.853-.932 1.207zm-103.043-16.559l-36.573-34.601-36.564 34.595.743-.961-49.888-47.2h2.205l48.615 45.994 4.4-5.69 30.489-28.825 30.636 28.982 4.923 5.533L1525.689.976h2.208l-49.297 47.2.154.967zm-14.124-23.502L1490.131.976h2.205l-27.344 25.868-.362-1.203zm-15.26-19.428l5.204-5.237h2.205l-6.81 6.443-.599-1.206zM1427.587.976h2.205l5.537 5.237-.932 1.206-6.81-6.443zm-35.297 0h1.945l26.068 24.665-.931 1.205L1392.29.976zm-2.967 64.726l-43.377-41.041-43.377 41.041-.932-1.207 44.226-41.842.072.084.255-.095 44.065 41.853-.932 1.207zm-103.051-16.569l-36.562-34.591-36.575 34.605.751-.971-49.888-47.2h2.205l48.615 45.994 4.4-5.69 30.492-28.825 30.633 28.982 4.257 5.533L1333.215.976h2.208l-49.891 47.2.74.957zm-14.683-23.492L1297.657.976h2.206l-27.343 25.87-.931-1.205zm-15.026-19.428L1262.1.976h2.205l-6.81 6.443-.932-1.206zm-21.45-5.237h2.205l5.537 5.237-.932 1.206-6.81-6.443zm-35.558 0h2.206l26.068 24.665-.932 1.205-27.342-25.87zm-2.706 64.726l-43.377-41.041-42.522 41.041-1.787-1.207 44.309-41.922 44.309 41.922-.932 1.207zm-103.04-16.559l-36.572-34.601-36.576 34.605.751-.971-1.674-1.585 1.817 1.399 5.189-6.712 30.493-28.823 30.632 28.982 4.257 5.533L1140.741.976h2.208l-49.339 47.2.199.967zm-14.694-23.502L1105.183.976h2.208l-26.921 25.87-1.355-1.205zM1064.89 6.212l4.736-5.236h2.208l-6.594 6.443-.35-1.207zM1042.639.976h2.208l5.534 5.237-.932 1.206-6.81-6.443zm-34.819 0h1.467l26.068 24.665-.931 1.205L1007.82.976zm11.581 45.297L971.524.976h2.205l46.604 44.704-.932.593zM1004.378 65.7l-43.38-41.039-43.377 41.041-.932-1.207 44.309-41.922 44.309 41.922-.929 1.205zM901.335 49.143l-36.572-34.601-36.576 34.605.752-.971-1.675-1.585 2.546 1.399 4.46-6.712 30.493-28.823 30.632 28.982 4.26 5.533L948.27.976h2.205l-49.888 47.2.748.967zm-14.694-23.502L912.709.976h2.208l-27.344 25.87-.932-1.205zM871.618 6.213l5.534-5.237h2.208l-6.81 6.443-.932-1.206zM850.165.976h2.208l5.534 5.237-.932 1.206-6.81-6.443zm-35.557 0h2.205l26.068 24.665-.929 1.203L814.608.976zm12.319 45.297L779.5.976h1.756l46.603 44.704-.932.593zm-15.023 19.429l-43.377-41.041-43.38 41.041-.931-1.207 44.308-41.922 44.312 41.922-.932 1.207zM708.861 49.143l-36.572-34.601-36.576 34.605.752-.971-1.675-1.585 1.817 1.399 5.189-6.712 30.493-28.823 30.632 28.982 4.26 5.533L755.796.976h2.304l-49.987 47.2.748.967zm-14.694-23.502L720.235.976h2.209l-26.454 25.87-1.823-1.205zM679.145 6.213l5.533-5.237h2.208l-6.126 6.443-1.615-1.206zM657.691.976h2.208l5.534 5.237-.932 1.206-6.81-6.443zm-35.557 0h2.205l26.071 24.665-.931 1.205L622.134.976zm12.319 45.297L586.576.976h2.209l46.6 44.704-.932.593zM619.43 65.702l-42.9-41.041-43.857 41.041-.931-1.207 44.788-41.922 43.832 41.922-.932 1.207zM516.388 49.143l-36.573-34.601-36.576 34.605.752-.971-1.675-1.584 1.818 1.399 5.191-6.711 30.49-28.825 30.632 28.982 4.26 5.533L563.322.976h2.205l-49.888 47.2.749.967zm-14.695-23.502L527.762.976h2.208l-27.345 25.87-.932-1.205zM486.671 6.213l5.533-5.237h2.208l-6.81 6.443-.931-1.206zM465.22.976h2.206l5.533 5.237-.659 1.204-7.08-6.441zm-35.56 0h2.208l26.069 24.665-.437 1.205L429.66.976zm12.319 45.297L394.104.976h2.205l46.602 44.704-.932.593zm-15.023 19.429l-43.377-41.041-43.378 41.041-.932-1.207 44.283-41.896.073.072.027-.029 44.236 41.853-.932 1.207zM323.91 49.137l-36.568-34.595-36.572 34.601.748-.967-1.672-1.582 1.815 1.397 5.192-6.711 30.489-28.825 30.631 28.982 4.26 5.533L370.848.976h2.702l-50.385 47.2.745.961zm-14.689-23.496L335.289.976h2.207l-27.343 25.87-.932-1.205zM294.195 6.213l5.537-5.237h2.206l-6.81 6.443-.933-1.206zM272.747.976h2.205l5.535 5.237-.932 1.206-6.808-6.443zm-35.559 0h2.206l26.069 24.665-.932 1.205L237.188.976zm12.319 45.297L201.63.976h2.207l46.601 44.704-.931.593zm-15.024 19.429l-43.377-41.041-43.379 41.041-.932-1.207 44.415-41.842.16.018-.248-.083 44.292 41.907-.931 1.207zM131.436 49.137L94.869 14.542 58.298 49.141l1.162-.965-2.084-1.579 1.813 1.393 5.19-6.712 30.49-28.823L125.5 41.437l4.259 5.533L178.374.976h2.207l-49.89 47.2.745.961zm-14.689-23.496L142.817.976h2.403l-27.541 25.87-.932-1.205zM101.722 6.213l5.536-5.237h2.207l-6.809 6.443-.934-1.206zM80.272.976h2.207l5.661 5.237-.31 1.204L80.272.976zm-35.558 0h2.206l26.069 24.665-.419 1.205L44.714.976zM57.34 46.273L9.157.976h2.206L57.966 45.68l-.626.593zM42.9 65.702L0 25.955v-2.09l42.94 40.63-.04 1.207zM26.986 85.129L0 59.597v-2.091l27.919 26.418-.933 1.205zm-15.024 19.427L0 93.239V91.15l12.895 12.2-.933 1.206zm18.787 63.303l2.763 3.571 61.357-58.05 59.346 56.148-.742.959 2.184 1.679 4.971-6.426 30.478-28.814 30.621 28.971 1.495 1.96 2.764 3.573 61.356-58.05 61.356 58.05 1.673-2.164 2.729-3.526 30.478-28.814 30.622 28.971 4.258 5.535 61.357-58.052 59.345 56.148-.773 1 2.184 1.68 5.003-6.468 30.926-28.814 30.175 28.971 1.492 1.96 2.765 3.573 61.357-58.05 61.356 58.05 4.338-5.608 30.541-28.896 30.625 28.971 1.494 1.96 2.763 3.573 61.357-58.05 61.356 58.052 2.733-3.537 1.667-2.155 30.479-28.814 30.625 28.971 1.494 1.96 2.763 3.573 61.357-58.05 61.356 58.052 2.733-3.537 1.667-2.155 30.479-28.814 31.498 28.971.618 1.96 2.766 3.573 61.356-58.05 61.93 58.05 3.827-5.69 30.455-28.79.013.015.024-.024 30.609 28.956 4.257 5.535 61.356-58.052 61.357 58.05.948-1.223 3.455-4.467 30.455-28.79.013.015.024-.024 30.977 28.956 3.889 5.535 61.356-58.052 59.445 56.148-.38 1.206-59.065-55.266-60.424 57.169.748.967-36.559-34.454-36.573 34.466.759-.981-60.425-57.167-60.424 57.17.748.964-36.559-34.452-36.562 34.456.751-.971-60.425-57.167-60.427 57.17 1.027.964-36.838-34.452-36.562 34.456.751-.971-60.424-57.167-60.426 57.169.754.976-36.567-34.463-36.567 34.463.757-.978-60.425-57.167-60.425 57.169 1.582.973-37.393-34.46-36.573 34.466.76-.981-60.425-57.167-60.425 57.169.751.972-36.085-34.459-37.047 34.464.757-.979-60.425-57.167-60.425 57.169.754.973-36.565-34.46-36.449 34.46.637-.975-60.425-57.167-60.426 57.169.75.969-36.56-34.456-36.567 34.46.755-.975-60.425-57.167-60.424 57.169.751.973L0 140.308v-2.088l29.253 27.677 1.496 1.962zm57.081 88.479L0 173.95v-2.089l88.14 83.272-.31 1.205zm-15.26 19.428L0 207.591v-2.088l72.989 69.058-.419 1.205zm-15.23 19.428L0 241.233v-2.089l57.965 54.845-.625 1.205zM42.9 314.622L0 274.875v-2.089l42.94 40.63-.04 1.206zM26.986 334.49L0 308.517v-2.089l27.918 26.415-.932 1.647zm-15.024 18.987L0 342.159V340.7l12.895 11.57-.933 1.207zm18.787 63.302l2.763 3.571 61.357-58.05 59.346 56.148-.932 1.205-58.414-55.265-60.426 57.169.75.969L0 389.228v-2.088l29.253 27.678 1.496 1.961zm57.081 88.479L0 422.87v-2.089l88.14 83.749-.31.728zm-15.26 19.428L0 456.512v-2.089l72.989 69.058-.419 1.205zm-15.23 19.428L0 490.153v-1.503l57.966 54.258-.626 1.206zM42.9 563.542L0 523.795v-2.09l42.94 40.631-.04 1.206zM26.986 582.97L0 557.437v-2.09l27.919 26.417-.933 1.206zm-15.024 19.427L0 591.79v-2.8l12.895 12.201-.933 1.206zm18.787 63.302l2.763 3.572 61.357-58.051 59.346 56.148-.742.959 2.184 2.373 4.971-7.119 30.478-28.815 30.621 28.972 1.495 1.959 2.764 3.574 61.356-58.051 61.356 58.051 1.673-2.165 2.729-3.525 30.478-28.815 30.622 28.972 4.258 5.534 61.357-58.052 59.345 56.148-.773 1 2.184 2.112 5.003-6.899 30.926-28.815 30.175 28.972 1.492 1.959 2.765 3.574 61.357-58.051 61.356 58.051 4.338-5.608 30.541-28.897 30.625 28.972 1.494 1.959 2.763 3.574 61.357-58.051 61.356 58.052 2.733-3.537 1.667-2.154 30.479-28.815 30.625 28.972 1.494 1.959 2.763 3.574 61.357-58.051 61.356 58.052 2.733-3.537 1.667-2.154 30.479-28.815 31.498 28.972.618 1.959 2.766 3.574 61.356-58.051 61.93 58.051 3.827-5.69 30.455-28.79.013.014.024-.024 30.609 28.957 4.257 5.534 61.356-58.052 61.357 58.051.948-.801 3.455-4.889 30.455-28.79.013.014.024-.024 30.977 28.957 3.889 5.534 61.356-58.052 59.445 56.148-.38 1.207-59.065-55.266-60.424 57.168.748.966-36.559-34.588-36.573 34.601.759-.981-60.425-57.166-60.424 57.169.748.965-36.559-34.588-36.562 34.591.751-.971-60.425-57.166-60.427 57.169 1.027.965-36.838-34.588-36.562 34.591.751-.971-60.424-57.166-60.426 57.168.754.976-36.567-34.598-36.567 34.598.757-.978-60.425-57.166-60.425 57.168 1.582.973-37.393-34.595-36.573 34.601.76-.981-60.425-57.166-60.425 57.168.751.972-36.085-34.594-37.047 34.599.757-.979-60.425-57.166-60.425 57.168.754.973-36.565-34.595-36.449 34.595.637-.975-60.425-57.166-60.426 57.168.75.969-36.56-34.591-36.567 34.595.755-.975-60.425-57.166-60.424 57.168.751.973L0 638.148V636.6l29.253 27.138 1.496 1.961zm46.614 79.286L0 671.79v-2.088l79.57 75.283h-2.207zm-35.559 0L0 705.432v-2.089l44.12 41.642h-2.316zm-35.557 0L0 739.74v-2.755l8.455 8H6.247zm102.896-19.334l-.932 1.205-13.342-12.622-13.343 12.624-.932-1.207 14.275-13.506 14.274 13.506zm15.024-19.428l-.932 1.206-28.366-26.837-28.367 26.837-.932-1.206 29.299-27.719 29.298 27.719zm-73.62-19.428l44.322-41.933 44.322 41.933-.932 1.305-43.39-41.15-43.39 41.15-.932-1.305zm221.893 58.19h-2.603l-78.731-74.488-78.732 74.488h-2.207l80.939-76.577 81.334 76.577zm-35.955 0h-2.207l-43.172-40.846-43.173 40.846h-2.208l45.381-42.485 45.379 42.485zm-35.558 0h-2.206l-7.615-7.204-7.616 7.204h-2.206l9.822-9.293 9.821 9.293zm100.688-19.334l-.931 1.207-13.342-12.624L274 726.858l-.32-1.207 13.662-13.506 14.273 13.506zm15.026-19.428l-.932 1.205-28.367-26.836-28.366 26.837-.536-1.206 28.902-27.719 29.299 27.719zM243.2 686.795l44.142-41.933 44.323 41.933-.933 1.305-43.39-41.15-43.39 41.15-.752-1.305zm221.317 58.19h-2.208l-78.73-74.488-78.731 74.488h-2.208l80.939-76.577 80.938 76.577zm-35.56 0h-2.205l-43.173-40.846-43.173 40.846h-2.207l45.379-42.485 45.379 42.485zm-35.556 0h-2.207l-7.615-7.204-7.615 7.204h-2.206l9.821-9.293 9.822 9.293zm101.489-19.334l-1.733 1.207-13.342-12.624-13.343 12.624-.931-1.207 14.274-13.506 15.075 13.506zm14.222-19.428l-.929 1.205-28.368-26.836-28.365 26.837-.932-1.206 29.297-27.719 29.297 27.719zm-73.62-19.428l44.323-41.933 44.322 41.933-.931 1.305-43.391-41.15-43.391 41.15-.932-1.305zm221.499 58.19h-2.208l-78.253-74.488-79.21 74.488h-2.208l81.418-76.577 80.461 76.577zm-35.56 0h-2.205l-42.696-40.846-43.652 40.846h-2.205L576.53 702.5l44.901 42.485zm-35.558 0h-2.205l-7.138-7.204-8.092 7.204h-2.208l10.3-9.293 9.343 9.293zm100.69-19.334l-.932 1.207-13.342-12.624-13.343 12.624-.796-1.207 14.139-13.506 14.274 13.506zm15.023-19.428l-.932 1.206-28.365-26.837-28.366 26.837-.931-1.206 29.297-27.719 29.297 27.719zm-73.62-19.428l44.323-41.933 44.322 41.933-.932 1.305-43.39-41.15-43.391 41.15-.932-1.305zm221.499 58.19h-2.208l-78.73-74.488-78.733 74.488h-2.208l80.938-76.577 80.941 76.577zm-35.56 0H811.7l-43.173-40.846-43.175 40.846h-2.206l45.378-42.485 45.381 42.485zm-35.558 0h-2.208l-7.612-7.204-7.615 7.204h-2.208l9.82-9.293 9.823 9.293zm101.023-19.334l-1.265 1.207-13.342-12.624-13.343 12.624-.932-1.207 14.275-13.506 14.607 13.506zm15.23-19.428l-1.472 1.206-28.365-26.837-28.366 26.837-.931-1.206 29.297-27.719 29.837 27.719zm-74.16-19.428l44.323-41.933 45.087 41.933-1.697 1.305-43.39-41.15-43.391 41.15-.932-1.305zm221.496 58.19h-2.205l-78.733-74.488-78.73 74.488H880.6l80.398-76.577 80.938 76.577zm-35.557 0h-2.208l-43.173-40.846-43.172 40.846h-2.209l45.381-42.485 45.381 42.485zm-35.558 0h-2.208l-7.513-7.204-7.714 7.204h-2.208l9.922-9.293 9.721 9.293zm100.69-19.334l-.932 1.207-13.342-12.624-13.343 12.624-.932-1.207 14.275-13.506 14.274 13.506zm15.023-19.428l-.932 1.206-28.365-26.837-28.366 26.837-.934-1.207 29.3-27.718 29.297 27.719zm-73.62-19.428l44.323-41.933 44.322 41.934-.932 1.304-43.39-41.15-43.391 41.15-.932-1.305zm221.496 58.19h-2.205l-78.733-74.488-78.73 74.488h-2.208l80.938-76.577 80.938 76.577zm-35.557 0h-2.208l-43.173-40.846-43.173 40.846h-1.389l44.562-42.485 45.381 42.485zm-35.558 0h-1.425l-8.398-7.204-7.615 7.204h-2.205l9.82-9.293 9.823 9.293zm100.687-19.334l-.452 1.205-13.82-12.622-13.342 12.624-.932-1.207 14.274-13.506 14.272 13.506zm15.718-19.428l-.94 1.206-29.05-26.837-28.368 26.837-.931-1.206 29.299-27.719 29.99 27.719zm-74.312-19.428l44.322-41.933 44.59 41.933-.32 1.305-44.27-41.15-43.39 41.15-.932-1.305zm140.547-18.348l.024-.024 80.925 76.562h-2.205l-78.733-74.488-78.73 74.488h-1.416l80.122-76.553.013.015zm0 34.443l.024-.25 45.368 42.345h-2.208l-43.173-40.846-43.173 40.846h-2.208l45.357-42.245.013.15zm0 32.839l.024-.024 9.81 9.28h-2.208l-7.615-7.204-7.615 7.204h-2.206l9.797-9.269.013.013zm110.521-10.078l-.932 1.207-13.343-12.624-13.342 12.622-.929-1.205 14.271-13.506 14.275 13.506zm15.025-19.428l-.931 1.206-28.369-26.837-28.365 26.837-.931-1.206 29.296-27.719 29.3 27.719zm-73.619-19.428l44.319-41.933 44.323 41.933-.932 1.305-43.391-41.15-43.387 41.15-.932-1.305zm140.547-18.348l.024-.024 80.925 76.562h-2.208l-78.73-74.488-78.733 74.488h-2.205l80.914-76.553.013.015zm0 34.443l.024-.25 45.368 42.345h-2.209l-43.172-40.846-43.173 40.846h-1.857l45.006-42.245.013.15zm0 32.838l.024-.023 9.81 9.28h-1.893l-7.93-7.204-7.615 7.204h-2.208l9.799-9.269.013.012zm110.521-10.077l-.932 1.207-13.343-12.624-13.342 12.624-.932-1.207 14.274-13.506 14.275 13.506zm15.025-19.428l-.725 1.206-28.575-26.837-28.365 26.837-.932-1.206 29.297-27.719 29.3 27.719zm-73.619-19.428l44.319-41.933 44.323 41.933-.518 1.305-43.805-41.15-43.387 41.15-.932-1.305zm140.547-18.348l.024-.024 80.925 76.562h-2.208l-78.73-74.488-78.733 74.488h-2.205l80.914-76.553.013.015zm0 34.453l.027-.24 45.362 42.325h-1.612l-43.766-40.846-43.173 40.846h-2.208l45.357-42.245.013.16zm0 32.829l.024-.023 9.807 9.279h-2.205l-7.615-7.204-7.615 7.204h-1.569l9.16-9.269.013.013zm96.246-55.137l-28.365 26.837-.932-1.206 29.297-27.719 29.297 27.719-.929 1.205-28.368-26.836zm0-33.642l-43.39 41.15-.932-1.305 44.322-41.933 44.323 41.933-.932 1.305-43.391-41.15zm0-33.641l-60.425 57.168.754.973-36.564-34.595-36.57 34.599 2.588-3.343 3.503-4.53 30.455-28.79.013.014.024-.024 30.608 28.957 4.258 5.534 61.356-58.052 59.345 56.148-.931 1.205-58.414-55.264zm0-33.642l-73.436 69.48-.932-1.207 74.368-70.362 74.371 70.362-.932 1.207-73.439-69.48zm89.394 48.845l-.932 1.207-88.462-83.459-88.461 83.459-.932-1.207 89.393-84.575 89.394 84.575zM1730.894 488.86l-60.414 57.3.748.823-36.573-34.601-35.745 34.596-.076-.818-1.661-1.716 1.801 1.387 5.192-6.711 30.489-28.825 30.636 28.982 4.257 5.533 61.322-58.014.013.014.024-.024 59.318 56.122-.931 1.206-58.4-55.254zm0-33.641l-73.428 69.467-.932-1.205 74.336-70.327.013.016.027-.024 74.341 70.335-.932 1.205-73.425-69.467zm0-33.642l-88.451 83.682-.932-.729 89.359-85.018.013.016.027-.024 89.364 85.026-.929.728-88.451-83.681zm96.235 43.737l-13.342 12.623-.932-1.206 14.274-13.506 14.274 13.506-.931 1.206-13.343-12.623zm0-33.642l-28.365 26.837-.932-1.206 29.297-27.719 29.297 27.719-.929 1.205-28.368-26.836zm0-33.372l-43.39 41.51-.932-1.935 44.322-41.933 44.323 41.933-.932 1.935-43.391-41.51zm0-33.912l-60.425 57.169.751.969-36.561-34.591-36.554 34.583 6.075-7.859 30.455-28.789.013.015.024-.024 30.608 28.957 4.258 5.534 61.356-58.052 59.345 56.148-.931 1.205-58.414-55.265zm0-33.641l-73.436 69.48-.932-1.027 74.368-70.541L1901.5 399.2l-.932 1.027-73.439-69.48zm89.394 48.846l-.932 1.206-88.462-83.694-88.461 83.694-.932-1.206 89.393-84.423 89.394 84.423zM1730.894 239.94l-60.414 58.02.748.67-36.573-35.166-35.775 35.126-.046-.63-1.664-2.437 1.804 1.389 5.192-6.712 30.489-28.825 30.636 28.982 4.257 5.534 61.322-58.016.013.015.024-.024 59.318 56.123-.931 1.205-58.4-55.254zm0-33.642l-73.428 69.468-.932-1.205 74.336-70.327.013.016.027-.024 74.341 70.335-.932 1.205-73.425-69.468zm-51.916-17.343l-.518 1.206-43.805-41.051-43.387 41.051-.932-1.206 44.319-41.735 44.323 41.735zm-72.688 20.634l-.932-1.207 29.297-27.718 29.3 27.718-.725 1.207-28.575-26.837-28.365 26.837zm28.365 6.805l-13.342 12.776-.932-1.359 14.274-13.506 14.275 13.506-.932 1.359-13.343-12.776zm-96.246-45.787l.024-.024 89.369 84.55-.931 1.206-88.451-83.682-88.451 83.682-.599-1.206 89.026-84.541.013.015zm-51.905 18.348l-.932 1.206-43.391-41.051-43.387 41.051-.932-1.206 44.319-41.735 44.323 41.735zm-140.569-18.348l.024-.024 89.37 84.55-.932 1.206-88.451-83.682-88.451 83.682-.932-1.206 89.359-84.541.013.015zm-51.635 18.348l-.32 1.206-44.27-41.051-43.39 41.051-.932-1.206 44.322-41.735 44.59 41.735zm-51.445 66.178l-.932 1.206-88.451-83.682-88.232 83.682-.35-1.207 88.582-84.564 89.383 84.565zm-141.296-66.177l-.932 1.205-43.39-41.051-43.391 41.051-.932-1.206 44.323-41.735 44.322 41.736zm-51.178 66.177l-.932 1.206-88.451-83.682-88.448 83.682-.932-1.206 89.38-84.565 89.383 84.565zM909.85 188.955l-1.697 1.206-43.39-41.051-43.391 41.051-.932-1.206 44.323-41.735 45.087 41.735zm-51.943 66.178l-.932 1.206-88.448-83.682-87.767 83.682-1.615-1.206 89.379-84.565 89.383 84.565zm-141.296-66.178l-.932 1.206-43.39-41.051-43.391 41.051-.932-1.206 44.323-41.735 44.322 41.735zm-51.178 66.178l-.932 1.206-87.971-83.682-88.928 83.682-.931-1.206 89.859-84.565 88.903 84.565zm-141.296-66.178l-.931 1.206-43.391-41.051-43.391 41.051-.932-1.206 44.323-41.735 44.322 41.735zm-51.178 66.178l-.659 1.205-88.721-83.681-88.451 83.682-.931-1.206 89.381-84.565 89.381 84.565zm-141.294-66.178l-.933 1.206-43.39-41.051-43.39 41.051-.752-1.206 44.142-41.735 44.323 41.735zm-51.178 66.178l-.932 1.206-88.449-83.682-88.45 83.682-.933-1.206 89.383-84.565 89.381 84.565zm-229.94-66.178l44.322-41.735 44.322 41.735-.932 1.206-43.39-41.051-43.39 41.051-.932-1.206zm15.023 19.427l29.299-27.718 29.298 27.718-.932 1.207-28.366-26.837-28.367 26.837-.932-1.207zm15.024 19.429l14.275-13.506 14.274 13.506-.932 1.349-13.342-12.766-13.343 12.776-.932-1.359zm37.085 47.955l-.932-1.205 74.359-70.351 74.357 70.351-.932 1.205-73.425-69.468-73.427 69.468zm141.297-66.177l-.536-1.207 28.902-27.718 29.299 27.718-.932 1.206-28.367-26.836-28.366 26.837zm28.366 6.805L274 229.17l-.32-1.359 13.662-13.506 14.273 13.506-.931 1.359-13.342-12.776zM59.189 296.912l5.19-6.712 30.49-28.825 30.631 28.982 4.259 5.534 61.347-58.04 61.344 58.04 4.403-5.691 30.489-28.825 30.631 28.982 4.26 5.534 61.346-58.04 59.332 56.138-.932 1.205-58.4-55.254-60.414 58.02.745.63-36.568-35.126-36.574 35.196.75-.7-60.412-58.02-60.415 58.02.745.63-36.567-35.126-36.572 35.166 1.163-.67-2.084-2.444 1.813 1.396zM5.475 379.593l89.394-84.423 89.393 84.423-.933 1.206-88.46-83.694-88.462 83.694-.932-1.206zm15.956 20.634l-.932-1.027 74.37-70.541 74.369 70.541-.932 1.027-73.437-69.48-73.438 69.48zm169.675-14.381l30.621 28.972 1.495 1.959 2.764 3.573 61.356-58.05 59.346 56.148-.932 1.205-58.414-55.265-60.426 57.169.748.967-36.558-34.589-36.554 34.583 6.076-7.859 30.478-28.813zm89.381 118.684l-.932.729-88.449-83.682-88.45 83.682-.934-.729 89.384-85.042 89.381 85.042zm-229.94-66.655l44.322-41.933 44.322 41.933-.932 1.935-43.39-41.51-43.39 41.51-.932-1.935zm15.023 19.428l29.299-27.719 29.298 27.719-.932 1.206-28.366-26.837-28.367 26.837-.932-1.206zm15.024 19.428l14.275-13.506 14.274 13.506-.932 1.205-13.342-12.622-13.343 12.623-.932-1.206zm-21.405 69.1l5.19-6.711 30.49-28.825 30.631 28.982 4.259 5.533 61.347-58.038 59.332 56.136-.931 1.206-58.401-55.254-60.415 57.3.745.818-36.567-34.596-36.571 34.6 1.162-.822-2.081-1.721 1.81 1.392zm118.586 56.566l-.932-1.205 14.263-13.495 14.261 13.494-.931 1.206-13.33-12.612-13.331 12.612zm13.345-47.717l29.272 27.084-.933 1.206-28.353-26.827-28.355 26.827-.932-1.206 29.401-27.63.15.016-.25.53zm-44.325 7.656l44.415-41.842.16.017-.248-.083 44.292 41.908-.931 1.206-43.377-41.04-43.379 41.04-.932-1.206zm223.453 40.061l-.931-1.205 14.262-13.495 14.262 13.494-.931 1.206-13.331-12.612-13.331 12.612zm192.473 0l-.931-1.205 14.74-13.495 13.784 13.494-.932 1.206-12.852-12.612-13.809 12.612zm192.474 0l-.932-1.205 14.264-13.495 14.261 13.494-.932 1.206-13.329-12.612-13.332 12.612zm192.474 0l-.931-1.205 14.362-13.495 14.162 13.494-.932 1.206-13.332-12.612-13.329 12.612zm192.474 0l-.932-1.205 14.264-13.495 14.261 13.494-.932 1.206-13.332-12.612-13.329 12.612zm192.474 0l-.932-1.205 14.234-13.469.016.014.024-.025 14.25 13.479-.931 1.206-13.332-12.612-13.329 12.612zm193.263-.002l-1.721-1.203 14.237-13.471.013.015.024-.024 14.25 13.479-.931 1.206-13.332-12.612-12.54 12.61zm12.612-48.27l29.214 27.639-.932 1.206-28.354-26.827-27.76 26.827-1.526-1.206 29.202-27.63.073.082.083-.091zm-44.381 8.211l44.225-41.842.073.083.083-.094 44.237 41.853-.932 1.206-43.377-41.04-42.99 41.04-1.319-1.206zm-147.921-8.211l29.042 27.639-.931 1.206-28.355-26.827-28.355 26.827-.931-1.206 29.203-27.63.072.082.255-.091zm-44.553 8.211l44.226-41.842.072.083.255-.094 44.065 41.853-.932 1.206-43.377-41.04-43.377 41.04-.932-1.206zm-118.879 19.428l-.932 1.206-28.354-26.827-28.354 26.827-.932-1.206 29.286-27.214 29.286 27.214zm-73.595-19.428l44.309-41.923 44.309 41.923-.932 1.206-43.377-41.04-42.522 41.04-1.787-1.206zm429.257-73.476l-59.82 57.3.154.823-36.573-34.601-36.564 34.596.743-.818-60.414-57.3-60.414 57.3.74.814-36.562-34.592-36.575 34.605.751-.827-60.414-57.3-59.862 57.3.199.823-36.572-34.601-36.576 34.605.751-.827-1.674-1.727 1.817 1.398 5.189-6.713 30.493-28.823 30.632 28.982 4.257 5.533 61.346-58.038 61.346 58.038 4.4-5.69 30.492-28.825 30.633 28.982 4.257 5.533 61.322-58.014.013.014.024-.024 61.333 58.024 4.4-5.69 30.489-28.825 30.636 28.982 4.923 5.533 60.656-58.014.013.014.024-.024 59.318 56.122-.929 1.205-58.402-55.253zm0-33.641l-73.428 69.465-.362-1.203 73.766-70.327.013.015.024-.025 74.344 70.337-.932 1.205-73.425-69.467zm0-33.642l-88.451 83.682-.599-.729 89.026-85.018.013.015.024-.025 89.369 85.028-.931.729-88.451-83.682zm96.235 43.737l-13.342 12.623-.932-1.206 14.274-13.506 14.275 13.506-.932 1.206-13.343-12.623zm0-33.642l-28.365 26.837-.932-1.206 29.297-27.719 29.3 27.719-.725 1.206-28.575-26.837zm0-33.372l-43.387 41.51-.932-1.935 44.319-41.933 44.323 41.933-.518 1.935-43.805-41.51zm0-33.912l-60.424 57.169.745.962-36.556-34.584-36.554 34.583 6.075-7.859 30.455-28.789.013.015.024-.024 30.977 28.957 3.889 5.534 61.356-58.052 59.445 56.148-.38 1.206-59.065-55.266zm0-33.641l-73.436 69.48-.932-1.027 74.368-70.541 74.605 70.541-.32 1.027-74.285-69.48zm-599.3-56.186l-.931 1.205-73.426-69.468-73.425 69.468-.932-1.205 74.357-70.351 74.357 70.351zm-192.474 0l-.929 1.204-73.425-69.467-72.537 69.468-1.823-1.205 74.357-70.351 74.357 70.351zm-192.471 0l-.931 1.205-72.949-69.468-73.905 69.468-.932-1.205L576.5 204.21l73.91 70.351zm-81.202 105.032l-.931 1.206-88.462-83.694-88.46 83.694-.934-1.206 89.394-84.423 89.393 84.423zm-141.32-66.177l-.932 1.206-43.377-41.041-43.378 41.039-.932-1.204 44.31-41.923 44.309 41.923zm-213.983 86.811l-.932-1.027 74.369-70.541 74.37 70.541-.933 1.027-73.437-69.48-73.437 69.48zm141.32-65.737l-.932-1.647 29.286-27.708 29.287 27.708-.934 1.657-28.353-27.277-28.354 27.267zm28.354 6.375l-13.331 12.612-.932-1.207 14.263-13.493 14.262 13.493-.931 1.207-13.331-12.612zm-.001 44.981l30.622 28.972 4.258 5.534 61.357-58.052 59.345 56.148-.932 1.205-58.413-55.265-60.425 57.169.751.969-36.562-34.591-36.379 34.589 5.9-7.865 30.478-28.813zm89.381 118.684l-.659.728-88.721-83.681-88.451 83.682-.933-.729 89.383-85.042 89.381 85.042zM243.2 437.875l44.142-41.933 44.323 41.933-.933 1.935-43.39-41.51-43.39 41.51-.752-1.935zm15.24 19.428l28.902-27.719 29.299 27.719-.932 1.205-28.367-26.836-28.366 26.837-.536-1.206zm15.24 19.428l13.662-13.506 14.273 13.506-.931 1.206-13.342-12.623L274 477.937l-.32-1.206zm36.473 47.955l-.932-1.205 74.357-70.351 74.359 70.351-.437 1.205-73.921-69.467-73.426 69.467zm650.845-69.467l-73.425 69.467-.932-1.205 74.357-70.351 74.357 70.351-.931 1.205-73.426-69.467zm0-33.642l-88.448 83.682-.932-.729 89.38-85.042 89.383 85.042-.932.729-88.451-83.682zm82.896 56.36l-.932-1.206 14.275-13.506 14.274 13.506-.932 1.206-13.342-12.623-13.343 12.623zm192.474 0l-.932-1.206 14.274-13.506 14.272 13.506-.452 1.205-13.82-12.622-13.342 12.623zm205.813-12.623l-13.342 12.622-.929-1.205 14.271-13.506 14.275 13.506-.932 1.206-13.343-12.623zm0-33.642l-28.365 26.837-.931-1.206 29.296-27.719 29.3 27.719-.931 1.206-28.369-26.837zm0-33.372l-43.387 41.51-.932-1.935 44.319-41.933 44.323 41.933-.932 1.935-43.391-41.51zm0-33.912l-60.424 57.17.746.961-36.557-34.584-36.554 34.583 6.075-7.859 30.455-28.789.013.015.024-.024 30.609 28.957 4.257 5.534 61.356-58.052 59.348 56.15-.931 1.204-58.417-55.266zm0-33.641l-73.436 69.48-.931-1.027 74.367-70.541 74.371 70.541-.932 1.027-73.439-69.48zm-96.246-59.215l.024-.024 44.296 41.908-.932 1.206-43.377-41.041-43.377 41.039-.932-1.204 44.285-41.899.013.015zm-28.344 62.958l-.931-1.647 29.262-27.684.013.012.024-.023 29.273 27.695-.931 1.647-28.355-27.267-28.355 27.267zm28.355 6.375l-13.329 12.612-.932-1.207 14.234-13.468.016.015.024-.025 14.25 13.478-.931 1.207-13.332-12.612zm-6.842 38.726l-.935 1.208-88.459-83.694-88.461 83.694-.932-1.206 89.393-84.423 89.394 84.421zm-141.323-66.175l-.932 1.206-43.377-41.041-42.522 41.039-1.787-1.204 44.309-41.923 44.309 41.923zm-51.151 66.177l-.932 1.206-88.461-83.694-88.462 83.694-.932-1.206 89.394-84.423 89.393 84.423zm-141.323-66.177l-.929 1.204-43.38-41.039-43.377 41.039-.932-1.204 44.309-41.923 44.309 41.923zm-51.151 66.177l-.932 1.206-88.461-83.694-88.462 83.694-.932-1.206 89.394-84.423 89.393 84.423zm-141.32-66.177l-.932 1.206-43.377-41.041-43.38 41.039-.931-1.204 44.308-41.923 44.312 41.923zm-51.154 66.177l-.932 1.206-88.461-83.694-88.462 83.694-.932-1.206 89.394-84.423 89.393 84.423zm-229.94-66.177l44.788-41.923 43.832 41.923-.932 1.206-42.9-41.041-43.857 41.039-.931-1.204zm15.025 19.427l29.763-27.708 28.809 27.707-.934 1.658-27.875-27.277-28.831 27.267-.932-1.647zm15.023 19.427l14.74-13.493 13.784 13.493-.932 1.207-12.852-12.612-13.809 12.612-.931-1.207zm97.156 125.667l-.796-1.206 14.139-13.506 14.274 13.506-.932 1.206-13.342-12.623-13.343 12.623zm42.64-20.634l-.932 1.206-28.365-26.837-28.366 26.837-.931-1.206 29.297-27.719 29.297 27.719zm-73.62-19.428l44.323-41.933 44.322 41.933-.932 1.935-43.39-41.51-43.391 41.51-.932-1.935zm236.797 27.439l-13.343 12.623-.932-1.206 14.275-13.506 14.607 13.506-1.265 1.206-13.342-12.623zm0-33.642l-28.366 26.837-.931-1.206 29.297-27.719 29.837 27.719-1.472 1.206-28.365-26.837zm0-33.372l-43.391 41.51-.932-1.935 44.323-41.933 45.087 41.933-1.697 1.935-43.39-41.51zm-265.911 1.927l-.931-1.027 74.368-70.541 74.37 70.531-.934 1.037-73.436-69.48-73.437 69.48zm140.389-67.384l29.286-27.708 29.284 27.708-.932 1.647-28.352-27.267-28.354 27.267-.932-1.647zm29.286 8.022l-13.332 12.612-.932-1.207 14.261-13.493 14.264 13.493-.932 1.207-13.329-12.612zm96.236 23.523l-60.425 57.169 1.552.969-37.363-34.591-36.565 34.593 6.019-7.784 30.543-28.898 30.625 28.972 1.494 1.959 2.763 3.573 61.357-58.05 59.345 56.148-.932 1.205-58.413-55.265zm-73.439 35.839l-.932-1.027 74.371-70.541 74.37 70.531-.934 1.037-73.436-69.48-73.439 69.48zm141.32-65.757l-.929-1.627 29.385-27.708 29.184 27.708-.931 1.647-28.355-27.267-28.354 27.247zm28.354 6.395l-13.329 12.612-.931-1.207 14.362-13.493 14.162 13.493-.932 1.207-13.332-12.612zm22.8 59.362l-.932-1.027 74.371-70.541 74.367 70.541-.931 1.027-73.436-69.48-73.439 69.48zm141.32-65.737l-.932-1.647 29.286-27.708 29.286 27.708-.932 1.647-28.354-27.267-28.354 27.267zm28.354 6.375l-13.329 12.612-.932-1.207 14.261-13.493 14.264 13.493-.932 1.207-13.332-12.612zm22.799 59.362l-.931-1.027 74.37-70.541 75.07 70.541-1.633 1.027-73.437-69.48-73.439 69.48zm103.429 57.076l-.94 1.206-29.05-26.837-28.368 26.837-.931-1.206 29.299-27.719 29.99 27.719zm-74.312-19.428l44.322-41.933 44.59 41.933-.32 1.935-44.27-41.51-43.39 41.51-.932-1.935zm-51.916-49.94l-36.554 34.583 3.983-5.152 2.092-2.707 30.479-28.813 31.498 28.972.618 1.959 2.766 3.573 61.356-58.05 59.84 56.15-1.426 1.203-58.414-55.265-60.427 57.17 1.007.961-36.818-34.584zm-66.938 69.368l-.932 1.206-28.365-26.837-28.366 26.837-.934-1.208 29.3-27.717 29.297 27.719zm-73.62-19.428l44.323-41.933 44.322 41.934-.932 1.934-43.39-41.51-43.391 41.51-.932-1.935zm-51.916-49.94l-36.559 34.59 3.988-5.159 2.092-2.707 30.479-28.813 30.625 28.972 1.494 1.959 2.763 3.573 61.357-58.05 59.345 56.148-.932 1.205-58.413-55.265-60.426 57.169.752.972-36.565-34.594zM841.952 524.684l-73.425-69.465-72.537 69.467-1.823-1.205 74.357-70.351 74.357 70.351-.929 1.203zM679.145 504.53l89.379-85.042 89.383 85.042-.932.729-88.448-83.682-87.767 83.682-1.615-.729zm-29.666 20.156l-72.949-69.467-73.905 69.467-.932-1.205L576.5 453.13l73.91 70.351-.931 1.205zm15.954-20.156l-.932.729-87.971-83.682-88.928 83.682-.931-.729 89.859-85.042 88.903 85.042zm-229.941-66.655l44.323-41.933 44.322 41.933-.931 1.935-43.391-41.51-43.391 41.51-.932-1.935zm59.398 38.856l-1.733 1.206-13.342-12.623-13.343 12.623-.931-1.206 14.274-13.506 15.075 13.506zm-44.372-19.428l29.297-27.719 29.297 27.719-.929 1.205-28.368-26.836-28.365 26.837-.932-1.206zm-44.141-57.076l-.932-1.027 74.37-70.541 74.37 70.531-.934 1.037-73.436-69.48-73.438 69.48zm200.298 14.591l1.492 1.959 2.765 3.573 61.357-58.05 59.345 56.148-.932 1.205-58.413-55.265-60.425 57.169.751.969-36.085-34.591-37.042 34.591 6.086-7.865 30.926-28.815 30.175 28.972zm835.506-117.713l-88.458 83.694-.935-1.208 89.393-84.421 89.397 84.421-.935 1.208-88.462-83.694zm96.239 43.76l-12.54 12.61-1.721-1.205 14.237-13.469.013.015.024-.024 14.25 13.478-.931 1.207-13.332-12.612zm-42.99-26.245l-1.319-1.204 44.285-41.899.013.015.024-.024 44.296 41.908-.932 1.206-43.377-41.041-42.99 41.039zm42.99-7.397l-27.76 27.267-1.526-1.647 29.262-27.684.013.012.024-.023 29.273 27.695-.932 1.647-28.354-27.267zm-192.461 145.921l74.344 70.337-.931 1.205-73.426-69.467-73.426 69.467-.931-1.205 74.333-70.327.013.015.024-.025zm-89.396 51.386l89.359-85.018.013.015.024-.025 89.37 85.028-.932.729-88.451-83.682-88.451 83.682-.932-.729zm-28.734 18.951l-.932 1.205-73.425-69.467-73.002 69.467-1.355-1.205 74.357-70.351 74.357 70.351zM1064.89 504.52l88.582-85.032 89.383 85.042-.932.729-88.451-83.682-88.232 83.682-.35-.739zm-74.606 77.244l-.931 1.206-28.355-26.827-28.354 26.825-.929-1.204L961.1 554.55l29.184 27.214zm-73.595-19.428l44.309-41.923 44.309 41.923-.929 1.204-43.38-41.038-43.377 41.04-.932-1.206zm-86.879-16.505l4.46-6.713 30.493-28.823 30.632 28.982 4.26 5.533 61.343-58.038 59.335 56.136-.932 1.206L961.1 488.86l-60.513 57.3.748.823-36.572-34.601-36.576 34.604.752-.826-1.673-1.727 2.544 1.398zm-31.999 35.933l-.932 1.206-28.352-26.827-28.354 26.827-.932-1.206 29.286-27.214 29.284 27.214zm-73.595-19.428l44.308-41.923 44.312 41.923-.932 1.206-43.377-41.04-43.38 41.04-.931-1.206zm-87.609-16.505l5.189-6.713 30.493-28.823 30.632 28.982 4.26 5.533 61.343-58.038 59.335 56.136-.932 1.206-58.4-55.254-60.414 57.3.748.823-36.572-34.601-36.576 34.604.752-.826-1.673-1.727 1.815 1.398zm-31.268 35.931l-.934 1.208-27.875-26.827-28.831 26.827-.932-1.206 29.763-27.214 28.809 27.212zm-73.597-19.426l44.788-41.923 43.832 41.923-.932 1.206-42.9-41.04-43.857 41.04-.931-1.206zm-87.608-16.505l5.191-6.711 30.49-28.825 30.632 28.982 4.26 5.533 61.823-58.038 58.855 56.136-.932 1.206-57.923-55.254-60.891 57.3.749.822-36.573-34.6-36.576 34.605.752-.827-1.672-1.727 1.815 1.398zm-60.483 8.292l29.215 27.641-.934 1.206-28.353-26.827-28.354 26.827-.932-1.206 29.261-26.974.071-.64.026-.027zm-44.382 8.213l44.283-41.897.073.072.027-.028 44.236 41.853-.932 1.206-43.377-41.04-43.378 41.04-.932-1.206zm-221.59-37.65l-.932-1.205 74.359-70.351 74.357 70.351-.932 1.205-73.425-69.467-73.427 69.467zm200.294 14.591l4.26 5.533 61.346-58.038 59.332 56.136-.932 1.206-58.4-55.254-60.414 57.3.743.816-36.566-34.594-36.572 34.603.748-.825-1.669-1.724 1.812 1.395 5.192-6.711 30.489-28.825 30.631 28.982zm58.763-159.684l-.933 1.206-88.461-83.694-88.461 83.694-.932-1.206 89.393-84.423 89.394 84.423zm-229.941-66.177l44.311-41.923 44.308 41.923-.931 1.206-43.377-41.041-43.379 41.039-.932-1.204zm58.572 38.854l-.931 1.207-13.33-12.612-13.331 12.612-.932-1.207 14.263-13.493 14.261 13.493zm-43.548-19.427l29.287-27.708 29.286 27.707-.933 1.658-28.353-27.277-28.355 27.267-.932-1.647zm148.334-57.077l-.932-1.205 74.357-70.351 74.359 70.351-.437 1.205-73.921-69.468-73.426 69.468zm204.554 20.125l61.823-58.04 58.855 56.138-.932 1.205-57.923-55.254-60.891 58.02.749.67-36.573-35.166-36.576 35.206.752-.71-1.675-2.448 1.818 1.4 5.191-6.712 30.49-28.825 30.632 28.982 4.26 5.534zm-63.257-86.302l-.932-1.207 29.297-27.718 29.297 27.718-.929 1.206-28.368-26.836-28.365 26.837zm28.365 6.805l-13.343 12.776-.931-1.359 14.274-13.506 15.075 13.506-1.733 1.359-13.342-12.776zm227.366 79.497l61.343-58.04 59.335 56.138-.932 1.205-58.4-55.254-60.414 58.02.748.67-36.572-35.166-36.576 35.206.752-.71-1.675-2.449 1.817 1.399 5.189-6.712 30.493-28.823 30.632 28.982 4.26 5.534zm-63.258-86.302l-.931-1.207 29.297-27.718 29.297 27.718-.932 1.207-28.365-26.837-28.366 26.837zm28.366 6.805l-13.343 12.776-.796-1.359 14.139-13.506 14.274 13.506-.932 1.359-13.342-12.776zm227.366 79.497l61.343-58.04 59.335 56.138-.932 1.205L961.1 239.94l-60.513 58.02.748.67-36.572-35.166-36.576 35.206.752-.71-1.675-2.449 2.546 1.399 4.46-6.712 30.493-28.823 30.632 28.982 4.26 5.534zm-63.258-86.302l-.931-1.207 29.297-27.718 29.837 27.718-1.472 1.207-28.365-26.837-28.366 26.837zm28.366 6.805L851.42 229.17l-.932-1.359 14.275-13.506 14.607 13.506-1.265 1.359-13.342-12.776zm164.108-6.805l-.934-1.208 29.3-27.717 29.297 27.718-.932 1.207-28.365-26.837-28.366 26.837zm28.366 6.805l-13.343 12.776-.932-1.359 14.275-13.506 14.274 13.506-.932 1.359-13.342-12.776zm23.233 59.372l-1.355-1.205 74.357-70.351 74.357 70.351-.932 1.205-73.425-69.468-73.002 69.468zm140.872-66.177l-.931-1.207 29.299-27.718 29.99 27.718-.94 1.207-29.05-26.837-28.368 26.837zm28.368 6.805l-13.342 12.776-.932-1.359 14.274-13.506 14.272 13.506-.452 1.349-13.82-12.766zm22.81 59.372l-.931-1.205 74.333-70.327.013.014.024-.023 74.344 70.336-.931 1.205-73.426-69.468-73.426 69.468zm141.296-66.177l-.931-1.207 29.296-27.718 29.3 27.718-.931 1.207-28.369-26.837-28.365 26.837zm28.365 6.805l-13.342 12.766-.929-1.349 14.271-13.506 14.275 13.506-.932 1.359-13.343-12.776zm22.811 59.371l-.362-1.204 73.766-70.327.013.014.024-.023 74.344 70.336-.932 1.205-73.425-69.468-73.428 69.467zm73.428-35.825l-59.82 58.02.154.67-36.573-35.166-36.567 35.126.746-.63-60.414-58.02-60.414 58.02.74.58-36.562-35.076-36.575 35.216.751-.72-60.414-58.02-59.862 58.02.199.67-36.572-35.166-36.576 35.216.751-.72-1.677-2.451 1.82 1.401 5.189-6.712 30.493-28.823 30.632 28.982 4.257 5.534 61.346-58.04 61.346 58.04 4.4-5.693 30.492-28.823 30.633 28.982 4.257 5.534 61.322-58.016.013.015.024-.024 61.333 58.025 4.4-5.693 30.489-28.823 30.636 28.982 4.923 5.534 60.656-58.016.013.015.024-.024 59.318 56.123-.929 1.204-58.402-55.253zm96.235 57.165l-88.461 83.694-.932-1.206 89.393-84.423 89.835 84.423-1.373 1.206-88.462-83.694zm96.239 43.76l-13.332 12.612-.932-1.207 14.24-13.469.013.015.024-.024 14.247 13.478-.931 1.207-13.329-12.612zm-43.378-26.245l-.934-1.206 44.288-41.897.013.016.027-.024 44.293 41.907-.932 1.206-43.377-41.041-43.378 41.039zm43.378-7.397l-28.355 27.267-.931-1.647 29.262-27.684.013.012.024-.023 29.273 27.694-.934 1.648-28.352-27.267zm0 282.562l-13.332 12.612-.932-1.205 14.24-13.471.013.015.024-.024 14.247 13.479-.931 1.206-13.329-12.612zm-43.378-26.243l-.934-1.208 44.228-41.84.073.085.086-.095 44.234 41.852-.932 1.206-43.377-41.04-43.378 41.04zm43.378-7.399l-28.355 26.827-.931-1.206 29.202-27.63.073.082.083-.091 29.214 27.637-.932 1.206-28.354-26.825zm-21.634 91.797l-.32 1.207-74.285-69.48-73.436 69.48-.932-1.207 74.368-70.362 74.605 70.362zm-163.998-19.428l89.393-84.575 89.835 84.575-1.373 1.207-88.462-83.459-88.461 83.459-.932-1.207zm-28.71 19.428l-.932 1.207-73.439-69.48-73.436 69.48-.931-1.207 74.367-70.362 74.371 70.362zm-163.764-19.429l89.393-84.574 89.397 84.574-.935 1.208-88.462-83.459-88.458 83.459-.935-1.208zm-28.008 19.429l-1.633 1.207-73.437-69.48-73.439 69.48-.931-1.207 74.37-70.362 75.07 70.362zm-164.463-19.428l89.393-84.575 89.394 84.574-.935 1.208-88.459-83.459-88.461 83.459-.932-1.207zm-28.713 19.428l-.931 1.207-73.436-69.48-73.439 69.48-.932-1.207 74.371-70.362 74.367 70.362zm-163.761-19.428l89.394-84.575 89.393 84.575-.932 1.207-88.461-83.459-88.462 83.459-.932-1.207zm-28.71 19.427l-.934 1.208-73.436-69.48-73.439 69.48-.932-1.207 74.371-70.362 74.37 70.361zm-163.764-19.427l89.394-84.575 89.393 84.575-.932 1.207-88.461-83.459-88.462 83.459-.932-1.207zm-28.71 19.427l-.934 1.208-73.436-69.48-73.437 69.48-.931-1.207 74.368-70.362 74.37 70.361zm-163.764-19.427l89.394-84.575 89.393 84.575-.932 1.207-88.461-83.459-88.462 83.459-.932-1.207zm-28.71 19.427l-.934 1.208-73.436-69.48-73.438 69.48-.932-1.207 74.37-70.362 74.37 70.361zm-163.764-19.427l89.394-84.575 89.393 84.575-.931 1.207-88.462-83.459-88.46 83.459-.934-1.207zm-28.709 19.428l-.933 1.207-73.437-69.48-73.437 69.48-.932-1.207 74.369-70.362 74.37 70.362zm-163.763-19.428l89.393-84.575 89.394 84.575-.933 1.207-88.461-83.459-88.461 83.459-.932-1.207zm-28.711 19.428l-.932 1.207-73.437-69.48-73.438 69.48-.932-1.207 74.37-70.362 74.369 70.362zM5.475 628.512l89.394-84.575 89.393 84.575-.933 1.207-88.46-83.459-88.462 83.459-.932-1.207zm1725.419-455.855l-88.451 83.682-.932-1.206 89.359-84.541.013.016.027-.024 89.364 84.549-.929 1.205-88.451-83.681zm96.235 43.737l-13.342 12.776-.932-1.359 14.274-13.506 14.274 13.506-.931 1.359-13.343-12.776zm0-33.642l-28.365 26.837-.932-1.207 29.297-27.718 29.297 27.718-.929 1.206-28.368-26.836zm0-33.642l-43.39 41.051-.932-1.206 44.322-41.735 44.323 41.735-.932 1.206-43.391-41.051zm0-33.642l-60.425 57.169.754.973-36.564-34.46-36.57 34.464 2.588-3.343 3.503-4.531 30.455-28.79.013.015.024-.024 30.608 28.956 4.258 5.535 61.356-58.052 59.345 56.148-.931 1.205-58.414-55.265zm0-33.641l-73.436 69.48-.932-1.207 74.368-70.362L1901.5 150.1l-.932 1.207-73.439-69.48zm89.394 48.845l-.932 1.206-88.462-83.693-88.461 83.693-.932-1.206 89.393-83.702 89.394 83.702zm-185.64-74.296l.083-.092 29.214 27.638-.932 1.206-28.354-26.825-28.355 26.826-.931-1.205 29.202-27.63.073.082zm-.013 33.505l.013.014.024-.024 14.247 13.479-.931 1.206-13.329-12.611-13.332 12.611-.932-1.205 14.24-13.47zm-21.61 60.219l-.32 1.207-74.285-69.48-73.436 69.48-.932-1.207 74.368-70.362 74.605 70.362zm15.23-19.428l-1.373 1.206-88.462-83.693-88.461 83.693-.932-1.206 89.393-83.702 89.835 83.702zm-186.081-74.296l.083-.092 29.214 27.64-.932 1.205-28.354-26.826-27.76 26.826-1.526-1.205 29.202-27.63.073.082zm-.013 33.505l.013.014.024-.024 14.25 13.479-.931 1.206-13.332-12.611-12.54 12.61-1.721-1.204 14.237-13.47zm-21.844 60.219l-.932 1.207-73.439-69.48-73.436 69.48-.931-1.207 74.367-70.362 74.371 70.362zm15.026-19.429l-.935 1.207-88.462-83.693-88.458 83.693-.935-1.207 89.393-83.701 89.397 83.701zm-185.643-74.295l.255-.092 29.042 27.64-.931 1.205-28.355-26.826-28.355 26.826-.931-1.205 29.203-27.63.072.082zm-.016 33.506l.016.015.024-.026 14.25 13.479-.931 1.206-13.332-12.611-13.329 12.611-.932-1.205 14.234-13.469zM1324.78 150.1l-1.633 1.207-73.437-69.48-73.439 69.48-.931-1.207 74.37-70.362 75.07 70.362zm14.324-19.429l-.935 1.207-88.459-83.693-88.461 83.693-.932-1.206 89.393-83.702 89.394 83.701zm-156.346-46.747l-.932 1.205-28.354-26.826-28.354 26.826-.932-1.205 29.286-27.709 29.286 27.709zm-29.283 5.932l14.261 13.494-.932 1.206-13.332-12.611-13.329 12.611-.932-1.205 14.264-13.495zm-21.871 60.244l-.931 1.207-73.436-69.48-73.439 69.48-.932-1.207 74.371-70.362 74.367 70.362zm15.026-19.428l-.932 1.206-88.461-83.693-88.462 83.693-.932-1.206 89.394-83.702 89.393 83.702zM990.284 83.924l-.931 1.205-28.355-26.826-28.354 26.825-.929-1.204L961.1 56.215l29.184 27.709zM961.1 89.856l14.162 13.494-.932 1.206-13.332-12.611-13.329 12.611-.931-1.205L961.1 89.856zm-21.967 61.134l-.934.317-73.436-69.48-73.439 69.48-.932-1.207 74.371-70.362 74.37 71.252zm15.023-20.318l-.932 1.206-88.461-83.693-88.462 83.693-.932-1.206 89.394-83.702 89.393 83.702zM797.811 83.924l-.932 1.205-28.352-26.826-28.354 26.826-.932-1.205 29.286-27.709 29.284 27.709zm-29.284 5.932l14.261 13.494-.932 1.206-13.329-12.611-13.332 12.611-.932-1.205 14.264-13.495zm-21.868 61.134l-.934.317-73.436-69.48-73.437 69.48-.931-1.207 74.368-70.362 74.37 71.252zm15.023-20.318l-.932 1.206-88.461-83.693-88.462 83.693-.932-1.206 89.394-83.702 89.393 83.702zm-156.343-46.75l-.934 1.207-27.875-26.826-28.831 26.826-.932-1.205 29.763-27.709 28.809 27.707zm-28.809 5.934l13.784 13.494-.932 1.206-12.852-12.611-13.809 12.611-.931-1.205 14.74-13.495zm-22.345 61.134l-.934.317-73.436-69.48-73.438 69.48-.932-1.207 74.37-70.362 74.37 71.252zm15.023-20.318l-.931 1.206-88.462-83.693-88.46 83.693-.934-1.206 89.394-83.702 89.393 83.702zM383.625 56.31l.026-.027 29.215 27.641-.934 1.205-28.353-26.826-28.354 26.826-.932-1.205 29.261-27.685.071.071zm-.046 33.546l14.262 13.494-.931 1.206-13.331-12.611-13.331 12.611-.931-1.205 14.262-13.495zM361.712 150.1l-.933 1.207-73.437-69.48-73.437 69.48-.932-1.207 74.369-70.362 74.37 70.362zm15.024-19.428l-.933 1.206-88.461-83.693-88.461 83.693-.932-1.206 89.393-83.702 89.394 83.702zM191.37 56.31l-.25-.082 29.272 27.696-.933 1.205-28.353-26.826-28.355 26.826-.932-1.205 29.401-27.63.15.016zm-.264 33.546l14.261 13.494-.931 1.206-13.33-12.611-13.331 12.611-.932-1.205 14.263-13.495zM169.238 150.1l-.932 1.207-73.437-69.48-73.438 69.48-.932-1.207 74.37-70.362 74.369 70.362zM5.475 130.672L94.869 46.97l89.393 83.702-.933 1.206-88.46-83.693-88.462 83.693-.932-1.206zm1835.928 594.979l-.931 1.207-13.343-12.624-13.342 12.624-.932-1.207 14.274-13.506 14.274 13.506z"/></svg>