<svg width="120" height="121" fill="none" xmlns="http://www.w3.org/2000/svg"><path fill-rule="evenodd" clip-rule="evenodd" d="M59.989 120.994c-.375 0-.748-.004-1.12-.01a.593.593 0 01.022-1.185c1.347.026 2.718.005 4.066-.062a.583.583 0 01.615.561.591.591 0 01-.557.621c-1.002.049-2.02.075-3.026.075zm-5.21-.228c-.017 0-.034 0-.051-.002a59.338 59.338 0 01-4.116-.504.592.592 0 01.182-1.169c1.333.21 2.69.377 4.036.495a.59.59 0 01.533.64.588.588 0 01-.584.54zm12.297-.193a.589.589 0 01-.582-.522.59.59 0 01.514-.658 58.715 58.715 0 004.018-.624.584.584 0 01.686.471.592.592 0 01-.467.692 60.45 60.45 0 01-4.099.637.835.835 0 01-.07.004zm-20.404-1.09a.597.597 0 01-.132-.015 59.174 59.174 0 01-4.008-1.074.592.592 0 01.34-1.132c1.29.394 2.613.749 3.93 1.053a.592.592 0 01-.13 1.168zm28.467-.454a.592.592 0 01-.148-1.164 57.953 57.953 0 003.893-1.18.587.587 0 01.745.371.593.593 0 01-.368.75 59.534 59.534 0 01-3.972 1.204.592.592 0 01-.15.019zm-36.328-1.95a.592.592 0 01-.21-.04 59.485 59.485 0 01-3.825-1.628.593.593 0 01-.286-.785.583.583 0 01.78-.288 58.396 58.396 0 003.75 1.595.594.594 0 01-.209 1.146zm44.097-.703a.593.593 0 01-.226-1.138 59.012 59.012 0 003.69-1.71.584.584 0 01.787.263.594.594 0 01-.26.794 60.096 60.096 0 01-3.765 1.745.585.585 0 01-.226.046zm-51.552-2.782a.59.59 0 01-.282-.073 60.809 60.809 0 01-3.564-2.145.595.595 0 01-.175-.818.584.584 0 01.812-.177 59.37 59.37 0 003.493 2.103.594.594 0 01.231.804.586.586 0 01-.515.306zm58.88-.931a.584.584 0 01-.505-.29.595.595 0 01.205-.811 58.685 58.685 0 003.423-2.208.584.584 0 01.817.15.596.596 0 01-.15.824 60.009 60.009 0 01-3.491 2.253.581.581 0 01-.299.082zm-65.782-3.556a.577.577 0 01-.351-.118 60.39 60.39 0 01-3.236-2.618.594.594 0 01-.062-.834.583.583 0 01.827-.063 58.769 58.769 0 003.173 2.567.594.594 0 01-.351 1.066zm72.535-1.14a.582.582 0 01-.46-.223.596.596 0 01.094-.832 59.117 59.117 0 003.091-2.663.585.585 0 01.83.037.594.594 0 01-.037.836 60.504 60.504 0 01-3.153 2.716.587.587 0 01-.365.129zm-78.76-4.259a.584.584 0 01-.412-.171 61.42 61.42 0 01-2.849-3.038.595.595 0 01.052-.836.584.584 0 01.829.053 60.382 60.382 0 002.793 2.979c.23.23.233.605.005.837a.583.583 0 01-.418.176zm84.814-1.33a.581.581 0 01-.405-.163.596.596 0 01-.021-.837 59.099 59.099 0 002.702-3.066.584.584 0 01.826-.078c.25.21.284.582.077.834a61.272 61.272 0 01-2.754 3.127.584.584 0 01-.425.183zm-90.242-4.876a.585.585 0 01-.467-.231 61.601 61.601 0 01-2.407-3.403.595.595 0 01.165-.82.583.583 0 01.813.166 60.219 60.219 0 002.361 3.337c.198.26.149.63-.108.83a.582.582 0 01-.357.121zm95.479-1.498a.595.595 0 01-.476-.937 59.758 59.758 0 002.258-3.412.585.585 0 01.809-.192c.275.172.36.536.19.815a61.71 61.71 0 01-2.303 3.479.585.585 0 01-.478.247zM8.27 90.607a.586.586 0 01-.511-.3 60.543 60.543 0 01-1.919-3.702.594.594 0 01.275-.79.584.584 0 01.783.278 59.94 59.94 0 001.882 3.63.594.594 0 01-.51.885zm104.332-1.646a.593.593 0 01-.519-.868 60.264 60.264 0 001.77-3.694.587.587 0 111.074.477 60.565 60.565 0 01-1.806 3.769.587.587 0 01-.519.316zM4.726 83.153a.587.587 0 01-.546-.374 61.127 61.127 0 01-1.393-3.938.587.587 0 111.119-.36c.41 1.3.87 2.599 1.366 3.861a.594.594 0 01-.546.811zm111.19-1.772a.593.593 0 01-.552-.793c.456-1.277.874-2.59 1.243-3.903a.586.586 0 111.129.322 60.26 60.26 0 01-1.268 3.982.588.588 0 01-.552.392zM2.239 75.266a.588.588 0 01-.57-.452A60.628 60.628 0 01.83 70.72a.592.592 0 01.48-.683.588.588 0 01.677.484c.228 1.344.504 2.695.821 4.014a.592.592 0 01-.57.731zm115.914-1.848a.592.592 0 01-.575-.713c.276-1.333.509-2.691.694-4.038a.582.582 0 01.661-.505.59.59 0 01.501.667 60.676 60.676 0 01-.708 4.118.586.586 0 01-.573.47zM.861 67.109a.589.589 0 01-.584-.532 61.487 61.487 0 01-.27-4.172.59.59 0 01.568-.609.586.586 0 01.605.573c.042 1.359.13 2.735.265 4.09a.59.59 0 01-.584.65zm118.413-1.888l-.041-.001a.59.59 0 01-.546-.63 60.76 60.76 0 00.023-7.848.59.59 0 01.549-.627.582.582 0 01.622.554 61.778 61.778 0 01-.022 8.001.588.588 0 01-.585.55zM.607 58.839H.584a.589.589 0 01-.564-.614c.05-1.39.15-2.793.294-4.169a.591.591 0 01.645-.527.59.59 0 01.522.651 61.308 61.308 0 00-.289 4.09.589.589 0 01-.585.569zm118.292-5.662a.589.589 0 01-.581-.514 60.547 60.547 0 00-.671-4.043.592.592 0 01.458-.698.585.585 0 01.692.463c.275 1.36.504 2.746.684 4.123a.59.59 0 01-.582.669zM1.47 50.61a.59.59 0 01-.578-.695 61.84 61.84 0 01.861-4.089.584.584 0 01.711-.43c.315.079.506.4.429.717a59.816 59.816 0 00-.845 4.009.588.588 0 01-.578.488zm115.794-5.54a.588.588 0 01-.565-.435 58.941 58.941 0 00-1.22-3.91.594.594 0 01.358-.756.586.586 0 01.749.361c.46 1.312.878 2.654 1.245 3.99a.592.592 0 01-.567.75zM3.454 42.581a.59.59 0 01-.559-.775 61.388 61.388 0 011.418-3.935.587.587 0 111.09.442 59.65 59.65 0 00-1.391 3.858c-.08.25-.31.41-.558.41zm111.08-5.31a.59.59 0 01-.54-.357 59.024 59.024 0 00-1.743-3.698.593.593 0 01.251-.798.585.585 0 01.791.253 61.072 61.072 0 011.779 3.773.594.594 0 01-.538.827zM6.527 34.897a.594.594 0 01-.527-.85 61.127 61.127 0 011.944-3.697.586.586 0 01.802-.218.594.594 0 01.216.808 59.7 59.7 0 00-1.906 3.625.586.586 0 01-.529.332zm104.231-4.964a.587.587 0 01-.502-.284 60.29 60.29 0 00-2.235-3.422.596.596 0 01.139-.826.583.583 0 01.818.14 60.06 60.06 0 012.28 3.491.595.595 0 01-.195.814.585.585 0 01-.305.087zM10.625 27.72a.58.58 0 01-.326-.1.595.595 0 01-.16-.821 60.31 60.31 0 012.43-3.39.583.583 0 01.824-.104c.256.2.303.572.104.83a59.23 59.23 0 00-2.384 3.323.586.586 0 01-.488.262zm95.388-4.536a.586.586 0 01-.455-.217 60.386 60.386 0 00-2.68-3.083.594.594 0 01.025-.836.584.584 0 01.83.026 61.45 61.45 0 012.734 3.143.594.594 0 01-.454.967zm-90.35-2.002a.58.58 0 01-.391-.15.596.596 0 01-.047-.836 60.92 60.92 0 012.868-3.02.584.584 0 01.83.01.595.595 0 01-.01.837 59.69 59.69 0 00-2.812 2.961.586.586 0 01-.438.198zm84.729-4.03a.583.583 0 01-.4-.157 59.506 59.506 0 00-3.075-2.684.595.595 0 01-.088-.832.584.584 0 01.825-.09 61.633 61.633 0 013.137 2.738.596.596 0 01.031.836.583.583 0 01-.43.19zm-78.851-1.748a.594.594 0 01-.38-1.043 60.221 60.221 0 013.25-2.594.584.584 0 01.82.124.594.594 0 01-.123.827 59.256 59.256 0 00-3.188 2.545.58.58 0 01-.38.141zM94 11.954a.576.576 0 01-.336-.108 59.261 59.261 0 00-3.412-2.233.594.594 0 01-.201-.812.583.583 0 01.805-.202 59.65 59.65 0 013.48 2.278.594.594 0 01.145.824.585.585 0 01-.481.252zm-65.856-1.46a.585.585 0 01-.496-.274.595.595 0 01.18-.817A60.438 60.438 0 0131.4 7.284a.585.585 0 01.796.238.594.594 0 01-.235.803 58.694 58.694 0 00-3.503 2.077.58.58 0 01-.314.093zM86.96 7.689a.572.572 0 01-.267-.065 58.971 58.971 0 00-3.687-1.737.593.593 0 01-.31-.776.584.584 0 01.77-.313 59.03 59.03 0 013.761 1.773.594.594 0 01-.267 1.118zM35.352 6.55a.587.587 0 01-.535-.346.594.594 0 01.29-.784 59.542 59.542 0 013.827-1.6.585.585 0 01.755.347.594.594 0 01-.344.762 57.82 57.82 0 00-3.75 1.568.58.58 0 01-.243.053zM79.4 4.445a.587.587 0 01-.192-.033 58.091 58.091 0 00-3.886-1.203.593.593 0 01.304-1.143 59.49 59.49 0 013.965 1.227.593.593 0 01-.191 1.152zm-36.366-.796a.592.592 0 01-.168-1.159 59.321 59.321 0 014.014-1.05.592.592 0 01.256 1.155 58.26 58.26 0 00-3.935 1.03.596.596 0 01-.167.024zm28.441-1.356a.581.581 0 01-.113-.01 58.486 58.486 0 00-4.015-.649.59.59 0 01-.51-.66.587.587 0 01.656-.514 60.97 60.97 0 014.094.66.59.59 0 01.463.695.589.589 0 01-.575.478zM51.044 1.85a.592.592 0 01-.087-1.177 59.816 59.816 0 014.118-.48.59.59 0 01.633.542.59.59 0 01-.538.637c-1.348.11-2.706.269-4.038.472a.646.646 0 01-.088.006zm12.287-.58l-.033-.002a58.933 58.933 0 00-4.065-.087h-.008a.59.59 0 01-.587-.585.59.59 0 01.58-.599 60.195 60.195 0 014.145.09.59.59 0 01.553.623.589.589 0 01-.585.56zM59.99 108.772c-1.257 0-2.526-.05-3.772-.147a.59.59 0 01-.539-.636.58.58 0 01.631-.544 47.4 47.4 0 003.679.144l.374-.002h.004a.59.59 0 01.587.587.59.59 0 01-.583.596l-.381.002zm4.477-.211a.59.59 0 01-.584-.536.59.59 0 01.53-.644 46.867 46.867 0 004.016-.559.592.592 0 01.21 1.164 47.647 47.647 0 01-4.172.575zm-12.278-.435a.536.536 0 01-.096-.008 47.304 47.304 0 01-4.067-.865.59.59 0 01.292-1.146 46.59 46.59 0 003.967.844.59.59 0 01-.096 1.175zm20.349-1.05a.593.593 0 01-.155-1.163c1.3-.359 2.598-.781 3.86-1.253a.587.587 0 01.754.349.592.592 0 01-.347.76 47.538 47.538 0 01-3.956 1.286.6.6 0 01-.156.021zm-28.294-1.01a.606.606 0 01-.196-.033 47.764 47.764 0 01-3.858-1.568.593.593 0 01-.291-.783.584.584 0 01.777-.294 46.576 46.576 0 003.763 1.528.594.594 0 01-.195 1.15zm35.984-1.867a.593.593 0 01-.252-1.127 47.137 47.137 0 003.584-1.909.584.584 0 01.803.211.596.596 0 01-.21.81 48.077 48.077 0 01-3.674 1.958.593.593 0 01-.251.057zm-43.457-1.557a.58.58 0 01-.288-.077 47.888 47.888 0 01-3.53-2.217.595.595 0 01-.152-.822.585.585 0 01.816-.154 46.809 46.809 0 003.443 2.163.594.594 0 01-.289 1.107zm50.536-2.622a.594.594 0 01-.34-1.075 47.4 47.4 0 003.204-2.505.583.583 0 01.827.068c.21.25.179.623-.068.834a48.445 48.445 0 01-3.285 2.569.58.58 0 01-.338.109zM30 97.967a.583.583 0 01-.372-.134 48.536 48.536 0 01-3.097-2.797.595.595 0 01-.01-.837.584.584 0 01.83-.01 46.797 46.797 0 003.022 2.729c.25.207.287.58.081.832a.585.585 0 01-.454.217zm63.565-3.294c-.15 0-.3-.057-.413-.172a.595.595 0 01-.004-.837 47.464 47.464 0 002.73-3.023.582.582 0 01.827-.076c.249.21.283.582.075.833a48.628 48.628 0 01-2.798 3.1.586.586 0 01-.417.175zM24.13 92.187a.582.582 0 01-.444-.206 48.658 48.658 0 01-2.575-3.29.595.595 0 01.133-.827c.264-.19.63-.13.82.135a47.652 47.652 0 002.511 3.21.595.595 0 01-.062.834.58.58 0 01-.383.144zm74.691-3.867a.581.581 0 01-.335-.106.595.595 0 01-.146-.824 47.521 47.521 0 002.173-3.454.585.585 0 01.802-.218.595.595 0 01.216.808 48.862 48.862 0 01-2.228 3.54.585.585 0 01-.482.254zm-79.486-2.843a.586.586 0 01-.505-.29 48.824 48.824 0 01-1.972-3.688.593.593 0 01.273-.79.585.585 0 01.785.275 47.46 47.46 0 001.923 3.598.594.594 0 01-.504.895zm83.577-4.33a.594.594 0 01-.532-.84 47.178 47.178 0 001.546-3.782.588.588 0 111.104.403 48.588 48.588 0 01-1.585 3.877.587.587 0 01-.533.341zm-87.15-3.113a.587.587 0 01-.549-.382c-.49-1.301-.93-2.64-1.306-3.979a.593.593 0 01.404-.73.591.591 0 01.725.408 47.328 47.328 0 001.274 3.88.593.593 0 01-.549.803zm89.944-4.666a.592.592 0 01-.568-.744 47.33 47.33 0 00.87-3.993.587.587 0 111.156.204 48.558 48.558 0 01-.891 4.093.588.588 0 01-.567.44zm-92.18-3.293a.588.588 0 01-.576-.481 49.16 49.16 0 01-.6-4.145.59.59 0 01.524-.65.59.59 0 01.643.528c.138 1.356.335 2.717.586 4.046a.591.591 0 01-.577.702zm93.589-4.856c-.017 0-.034 0-.051-.002a.59.59 0 01-.534-.64 48.626 48.626 0 00.149-5.591.59.59 0 01.568-.61.577.577 0 01.605.573 49.341 49.341 0 01-.153 5.73.588.588 0 01-.584.54zm-94.422-3.37a.59.59 0 01-.587-.583 49.239 49.239 0 01.112-4.188c.023-.327.3-.57.626-.55a.59.59 0 01.545.632 48.684 48.684 0 00-.109 4.087.59.59 0 01-.578.601h-.009zm94.269-6.417a.59.59 0 01-.583-.522 48.001 48.001 0 00-.65-4.035.587.587 0 111.149-.24c.279 1.357.504 2.749.667 4.135a.59.59 0 01-.583.662zm-93.695-1.834a.59.59 0 01-.58-.684 49.02 49.02 0 01.825-4.108.586.586 0 01.712-.431c.314.079.506.4.428.717a47.808 47.808 0 00-.806 4.006.589.589 0 01-.58.5zm92.026-6.264a.588.588 0 01-.562-.421 47.355 47.355 0 00-1.336-3.86.594.594 0 01.328-.769.584.584 0 01.762.33 48.164 48.164 0 011.37 3.958.592.592 0 01-.562.762zm-90.047-1.762a.588.588 0 01-.555-.784 48.336 48.336 0 011.523-3.903.586.586 0 01.775-.3c.296.133.43.482.298.782a47.028 47.028 0 00-1.486 3.805.588.588 0 01-.555.4zm87.01-5.92a.586.586 0 01-.525-.325 47.439 47.439 0 00-1.98-3.567.594.594 0 01.19-.814.584.584 0 01.808.192 48.721 48.721 0 012.031 3.657.595.595 0 01-.524.858zM18.582 38.01a.594.594 0 01-.513-.878 48.638 48.638 0 012.171-3.575.585.585 0 01.815-.16c.268.182.34.55.159.82a47.609 47.609 0 00-2.118 3.489.588.588 0 01-.514.304zm79.36-5.392a.584.584 0 01-.471-.238 47.689 47.689 0 00-2.561-3.17.595.595 0 01.049-.835.582.582 0 01.828.049 48.522 48.522 0 012.625 3.25.596.596 0 01-.12.828.585.585 0 01-.35.116zm-74.776-1.47a.582.582 0 01-.368-.131.596.596 0 01-.089-.833 49.083 49.083 0 012.749-3.144.584.584 0 01.83-.017.596.596 0 01.017.837 47.277 47.277 0 00-2.682 3.068.585.585 0 01-.457.22zm69.324-4.712a.585.585 0 01-.404-.161 46.856 46.856 0 00-3.064-2.68.595.595 0 01-.094-.832.584.584 0 01.824-.095 48.654 48.654 0 013.141 2.747c.236.224.246.6.023.836a.585.585 0 01-.426.185zm-63.637-1.253a.586.586 0 01-.442-.201.596.596 0 01.055-.835 48.27 48.27 0 013.244-2.621.584.584 0 01.82.127.595.595 0 01-.127.827 47.366 47.366 0 00-3.164 2.557.58.58 0 01-.386.146zm57.21-3.893a.581.581 0 01-.323-.098 46.737 46.737 0 00-3.476-2.108.594.594 0 01-.236-.802.585.585 0 01.796-.237 48.083 48.083 0 013.564 2.16c.27.18.344.548.166.82a.585.585 0 01-.49.265zm-50.592-.996a.594.594 0 01-.306-1.098 47.828 47.828 0 013.643-2.016.584.584 0 01.786.268.594.594 0 01-.266.793 46.379 46.379 0 00-3.553 1.968.585.585 0 01-.304.085zm43.38-2.954a.574.574 0 01-.233-.05 45.91 45.91 0 00-3.786-1.466.593.593 0 01-.37-.75.588.588 0 01.742-.373c1.312.443 2.618.948 3.883 1.504.297.13.433.48.304.78a.587.587 0 01-.54.355zm-36.027-.707a.593.593 0 01-.213-1.143 47.747 47.747 0 013.936-1.35.593.593 0 01.329 1.137c-1.29.379-2.582.822-3.838 1.316a.583.583 0 01-.214.04zm28.248-1.921a.575.575 0 01-.138-.016 46.446 46.446 0 00-3.98-.78.59.59 0 01-.494-.673.589.589 0 01.668-.498c1.367.207 2.74.476 4.08.8a.591.591 0 01-.136 1.167zm-20.373-.397a.588.588 0 01-.575-.476.59.59 0 01.46-.696 47.966 47.966 0 014.11-.639.59.59 0 01.647.524.59.59 0 01-.52.653 46.716 46.716 0 00-4.007.623.591.591 0 01-.115.011zm12.26-.826c-.013 0-.025 0-.037-.002a47.791 47.791 0 00-4.055-.077.598.598 0 01-.6-.578.59.59 0 01.572-.605 48.613 48.613 0 014.155.08c.324.02.57.3.55.626a.59.59 0 01-.586.556zM58.222 96.81h-.03a35.939 35.939 0 01-4.148-.449.59.59 0 01-.483-.68.583.583 0 01.675-.487c1.32.221 2.67.367 4.014.433a.59.59 0 01.558.62.59.59 0 01-.586.563zm4.104-.032a.59.59 0 01-.586-.553.59.59 0 01.548-.63 34.973 34.973 0 004.006-.498.591.591 0 01.21 1.164 36.066 36.066 0 01-4.178.517zm-12.19-1.321a.586.586 0 01-.163-.023 35.742 35.742 0 01-3.937-1.401.594.594 0 01-.313-.775.585.585 0 01.768-.317c1.237.524 2.518.98 3.808 1.355a.593.593 0 01-.163 1.16zm20.252-.165a.592.592 0 01-.172-1.157 34.767 34.767 0 003.785-1.416.584.584 0 01.773.304.594.594 0 01-.301.78 35.934 35.934 0 01-3.913 1.463.59.59 0 01-.172.026zm-27.814-3.035a.58.58 0 01-.288-.077 36.31 36.31 0 01-3.51-2.277.595.595 0 01-.13-.826.584.584 0 01.82-.13 35.082 35.082 0 003.397 2.203.595.595 0 01.223.806.587.587 0 01-.512.301zm35.318-.285a.586.586 0 01-.507-.293.594.594 0 01.21-.81 35.034 35.034 0 003.36-2.255.583.583 0 01.821.117.595.595 0 01-.116.828 36.02 36.02 0 01-3.472 2.331.574.574 0 01-.296.082zm-41.944-4.58a.584.584 0 01-.398-.157 36.556 36.556 0 01-2.9-3.025.594.594 0 01.061-.834.582.582 0 01.828.063 35.643 35.643 0 002.806 2.926.595.595 0 01.034.835.583.583 0 01-.431.191zm48.491-.39a.58.58 0 01-.425-.184.595.595 0 01.02-.836 35.431 35.431 0 002.762-2.97.584.584 0 01.826-.076c.249.21.283.582.075.833a36.572 36.572 0 01-2.853 3.07.583.583 0 01-.405.163zM30.6 81.13a.586.586 0 01-.486-.26 36.533 36.533 0 01-2.137-3.611.595.595 0 01.25-.799.585.585 0 01.791.252 35.535 35.535 0 002.068 3.495.594.594 0 01-.485.923zm59.09-.474a.584.584 0 01-.32-.097.595.595 0 01-.17-.82 35.243 35.243 0 002.013-3.529.584.584 0 01.788-.264c.29.146.407.501.262.794a36.705 36.705 0 01-2.08 3.648.585.585 0 01-.493.268zM26.818 73.8a.586.586 0 01-.549-.381 36.632 36.632 0 01-1.255-4.013.586.586 0 111.138-.29c.33 1.314.738 2.62 1.214 3.882a.593.593 0 01-.548.802zm66.54-.539a.589.589 0 01-.551-.793 35.158 35.158 0 001.151-3.902.587.587 0 111.143.27 36.33 36.33 0 01-1.19 4.035.588.588 0 01-.552.39zm-68.545-7.474a.588.588 0 01-.58-.514 36.899 36.899 0 01-.305-4.194.59.59 0 01.578-.6h.009c.32 0 .582.258.587.582.02 1.354.119 2.72.294 4.058a.591.591 0 01-.583.668zm70.422-.572a.59.59 0 01-.584-.659 36.177 36.177 0 00.213-5.201.59.59 0 01.568-.61c.312-.02.595.245.605.572a37.33 37.33 0 01-.22 5.373.588.588 0 01-.582.525zm-70.551-7.688a.59.59 0 01-.585-.65 36.88 36.88 0 01.65-4.156.587.587 0 111.147.252 35.338 35.338 0 00-.629 4.02.59.59 0 01-.583.534zm70.4-1.722a.588.588 0 01-.58-.504 35.445 35.445 0 00-.822-3.985.592.592 0 01.415-.725.585.585 0 01.72.417c.36 1.35.646 2.736.849 4.12a.591.591 0 01-.581.677zm-68.655-6.354a.593.593 0 01-.555-.784c.45-1.32.983-2.63 1.585-3.895a.583.583 0 01.783-.277.594.594 0 01.275.79 35.298 35.298 0 00-1.534 3.767.589.589 0 01-.554.4zM92.95 47.83a.587.587 0 01-.545-.373 35.23 35.23 0 00-1.711-3.683.594.594 0 01.237-.802.584.584 0 01.796.238 36.429 36.429 0 011.768 3.808.593.593 0 01-.545.812zM29.975 42a.581.581 0 01-.313-.09.595.595 0 01-.183-.817 36.667 36.667 0 012.43-3.421.584.584 0 01.825-.089.595.595 0 01.089.832 35.274 35.274 0 00-2.352 3.31.584.584 0 01-.496.276zm59.077-1.435a.583.583 0 01-.481-.252 35.596 35.596 0 00-2.506-3.192.595.595 0 01.049-.834.583.583 0 01.828.048 36.495 36.495 0 012.59 3.299.594.594 0 01-.48.93zm-53.928-4.996a.583.583 0 01-.418-.177.595.595 0 01.007-.837 36.32 36.32 0 013.14-2.77.583.583 0 01.823.102.595.595 0 01-.103.83 35.213 35.213 0 00-3.037 2.682.585.585 0 01-.412.17zm48.48-1.178a.583.583 0 01-.391-.15 35.283 35.283 0 00-3.163-2.533.594.594 0 01-.142-.823.583.583 0 01.818-.143 36.646 36.646 0 013.268 2.616.595.595 0 01.047.835.582.582 0 01-.437.198zm-42.012-3.897a.594.594 0 01-.306-1.097 36.231 36.231 0 013.685-1.973.587.587 0 01.779.292.594.594 0 01-.29.785 34.75 34.75 0 00-3.563 1.907.581.581 0 01-.305.086zm35.307-.86a.578.578 0 01-.28-.073 34.725 34.725 0 00-3.655-1.732.593.593 0 01-.326-.769.584.584 0 01.763-.33 36.058 36.058 0 013.778 1.791c.285.156.39.516.236.803a.587.587 0 01-.516.31zM49.042 27.05a.592.592 0 01-.181-1.155 35.715 35.715 0 014.038-1.061.59.59 0 01.23 1.16c-1.317.265-2.631.61-3.906 1.027a.582.582 0 01-.181.03zm20.248-.494a.568.568 0 01-.155-.021 34.68 34.68 0 00-3.95-.834.591.591 0 01.173-1.17 35.77 35.77 0 014.085.862.592.592 0 01-.153 1.163zm-12.212-1.123a.59.59 0 01-.585-.544.59.59 0 01.538-.637c.976-.08 1.967-.121 2.947-.121.425-.01.818.006 1.225.02a.59.59 0 01.566.612.584.584 0 01-.605.57c-.394-.012-.77-.007-1.186-.019a35.097 35.097 0 00-2.9.119z" fill="#FFB534"/></svg>