<svg width="130" height="130" fill="none" xmlns="http://www.w3.org/2000/svg"><g clip-path="url(#clip0_0_1148)" fill-rule="evenodd" clip-rule="evenodd"><path opacity=".2" d="M65 0c35.898 0 65 29.101 65 65 0 35.898-29.102 65-65 65-35.9 0-65-29.102-65-65C0 29.1 29.101 0 65 0z" fill="#FE3E57"/><path opacity=".6" d="M65 10c30.376 0 55 24.624 55 55s-24.624 55-55 55-55-24.624-55-55 24.624-55 55-55z" fill="#FE3E57"/><path d="M65 20c24.853 0 45 20.147 45 45s-20.147 45-45 45-45-20.147-45-45 20.147-45 45-45z" fill="#FE3E57"/><path d="M71.816 63.142l-11.824-7.606c-.546-.351-1.096-.537-1.554-.537-.884 0-1.43.667-1.43 1.783v16.437c0 1.115.546 1.78 1.428 1.78.458 0 .999-.186 1.546-.539l11.83-7.605c.76-.49 1.182-1.15 1.182-1.857 0-.707-.417-1.367-1.178-1.856" fill="#fff"/></g><defs><clipPath id="clip0_0_1148"><path fill="#fff" d="M0 0h130v130H0z"/></clipPath></defs></svg>