<svg width="126" height="53" fill="none" xmlns="http://www.w3.org/2000/svg"><path fill-rule="evenodd" clip-rule="evenodd" d="M122.518 1.737c0-.96.78-1.738 1.741-1.738A1.74 1.74 0 01126 1.737c0 .96-.78 1.738-1.741 1.738a1.74 1.74 0 01-1.741-1.738zm0 16.508c0-.96.78-1.737 1.741-1.737A1.74 1.74 0 01126 18.245a1.74 1.74 0 01-3.482 0zm0 16.508c0-.96.78-1.737 1.741-1.737A1.74 1.74 0 01126 34.753c0 .96-.78 1.738-1.741 1.738a1.74 1.74 0 01-1.741-1.738zM1.741 49.523A1.74 1.74 0 000 51.262c0 .959.78 1.737 1.74 1.737a1.74 1.74 0 001.742-1.737c0-.96-.78-1.739-1.741-1.739zm11.969 1.739a1.74 1.74 0 013.482 0 1.74 1.74 0 01-1.741 1.737 1.74 1.74 0 01-1.741-1.737zm15.233-1.739a1.74 1.74 0 00-1.741 1.739c0 .959.78 1.737 1.74 1.737a1.74 1.74 0 001.742-1.737c0-.96-.78-1.739-1.741-1.739zm11.969 1.739a1.74 1.74 0 013.482 0 1.74 1.74 0 01-1.741 1.737 1.74 1.74 0 01-1.741-1.737zm15.233-1.739a1.74 1.74 0 00-1.741 1.739c0 .959.78 1.737 1.74 1.737a1.74 1.74 0 001.742-1.737c0-.96-.78-1.739-1.741-1.739zm11.969 1.739a1.74 1.74 0 013.482 0 1.74 1.74 0 01-1.741 1.737 1.74 1.74 0 01-1.741-1.737zm15.233-1.739a1.74 1.74 0 00-1.741 1.739c0 .959.78 1.737 1.741 1.737a1.74 1.74 0 001.741-1.737c0-.96-.78-1.739-1.741-1.739zm11.969 1.739a1.74 1.74 0 013.482 0 1.74 1.74 0 01-1.741 1.737 1.74 1.74 0 01-1.741-1.737zm15.233-1.739a1.74 1.74 0 00-1.741 1.739c0 .959.78 1.737 1.741 1.737a1.74 1.74 0 100-3.476zm13.71 0a1.74 1.74 0 00-1.741 1.739c0 .959.78 1.737 1.741 1.737A1.74 1.74 0 00126 51.262c0-.96-.78-1.739-1.741-1.739zm-13.71-16.507a1.74 1.74 0 00-1.741 1.737c0 .96.78 1.738 1.741 1.738a1.739 1.739 0 100-3.475zm-15.233 1.737c0-.96.78-1.737 1.74-1.737a1.74 1.74 0 011.742 1.737c0 .96-.78 1.738-1.741 1.738a1.74 1.74 0 01-1.741-1.738zm-11.969-1.737a1.74 1.74 0 00-1.741 1.737c0 .96.78 1.738 1.741 1.738a1.74 1.74 0 001.741-1.738c0-.96-.78-1.737-1.741-1.737zm-15.233 1.737c0-.96.78-1.737 1.74-1.737a1.74 1.74 0 011.742 1.737c0 .96-.78 1.738-1.741 1.738a1.74 1.74 0 01-1.741-1.738zm-11.97-1.737a1.74 1.74 0 00-1.74 1.737 1.74 1.74 0 003.482 0c0-.96-.78-1.737-1.741-1.737zm-15.232 1.737c0-.96.78-1.737 1.74-1.737a1.74 1.74 0 011.742 1.737c0 .96-.78 1.738-1.741 1.738a1.74 1.74 0 01-1.741-1.738zm-11.97-1.737a1.74 1.74 0 00-1.74 1.737 1.74 1.74 0 003.482 0c0-.96-.78-1.737-1.741-1.737zM13.71 34.753c0-.96.78-1.737 1.74-1.737a1.74 1.74 0 011.742 1.737c0 .96-.78 1.738-1.741 1.738a1.74 1.74 0 01-1.741-1.738zM1.74 33.016A1.74 1.74 0 000 34.753a1.74 1.74 0 003.482 0c0-.96-.78-1.737-1.741-1.737zm108.81-16.508a1.74 1.74 0 00-1.741 1.737 1.74 1.74 0 003.482 0 1.74 1.74 0 00-1.741-1.737zm-15.233 1.737c0-.96.78-1.737 1.74-1.737a1.74 1.74 0 011.742 1.737c0 .96-.78 1.738-1.741 1.738a1.74 1.74 0 01-1.741-1.738zm-11.969-1.737a1.74 1.74 0 00-1.741 1.737c0 .96.78 1.738 1.741 1.738a1.74 1.74 0 001.741-1.738c0-.96-.78-1.737-1.741-1.737zm-15.233 1.737c0-.96.78-1.737 1.74-1.737a1.74 1.74 0 011.742 1.737c0 .96-.78 1.738-1.741 1.738a1.74 1.74 0 01-1.741-1.738zm-11.97-1.737a1.74 1.74 0 00-1.74 1.737 1.74 1.74 0 003.482 0c0-.96-.78-1.737-1.741-1.737zm-15.232 1.737c0-.96.78-1.737 1.74-1.737a1.74 1.74 0 011.742 1.737c0 .96-.78 1.738-1.741 1.738a1.74 1.74 0 01-1.741-1.738zm-11.97-1.737a1.74 1.74 0 00-1.74 1.737 1.74 1.74 0 003.482 0c0-.96-.78-1.737-1.741-1.737zM13.71 18.245c0-.96.78-1.737 1.74-1.737a1.74 1.74 0 011.742 1.737c0 .96-.78 1.738-1.741 1.738a1.74 1.74 0 01-1.741-1.738zM1.74 16.508A1.74 1.74 0 000 18.245a1.74 1.74 0 003.482 0c0-.96-.78-1.737-1.741-1.737zM110.55-.001a1.74 1.74 0 00-1.741 1.738c0 .96.78 1.738 1.741 1.738a1.74 1.74 0 100-3.476zM95.316 1.737a1.74 1.74 0 013.482 0c0 .96-.78 1.738-1.741 1.738a1.74 1.74 0 01-1.741-1.738zM83.347-.001a1.74 1.74 0 00-1.741 1.738c0 .96.78 1.738 1.741 1.738a1.74 1.74 0 001.741-1.738c0-.96-.78-1.738-1.741-1.738zM68.114 1.737a1.74 1.74 0 013.482 0c0 .96-.78 1.738-1.741 1.738a1.74 1.74 0 01-1.741-1.738zM56.144-.001a1.74 1.74 0 00-1.74 1.738c0 .96.78 1.738 1.74 1.738a1.74 1.74 0 001.742-1.738c0-.96-.78-1.738-1.741-1.738zM40.913 1.737a1.74 1.74 0 013.482 0c0 .96-.78 1.738-1.741 1.738a1.74 1.74 0 01-1.741-1.738zM28.942-.001a1.74 1.74 0 00-1.74 1.738c0 .96.78 1.738 1.74 1.738a1.74 1.74 0 001.742-1.738c0-.96-.78-1.738-1.741-1.738zM13.71 1.737c0-.96.78-1.738 1.74-1.738a1.74 1.74 0 011.742 1.738c0 .96-.78 1.738-1.741 1.738a1.74 1.74 0 01-1.741-1.738zM1.74-.001A1.74 1.74 0 000 1.737c0 .96.78 1.738 1.74 1.738a1.74 1.74 0 001.742-1.738c0-.96-.78-1.738-1.741-1.738z" fill="#FE3E57"/></svg>