<svg width="106" height="106" fill="none" xmlns="http://www.w3.org/2000/svg"><path fill-rule="evenodd" clip-rule="evenodd" d="M52.584 5.313a2.16 2.16 0 002.161-2.158A2.16 2.16 0 0052.584.997a2.16 2.16 0 00-2.162 2.158 2.16 2.16 0 002.162 2.158zm0 10.068a2.16 2.16 0 012.162 2.158 2.16 2.16 0 01-2.162 2.158 2.16 2.16 0 01-2.162-2.158 2.16 2.16 0 012.162-2.158zm14.408 0a2.16 2.16 0 00-2.163 2.158 2.16 2.16 0 002.163 2.158 2.159 2.159 0 100-4.316zm-2.163 16.543a2.16 2.16 0 012.163-2.159 2.159 2.159 0 110 4.316 2.16 2.16 0 01-2.163-2.157zm14.408 0a2.16 2.16 0 014.322 0 2.16 2.16 0 01-4.322 0zm-5.042 5.034a2.158 2.158 0 100 4.314 2.16 2.16 0 002.16-2.157 2.159 2.159 0 00-2.16-2.157zm12.245 2.157a2.16 2.16 0 012.162-2.157 2.16 2.16 0 012.161 2.157 2.16 2.16 0 01-2.161 2.157 2.16 2.16 0 01-2.162-2.157zM74.195 22.573a2.159 2.159 0 100 4.315 2.159 2.159 0 100-4.315zm-16.57 2.158a2.16 2.16 0 012.163-2.158 2.16 2.16 0 012.16 2.158 2.16 2.16 0 01-2.16 2.157 2.16 2.16 0 01-2.163-2.157zm38.18 33.802a2.16 2.16 0 00-2.162 2.158 2.16 2.16 0 002.162 2.157 2.159 2.159 0 100-4.315zm-16.568 2.158c0-1.192.967-2.158 2.16-2.158a2.16 2.16 0 012.162 2.158 2.16 2.16 0 01-2.161 2.157 2.159 2.159 0 01-2.161-2.157zm-12.245-2.158a2.16 2.16 0 00-2.163 2.158 2.16 2.16 0 002.163 2.157 2.159 2.159 0 100-4.315zm26.651-12.227a2.16 2.16 0 014.322 0 2.159 2.159 0 01-2.16 2.159 2.16 2.16 0 01-2.162-2.159zM81.398 44.15a2.159 2.159 0 100 4.316 2.16 2.16 0 002.161-2.159 2.16 2.16 0 00-2.161-2.157zm-16.569 2.157a2.16 2.16 0 012.163-2.157 2.159 2.159 0 110 4.316 2.16 2.16 0 01-2.163-2.159zM52.585 44.15h-.001a2.16 2.16 0 00-2.162 2.157 2.16 2.16 0 002.162 2.159 2.16 2.16 0 002.162-2.159 2.16 2.16 0 00-2.162-2.157zm19.45 23.734a2.16 2.16 0 012.16-2.158 2.16 2.16 0 012.16 2.158 2.159 2.159 0 01-2.16 2.157 2.159 2.159 0 01-2.16-2.157zm16.567-2.158a2.16 2.16 0 00-2.162 2.158 2.16 2.16 0 002.162 2.157 2.16 2.16 0 002.161-2.157 2.16 2.16 0 00-2.161-2.158zM72.034 53.5a2.16 2.16 0 012.16-2.158 2.159 2.159 0 110 4.316 2.159 2.159 0 01-2.16-2.158zm18.727 0a2.16 2.16 0 00-2.16-2.158 2.159 2.159 0 100 4.316 2.16 2.16 0 002.16-2.158zm10.085 0a2.16 2.16 0 012.163-2.158c1.19 0 2.16.966 2.16 2.157a2.16 2.16 0 01-2.16 2.159 2.16 2.16 0 01-2.163-2.158zm-41.058-2.16a2.16 2.16 0 00-2.163 2.157 2.16 2.16 0 002.163 2.159 2.16 2.16 0 002.16-2.158 2.16 2.16 0 00-2.16-2.158zm5.041 38.117a2.16 2.16 0 012.163-2.157 2.158 2.158 0 110 4.315 2.16 2.16 0 01-2.163-2.158zm16.569-16.542a2.159 2.159 0 100 4.316 2.16 2.16 0 002.161-2.158 2.16 2.16 0 00-2.161-2.158zm-16.569 2.158a2.16 2.16 0 014.323 0 2.159 2.159 0 01-2.16 2.158 2.16 2.16 0 01-2.163-2.158zm-12.244-2.158h-.001a2.16 2.16 0 00-2.162 2.158 2.16 2.16 0 002.162 2.158 2.16 2.16 0 002.162-2.158 2.16 2.16 0 00-2.162-2.158zm19.45 9.35a2.16 2.16 0 012.16-2.158 2.16 2.16 0 11-2.16 2.158zm-12.247-2.158a2.16 2.16 0 00-2.163 2.158 2.16 2.16 0 002.163 2.159 2.16 2.16 0 002.16-2.159 2.16 2.16 0 00-2.16-2.158zm-7.204 21.576a2.16 2.16 0 012.162 2.158 2.16 2.16 0 01-2.162 2.157 2.16 2.16 0 01-2.162-2.157 2.16 2.16 0 012.162-2.158zm-9.365-91.337c0-1.192.968-2.157 2.16-2.157a2.16 2.16 0 012.163 2.157 2.16 2.16 0 01-2.162 2.158 2.159 2.159 0 01-2.16-2.158zm16.569 2.158a2.16 2.16 0 002.16-2.158 2.16 2.16 0 00-2.16-2.157 2.16 2.16 0 00-2.163 2.157 2.16 2.16 0 002.163 2.158zm-5.043 19.419a2.16 2.16 0 01-4.323 0 2.16 2.16 0 012.162-2.159 2.16 2.16 0 012.161 2.159zm-9.365 5.034a2.158 2.158 0 100 4.314 2.16 2.16 0 002.161-2.157 2.16 2.16 0 00-2.161-2.157zm16.568 2.157a2.16 2.16 0 01-2.16 2.157 2.16 2.16 0 01-2.163-2.157 2.16 2.16 0 012.163-2.157 2.16 2.16 0 012.16 2.157zM45.38 22.573a2.159 2.159 0 100 4.315 2.16 2.16 0 002.162-2.157 2.16 2.16 0 00-2.162-2.158zm-14.406 0a2.158 2.158 0 110 4.316 2.162 2.162 0 01-2.161-2.158 2.163 2.163 0 012.161-2.158zm21.61 40.275a2.16 2.16 0 002.161-2.157 2.16 2.16 0 00-2.161-2.158 2.159 2.159 0 00-2.162 2.158 2.16 2.16 0 002.162 2.157zm-9.365 5.035a2.16 2.16 0 012.16-2.158 2.16 2.16 0 012.163 2.158 2.16 2.16 0 01-2.162 2.157 2.159 2.159 0 01-2.16-2.157zm16.569 2.157a2.16 2.16 0 002.16-2.157 2.16 2.16 0 00-2.16-2.158 2.16 2.16 0 00-2.163 2.158 2.16 2.16 0 002.163 2.157zM43.219 53.498a2.16 2.16 0 012.16-2.157 2.16 2.16 0 012.163 2.157 2.16 2.16 0 01-2.162 2.159 2.159 2.159 0 01-2.16-2.158zm-11.404-1.987a2.14 2.14 0 00-.84-.17h-.001a2.162 2.162 0 00-2.161 2.157 2.163 2.163 0 002.161 2.158 2.158 2.158 0 00.841-4.145zm22.93 37.947a2.16 2.16 0 01-2.161 2.158 2.16 2.16 0 01-2.162-2.158 2.16 2.16 0 012.162-2.157 2.16 2.16 0 012.161 2.157zm-9.365 5.035a2.158 2.158 0 100 4.314 2.16 2.16 0 002.161-2.157 2.16 2.16 0 00-2.161-2.157zm12.245 2.157a2.16 2.16 0 012.163-2.157 2.16 2.16 0 012.16 2.157 2.16 2.16 0 01-2.16 2.157 2.16 2.16 0 01-2.163-2.157zM45.38 80.108a2.16 2.16 0 100 4.317 2.16 2.16 0 002.161-2.159 2.16 2.16 0 00-2.161-2.158zm-14.406 0a2.16 2.16 0 012.16 2.158 2.158 2.158 0 01-2.16 2.159 2.163 2.163 0 01-2.161-2.159 2.163 2.163 0 012.161-2.158zm7.205-50.343h-.001a2.161 2.161 0 00-2.161 2.159 2.161 2.161 0 002.161 2.158 2.158 2.158 0 100-4.317zm-16.57 2.159a2.16 2.16 0 012.16-2.159 2.16 2.16 0 012.163 2.159 2.16 2.16 0 01-4.322 0zM38.18 15.38h-.001c-.896 0-1.664.544-1.992 1.318a2.164 2.164 0 000 1.68 2.162 2.162 0 001.992 1.318 2.16 2.16 0 000-4.316zM14.407 39.115c0-1.192.967-2.157 2.16-2.157a2.16 2.16 0 012.161 2.157 2.16 2.16 0 01-2.162 2.157 2.158 2.158 0 01-2.16-2.157zm16.567-2.157a2.159 2.159 0 00-2.161 2.157 2.16 2.16 0 002.162 2.157 2.16 2.16 0 002.16-2.157 2.16 2.16 0 00-2.16-2.157zm7.204 21.575a2.158 2.158 0 110 4.315 2.16 2.16 0 01-2.161-2.157 2.154 2.154 0 012.16-2.158zm-14.408 0a2.158 2.158 0 100 4.315 2.16 2.16 0 002.162-2.157 2.16 2.16 0 00-2.162-2.158zM7.202 60.691a2.16 2.16 0 012.162-2.158 2.158 2.158 0 110 4.315 2.16 2.16 0 01-2.162-2.157zM38.18 44.149h-.001a2.161 2.161 0 00-2.161 2.157 2.154 2.154 0 002.16 2.159h.002a2.158 2.158 0 100-4.316zm-16.57 2.157a2.16 2.16 0 014.322 0 2.16 2.16 0 01-2.161 2.159 2.159 2.159 0 01-2.16-2.159zM9.365 44.15a2.16 2.16 0 00-2.162 2.157 2.16 2.16 0 002.162 2.159 2.159 2.159 0 100-4.316zm5.043 23.734a2.16 2.16 0 014.322 0 2.16 2.16 0 01-2.163 2.157 2.158 2.158 0 01-2.16-2.157zm16.567-2.158a2.159 2.159 0 100 4.315 2.16 2.16 0 002.16-2.157 2.16 2.16 0 00-2.16-2.158zM14.407 53.5c0-1.192.967-2.158 2.16-2.158a2.16 2.16 0 012.161 2.157 2.16 2.16 0 01-4.321 0zM2.16 51.34A2.159 2.159 0 000 53.498a2.16 2.16 0 002.161 2.159 2.16 2.16 0 002.162-2.158A2.16 2.16 0 002.16 51.34zM38.178 87.3a2.158 2.158 0 110 4.315 2.16 2.16 0 01-2.161-2.158 2.156 2.156 0 012.16-2.157zm0-14.385a2.16 2.16 0 00-1.992 2.999 2.161 2.161 0 001.992 1.317 2.158 2.158 0 100-4.316zM21.61 75.074a2.16 2.16 0 014.322 0 2.16 2.16 0 01-2.162 2.158 2.159 2.159 0 01-2.16-2.158z" fill="#34C3FF"/></svg>