<svg width="225" height="686" fill="none" xmlns="http://www.w3.org/2000/svg"><mask id="path-1-inside-1_11_2" fill="#fff"><path fill-rule="evenodd" clip-rule="evenodd" d="M.801 576.804s31.284-102.805 48.702-141.046c17.417-38.24 41.262-67.356 82.644-99.012 41.381-31.655 60.897-103.625-8.117-190.551C55.015 59.27 4.02 34.34-8.053 25.7"/></mask><path fill-rule="evenodd" clip-rule="evenodd" d="M.801 576.804s31.284-102.805 48.702-141.046c17.417-38.24 41.262-67.356 82.644-99.012 41.381-31.655 60.897-103.625-8.117-190.551C55.015 59.27 4.02 34.34-8.053 25.7" fill="#000" fill-opacity=".01"/><path d="M49.503 435.758l-.91-.414.91.414zm82.644-99.012l-.608-.794.608.794zm-8.117-190.551l.783-.622-.783.622zM.801 576.804c.957.291.957.29.958.29v-.004l.005-.014.017-.056.067-.221.265-.867 1.022-3.326a3122.245 3122.245 0 0116.435-51.673c10.002-30.491 22.16-65.699 30.843-84.76l-1.82-.829c-8.736 19.179-20.928 54.494-30.923 84.966A3131.565 3131.565 0 00.2 575.347l-.265.869-.067.221-.017.056-.005.015v.003c-.001.001-.001.001.955.293zm49.612-140.631c17.338-38.066 41.066-67.059 82.341-98.633l-1.215-1.588c-41.488 31.737-65.45 60.977-82.946 99.392l1.82.829zm82.341-98.633c20.924-16.006 36.294-42.186 37.732-75.3 1.438-33.111-11.055-73.064-45.673-116.667l-1.566 1.244c34.396 43.323 46.653 82.818 45.241 115.337-1.412 32.517-16.492 58.149-36.949 73.798l1.215 1.588zm-7.941-191.967c-34.554-43.521-64.61-71.54-87.555-89.766-22.87-18.165-38.86-26.72-44.73-30.92l-1.163 1.626c6.205 4.44 21.748 12.67 44.648 30.86 22.825 18.13 52.773 46.04 87.234 89.444l1.566-1.244z" fill="#ECECEC" mask="url(#path-1-inside-1_11_2)"/><mask id="path-3-inside-2_11_2" fill="#fff"><path fill-rule="evenodd" clip-rule="evenodd" d="M-1.412 675.815s21.104.79 47.225-97.144c26.121-97.933 38.712-125.108 58.294-160.66 19.581-35.552 40.534-57.764 68.624-77.529 28.09-19.763 74.285-77.493 5.903-178.408C110.252 61.16-13.295-15.277-33.879 19.161"/></mask><path fill-rule="evenodd" clip-rule="evenodd" d="M-1.412 675.815s21.104.79 47.225-97.144c26.121-97.933 38.712-125.108 58.294-160.66 19.581-35.552 40.534-57.764 68.624-77.529 28.09-19.763 74.285-77.493 5.903-178.408C110.252 61.16-13.295-15.277-33.879 19.161" fill="#000" fill-opacity=".01"/><path d="M45.813 578.671l-.966-.257.966.257zm58.294-160.66l-.876-.483.876.483zm68.624-77.529l-.576-.817.576.817zm5.903-178.408l-.828.561.828-.561zM-1.412 675.815c-.038.999-.035.999-.033.999l.006.001h.042l.083-.001c.066-.003.151-.008.257-.02.212-.024.5-.073.863-.171.727-.196 1.74-.587 3.008-1.361 2.534-1.546 6.081-4.616 10.407-10.715 8.642-12.187 20.486-36.607 33.558-85.618l-1.932-.515c-13.049 48.921-24.818 73.074-33.258 84.976-4.216 5.945-7.576 8.798-9.816 10.164-1.119.683-1.958.995-2.488 1.138a3.762 3.762 0 01-.566.114c-.055.006-.09.008-.107.009h-.008.017c.002.001.004.001-.033 1zm48.191-96.886c26.109-97.885 38.674-124.977 58.203-160.436l-1.751-.965c-19.633 35.647-32.25 62.904-58.384 160.886l1.932.515zm58.203-160.436c19.508-35.417 40.357-57.515 68.324-77.193l-1.151-1.635c-28.213 19.85-49.269 42.177-68.924 77.863l1.751.965zm68.324-77.193c14.189-9.983 32.95-29.55 39.53-59.375 6.586-29.851.928-69.79-33.374-120.412l-1.656 1.122c34.08 50.293 39.515 89.677 33.077 118.86-6.445 29.209-24.826 48.389-38.728 58.17l1.151 1.635zm6.156-179.787C145.19 110.937 97.109 66.508 55 39.023 33.952 25.285 14.335 15.74-1.363 11.802c-7.847-1.969-14.785-2.555-20.46-1.51-5.706 1.05-10.165 3.757-12.915 8.356l1.717 1.026c2.397-4.01 6.3-6.447 11.56-7.415 5.287-.973 11.913-.449 19.611 1.482 15.393 3.862 34.797 13.276 55.757 26.957 41.905 27.352 89.789 71.599 123.899 121.937l1.656-1.122z" fill="#ECECEC" mask="url(#path-3-inside-2_11_2)"/><g filter="url(#filter0_d_11_2)"><path fill-rule="evenodd" clip-rule="evenodd" d="M103.328 220.937c7.43 0 13.453 6.198 13.453 13.844 0 7.646-6.023 13.844-13.453 13.844s-13.453-6.198-13.453-13.844c0-7.646 6.023-13.844 13.453-13.844z" fill="#000" fill-opacity=".01"/><path d="M103.328 221.937c6.851 0 12.453 5.723 12.453 12.844 0 7.121-5.602 12.844-12.453 12.844-6.85 0-12.453-5.723-12.453-12.844 0-7.121 5.602-12.844 12.453-12.844z" stroke="#FE3E57" stroke-width="2"/></g><g filter="url(#filter1_d_11_2)"><path fill-rule="evenodd" clip-rule="evenodd" d="M132.281 478.187a4.227 4.227 0 014.219 4.235 4.227 4.227 0 01-4.219 4.234 4.227 4.227 0 01-4.219-4.234 4.227 4.227 0 014.219-4.235z" fill="#000" fill-opacity=".01"/><path d="M132.281 479.187a3.227 3.227 0 013.219 3.235 3.226 3.226 0 01-3.219 3.234 3.226 3.226 0 01-3.219-3.234 3.227 3.227 0 013.219-3.235z" stroke="#34C3FF" stroke-width="2"/></g><g filter="url(#filter2_d_11_2)"><path fill-rule="evenodd" clip-rule="evenodd" d="M63.04 138.164l2.915 3.047a.98.98 0 010 1.344.881.881 0 01-1.287 0l-2.914-3.046-2.914 3.046a.881.881 0 01-1.287 0 .98.98 0 010-1.344l2.915-3.047-2.915-3.046a.982.982 0 010-1.345.883.883 0 011.287 0l2.914 3.047 2.914-3.047a.883.883 0 011.287 0 .982.982 0 010 1.345l-2.914 3.046z" fill="#34C3FF"/></g><g filter="url(#filter3_d_11_2)"><path fill-rule="evenodd" clip-rule="evenodd" d="M57.613 333.811l-4.344-4.354 4.344-4.354 4.344 4.354-4.344 4.354z" fill="#5800E4"/></g><g filter="url(#filter4_d_11_2)"><path fill-rule="evenodd" clip-rule="evenodd" d="M187.473 377.203l2.914 3.046a.98.98 0 010 1.345.882.882 0 01-1.286 0l-2.914-3.046-2.915 3.046a.882.882 0 01-1.286 0 .982.982 0 010-1.345l2.914-3.046-2.914-3.045a.982.982 0 010-1.345.88.88 0 011.286 0l2.915 3.046 2.914-3.046a.88.88 0 011.286 0 .98.98 0 010 1.345l-2.914 3.045z" fill="#FFB534"/></g><g filter="url(#filter5_d_11_2)"><path fill-rule="evenodd" clip-rule="evenodd" d="M192.464 89.392l2.915 3.046a.982.982 0 010 1.345.883.883 0 01-1.287 0l-2.914-3.046-2.914 3.046a.883.883 0 01-1.287 0 .982.982 0 010-1.345l2.914-3.046-2.914-3.045a.982.982 0 010-1.345.882.882 0 011.287 0l2.914 3.046 2.914-3.046a.882.882 0 011.287 0 .982.982 0 010 1.345l-2.915 3.045z" fill="#FFB534"/></g><g filter="url(#filter6_d_11_2)"><path fill-rule="evenodd" clip-rule="evenodd" d="M81.742 614.594l2.914 3.046a.982.982 0 010 1.345.883.883 0 01-1.287 0l-2.914-3.046-2.914 3.046a.883.883 0 01-1.287 0 .982.982 0 010-1.345l2.915-3.046-2.915-3.046a.982.982 0 010-1.345.883.883 0 011.287 0l2.914 3.046 2.915-3.046a.883.883 0 011.286 0 .982.982 0 010 1.345l-2.914 3.046z" fill="#FE3E57"/></g><defs><filter id="filter0_d_11_2" x="84.875" y="218.938" width="36.906" height="37.687" filterUnits="userSpaceOnUse" color-interpolation-filters="sRGB"><feFlood flood-opacity="0" result="BackgroundImageFix"/><feColorMatrix in="SourceAlpha" values="0 0 0 0 0 0 0 0 0 0 0 0 0 0 0 0 0 0 127 0" result="hardAlpha"/><feOffset dy="3"/><feGaussianBlur stdDeviation="2.5"/><feColorMatrix values="0 0 0 0 0.996078 0 0 0 0 0.243137 0 0 0 0 0.341176 0 0 0 0.4 0"/><feBlend in2="BackgroundImageFix" result="effect1_dropShadow_11_2"/><feBlend in="SourceGraphic" in2="effect1_dropShadow_11_2" result="shape"/></filter><filter id="filter1_d_11_2" x="123.062" y="476.188" width="18.438" height="18.469" filterUnits="userSpaceOnUse" color-interpolation-filters="sRGB"><feFlood flood-opacity="0" result="BackgroundImageFix"/><feColorMatrix in="SourceAlpha" values="0 0 0 0 0 0 0 0 0 0 0 0 0 0 0 0 0 0 127 0" result="hardAlpha"/><feOffset dy="3"/><feGaussianBlur stdDeviation="2.5"/><feColorMatrix values="0 0 0 0 0.203922 0 0 0 0 0.764706 0 0 0 0 1 0 0 0 0.4 0"/><feBlend in2="BackgroundImageFix" result="effect1_dropShadow_11_2"/><feBlend in="SourceGraphic" in2="effect1_dropShadow_11_2" result="shape"/></filter><filter id="filter2_d_11_2" x="52.287" y="131.495" width="18.934" height="19.338" filterUnits="userSpaceOnUse" color-interpolation-filters="sRGB"><feFlood flood-opacity="0" result="BackgroundImageFix"/><feColorMatrix in="SourceAlpha" values="0 0 0 0 0 0 0 0 0 0 0 0 0 0 0 0 0 0 127 0" result="hardAlpha"/><feOffset dy="3"/><feGaussianBlur stdDeviation="2.5"/><feColorMatrix values="0 0 0 0 0.203922 0 0 0 0 0.764706 0 0 0 0 1 0 0 0 0.4 0"/><feBlend in2="BackgroundImageFix" result="effect1_dropShadow_11_2"/><feBlend in="SourceGraphic" in2="effect1_dropShadow_11_2" result="shape"/></filter><filter id="filter3_d_11_2" x="48.269" y="323.103" width="18.689" height="18.708" filterUnits="userSpaceOnUse" color-interpolation-filters="sRGB"><feFlood flood-opacity="0" result="BackgroundImageFix"/><feColorMatrix in="SourceAlpha" values="0 0 0 0 0 0 0 0 0 0 0 0 0 0 0 0 0 0 127 0" result="hardAlpha"/><feOffset dy="3"/><feGaussianBlur stdDeviation="2.5"/><feColorMatrix values="0 0 0 0 0.345098 0 0 0 0 0 0 0 0 0 0.894118 0 0 0 0.4 0"/><feBlend in2="BackgroundImageFix" result="effect1_dropShadow_11_2"/><feBlend in="SourceGraphic" in2="effect1_dropShadow_11_2" result="shape"/></filter><filter id="filter4_d_11_2" x="176.719" y="370.534" width="18.934" height="19.338" filterUnits="userSpaceOnUse" color-interpolation-filters="sRGB"><feFlood flood-opacity="0" result="BackgroundImageFix"/><feColorMatrix in="SourceAlpha" values="0 0 0 0 0 0 0 0 0 0 0 0 0 0 0 0 0 0 127 0" result="hardAlpha"/><feOffset dy="3"/><feGaussianBlur stdDeviation="2.5"/><feColorMatrix values="0 0 0 0 1 0 0 0 0 0.709804 0 0 0 0 0.203922 0 0 0 0.4 0"/><feBlend in2="BackgroundImageFix" result="effect1_dropShadow_11_2"/><feBlend in="SourceGraphic" in2="effect1_dropShadow_11_2" result="shape"/></filter><filter id="filter5_d_11_2" x="181.711" y="82.723" width="18.934" height="19.338" filterUnits="userSpaceOnUse" color-interpolation-filters="sRGB"><feFlood flood-opacity="0" result="BackgroundImageFix"/><feColorMatrix in="SourceAlpha" values="0 0 0 0 0 0 0 0 0 0 0 0 0 0 0 0 0 0 127 0" result="hardAlpha"/><feOffset dy="3"/><feGaussianBlur stdDeviation="2.5"/><feColorMatrix values="0 0 0 0 1 0 0 0 0 0.709804 0 0 0 0 0.203922 0 0 0 0.4 0"/><feBlend in2="BackgroundImageFix" result="effect1_dropShadow_11_2"/><feBlend in="SourceGraphic" in2="effect1_dropShadow_11_2" result="shape"/></filter><filter id="filter6_d_11_2" x="70.988" y="607.925" width="18.934" height="19.339" filterUnits="userSpaceOnUse" color-interpolation-filters="sRGB"><feFlood flood-opacity="0" result="BackgroundImageFix"/><feColorMatrix in="SourceAlpha" values="0 0 0 0 0 0 0 0 0 0 0 0 0 0 0 0 0 0 127 0" result="hardAlpha"/><feOffset dy="3"/><feGaussianBlur stdDeviation="2.5"/><feColorMatrix values="0 0 0 0 0.996078 0 0 0 0 0.243137 0 0 0 0 0.341176 0 0 0 0.4 0"/><feBlend in2="BackgroundImageFix" result="effect1_dropShadow_11_2"/><feBlend in="SourceGraphic" in2="effect1_dropShadow_11_2" result="shape"/></filter></defs></svg>