<svg width="271" height="884" fill="none" xmlns="http://www.w3.org/2000/svg"><mask id="path-1-inside-1_11_3" fill="#fff"><path fill-rule="evenodd" clip-rule="evenodd" d="M287.973 138.647s-40.74 133.563-63.422 183.246c-22.683 49.683-53.735 87.51-107.626 128.637-53.89 41.126-79.305 134.63 10.571 247.565 89.876 112.933 156.284 145.322 172.008 156.546"/></mask><path fill-rule="evenodd" clip-rule="evenodd" d="M287.973 138.647s-40.74 133.563-63.422 183.246c-22.683 49.683-53.735 87.51-107.626 128.637-53.89 41.126-79.305 134.63 10.571 247.565 89.876 112.933 156.284 145.322 172.008 156.546" fill="#000" fill-opacity=".01"/><path d="M127.496 698.095l-.783.622.783-.622zm160.477-559.448l-.957-.291-.002.005-.005.018-.022.073-.088.287-.345 1.126a3652.238 3652.238 0 01-6.255 20.128 4063.741 4063.741 0 01-16.481 51.333c-13.024 39.611-28.863 85.369-40.177 110.152l1.82.83c11.368-24.9 27.24-70.765 40.257-110.357a4060.634 4060.634 0 0022.748-71.499l.345-1.128.088-.288.023-.073.005-.018.002-.005c0-.001 0-.002-.956-.293zm-64.332 182.831c-22.603 49.508-53.539 87.211-107.322 128.257l1.213 1.59c53.997-41.209 85.166-79.159 107.929-129.017l-1.82-.83zM116.319 449.735c-27.179 20.741-47.151 54.673-49.02 97.606-1.869 42.931 14.365 94.77 59.414 151.376l1.565-1.245c-44.827-56.328-60.823-107.708-58.98-150.044 1.842-42.335 21.523-75.718 48.234-96.103l-1.213-1.59zm10.394 248.982c44.985 56.526 84.111 92.911 113.973 116.576 29.786 23.604 50.543 34.67 58.237 40.162l1.162-1.627c-8.03-5.733-28.339-16.473-58.157-40.103-29.742-23.569-68.759-59.845-113.65-116.253l-1.565 1.245z" fill="#ECECEC" mask="url(#path-1-inside-1_11_3)"/><mask id="path-3-inside-2_11_3" fill="#fff"><path fill-rule="evenodd" clip-rule="evenodd" d="M290.856 10.01s-27.483-1.026-61.501 126.21c-34.017 127.235-50.413 162.541-75.914 208.731-25.501 46.189-52.786 75.047-89.368 100.724-36.58 25.678-96.739 100.68-7.687 231.788C145.438 808.572 306.33 907.88 333.137 863.137"/></mask><path fill-rule="evenodd" clip-rule="evenodd" d="M290.856 10.01s-27.483-1.026-61.501 126.21c-34.017 127.235-50.413 162.541-75.914 208.731-25.501 46.189-52.786 75.047-89.368 100.724-36.58 25.678-96.739 100.68-7.687 231.788C145.438 808.572 306.33 907.88 333.137 863.137" fill="#000" fill-opacity=".01"/><path d="M229.355 136.22l.967.258-.967-.258zm-75.914 208.731l.876.483-.876-.483zM64.073 445.675l-.574-.819.574.819zm-7.687 231.788l.827-.562-.827.562zM290.856 10.01c.037-.999.035-.999.032-1h-.005a1.304 1.304 0 00-.047 0c-.025 0-.058 0-.097.002-.078.003-.182.01-.312.024-.26.03-.621.09-1.079.213-.916.247-2.209.743-3.838 1.735-3.255 1.981-7.847 5.937-13.463 13.838-11.224 15.79-26.637 47.477-43.658 111.14l1.933.516c16.996-63.573 32.334-94.992 43.355-110.497 5.507-7.747 9.912-11.486 12.873-13.289 1.479-.9 2.599-1.318 3.319-1.512.36-.097.622-.138.781-.156.08-.01.134-.012.162-.013h.02l-.006-.001h-.003c-.002 0-.005 0 .033-1zm-62.467 125.952c-34.004 127.186-50.375 162.41-75.823 208.506l1.751.966c25.552-46.283 41.974-81.672 76.005-208.956l-1.933-.516zm-75.823 208.506c-25.427 46.054-52.609 74.798-89.067 100.388l1.149 1.637c36.704-25.763 64.094-54.735 89.669-101.059l-1.751-.966zM63.499 444.856c-18.434 12.94-42.81 38.304-51.358 76.961-8.555 38.684-1.22 90.49 43.418 156.208l1.654-1.124C12.8 611.512 5.687 560.262 14.093 522.249c8.413-38.041 32.408-63.017 50.555-75.756l-1.15-1.637zm-7.94 233.169c44.606 65.673 107.192 123.368 161.999 159.057 27.397 17.84 52.911 30.221 73.308 35.326 10.196 2.552 19.183 3.304 26.516 1.958 7.361-1.352 13.085-4.828 16.613-10.715l-1.716-1.028c-3.174 5.298-8.342 8.506-15.258 9.776-6.945 1.275-15.621.584-25.67-1.931-20.092-5.028-45.393-17.279-72.702-35.062-54.603-35.556-116.99-93.069-161.436-158.505l-1.654 1.124z" fill="#ECECEC" mask="url(#path-3-inside-2_11_3)"/><g filter="url(#filter0_d_11_3)"><path fill-rule="evenodd" clip-rule="evenodd" d="M154.484 565c9.674 0 17.516 8.059 17.516 18s-7.842 18-17.516 18c-9.673 0-17.515-8.059-17.515-18s7.842-18 17.515-18z" fill="#000" fill-opacity=".01"/><path d="M154.484 566c9.096 0 16.516 7.585 16.516 17s-7.42 17-16.516 17c-9.095 0-16.515-7.585-16.515-17s7.42-17 16.515-17z" stroke="#FE3E57" stroke-width="2"/></g><g filter="url(#filter1_d_11_3)"><path fill-rule="evenodd" clip-rule="evenodd" d="M115.469 235a5.5 5.5 0 110 11 5.5 5.5 0 010-11z" fill="#000" fill-opacity=".01"/><path d="M115.469 236a4.5 4.5 0 110 9 4.5 4.5 0 010-9z" stroke="#34C3FF" stroke-width="2"/></g><g filter="url(#filter2_d_11_3)"><path fill-rule="evenodd" clip-rule="evenodd" d="M206.92 708.527l-3.795-3.957a1.274 1.274 0 010-1.747 1.152 1.152 0 011.676 0l3.795 3.957 3.795-3.957a1.15 1.15 0 011.675 0 1.272 1.272 0 010 1.747l-3.795 3.957 3.795 3.958a1.272 1.272 0 010 1.747 1.15 1.15 0 01-1.675 0l-3.795-3.957-3.795 3.957a1.152 1.152 0 01-1.676 0 1.274 1.274 0 010-1.747l3.795-3.958z" fill="#34C3FF"/></g><g filter="url(#filter3_d_11_3)"><path fill-rule="evenodd" clip-rule="evenodd" d="M213.988 454.343l5.658 5.657-5.658 5.656-5.657-5.656 5.657-5.657z" fill="#5800E4"/></g><g filter="url(#filter4_d_11_3)"><path fill-rule="evenodd" clip-rule="evenodd" d="M42.275 377.194l-3.795-3.957a1.273 1.273 0 010-1.747 1.151 1.151 0 011.675 0l3.796 3.957 3.795-3.957a1.151 1.151 0 011.675 0 1.273 1.273 0 010 1.747l-3.795 3.957 3.795 3.958a1.272 1.272 0 010 1.746 1.151 1.151 0 01-1.675 0l-3.795-3.957-3.796 3.957a1.151 1.151 0 01-1.675 0 1.272 1.272 0 010-1.746l3.795-3.958z" fill="#FFB534"/></g><g filter="url(#filter5_d_11_3)"><path fill-rule="evenodd" clip-rule="evenodd" d="M182.566 89.55l-3.795-3.958a1.272 1.272 0 010-1.747 1.15 1.15 0 011.676 0l3.795 3.957 3.795-3.957a1.15 1.15 0 011.675 0 1.272 1.272 0 010 1.747l-3.795 3.957 3.795 3.957a1.273 1.273 0 010 1.748 1.15 1.15 0 01-1.675 0l-3.795-3.957-3.795 3.957a1.151 1.151 0 01-1.676 0 1.273 1.273 0 010-1.748l3.795-3.957z" fill="#FE3E57"/></g><defs><filter id="filter0_d_11_3" x="131.969" y="563" width="45.031" height="46" filterUnits="userSpaceOnUse" color-interpolation-filters="sRGB"><feFlood flood-opacity="0" result="BackgroundImageFix"/><feColorMatrix in="SourceAlpha" values="0 0 0 0 0 0 0 0 0 0 0 0 0 0 0 0 0 0 127 0" result="hardAlpha"/><feOffset dy="3"/><feGaussianBlur stdDeviation="2.5"/><feColorMatrix values="0 0 0 0 0.996078 0 0 0 0 0.243137 0 0 0 0 0.341176 0 0 0 0.4 0"/><feBlend in2="BackgroundImageFix" result="effect1_dropShadow_11_3"/><feBlend in="SourceGraphic" in2="effect1_dropShadow_11_3" result="shape"/></filter><filter id="filter1_d_11_3" x="104.969" y="233" width="21" height="21" filterUnits="userSpaceOnUse" color-interpolation-filters="sRGB"><feFlood flood-opacity="0" result="BackgroundImageFix"/><feColorMatrix in="SourceAlpha" values="0 0 0 0 0 0 0 0 0 0 0 0 0 0 0 0 0 0 127 0" result="hardAlpha"/><feOffset dy="3"/><feGaussianBlur stdDeviation="2.5"/><feColorMatrix values="0 0 0 0 0.203922 0 0 0 0 0.764706 0 0 0 0 1 0 0 0 0.4 0"/><feBlend in2="BackgroundImageFix" result="effect1_dropShadow_11_3"/><feBlend in="SourceGraphic" in2="effect1_dropShadow_11_3" result="shape"/></filter><filter id="filter2_d_11_3" x="197.778" y="700.461" width="21.635" height="22.132" filterUnits="userSpaceOnUse" color-interpolation-filters="sRGB"><feFlood flood-opacity="0" result="BackgroundImageFix"/><feColorMatrix in="SourceAlpha" values="0 0 0 0 0 0 0 0 0 0 0 0 0 0 0 0 0 0 127 0" result="hardAlpha"/><feOffset dy="3"/><feGaussianBlur stdDeviation="2.5"/><feColorMatrix values="0 0 0 0 0.203922 0 0 0 0 0.764706 0 0 0 0 1 0 0 0 0.4 0"/><feBlend in2="BackgroundImageFix" result="effect1_dropShadow_11_3"/><feBlend in="SourceGraphic" in2="effect1_dropShadow_11_3" result="shape"/></filter><filter id="filter3_d_11_3" x="203.331" y="452.343" width="21.315" height="21.314" filterUnits="userSpaceOnUse" color-interpolation-filters="sRGB"><feFlood flood-opacity="0" result="BackgroundImageFix"/><feColorMatrix in="SourceAlpha" values="0 0 0 0 0 0 0 0 0 0 0 0 0 0 0 0 0 0 127 0" result="hardAlpha"/><feOffset dy="3"/><feGaussianBlur stdDeviation="2.5"/><feColorMatrix values="0 0 0 0 0.345098 0 0 0 0 0 0 0 0 0 0.894118 0 0 0 0.4 0"/><feBlend in2="BackgroundImageFix" result="effect1_dropShadow_11_3"/><feBlend in="SourceGraphic" in2="effect1_dropShadow_11_3" result="shape"/></filter><filter id="filter4_d_11_3" x="33.133" y="369.128" width="21.635" height="22.132" filterUnits="userSpaceOnUse" color-interpolation-filters="sRGB"><feFlood flood-opacity="0" result="BackgroundImageFix"/><feColorMatrix in="SourceAlpha" values="0 0 0 0 0 0 0 0 0 0 0 0 0 0 0 0 0 0 127 0" result="hardAlpha"/><feOffset dy="3"/><feGaussianBlur stdDeviation="2.5"/><feColorMatrix values="0 0 0 0 1 0 0 0 0 0.709804 0 0 0 0 0.203922 0 0 0 0.4 0"/><feBlend in2="BackgroundImageFix" result="effect1_dropShadow_11_3"/><feBlend in="SourceGraphic" in2="effect1_dropShadow_11_3" result="shape"/></filter><filter id="filter5_d_11_3" x="173.424" y="81.483" width="21.635" height="22.133" filterUnits="userSpaceOnUse" color-interpolation-filters="sRGB"><feFlood flood-opacity="0" result="BackgroundImageFix"/><feColorMatrix in="SourceAlpha" values="0 0 0 0 0 0 0 0 0 0 0 0 0 0 0 0 0 0 127 0" result="hardAlpha"/><feOffset dy="3"/><feGaussianBlur stdDeviation="2.5"/><feColorMatrix values="0 0 0 0 0.996078 0 0 0 0 0.243137 0 0 0 0 0.341176 0 0 0 0.4 0"/><feBlend in2="BackgroundImageFix" result="effect1_dropShadow_11_3"/><feBlend in="SourceGraphic" in2="effect1_dropShadow_11_3" result="shape"/></filter></defs></svg>