<svg width="120" height="121" viewBox="0 0 120 121" fill="none" xmlns="http://www.w3.org/2000/svg">
<path fill-rule="evenodd" clip-rule="evenodd" d="M59.9886 120.994C59.6144 120.994 59.2406 120.99 58.8682 120.984C58.5437 120.977 58.2863 120.708 58.292 120.381C58.2984 120.054 58.5575 119.805 58.8899 119.799C60.238 119.825 61.6085 119.804 62.9566 119.737C63.2792 119.711 63.5555 119.972 63.5722 120.298C63.5882 120.624 63.3389 120.902 63.015 120.919C62.0131 120.968 60.9952 120.994 59.9886 120.994ZM54.779 120.766C54.7619 120.766 54.7453 120.766 54.7276 120.764C53.3564 120.645 51.9718 120.475 50.6116 120.26C50.2918 120.209 50.0728 119.906 50.1227 119.584C50.1731 119.261 50.471 119.039 50.7937 119.091C52.127 119.301 53.4848 119.468 54.8296 119.586C55.1522 119.614 55.3912 119.901 55.3632 120.226C55.3368 120.534 55.0805 120.766 54.779 120.766ZM67.0765 120.573C66.7831 120.573 66.5297 120.352 66.4942 120.051C66.4558 119.725 66.6862 119.431 67.0078 119.393C68.3507 119.232 69.7022 119.022 71.0257 118.769C71.3472 118.706 71.6515 118.919 71.7119 119.24C71.7725 119.561 71.5634 119.871 71.2447 119.932C69.8948 120.19 68.5158 120.404 67.1465 120.569C67.123 120.571 67.0994 120.573 67.0765 120.573ZM46.6715 119.483C46.628 119.483 46.5839 119.478 46.5397 119.468C45.1961 119.158 43.848 118.797 42.5321 118.394C42.2214 118.299 42.0466 117.969 42.1406 117.656C42.2346 117.343 42.5624 117.166 42.8725 117.262C44.1628 117.656 45.485 118.011 46.8023 118.315C47.118 118.388 47.3153 118.705 47.243 119.024C47.1811 119.298 46.9392 119.483 46.6715 119.483ZM75.1393 119.029C74.8793 119.029 74.6419 118.854 74.5726 118.588C74.49 118.271 74.6773 117.948 74.9909 117.865C76.2949 117.52 77.6046 117.122 78.8839 116.685C79.1928 116.582 79.5247 116.746 79.6285 117.056C79.7322 117.365 79.5677 117.702 79.2611 117.806C77.956 118.252 76.6199 118.657 75.289 119.01C75.239 119.023 75.1892 119.029 75.1393 119.029ZM38.811 117.079C38.741 117.079 38.6706 117.065 38.6018 117.039C37.3145 116.544 36.0271 115.996 34.7758 115.411C34.4818 115.274 34.354 114.922 34.4904 114.626C34.6262 114.329 34.9735 114.2 35.2699 114.338C36.4966 114.911 37.7581 115.448 39.0202 115.933C39.3229 116.05 39.4747 116.392 39.3595 116.697C39.2701 116.934 39.0472 117.079 38.811 117.079ZM82.9076 116.376C82.6784 116.376 82.4606 116.239 82.366 116.012C82.241 115.711 82.382 115.364 82.6812 115.238C83.9238 114.714 85.1654 114.138 86.3713 113.528C86.6636 113.381 87.0139 113.499 87.1595 113.791C87.305 114.082 87.188 114.438 86.8986 114.585C85.668 115.208 84.4019 115.795 83.134 116.33C83.06 116.361 82.9832 116.376 82.9076 116.376ZM31.3564 113.594C31.2606 113.594 31.1638 113.57 31.0738 113.521C29.8678 112.85 28.6687 112.129 27.5104 111.376C27.2381 111.199 27.1596 110.833 27.335 110.558C27.5108 110.283 27.8737 110.204 28.1466 110.381C29.2825 111.119 30.4576 111.827 31.64 112.484C31.9237 112.641 32.0275 113.001 31.871 113.288C31.7639 113.484 31.5632 113.594 31.3564 113.594ZM90.2362 112.663C90.0355 112.663 89.8402 112.56 89.7307 112.373C89.5656 112.092 89.6579 111.729 89.9364 111.562C91.096 110.87 92.2475 110.127 93.3588 109.354C93.6259 109.167 93.9917 109.236 94.1755 109.504C94.3596 109.774 94.2925 110.142 94.026 110.328C92.8918 111.117 91.7173 111.875 90.5348 112.581C90.4408 112.637 90.3377 112.663 90.2362 112.663ZM24.4536 109.107C24.3314 109.107 24.2082 109.069 24.1028 108.989C22.9976 108.156 21.9088 107.276 20.8667 106.371C20.6207 106.158 20.5933 105.785 20.8048 105.537C21.0157 105.288 21.3877 105.262 21.6324 105.474C22.6537 106.361 23.7216 107.225 24.8054 108.041C25.0651 108.237 25.1185 108.608 24.9241 108.869C24.8089 109.025 24.6325 109.107 24.4536 109.107ZM96.9893 107.967C96.8162 107.967 96.6455 107.891 96.5297 107.744C96.3278 107.488 96.3697 107.116 96.6232 106.912C97.6754 106.067 98.7152 105.172 99.7141 104.249C99.9533 104.029 100.325 104.045 100.544 104.286C100.763 104.527 100.747 104.901 100.507 105.122C99.4884 106.063 98.4275 106.976 97.3544 107.838C97.2461 107.924 97.1172 107.967 96.9893 107.967ZM18.2294 103.708C18.0805 103.708 17.9315 103.651 17.8168 103.537C16.8367 102.561 15.8783 101.538 14.9682 100.499C14.7536 100.254 14.7767 99.8796 15.0203 99.6632C15.2622 99.4477 15.6336 99.47 15.8485 99.7156C16.741 100.735 17.6809 101.737 18.6421 102.695C18.8725 102.925 18.8748 103.3 18.6468 103.532C18.5321 103.649 18.3808 103.708 18.2294 103.708ZM103.043 102.378C102.897 102.378 102.751 102.324 102.638 102.215C102.403 101.99 102.394 101.616 102.617 101.378C103.548 100.393 104.457 99.3616 105.319 98.3124C105.525 98.0615 105.895 98.0257 106.145 98.2343C106.395 98.4433 106.429 98.8159 106.222 99.0675C105.343 100.137 104.417 101.189 103.468 102.195C103.353 102.317 103.197 102.378 103.043 102.378ZM12.801 97.5025C12.6244 97.5025 12.4501 97.4228 12.3344 97.2709C11.5 96.173 10.6898 95.028 9.927 93.8685C9.7476 93.5966 9.82164 93.2289 10.0916 93.0482C10.3614 92.8669 10.7255 92.9422 10.9049 93.2144C11.6534 94.3522 12.4478 95.4742 13.2664 96.5509C13.4636 96.8105 13.4148 97.1812 13.1575 97.3804C13.051 97.4626 12.9254 97.5025 12.801 97.5025ZM108.28 96.0038C108.162 96.0038 108.042 95.9673 107.939 95.8927C107.675 95.7022 107.615 95.3321 107.804 95.0667C108.595 93.9559 109.355 92.8081 110.062 91.655C110.233 91.3763 110.595 91.2914 110.871 91.4629C111.146 91.6349 111.231 91.9993 111.061 92.2776C110.339 93.4536 109.564 94.6241 108.758 95.7566C108.643 95.918 108.463 96.0038 108.28 96.0038ZM8.27004 90.6075C8.06544 90.6075 7.86708 90.4995 7.75872 90.307C7.08012 89.1016 6.43476 87.8563 5.8404 86.6054C5.69988 86.3101 5.82324 85.957 6.11544 85.8151C6.40884 85.673 6.75864 85.799 6.89832 86.0934C7.48188 87.3198 8.11464 88.5414 8.78016 89.7238C8.94012 90.0078 8.84088 90.3686 8.55888 90.5301C8.4678 90.5824 8.36796 90.6075 8.27004 90.6075ZM112.602 88.961C112.509 88.961 112.416 88.9389 112.329 88.8925C112.042 88.7407 111.931 88.3823 112.083 88.0931C112.714 86.884 113.309 85.6411 113.853 84.3987C113.983 84.0998 114.331 83.9649 114.627 84.0954C114.923 84.2275 115.057 84.5767 114.927 84.8759C114.373 86.1438 113.765 87.4116 113.121 88.6448C113.016 88.8455 112.812 88.961 112.602 88.961ZM4.7262 83.153C4.4928 83.153 4.27164 83.0112 4.18044 82.7788C3.67428 81.4908 3.20544 80.1658 2.78712 78.8407C2.68896 78.529 2.85984 78.1959 3.16812 78.0973C3.4788 77.999 3.80736 78.171 3.90588 78.4814C4.3158 79.7811 4.7754 81.0797 5.27184 82.3422C5.39088 82.6459 5.24364 82.9903 4.94208 83.1103C4.87104 83.1389 4.7982 83.153 4.7262 83.153ZM115.916 81.3809C115.85 81.3809 115.782 81.3692 115.717 81.3454C115.412 81.2347 115.254 80.8955 115.364 80.5883C115.82 79.3108 116.238 77.9978 116.607 76.6852C116.694 76.3702 117.02 76.1895 117.331 76.2772C117.643 76.3659 117.824 76.6928 117.736 77.0074C117.36 78.3465 116.934 79.6858 116.468 80.9891C116.382 81.2302 116.156 81.3809 115.916 81.3809ZM2.2386 75.2664C1.97436 75.2664 1.73412 75.0855 1.66872 74.8144C1.34448 73.4689 1.06284 72.0914 0.83136 70.7201C0.77688 70.3979 0.9918 70.0923 1.31112 70.0366C1.63152 69.9823 1.93356 70.1994 1.98804 70.5207C2.21556 71.8655 2.4918 73.216 2.80932 74.5354C2.88612 74.8531 2.69244 75.1725 2.3778 75.2503C2.33136 75.2615 2.28432 75.2664 2.2386 75.2664ZM118.153 73.4177C118.113 73.4177 118.072 73.4137 118.032 73.4056C117.715 73.3383 117.511 73.0251 117.578 72.7049C117.854 71.3717 118.087 70.0137 118.272 68.6669C118.315 68.3439 118.602 68.1167 118.933 68.1615C119.254 68.2061 119.479 68.5042 119.434 68.8288C119.247 70.2018 119.008 71.5876 118.726 72.9469C118.669 73.2264 118.425 73.4177 118.153 73.4177ZM0.86052 67.1095C0.56256 67.1095 0.30744 66.8819 0.2772 66.5766C0.14016 65.1944 0.04896 63.7917 0.0066 62.4054C-0.00312 62.0788 0.25128 61.8057 0.57516 61.796C0.90132 61.7824 1.16952 62.0417 1.18044 62.3691C1.22172 63.728 1.31052 65.1038 1.44528 66.459C1.47732 66.7845 1.24236 67.0744 0.91956 67.1071C0.89964 67.1087 0.88008 67.1095 0.86052 67.1095ZM119.274 65.2209C119.261 65.2209 119.247 65.2206 119.233 65.2197C118.91 65.1981 118.666 64.9153 118.687 64.5894C118.779 63.2339 118.826 61.8557 118.826 60.4931C118.826 59.2478 118.787 57.986 118.71 56.742C118.69 56.4156 118.936 56.135 119.259 56.1148C119.591 56.0915 119.861 56.3428 119.881 56.6687C119.96 57.9365 119.999 59.2237 119.999 60.4931C119.999 61.8822 119.952 63.2878 119.859 64.6704C119.838 64.9826 119.58 65.2209 119.274 65.2209ZM0.6066 58.8387C0.59916 58.8387 0.59172 58.8387 0.58428 58.8382C0.2604 58.8266 0.0078 58.5519 0.0198 58.2252C0.07068 56.8345 0.16932 55.4318 0.3138 54.056C0.34764 53.731 0.63996 53.4962 0.95868 53.5292C1.28124 53.5638 1.51512 53.8547 1.4808 54.18C1.33968 55.5292 1.24296 56.9055 1.19244 58.2691C1.18104 58.5881 0.92076 58.8387 0.6066 58.8387ZM118.899 53.1768C118.609 53.1768 118.357 52.9601 118.318 52.663C118.141 51.3133 117.915 49.9532 117.647 48.6201C117.582 48.2996 117.788 47.9874 118.105 47.9222C118.427 47.8573 118.733 48.0647 118.797 48.3845C119.072 49.7442 119.301 51.1312 119.481 52.5078C119.524 52.832 119.298 53.1293 118.976 53.1715C118.95 53.1751 118.924 53.1768 118.899 53.1768ZM1.47048 50.6104C1.43664 50.6104 1.4022 50.608 1.36788 50.6016C1.04856 50.5448 0.83544 50.2384 0.89208 49.9158C1.13112 48.548 1.42104 47.1726 1.75296 45.8262C1.83108 45.5088 2.15016 45.3144 2.46432 45.3957C2.77908 45.4746 2.97048 45.7952 2.8926 46.1126C2.56644 47.432 2.28264 48.7812 2.04768 50.1216C1.99776 50.4087 1.7502 50.6104 1.47048 50.6104ZM117.264 45.0691C117.007 45.0691 116.771 44.8967 116.699 44.6345C116.34 43.3256 115.93 42.0102 115.479 40.725C115.371 40.4165 115.532 40.0786 115.837 39.9694C116.144 39.8611 116.478 40.0227 116.586 40.3303C117.046 41.6417 117.464 42.9837 117.831 44.3192C117.917 44.6341 117.734 44.96 117.421 45.047C117.369 45.061 117.316 45.0691 117.264 45.0691ZM3.45372 42.5817C3.39348 42.5817 3.33276 42.5717 3.27252 42.5523C2.96412 42.4516 2.79504 42.1177 2.89536 41.8068C3.32016 40.4882 3.79704 39.1643 4.3134 37.8719C4.43484 37.5683 4.77708 37.4232 5.07744 37.5441C5.3778 37.6666 5.52336 38.0109 5.4024 38.3142C4.89576 39.5808 4.428 40.8792 4.01196 42.1716C3.93168 42.4222 3.70116 42.5817 3.45372 42.5817ZM114.534 37.2719C114.307 37.2719 114.091 37.1382 113.994 36.915C113.461 35.673 112.874 34.4285 112.251 33.217C112.102 32.927 112.213 32.5698 112.502 32.4192C112.788 32.2697 113.144 32.3813 113.293 32.6724C113.928 33.9081 114.527 35.1771 115.072 36.4446C115.2 36.7443 115.064 37.093 114.766 37.2227C114.691 37.2558 114.611 37.2719 114.534 37.2719ZM6.52704 34.8972C6.44088 34.8972 6.35328 34.8779 6.27072 34.8376C5.979 34.6947 5.85804 34.3403 5.99964 34.0466C6.60264 32.7981 7.25724 31.554 7.94448 30.3498C8.1066 30.0675 8.46492 29.9696 8.74632 30.1324C9.02724 30.2955 9.12396 30.6567 8.96184 30.9402C8.2878 32.1211 7.6464 33.3406 7.05552 34.5646C6.9534 34.7756 6.74472 34.8972 6.52704 34.8972ZM110.758 29.9326C110.56 29.9326 110.367 29.8315 110.256 29.6486C109.554 28.4891 108.802 27.338 108.021 26.2265C107.834 25.9595 107.896 25.5905 108.16 25.4013C108.425 25.2124 108.792 25.2752 108.978 25.5418C109.776 26.6752 110.543 27.8496 111.258 29.0324C111.427 29.3115 111.339 29.6756 111.063 29.846C110.967 29.9044 110.862 29.9326 110.758 29.9326ZM10.6253 27.7203C10.5128 27.7203 10.3987 27.6877 10.2985 27.6196C10.0297 27.4376 9.95808 27.0699 10.1387 26.7988C10.9066 25.6453 11.7246 24.5047 12.5695 23.4089C12.7682 23.1511 13.1369 23.1031 13.3931 23.3045C13.6493 23.5051 13.6957 23.8768 13.4968 24.135C12.668 25.2091 11.8661 26.3279 11.113 27.458C10.9994 27.6281 10.8143 27.7203 10.6253 27.7203ZM106.013 23.1837C105.843 23.1837 105.675 23.11 105.558 22.967C104.701 21.911 103.799 20.8736 102.878 19.8844C102.655 19.6464 102.667 19.2714 102.903 19.0483C103.14 18.8248 103.512 18.8361 103.733 19.0744C104.673 20.0833 105.593 21.141 106.467 22.2175C106.673 22.4704 106.635 22.8438 106.384 23.05C106.275 23.1402 106.144 23.1837 106.013 23.1837ZM15.6628 21.182C15.5236 21.182 15.3836 21.1325 15.2719 21.0314C15.03 20.8139 15.0094 20.4398 15.225 20.1957C16.1408 19.1623 17.106 18.1461 18.0931 17.1755C18.3252 16.948 18.6966 16.9516 18.923 17.186C19.1495 17.4195 19.1449 17.7945 18.9127 18.0225C17.9447 18.9741 16.999 19.9709 16.1008 20.9843C15.9844 21.1147 15.8239 21.182 15.6628 21.182ZM100.392 17.1526C100.249 17.1526 100.106 17.1002 99.9929 16.9947C99.0006 16.0671 97.966 15.1642 96.9172 14.3112C96.6649 14.1053 96.6254 13.7333 96.8288 13.479C97.033 13.2249 97.402 13.1846 97.6542 13.3896C98.7238 14.2605 99.7796 15.1815 100.791 16.1271C101.028 16.349 101.042 16.724 100.822 16.9632C100.706 17.089 100.549 17.1526 100.392 17.1526ZM21.5407 15.4043C21.3739 15.4043 21.2088 15.3329 21.093 15.1952C20.8826 14.9463 20.9131 14.5725 21.1601 14.3615C22.2102 13.4622 23.3038 12.589 24.4106 11.7666C24.6714 11.5724 25.0388 11.6285 25.2313 11.8914C25.4239 12.1544 25.3685 12.525 25.1076 12.7183C24.0221 13.5254 22.9496 14.3812 21.9202 15.2633C21.8095 15.3583 21.6749 15.4043 21.5407 15.4043ZM94.0008 11.9531C93.8844 11.9531 93.7676 11.9189 93.6649 11.8459C92.5604 11.0674 91.4124 10.3159 90.2527 9.61309C89.9749 9.44514 89.8848 9.08141 90.0517 8.80118C90.2184 8.52118 90.5789 8.42947 90.8569 8.59935C92.0406 9.31591 93.2116 10.0823 94.3379 10.8769C94.6032 11.0638 94.668 11.4332 94.4822 11.7006C94.3681 11.8649 94.186 11.9531 94.0008 11.9531ZM28.1449 10.4947C27.9505 10.4947 27.7608 10.3977 27.649 10.2204C27.4748 9.94535 27.5556 9.57884 27.8291 9.40327C28.9908 8.65864 30.1928 7.94607 31.4011 7.28444C31.6882 7.12896 32.0424 7.23532 32.1972 7.52245C32.352 7.80958 32.2464 8.16883 31.9616 8.32468C30.7763 8.97276 29.5979 9.67226 28.4594 10.4021C28.3615 10.4649 28.2526 10.4947 28.1449 10.4947ZM86.9605 7.68834C86.8705 7.68834 86.7793 7.66777 86.694 7.62312C85.4926 7.00493 84.2522 6.42087 83.0074 5.88604C82.7093 5.75803 82.57 5.41076 82.6973 5.10995C82.8245 4.80914 83.169 4.66818 83.467 4.79741C84.7372 5.34191 86.0022 5.93795 87.2282 6.56957C87.5165 6.71816 87.6312 7.07463 87.4838 7.36539C87.38 7.57036 87.1744 7.68834 86.9605 7.68834ZM35.3531 6.54973C35.1301 6.54973 34.9169 6.42208 34.8182 6.20428C34.6842 5.90662 34.8137 5.55584 35.1089 5.42044C36.3601 4.8446 37.6475 4.30651 38.9348 3.81997C39.2375 3.70441 39.5768 3.86063 39.6902 4.16676C39.8038 4.47276 39.6502 4.8135 39.3463 4.92869C38.0842 5.40483 36.8227 5.93239 35.5961 6.49697C35.5169 6.53327 35.4344 6.54973 35.3531 6.54973ZM79.3998 4.44457C79.3361 4.44457 79.2714 4.4338 79.2083 4.41202C77.9336 3.96771 76.6261 3.56345 75.3217 3.2094C75.0086 3.12446 74.823 2.79982 74.9072 2.48401C74.9915 2.16747 75.317 1.98137 75.6265 2.06644C76.9574 2.42762 78.2912 2.84047 79.5912 3.29314C79.8978 3.40034 80.0606 3.73696 79.9546 4.04588C79.8703 4.29042 79.6434 4.44457 79.3998 4.44457ZM43.0337 3.64924C42.7802 3.64924 42.5471 3.48286 42.4708 3.22586C42.3785 2.91259 42.5556 2.58311 42.8662 2.49054C44.1869 2.09499 45.5372 1.74143 46.8803 1.43966C47.1977 1.37081 47.5106 1.56985 47.5812 1.88881C47.6512 2.20777 47.4522 2.52394 47.1358 2.59485C45.8186 2.89045 44.4952 3.23723 43.201 3.62468C43.1448 3.64113 43.0885 3.64924 43.0337 3.64924ZM71.4751 2.29319C71.4379 2.29319 71.4 2.28992 71.3616 2.2823C70.037 2.02082 68.6861 1.80254 67.3471 1.63423C67.0255 1.59393 66.7974 1.29833 66.8376 0.974171C66.8777 0.649528 67.1706 0.418297 67.4927 0.4598C68.8579 0.631741 70.2359 0.854502 71.5874 1.1207C71.9056 1.18362 72.113 1.49411 72.0505 1.81464C71.9956 2.09705 71.7502 2.29319 71.4751 2.29319ZM51.0437 1.84936C50.7583 1.84936 50.5078 1.63907 50.4636 1.34588C50.4156 1.02281 50.6362 0.721644 50.9566 0.672518C52.3151 0.465487 53.7004 0.303952 55.0748 0.191543C55.3982 0.166254 55.6813 0.407528 55.7076 0.733744C55.7334 1.05911 55.4927 1.34504 55.17 1.37081C53.8219 1.48116 52.4635 1.63991 51.132 1.84283C51.1022 1.84694 51.0728 1.84936 51.0437 1.84936ZM63.3308 1.2682C63.3199 1.2682 63.309 1.26772 63.2976 1.26735C61.9535 1.19197 60.5779 1.1622 59.2326 1.18035C59.2298 1.18035 59.2274 1.18035 59.2252 1.18035C58.9042 1.18035 58.6422 0.919358 58.6382 0.595199C58.6343 0.268983 58.8938 0.000242 59.2177 -0.003751C60.5951 -0.021901 61.9919 0.008712 63.3629 0.085668C63.6863 0.103455 63.9344 0.382844 63.9161 0.709181C63.8988 1.02451 63.6397 1.2682 63.3308 1.2682ZM59.9898 108.773C58.7329 108.773 57.4644 108.723 56.2183 108.626C55.8956 108.6 55.6537 108.316 55.679 107.99C55.7042 107.664 55.9708 107.421 56.31 107.446C57.5252 107.541 58.7627 107.59 59.9886 107.59L60.363 107.588C60.3641 107.588 60.3659 107.588 60.367 107.588C60.6892 107.588 60.9517 107.85 60.954 108.175C60.9563 108.502 60.6953 108.769 60.371 108.771L59.9898 108.773ZM64.4669 108.562C64.1671 108.562 63.9114 108.332 63.8828 108.026C63.853 107.701 64.0897 107.412 64.4125 107.382C65.7565 107.254 67.108 107.066 68.4293 106.823C68.7497 106.766 69.054 106.977 69.1118 107.298C69.1704 107.62 68.9588 107.928 68.6401 107.987C67.2852 108.236 65.8998 108.429 64.5224 108.559C64.5036 108.561 64.4852 108.562 64.4669 108.562ZM52.1894 108.127C52.158 108.127 52.1252 108.125 52.0926 108.119C50.7278 107.891 49.3597 107.6 48.0259 107.254C47.7119 107.172 47.5228 106.85 47.6035 106.533C47.685 106.217 48.0104 106.028 48.3182 106.108C49.6194 106.445 50.9538 106.729 52.2852 106.952C52.6044 107.005 52.8211 107.31 52.7677 107.633C52.7203 107.922 52.4714 108.127 52.1894 108.127ZM72.5377 107.077C72.2804 107.077 72.0436 106.904 71.9725 106.642C71.8866 106.326 72.0707 106 72.3829 105.914C73.6824 105.555 74.9807 105.133 76.2421 104.661C76.5448 104.548 76.8841 104.704 76.9966 105.01C77.1094 105.316 76.9547 105.656 76.6502 105.77C75.3571 106.254 74.0257 106.687 72.6936 107.056C72.6414 107.07 72.5894 107.077 72.5377 107.077ZM44.2436 106.067C44.1787 106.067 44.1128 106.056 44.0482 106.034C42.7464 105.57 41.4482 105.043 40.19 104.466C39.8948 104.331 39.7648 103.98 39.8989 103.683C40.0325 103.386 40.3786 103.253 40.6762 103.389C41.9033 103.951 43.1689 104.465 44.439 104.917C44.7445 105.026 44.905 105.364 44.7973 105.672C44.7118 105.916 44.4854 106.067 44.2436 106.067ZM80.2279 104.2C80.008 104.2 79.7976 104.075 79.6972 103.861C79.558 103.566 79.6829 103.213 79.9759 103.073C81.1898 102.493 82.3957 101.85 83.5604 101.164C83.8391 100.998 84.199 101.093 84.3634 101.375C84.5268 101.657 84.4328 102.019 84.1531 102.185C82.9598 102.889 81.7235 103.548 80.4791 104.143C80.3977 104.181 80.3123 104.2 80.2279 104.2ZM36.7711 102.643C36.6737 102.643 36.5744 102.618 36.4834 102.566C35.2814 101.882 34.0938 101.137 32.9537 100.349C32.6866 100.164 32.6184 99.7966 32.8014 99.5267C32.9848 99.2573 33.3493 99.1884 33.6175 99.3728C34.7294 100.141 35.8878 100.869 37.06 101.536C37.3426 101.696 37.4423 102.057 37.283 102.342C37.1752 102.535 36.9757 102.643 36.7711 102.643ZM87.3067 100.021C87.1226 100.021 86.9417 99.9343 86.8276 99.7712C86.6401 99.505 86.702 99.1348 86.9669 98.9463C88.0662 98.161 89.1443 97.3168 90.171 96.4405C90.4184 96.2286 90.7894 96.26 90.998 96.5094C91.2078 96.7586 91.1767 97.132 90.9296 97.343C89.8774 98.242 88.7724 99.1063 87.6455 99.9118C87.5424 99.9855 87.4242 100.021 87.3067 100.021ZM30.0007 97.9669C29.87 97.9669 29.7383 97.923 29.6288 97.8327C28.5599 96.9483 27.5183 96.0071 26.532 95.0361C26.3003 94.8077 26.2957 94.4328 26.5228 94.1991C26.7492 93.9656 27.1201 93.9611 27.3527 94.1891C28.3145 95.1372 29.3308 96.0554 30.3738 96.9177C30.6244 97.1251 30.6605 97.4977 30.4553 97.7502C30.339 97.8931 30.1704 97.9669 30.0007 97.9669ZM93.5658 94.6732C93.4163 94.6732 93.2665 94.6156 93.1526 94.5012C92.9221 94.2712 92.9209 93.8962 93.149 93.6643C94.097 92.7017 95.0159 91.684 95.8798 90.6405C96.0866 90.3895 96.4564 90.3549 96.7062 90.5651C96.955 90.7746 96.9888 91.1471 96.7807 91.3981C95.8957 92.4682 94.954 93.5112 93.9826 94.4985C93.8678 94.6144 93.7165 94.6732 93.5658 94.6732ZM24.1303 92.1866C23.9658 92.1866 23.802 92.1173 23.6856 91.9808C22.7862 90.928 21.9202 89.8213 21.1115 88.6903C20.9222 88.4257 20.9813 88.0552 21.2443 87.8643C21.508 87.6735 21.8743 87.7335 22.064 87.9985C22.8528 89.1016 23.6976 90.1813 24.5752 91.2092C24.7866 91.4572 24.759 91.8302 24.5132 92.0433C24.4026 92.1399 24.2662 92.1866 24.1303 92.1866ZM98.8212 88.3202C98.7055 88.3202 98.5885 88.2856 98.4859 88.2135C98.2205 88.0267 98.1552 87.6577 98.3404 87.3898C99.11 86.2755 99.8414 85.1143 100.513 83.9364C100.675 83.6527 101.034 83.5557 101.315 83.7181C101.596 83.8816 101.693 84.2432 101.531 84.5264C100.842 85.7338 100.092 86.9247 99.3032 88.0665C99.1892 88.2313 99.007 88.3202 98.8212 88.3202ZM19.3351 85.4765C19.1351 85.4765 18.9402 85.3734 18.8302 85.1876C18.124 83.9931 17.4604 82.7523 16.8584 81.4993C16.7174 81.2053 16.8395 80.8517 17.1313 80.7095C17.4236 80.5669 17.7749 80.6902 17.9155 80.9837C18.5023 82.2053 19.1495 83.4163 19.839 84.5819C20.0046 84.8626 19.9135 85.2255 19.635 85.3926C19.5409 85.4495 19.4372 85.4765 19.3351 85.4765ZM102.912 81.1465C102.829 81.1465 102.745 81.1292 102.666 81.0917C102.372 80.954 102.244 80.6023 102.38 80.3059C102.947 79.0752 103.467 77.8032 103.926 76.525C104.037 76.2173 104.375 76.0585 104.679 76.1697C104.983 76.2813 105.141 76.6203 105.03 76.9277C104.559 78.2386 104.026 79.5427 103.445 80.8045C103.345 81.02 103.134 81.1465 102.912 81.1465ZM15.7614 78.034C15.5246 78.034 15.3018 77.8882 15.213 77.6519C14.7222 76.351 14.2826 75.0118 13.9066 73.673C13.8184 73.3589 13.9996 73.0315 14.3113 72.9424C14.6185 72.8568 14.9474 73.0363 15.0358 73.3509C15.4026 74.6566 15.8314 75.9623 16.3099 77.2314C16.4251 77.537 16.2732 77.8786 15.9701 77.995C15.9012 78.0215 15.8308 78.034 15.7614 78.034ZM105.706 73.3677C105.656 73.3677 105.605 73.3613 105.555 73.3477C105.241 73.2639 105.055 72.9396 105.138 72.624C105.483 71.3162 105.776 69.973 106.008 68.6311C106.064 68.3097 106.362 68.0966 106.687 68.1497C107.006 68.2061 107.22 68.5131 107.164 68.8345C106.926 70.2094 106.627 71.5869 106.273 72.928C106.203 73.193 105.966 73.3677 105.706 73.3677ZM13.5259 70.075C13.2497 70.075 13.0039 69.878 12.95 69.594C12.6926 68.2319 12.4903 66.8373 12.3493 65.4485C12.3167 65.1232 12.551 64.8323 12.8737 64.7994C13.1884 64.7622 13.4842 65.0023 13.5174 65.3273C13.655 66.683 13.8521 68.0439 14.1032 69.3733C14.164 69.6939 13.9548 70.0036 13.6367 70.0648C13.5994 70.0713 13.5622 70.075 13.5259 70.075ZM107.115 65.2194C107.098 65.2194 107.081 65.219 107.064 65.2174C106.741 65.1892 106.502 64.9028 106.53 64.5775C106.644 63.2306 106.703 61.8569 106.703 60.4931C106.703 59.9889 106.695 59.4871 106.679 58.986C106.668 58.6598 106.923 58.3859 107.247 58.3758C107.582 58.3573 107.842 58.6223 107.852 58.949C107.869 59.4613 107.877 59.9764 107.877 60.4931C107.877 61.8907 107.817 63.2987 107.699 64.6789C107.673 64.9874 107.417 65.2194 107.115 65.2194ZM12.6932 61.8484C12.3734 61.8484 12.1115 61.5886 12.1062 61.2656C12.1024 61.009 12.1004 60.7517 12.1001 60.4948C12.1001 59.3581 12.1396 58.2087 12.2186 57.0779C12.2411 56.7512 12.5189 56.5075 12.8444 56.5281C13.1683 56.551 13.412 56.8342 13.389 57.16C13.3129 58.2643 13.2738 59.3852 13.2738 60.4931C13.2744 60.7441 13.2762 60.9962 13.2802 61.2467C13.2853 61.5733 13.0267 61.8424 12.7024 61.8484C12.6995 61.8484 12.696 61.8484 12.6932 61.8484ZM106.962 55.4318C106.668 55.4318 106.415 55.2102 106.379 54.9098C106.22 53.557 106.001 52.1998 105.729 50.8751C105.663 50.5553 105.867 50.242 106.184 50.1756C106.5 50.1086 106.812 50.3145 106.878 50.6343C107.157 51.9924 107.382 53.3839 107.545 54.77C107.583 55.0951 107.353 55.3894 107.031 55.4273C107.008 55.4302 106.984 55.4318 106.962 55.4318ZM13.2668 53.5977C13.2366 53.5977 13.2056 53.5953 13.1747 53.5904C12.8549 53.5392 12.6359 53.2364 12.6869 52.9138C12.9018 51.5389 13.1798 50.157 13.5122 48.8062C13.5901 48.4888 13.9072 48.2959 14.2236 48.3745C14.5382 48.4537 14.7296 48.7747 14.6518 49.0918C14.3273 50.4091 14.0562 51.7571 13.8458 53.0978C13.8005 53.3894 13.5506 53.5977 13.2668 53.5977ZM105.293 47.3337C105.04 47.3337 104.808 47.1682 104.731 46.9128C104.343 45.6116 103.893 44.3127 103.395 43.0529C103.275 42.7492 103.422 42.4053 103.723 42.2841C104.022 42.1624 104.365 42.3102 104.485 42.6143C104.997 43.9063 105.457 45.2378 105.855 46.5717C105.948 46.8847 105.772 47.2153 105.462 47.3083C105.406 47.3256 105.349 47.3337 105.293 47.3337ZM15.2461 45.5721C15.1831 45.5721 15.1183 45.5616 15.0552 45.5399C14.7486 45.4336 14.5858 45.0968 14.6914 44.7879C15.1394 43.4725 15.652 42.1597 16.2142 40.8853C16.346 40.5876 16.6939 40.4524 16.9891 40.5852C17.2855 40.7182 17.4185 41.0674 17.2872 41.3666C16.7381 42.6099 16.2383 43.8898 15.801 45.1722C15.7172 45.4175 15.4897 45.5721 15.2461 45.5721ZM102.256 39.6529C102.041 39.6529 101.834 39.5337 101.731 39.3271C101.127 38.1177 100.46 36.9178 99.751 35.7603C99.5806 35.4824 99.6655 35.118 99.9413 34.946C100.217 34.7752 100.579 34.8597 100.749 35.138C101.477 36.3242 102.159 37.5545 102.78 38.7947C102.925 39.0866 102.809 39.4422 102.519 39.5893C102.435 39.6328 102.345 39.6529 102.256 39.6529ZM18.582 38.0105C18.4858 38.0105 18.3882 37.9871 18.2983 37.9364C18.0145 37.7785 17.9119 37.418 18.069 37.1321C18.7373 35.9162 19.4675 34.7136 20.2402 33.5569C20.4206 33.2863 20.7853 33.215 21.0547 33.3966C21.3235 33.5794 21.3946 33.9468 21.2135 34.2178C20.4602 35.3463 19.7478 36.52 19.0962 37.7057C18.9889 37.9001 18.7883 38.0105 18.582 38.0105ZM97.942 32.6181C97.7624 32.6181 97.586 32.5359 97.4708 32.3801C96.6678 31.2939 95.8062 30.227 94.9098 29.21C94.6943 28.9656 94.7161 28.5918 94.9586 28.3747C95.2006 28.1577 95.5712 28.1786 95.7868 28.4239C96.7062 29.4666 97.5895 30.5596 98.412 31.6732C98.6057 31.9359 98.5518 32.3055 98.2921 32.5017C98.1868 32.5802 98.0635 32.6181 97.942 32.6181ZM23.1656 31.1484C23.0362 31.1484 22.906 31.105 22.7976 31.0168C22.5455 30.8113 22.5059 30.4389 22.7094 30.1843C23.576 29.1026 24.5006 28.0453 25.4578 27.04C25.683 26.8044 26.0544 26.7971 26.2877 27.0235C26.5216 27.2498 26.529 27.6241 26.305 27.86C25.37 28.8404 24.4679 29.873 23.6231 30.9282C23.5067 31.0732 23.3371 31.1484 23.1656 31.1484ZM92.4899 26.4363C92.3449 26.4363 92.1998 26.3824 92.0863 26.2748C91.1086 25.3413 90.0774 24.4395 89.0222 23.5949C88.7683 23.392 88.7258 23.0194 88.9277 22.7629C89.1288 22.5079 89.4986 22.4644 89.7524 22.6678C90.834 23.5341 91.8904 24.4585 92.8933 25.4145C93.129 25.6388 93.1393 26.0143 92.9164 26.2511C92.8006 26.3739 92.6453 26.4363 92.4899 26.4363ZM28.8527 25.1834C28.6894 25.1834 28.5271 25.1149 28.4108 24.982C28.1975 24.7355 28.2222 24.3618 28.4664 24.1466C29.5044 23.2304 30.5958 22.3488 31.71 21.5255C31.9702 21.3327 32.3382 21.3894 32.5302 21.6528C32.7216 21.9171 32.6648 22.2867 32.4035 22.4797C31.3169 23.2832 30.2525 24.143 29.2391 25.0372C29.1278 25.1355 28.9902 25.1834 28.8527 25.1834ZM86.0635 21.2904C85.9523 21.2904 85.8401 21.2586 85.7402 21.1921C84.6174 20.4426 83.4475 19.7329 82.264 19.0845C81.9791 18.9286 81.8736 18.5699 82.0284 18.2823C82.1837 17.9955 82.5396 17.8888 82.8245 18.0451C84.0379 18.7104 85.237 19.4366 86.388 20.2049C86.6584 20.3858 86.7324 20.7531 86.5536 21.0253C86.4407 21.1974 86.2537 21.2904 86.0635 21.2904ZM35.4706 20.2944C35.2723 20.2944 35.0785 20.1928 34.9685 20.0096C34.8 19.7301 34.8882 19.3664 35.165 19.1969C36.3458 18.4739 37.5713 17.7957 38.8081 17.1799C39.0976 17.035 39.4512 17.155 39.594 17.4482C39.7379 17.741 39.6186 18.0958 39.3281 18.2407C38.1215 18.8409 36.9258 19.5037 35.775 20.2086C35.6792 20.2667 35.5744 20.2944 35.4706 20.2944ZM78.8519 17.3398C78.7739 17.3398 78.6942 17.3242 78.618 17.2903C77.3839 16.7486 76.1102 16.2544 74.8316 15.8239C74.5243 15.7196 74.3582 15.3841 74.4613 15.0748C74.5645 14.7647 74.8981 14.5988 75.2041 14.701C76.5156 15.1436 77.8218 15.6495 79.0867 16.2049C79.3837 16.3357 79.5202 16.6846 79.3906 16.9842C79.2942 17.2069 79.0788 17.3398 78.8519 17.3398ZM42.8243 16.633C42.5894 16.633 42.3682 16.49 42.2777 16.256C42.1601 15.9516 42.3091 15.6084 42.6112 15.4896C43.8996 14.9842 45.2243 14.5298 46.5472 14.1404C46.8612 14.0474 47.1845 14.2298 47.2751 14.5436C47.3657 14.8565 47.1874 15.1851 46.8761 15.277C45.5854 15.6559 44.294 16.0986 43.0376 16.5927C42.9676 16.6201 42.8956 16.633 42.8243 16.633ZM71.0716 14.7119C71.0262 14.7119 70.9799 14.7071 70.934 14.6958C69.626 14.3793 68.2871 14.1171 66.9545 13.9161C66.6335 13.8682 66.4128 13.5669 66.4604 13.2435C66.5084 12.92 66.806 12.6989 67.1275 12.7453C68.4946 12.9515 69.8672 13.2209 71.208 13.5459C71.5232 13.6217 71.7175 13.941 71.6418 14.2588C71.5771 14.5298 71.3364 14.7119 71.0716 14.7119ZM50.6987 14.3151C50.4241 14.3151 50.1793 14.1207 50.1238 13.8391C50.06 13.5181 50.2666 13.2068 50.5846 13.1431C51.9384 12.8717 53.3204 12.6571 54.6931 12.5044C55.0135 12.4689 55.3052 12.7038 55.3409 13.0279C55.3763 13.3531 55.1437 13.645 54.8215 13.6809C53.4826 13.8295 52.1339 14.0398 50.8139 14.3043C50.7749 14.312 50.7366 14.3151 50.6987 14.3151ZM62.9582 13.4887C62.9462 13.4887 62.9336 13.4884 62.9216 13.4875C61.5764 13.4041 60.2111 13.3784 58.867 13.4098C58.5511 13.4122 58.2738 13.1585 58.2664 12.8323C58.2589 12.5052 58.5157 12.2346 58.8395 12.2266C60.2156 12.1939 61.6159 12.2205 62.9939 12.3063C63.3176 12.3268 63.5635 12.6071 63.5435 12.9333C63.524 13.2471 63.2662 13.4887 62.9582 13.4887ZM58.2227 96.8102C58.213 96.8102 58.2032 96.8098 58.1935 96.8093C56.8046 96.7405 55.4089 96.5898 54.0448 96.3611C53.7251 96.3084 53.5088 96.0038 53.5622 95.6809C53.6149 95.3583 53.9124 95.1383 54.2374 95.1943C55.5569 95.4155 56.9072 95.5608 58.2509 95.6269C58.5748 95.643 58.8246 95.9209 58.8085 96.2472C58.7929 96.5637 58.5334 96.8102 58.2227 96.8102ZM62.3267 96.7775C62.02 96.7775 61.7616 96.5371 61.7414 96.2245C61.7202 95.8983 61.9655 95.616 62.2888 95.5951C63.6312 95.5065 64.9793 95.3393 66.2953 95.0973C66.6151 95.0401 66.92 95.2519 66.978 95.5733C67.0364 95.8947 66.8249 96.2032 66.5062 96.2617C65.1462 96.5121 63.7528 96.6849 62.3657 96.7764C62.3524 96.7771 62.3393 96.7775 62.3267 96.7775ZM50.137 95.4569C50.0837 95.4569 50.0286 95.4493 49.9741 95.4335C48.641 95.0457 47.3164 94.5746 46.037 94.0329C45.7385 93.9059 45.5981 93.5591 45.7236 93.258C45.849 92.9558 46.1935 92.8149 46.4922 92.9414C47.729 93.4654 49.01 93.9213 50.2997 94.2958C50.611 94.3873 50.791 94.7147 50.701 95.0288C50.627 95.2882 50.3921 95.4569 50.137 95.4569ZM70.3895 95.2922C70.1378 95.2922 69.9058 95.1291 69.8284 94.8738C69.7332 94.5616 69.9074 94.2306 70.2176 94.1347C71.5002 93.7385 72.7739 93.2616 74.0016 92.7187C74.3009 92.5869 74.6448 92.7235 74.7755 93.0227C74.9056 93.3216 74.7703 93.6707 74.4739 93.8021C73.2038 94.3639 71.8878 94.8565 70.5613 95.2664C70.5042 95.2838 70.4462 95.2922 70.3895 95.2922ZM42.575 92.2571C42.4776 92.2571 42.3785 92.2321 42.2874 92.1802C41.0814 91.4939 39.9 90.7279 38.7767 89.9035C38.5147 89.7113 38.4568 89.3412 38.6477 89.0771C38.8392 88.8124 39.2053 88.7543 39.4679 88.9465C40.5546 89.7447 41.6976 90.4854 42.8639 91.1495C43.1465 91.3111 43.2463 91.6715 43.087 91.9562C42.9792 92.1488 42.7798 92.2571 42.575 92.2571ZM77.8934 91.972C77.6917 91.972 77.4956 91.8672 77.3862 91.6792C77.2229 91.3969 77.3162 91.0347 77.5961 90.8697C78.7528 90.187 79.883 89.4278 80.9554 88.6139C81.2156 88.4165 81.583 88.4701 81.7772 88.7306C81.9721 88.9913 81.9205 89.3625 81.6614 89.5591C80.553 90.4004 79.3849 91.1854 78.1892 91.8902C78.0964 91.9457 77.9944 91.972 77.8934 91.972ZM35.9486 87.3915C35.8064 87.3915 35.6638 87.3391 35.5508 87.2345C34.53 86.2851 33.5539 85.2682 32.6506 84.2098C32.439 83.9625 32.4665 83.5887 32.7125 83.3757C32.9567 83.1627 33.3275 83.1892 33.5401 83.4386C34.4142 84.4611 35.3587 85.4458 36.3464 86.3645C36.5848 86.586 36.5996 86.9602 36.3802 87.2002C36.2644 87.327 36.1068 87.3915 35.9486 87.3915ZM84.4403 87.0024C84.285 87.0024 84.1302 86.9413 84.0149 86.8183C83.7914 86.5816 83.8006 86.2074 84.0356 85.9819C85.0078 85.0503 85.9363 84.0507 86.7966 83.0112C87.0029 82.7607 87.3732 82.7265 87.6232 82.9359C87.8718 83.1453 87.9058 83.5178 87.6977 83.7691C86.8092 84.8433 85.8492 85.8764 84.8449 86.8398C84.7314 86.9484 84.5858 87.0024 84.4403 87.0024ZM30.6008 81.1304C30.4129 81.1304 30.2278 81.0394 30.1142 80.8706C29.3353 79.7115 28.616 78.4965 27.9774 77.2587C27.8279 76.9688 27.9397 76.6119 28.2269 76.4605C28.5151 76.3102 28.8692 76.423 29.0183 76.7122C29.6369 77.9088 30.332 79.0848 31.0864 80.2069C31.268 80.4767 31.1982 80.8457 30.9294 81.0285C30.8284 81.0973 30.7145 81.1304 30.6008 81.1304ZM89.6905 80.6559C89.5806 80.6559 89.4688 80.6245 89.3695 80.5593C89.0984 80.3801 89.0227 80.0132 89.2 79.7397C89.9353 78.608 90.6128 77.4203 91.213 76.21C91.3579 75.9179 91.7104 75.7992 92.0005 75.9458C92.2906 76.0924 92.4079 76.4472 92.263 76.74C91.6422 77.9905 90.9418 79.2177 90.1824 80.3877C90.0695 80.5617 89.882 80.6559 89.6905 80.6559ZM26.8168 73.8012C26.58 73.8012 26.357 73.6562 26.2682 73.4198C25.7759 72.1153 25.354 70.7653 25.0135 69.4068C24.9344 69.0901 25.1248 68.7681 25.4388 68.6883C25.7546 68.6089 26.0728 68.8002 26.1518 69.1171C26.4809 70.4313 26.889 71.737 27.3653 72.9993C27.4806 73.3041 27.3286 73.6465 27.0254 73.7624C26.9567 73.7887 26.8861 73.8012 26.8168 73.8012ZM93.3578 73.2622C93.2912 73.2622 93.2236 73.2506 93.1577 73.2268C92.8528 73.1157 92.6957 72.7762 92.8057 72.4688C93.2632 71.1962 93.6506 69.8828 93.9572 68.5666C94.0318 68.2473 94.347 68.052 94.6628 68.1257C94.9787 68.2001 95.174 68.5183 95.1001 68.8369C94.7832 70.1982 94.3826 71.5563 93.9097 72.872C93.8231 73.1124 93.5978 73.2622 93.3578 73.2622ZM24.8124 65.7884C24.5224 65.7884 24.2701 65.5722 24.2312 65.2742C24.0506 63.8903 23.9482 62.4791 23.9268 61.08C23.9216 60.7529 24.1807 60.4843 24.5046 60.4791C24.5081 60.4791 24.511 60.4791 24.5138 60.4791C24.8341 60.4791 25.0956 60.7376 25.1006 61.0618C25.1214 62.4158 25.2199 63.7812 25.3948 65.1199C25.4372 65.4437 25.2107 65.7414 24.8898 65.7841C24.8634 65.7869 24.8376 65.7884 24.8124 65.7884ZM95.2343 65.2162C95.212 65.2162 95.1896 65.215 95.1666 65.2126C94.845 65.1754 94.6135 64.8819 94.6508 64.5576C94.8032 63.2149 94.8806 61.8476 94.8806 60.4931C94.8812 60.1121 94.8749 59.7324 94.8635 59.3558C94.8532 59.0283 95.107 58.7557 95.4314 58.7453C95.7433 58.7259 96.0264 58.9912 96.0361 59.3183C96.0487 59.7085 96.0552 60.1001 96.0545 60.4939C96.0545 61.8919 95.9742 63.3051 95.8166 64.6918C95.7822 64.9938 95.529 65.2162 95.2343 65.2162ZM24.6828 57.5276C24.664 57.5276 24.6445 57.5264 24.6244 57.5249C24.3023 57.4927 24.0661 57.2031 24.0983 56.8776C24.2347 55.4825 24.4536 54.0846 24.7476 52.7221C24.817 52.4032 25.1299 52.2001 25.4464 52.2702C25.7633 52.3399 25.9639 52.6548 25.8952 52.9738C25.6097 54.2916 25.3987 55.644 25.2664 56.9937C25.2366 57.2993 24.9809 57.5276 24.6828 57.5276ZM95.0836 55.8063C94.797 55.8063 94.5464 55.5953 94.5035 55.3017C94.3069 53.9638 94.0306 52.6234 93.6815 51.3173C93.5974 51.0011 93.783 50.6765 94.0961 50.5919C94.4083 50.5054 94.7311 50.6938 94.8152 51.0088C95.1758 52.3596 95.4618 53.7455 95.6647 55.1286C95.7122 55.4515 95.4905 55.752 95.1702 55.8004C95.1409 55.8044 95.1121 55.8063 95.0836 55.8063ZM26.4276 49.4522C26.3645 49.4522 26.2998 49.4417 26.2367 49.4199C25.9301 49.3137 25.7672 48.9766 25.8727 48.6677C26.3227 47.3478 26.8558 46.0372 27.4577 44.7735C27.5974 44.4795 27.9472 44.3525 28.2406 44.4959C28.5329 44.6373 28.6561 44.9906 28.5157 45.2857C27.9338 46.5077 27.4181 47.7752 26.9824 49.0527C26.8987 49.2971 26.6712 49.4522 26.4276 49.4522ZM92.9514 47.8288C92.7186 47.8288 92.498 47.6878 92.4064 47.4557C91.9099 46.2015 91.3338 44.9628 90.6948 43.7726C90.5406 43.4851 90.6466 43.1259 90.932 42.9707C91.2152 42.8145 91.5728 42.9216 91.7275 43.2087C92.3879 44.4392 92.9834 45.7207 93.4964 47.0172C93.6168 47.3208 93.47 47.6652 93.1692 47.786C93.0976 47.815 93.0242 47.8288 92.9514 47.8288ZM29.9756 41.9997C29.8684 41.9997 29.76 41.9703 29.6626 41.9084C29.3886 41.7339 29.3066 41.3682 29.4797 41.092C30.2214 39.9091 31.0393 38.7584 31.91 37.6706C32.1146 37.4165 32.4836 37.377 32.7354 37.5824C32.9875 37.787 33.0271 38.1599 32.8236 38.4145C31.9805 39.4664 31.1896 40.58 30.4724 41.7238C30.3608 41.9027 30.1704 41.9997 29.9756 41.9997ZM89.0526 40.5639C88.8674 40.5639 88.6858 40.4761 88.5718 40.3118C87.8002 39.2042 86.9576 38.1305 86.0664 37.1204C85.8508 36.8763 85.8726 36.5022 86.1145 36.2855C86.3558 36.068 86.7278 36.089 86.9434 36.3339C87.8644 37.3777 88.7357 38.487 89.5324 39.6328C89.7187 39.8994 89.6545 40.2692 89.3891 40.4563C89.2865 40.5297 89.1689 40.5639 89.0526 40.5639ZM35.1248 35.5678C34.9732 35.5678 34.8211 35.5082 34.7066 35.3906C34.479 35.1574 34.4824 34.7833 34.7135 34.5537C35.7038 33.5734 36.7602 32.6411 37.8533 31.7832C38.1089 31.5822 38.4774 31.6282 38.6768 31.8863C38.8758 32.1445 38.8298 32.5162 38.5744 32.7168C37.5168 33.5469 36.4943 34.4489 35.5366 35.3983C35.4218 35.5114 35.2734 35.5678 35.1248 35.5678ZM83.6046 34.3901C83.4653 34.3901 83.326 34.3406 83.2138 34.24C82.2113 33.3378 81.1474 32.486 80.0509 31.7074C79.7861 31.5198 79.7225 31.1508 79.9093 30.8838C80.0957 30.6164 80.4613 30.552 80.7272 30.7405C81.8598 31.5448 82.9592 32.4252 83.9954 33.3567C84.2374 33.5746 84.2586 33.9484 84.0425 34.1924C83.9267 34.3237 83.7656 34.3901 83.6046 34.3901ZM41.5933 30.4928C41.395 30.4928 41.2018 30.3925 41.0911 30.208C40.9226 29.9297 41.011 29.5649 41.2877 29.3957C42.4741 28.6691 43.7135 28.0062 44.972 27.4234C45.2674 27.2877 45.6152 27.419 45.7505 27.715C45.8857 28.0119 45.7562 28.3635 45.4616 28.4996C44.2442 29.0623 43.0445 29.7042 41.8976 30.4071C41.8024 30.4654 41.697 30.4928 41.5933 30.4928ZM76.8996 29.6325C76.805 29.6325 76.7093 29.6095 76.6199 29.5604C75.4392 28.914 74.2097 28.3312 72.9653 27.8285C72.6643 27.7066 72.5182 27.3619 72.6391 27.059C72.759 26.7549 73.1006 26.6083 73.4022 26.7299C74.6888 27.2498 75.9595 27.8527 77.1805 28.5205C77.4654 28.6764 77.5708 29.0356 77.4161 29.3233C77.3094 29.5206 77.1077 29.6325 76.8996 29.6325ZM49.0417 27.0512C48.794 27.0512 48.5635 26.8918 48.4834 26.6413C48.3836 26.3308 48.5521 25.9965 48.8605 25.8962C50.1793 25.4653 51.5383 25.108 52.899 24.8345C53.2154 24.7717 53.5256 24.9796 53.5892 25.2998C53.6527 25.6199 53.4466 25.9313 53.1283 25.9953C51.8123 26.2599 50.498 26.6051 49.2227 27.022C49.1626 27.0417 49.1012 27.0512 49.0417 27.0512ZM69.2896 26.5567C69.2386 26.5567 69.187 26.5503 69.1354 26.5358C67.8428 26.1829 66.5131 25.9027 65.1845 25.7025C64.8635 25.6542 64.6428 25.3529 64.6904 25.0295C64.7386 24.7065 65.0372 24.485 65.3576 24.5317C66.7315 24.7387 68.1059 25.0287 69.4426 25.394C69.7556 25.4793 69.9401 25.8043 69.8552 26.1201C69.7848 26.3832 69.5482 26.5567 69.2896 26.5567ZM57.0781 25.4338C56.7755 25.4338 56.5187 25.1995 56.4935 24.8902C56.4677 24.5643 56.7078 24.2788 57.0312 24.2526C58.0067 24.1724 58.9981 24.1318 59.9784 24.1318C60.4025 24.1229 60.7962 24.1378 61.2026 24.1523C61.5265 24.1636 61.7804 24.4367 61.7694 24.7637C61.7592 25.0903 61.4899 25.3485 61.1638 25.3347C60.7699 25.3219 60.3934 25.3271 59.9784 25.315C59.0297 25.315 58.0703 25.3546 57.1262 25.4319C57.1103 25.4331 57.0941 25.4338 57.0781 25.4338Z" fill="#FFB534"/>
</svg>
