<svg width="65" height="52" fill="none" xmlns="http://www.w3.org/2000/svg"><path fill-rule="evenodd" clip-rule="evenodd" d="M3.5 1.734C3.5.776 2.716 0 1.75 0 .783 0 0 .776 0 1.734s.783 1.734 1.75 1.734c.966 0 1.75-.776 1.75-1.734zm12.313 0C15.813.776 15.021 0 14.046 0S12.28.776 12.28 1.734s.79 1.734 1.766 1.734c.975 0 1.765-.776 1.765-1.734zM26.343 0c.967 0 1.75.776 1.75 1.734s-.783 1.734-1.75 1.734c-.966 0-1.75-.776-1.75-1.734S25.378 0 26.344 0zm14.063 1.734c0-.958-.783-1.734-1.75-1.734-.966 0-1.75.776-1.75 1.734s.784 1.734 1.75 1.734c.967 0 1.75-.776 1.75-1.734zM50.953 0c.975 0 1.766.776 1.766 1.734s-.79 1.734-1.766 1.734c-.975 0-1.766-.776-1.766-1.734S49.977 0 50.953 0zM65 1.734C65 .776 64.216 0 63.25 0c-.967 0-1.75.776-1.75 1.734s.783 1.734 1.75 1.734c.966 0 1.75-.776 1.75-1.734zM1.75 12.124c.966 0 1.75.777 1.75 1.735 0 .958-.784 1.735-1.75 1.735-.967 0-1.75-.777-1.75-1.735 0-.958.783-1.734 1.75-1.734zm14.063 1.735c0-.958-.791-1.734-1.766-1.734s-1.766.776-1.766 1.734.79 1.735 1.766 1.735c.975 0 1.765-.777 1.765-1.735zm10.53-1.734c.967 0 1.75.776 1.75 1.734s-.783 1.735-1.75 1.735c-.966 0-1.75-.777-1.75-1.735 0-.958.784-1.734 1.75-1.734zm14.063 1.734c0-.958-.783-1.734-1.75-1.734-.966 0-1.75.776-1.75 1.734s.784 1.735 1.75 1.735c.967 0 1.75-.777 1.75-1.735zm10.547-1.734c.975 0 1.766.776 1.766 1.734s-.79 1.735-1.766 1.735c-.975 0-1.766-.777-1.766-1.735 0-.958.79-1.734 1.766-1.734zM65 13.859c0-.958-.784-1.734-1.75-1.734-.967 0-1.75.776-1.75 1.734s.783 1.735 1.75 1.735c.966 0 1.75-.777 1.75-1.735zM1.75 24.281c.966 0 1.75.77 1.75 1.719 0 .95-.784 1.719-1.75 1.719-.967 0-1.75-.77-1.75-1.72 0-.948.783-1.718 1.75-1.718zM15.813 26c0-.95-.791-1.72-1.766-1.72s-1.766.77-1.766 1.72.79 1.719 1.766 1.719c.975 0 1.765-.77 1.765-1.72zm10.53-1.72c.967 0 1.75.77 1.75 1.72s-.783 1.719-1.75 1.719c-.966 0-1.75-.77-1.75-1.72 0-.948.784-1.718 1.75-1.718zM40.407 26c0-.95-.783-1.72-1.75-1.72-.966 0-1.75.77-1.75 1.72s.784 1.719 1.75 1.719c.967 0 1.75-.77 1.75-1.72zm10.547-1.72c.975 0 1.766.77 1.766 1.72s-.79 1.719-1.766 1.719c-.975 0-1.766-.77-1.766-1.72 0-.948.79-1.718 1.766-1.718zM65 26c0-.95-.784-1.72-1.75-1.72-.967 0-1.75.77-1.75 1.72s.783 1.719 1.75 1.719c.966 0 1.75-.77 1.75-1.72zM1.75 36.406c.966 0 1.75.776 1.75 1.734s-.784 1.735-1.75 1.735c-.967 0-1.75-.777-1.75-1.735 0-.958.783-1.734 1.75-1.734zm14.063 1.734c0-.958-.791-1.734-1.766-1.734s-1.766.776-1.766 1.734.79 1.735 1.766 1.735c.975 0 1.765-.777 1.765-1.735zm10.53-1.734c.967 0 1.75.776 1.75 1.734s-.783 1.735-1.75 1.735c-.966 0-1.75-.777-1.75-1.735 0-.958.784-1.734 1.75-1.734zm14.063 1.734c0-.958-.783-1.734-1.75-1.734-.966 0-1.75.776-1.75 1.734s.784 1.735 1.75 1.735c.967 0 1.75-.777 1.75-1.735zm10.547-1.734c.975 0 1.766.776 1.766 1.734s-.79 1.735-1.766 1.735c-.975 0-1.766-.777-1.766-1.735 0-.958.79-1.734 1.766-1.734zM65 38.14c0-.958-.784-1.734-1.75-1.734-.967 0-1.75.776-1.75 1.734s.783 1.735 1.75 1.735c.966 0 1.75-.777 1.75-1.735zM1.75 48.531c.966 0 1.75.777 1.75 1.734C3.5 51.223 2.716 52 1.75 52 .783 52 0 51.223 0 50.265c0-.957.783-1.734 1.75-1.734zm14.063 1.734c0-.957-.791-1.734-1.766-1.734s-1.766.777-1.766 1.734c0 .958.79 1.735 1.766 1.735.975 0 1.765-.777 1.765-1.735zm10.53-1.734c.967 0 1.75.777 1.75 1.734 0 .958-.783 1.735-1.75 1.735-.966 0-1.75-.777-1.75-1.735 0-.957.784-1.734 1.75-1.734zm14.063 1.734c0-.957-.783-1.734-1.75-1.734-.966 0-1.75.777-1.75 1.734 0 .958.784 1.735 1.75 1.735.967 0 1.75-.777 1.75-1.735zm10.547-1.734c.975 0 1.766.777 1.766 1.734 0 .958-.79 1.735-1.766 1.735-.975 0-1.766-.777-1.766-1.735 0-.957.79-1.734 1.766-1.734zM65 50.265c0-.957-.784-1.734-1.75-1.734-.967 0-1.75.777-1.75 1.734 0 .958.783 1.735 1.75 1.735.966 0 1.75-.777 1.75-1.735z" fill="#FE3E57"/></svg>